%TF.GenerationSoftware,KiCad,Pcbnew,(5.1.7-0-10_14)*%
%TF.CreationDate,2021-04-06T14:52:43+02:00*%
%TF.ProjectId,Octogone_Sans_Regle,4f63746f-676f-46e6-955f-53616e735f52,rev?*%
%TF.SameCoordinates,Original*%
%TF.FileFunction,Soldermask,Top*%
%TF.FilePolarity,Negative*%
%FSLAX46Y46*%
G04 Gerber Fmt 4.6, Leading zero omitted, Abs format (unit mm)*
G04 Created by KiCad (PCBNEW (5.1.7-0-10_14)) date 2021-04-06 14:52:43*
%MOMM*%
%LPD*%
G01*
G04 APERTURE LIST*
%ADD10C,0.100000*%
%ADD11R,1.250000X1.250000*%
%ADD12C,0.650000*%
%ADD13R,2.000000X2.000000*%
%ADD14C,2.000000*%
%ADD15R,3.200000X2.000000*%
%ADD16R,2.000000X3.200000*%
%ADD17R,3.500000X3.500000*%
G04 APERTURE END LIST*
D10*
%TO.C,J2*%
G36*
X170665475Y-110348650D02*
G01*
X171903310Y-110174683D01*
X172077277Y-111412518D01*
X170839442Y-111586485D01*
X170665475Y-110348650D01*
G37*
G36*
X170311975Y-107833370D02*
G01*
X171549810Y-107659403D01*
X171723777Y-108897238D01*
X170485942Y-109071205D01*
X170311975Y-107833370D01*
G37*
G36*
X169958475Y-105318089D02*
G01*
X171196310Y-105144122D01*
X171370277Y-106381957D01*
X170132442Y-106555924D01*
X169958475Y-105318089D01*
G37*
G36*
X171372474Y-115379212D02*
G01*
X172610309Y-115205245D01*
X172784276Y-116443080D01*
X171546441Y-116617047D01*
X171372474Y-115379212D01*
G37*
G36*
X171725974Y-117894493D02*
G01*
X172963809Y-117720526D01*
X173137776Y-118958361D01*
X171899941Y-119132328D01*
X171725974Y-117894493D01*
G37*
G36*
X171018974Y-112863931D02*
G01*
X172256809Y-112689964D01*
X172430776Y-113927799D01*
X171192941Y-114101766D01*
X171018974Y-112863931D01*
G37*
%TD*%
%TO.C,P3*%
G36*
X121232323Y-159462552D02*
G01*
X120497592Y-160473823D01*
X119486321Y-159739092D01*
X120221052Y-158727821D01*
X121232323Y-159462552D01*
G37*
G36*
X119177420Y-157969577D02*
G01*
X118442689Y-158980848D01*
X117431418Y-158246117D01*
X118166149Y-157234846D01*
X119177420Y-157969577D01*
G37*
G36*
X117122517Y-156476603D02*
G01*
X116387786Y-157487874D01*
X115376515Y-156753143D01*
X116111246Y-155741872D01*
X117122517Y-156476603D01*
G37*
G36*
X115067614Y-154983628D02*
G01*
X114332883Y-155994899D01*
X113321612Y-155260168D01*
X114056343Y-154248897D01*
X115067614Y-154983628D01*
G37*
G36*
X113012710Y-153490654D02*
G01*
X112277979Y-154501925D01*
X111266708Y-153767194D01*
X112001439Y-152755923D01*
X113012710Y-153490654D01*
G37*
G36*
X110957807Y-151997679D02*
G01*
X110223076Y-153008950D01*
X109211805Y-152274219D01*
X109946536Y-151262948D01*
X110957807Y-151997679D01*
G37*
G36*
X108902904Y-150504705D02*
G01*
X108168173Y-151515976D01*
X107156902Y-150781245D01*
X107891633Y-149769974D01*
X108902904Y-150504705D01*
G37*
G36*
X106848001Y-149011730D02*
G01*
X106113270Y-150023001D01*
X105101999Y-149288270D01*
X105836730Y-148276999D01*
X106848001Y-149011730D01*
G37*
G36*
X104793098Y-147518756D02*
G01*
X104058367Y-148530027D01*
X103047096Y-147795296D01*
X103781827Y-146784025D01*
X104793098Y-147518756D01*
G37*
G36*
X102738195Y-146025781D02*
G01*
X102003464Y-147037052D01*
X100992193Y-146302321D01*
X101726924Y-145291050D01*
X102738195Y-146025781D01*
G37*
G36*
X100683291Y-144532807D02*
G01*
X99948560Y-145544078D01*
X98937289Y-144809347D01*
X99672020Y-143798076D01*
X100683291Y-144532807D01*
G37*
G36*
X98628388Y-143039832D02*
G01*
X97893657Y-144051103D01*
X96882386Y-143316372D01*
X97617117Y-142305101D01*
X98628388Y-143039832D01*
G37*
G36*
X96573485Y-141546858D02*
G01*
X95838754Y-142558129D01*
X94827483Y-141823398D01*
X95562214Y-140812127D01*
X96573485Y-141546858D01*
G37*
G36*
X94518582Y-140053883D02*
G01*
X93783851Y-141065154D01*
X92772580Y-140330423D01*
X93507311Y-139319152D01*
X94518582Y-140053883D01*
G37*
G36*
X92463679Y-138560908D02*
G01*
X91728948Y-139572179D01*
X90717677Y-138837448D01*
X91452408Y-137826177D01*
X92463679Y-138560908D01*
G37*
G36*
X90408776Y-137067934D02*
G01*
X89674045Y-138079205D01*
X88662774Y-137344474D01*
X89397505Y-136333203D01*
X90408776Y-137067934D01*
G37*
G36*
X88353872Y-135574959D02*
G01*
X87619141Y-136586230D01*
X86607870Y-135851499D01*
X87342601Y-134840228D01*
X88353872Y-135574959D01*
G37*
%TD*%
%TO.C,P1*%
G36*
X160332745Y-56576674D02*
G01*
X161521566Y-56190403D01*
X161907837Y-57379224D01*
X160719016Y-57765495D01*
X160332745Y-56576674D01*
G37*
G36*
X161117648Y-58992358D02*
G01*
X162306469Y-58606087D01*
X162692740Y-59794908D01*
X161503919Y-60181179D01*
X161117648Y-58992358D01*
G37*
G36*
X161902551Y-61408041D02*
G01*
X163091372Y-61021770D01*
X163477643Y-62210591D01*
X162288822Y-62596862D01*
X161902551Y-61408041D01*
G37*
G36*
X162687454Y-63823725D02*
G01*
X163876275Y-63437454D01*
X164262546Y-64626275D01*
X163073725Y-65012546D01*
X162687454Y-63823725D01*
G37*
G36*
X163472358Y-66239408D02*
G01*
X164661179Y-65853137D01*
X165047450Y-67041958D01*
X163858629Y-67428229D01*
X163472358Y-66239408D01*
G37*
G36*
X164257261Y-68655092D02*
G01*
X165446082Y-68268821D01*
X165832353Y-69457642D01*
X164643532Y-69843913D01*
X164257261Y-68655092D01*
G37*
G36*
X165042164Y-71070775D02*
G01*
X166230985Y-70684504D01*
X166617256Y-71873325D01*
X165428435Y-72259596D01*
X165042164Y-71070775D01*
G37*
G36*
X165827067Y-73486459D02*
G01*
X167015888Y-73100188D01*
X167402159Y-74289009D01*
X166213338Y-74675280D01*
X165827067Y-73486459D01*
G37*
G36*
X166611970Y-75902142D02*
G01*
X167800791Y-75515871D01*
X168187062Y-76704692D01*
X166998241Y-77090963D01*
X166611970Y-75902142D01*
G37*
G36*
X167396873Y-78317826D02*
G01*
X168585694Y-77931555D01*
X168971965Y-79120376D01*
X167783144Y-79506647D01*
X167396873Y-78317826D01*
G37*
G36*
X168181777Y-80733510D02*
G01*
X169370598Y-80347239D01*
X169756869Y-81536060D01*
X168568048Y-81922331D01*
X168181777Y-80733510D01*
G37*
G36*
X168966680Y-83149193D02*
G01*
X170155501Y-82762922D01*
X170541772Y-83951743D01*
X169352951Y-84338014D01*
X168966680Y-83149193D01*
G37*
G36*
X169751583Y-85564877D02*
G01*
X170940404Y-85178606D01*
X171326675Y-86367427D01*
X170137854Y-86753698D01*
X169751583Y-85564877D01*
G37*
G36*
X170536486Y-87980560D02*
G01*
X171725307Y-87594289D01*
X172111578Y-88783110D01*
X170922757Y-89169381D01*
X170536486Y-87980560D01*
G37*
G36*
X171321389Y-90396244D02*
G01*
X172510210Y-90009973D01*
X172896481Y-91198794D01*
X171707660Y-91585065D01*
X171321389Y-90396244D01*
G37*
G36*
X172106292Y-92811927D02*
G01*
X173295113Y-92425656D01*
X173681384Y-93614477D01*
X172492563Y-94000748D01*
X172106292Y-92811927D01*
G37*
G36*
X172891196Y-95227611D02*
G01*
X174080017Y-94841340D01*
X174466288Y-96030161D01*
X173277467Y-96416432D01*
X172891196Y-95227611D01*
G37*
%TD*%
D11*
%TO.C,P5*%
X93040000Y-52600000D03*
X95580000Y-52600000D03*
X98120000Y-52600000D03*
X100660000Y-52600000D03*
X103200000Y-52600000D03*
X105740000Y-52600000D03*
X108280000Y-52600000D03*
X110820000Y-52600000D03*
X113360000Y-52600000D03*
X115900000Y-52600000D03*
X118440000Y-52600000D03*
X120980000Y-52600000D03*
X123520000Y-52600000D03*
X126060000Y-52600000D03*
X128600000Y-52600000D03*
X131140000Y-52600000D03*
X133680000Y-52600000D03*
%TD*%
D10*
%TO.C,P4*%
G36*
X178122498Y-122267922D02*
G01*
X178857229Y-123279193D01*
X177845958Y-124013924D01*
X177111227Y-123002653D01*
X178122498Y-122267922D01*
G37*
G36*
X176067595Y-123760897D02*
G01*
X176802326Y-124772168D01*
X175791055Y-125506899D01*
X175056324Y-124495628D01*
X176067595Y-123760897D01*
G37*
G36*
X174012692Y-125253871D02*
G01*
X174747423Y-126265142D01*
X173736152Y-126999873D01*
X173001421Y-125988602D01*
X174012692Y-125253871D01*
G37*
G36*
X171957789Y-126746846D02*
G01*
X172692520Y-127758117D01*
X171681249Y-128492848D01*
X170946518Y-127481577D01*
X171957789Y-126746846D01*
G37*
G36*
X169902885Y-128239820D02*
G01*
X170637616Y-129251091D01*
X169626345Y-129985822D01*
X168891614Y-128974551D01*
X169902885Y-128239820D01*
G37*
G36*
X167847982Y-129732795D02*
G01*
X168582713Y-130744066D01*
X167571442Y-131478797D01*
X166836711Y-130467526D01*
X167847982Y-129732795D01*
G37*
G36*
X165793079Y-131225769D02*
G01*
X166527810Y-132237040D01*
X165516539Y-132971771D01*
X164781808Y-131960500D01*
X165793079Y-131225769D01*
G37*
G36*
X163738176Y-132718744D02*
G01*
X164472907Y-133730015D01*
X163461636Y-134464746D01*
X162726905Y-133453475D01*
X163738176Y-132718744D01*
G37*
G36*
X161683273Y-134211718D02*
G01*
X162418004Y-135222989D01*
X161406733Y-135957720D01*
X160672002Y-134946449D01*
X161683273Y-134211718D01*
G37*
G36*
X159628370Y-135704693D02*
G01*
X160363101Y-136715964D01*
X159351830Y-137450695D01*
X158617099Y-136439424D01*
X159628370Y-135704693D01*
G37*
G36*
X157573466Y-137197667D02*
G01*
X158308197Y-138208938D01*
X157296926Y-138943669D01*
X156562195Y-137932398D01*
X157573466Y-137197667D01*
G37*
G36*
X155518563Y-138690642D02*
G01*
X156253294Y-139701913D01*
X155242023Y-140436644D01*
X154507292Y-139425373D01*
X155518563Y-138690642D01*
G37*
G36*
X153463660Y-140183616D02*
G01*
X154198391Y-141194887D01*
X153187120Y-141929618D01*
X152452389Y-140918347D01*
X153463660Y-140183616D01*
G37*
G36*
X151408757Y-141676591D02*
G01*
X152143488Y-142687862D01*
X151132217Y-143422593D01*
X150397486Y-142411322D01*
X151408757Y-141676591D01*
G37*
G36*
X149353854Y-143169566D02*
G01*
X150088585Y-144180837D01*
X149077314Y-144915568D01*
X148342583Y-143904297D01*
X149353854Y-143169566D01*
G37*
G36*
X147298951Y-144662540D02*
G01*
X148033682Y-145673811D01*
X147022411Y-146408542D01*
X146287680Y-145397271D01*
X147298951Y-144662540D01*
G37*
G36*
X145244047Y-146155515D02*
G01*
X145978778Y-147166786D01*
X144967507Y-147901517D01*
X144232776Y-146890246D01*
X145244047Y-146155515D01*
G37*
%TD*%
%TO.C,P7*%
G36*
G01*
X71218716Y-127111424D02*
X70866044Y-127596834D01*
G75*
G02*
X70167643Y-127707449I-404508J293893D01*
G01*
X70167643Y-127707449D01*
G75*
G02*
X70057028Y-127009048I293893J404508D01*
G01*
X70409700Y-126523638D01*
G75*
G02*
X71108101Y-126413023I404508J-293893D01*
G01*
X71108101Y-126413023D01*
G75*
G02*
X71218716Y-127111424I-293893J-404508D01*
G01*
G37*
D12*
X73940183Y-124947856D03*
G36*
G01*
X78208623Y-132189888D02*
X77855951Y-132675298D01*
G75*
G02*
X77157550Y-132785913I-404508J293893D01*
G01*
X77157550Y-132785913D01*
G75*
G02*
X77046935Y-132087512I293893J404508D01*
G01*
X77399607Y-131602102D01*
G75*
G02*
X78098008Y-131491487I404508J-293893D01*
G01*
X78098008Y-131491487D01*
G75*
G02*
X78208623Y-132189888I-293893J-404508D01*
G01*
G37*
X78616301Y-128345255D03*
G36*
G01*
X80812511Y-128605943D02*
X80165947Y-129495861D01*
G75*
G02*
X79467546Y-129606476I-404508J293893D01*
G01*
X79467546Y-129606476D01*
G75*
G02*
X79356931Y-128908075I293893J404508D01*
G01*
X80003495Y-128018157D01*
G75*
G02*
X80701896Y-127907542I404508J-293893D01*
G01*
X80701896Y-127907542D01*
G75*
G02*
X80812511Y-128605943I-293893J-404508D01*
G01*
G37*
G36*
G01*
X73822604Y-123527479D02*
X73176040Y-124417397D01*
G75*
G02*
X72477639Y-124528012I-404508J293893D01*
G01*
X72477639Y-124528012D01*
G75*
G02*
X72367024Y-123829611I293893J404508D01*
G01*
X73013588Y-122939693D01*
G75*
G02*
X73711989Y-122829078I404508J-293893D01*
G01*
X73711989Y-122829078D01*
G75*
G02*
X73822604Y-123527479I-293893J-404508D01*
G01*
G37*
%TD*%
D10*
%TO.C,P2*%
G36*
X68244194Y-116755615D02*
G01*
X67055373Y-116369344D01*
X67441644Y-115180523D01*
X68630465Y-115566794D01*
X68244194Y-116755615D01*
G37*
G36*
X69029097Y-114339931D02*
G01*
X67840276Y-113953660D01*
X68226547Y-112764839D01*
X69415368Y-113151110D01*
X69029097Y-114339931D01*
G37*
G36*
X69814000Y-111924248D02*
G01*
X68625179Y-111537977D01*
X69011450Y-110349156D01*
X70200271Y-110735427D01*
X69814000Y-111924248D01*
G37*
G36*
X70598903Y-109508564D02*
G01*
X69410082Y-109122293D01*
X69796353Y-107933472D01*
X70985174Y-108319743D01*
X70598903Y-109508564D01*
G37*
G36*
X71383807Y-107092881D02*
G01*
X70194986Y-106706610D01*
X70581257Y-105517789D01*
X71770078Y-105904060D01*
X71383807Y-107092881D01*
G37*
G36*
X72168710Y-104677197D02*
G01*
X70979889Y-104290926D01*
X71366160Y-103102105D01*
X72554981Y-103488376D01*
X72168710Y-104677197D01*
G37*
G36*
X72953613Y-102261514D02*
G01*
X71764792Y-101875243D01*
X72151063Y-100686422D01*
X73339884Y-101072693D01*
X72953613Y-102261514D01*
G37*
G36*
X73738516Y-99845830D02*
G01*
X72549695Y-99459559D01*
X72935966Y-98270738D01*
X74124787Y-98657009D01*
X73738516Y-99845830D01*
G37*
G36*
X74523419Y-97430147D02*
G01*
X73334598Y-97043876D01*
X73720869Y-95855055D01*
X74909690Y-96241326D01*
X74523419Y-97430147D01*
G37*
G36*
X75308322Y-95014463D02*
G01*
X74119501Y-94628192D01*
X74505772Y-93439371D01*
X75694593Y-93825642D01*
X75308322Y-95014463D01*
G37*
G36*
X76093226Y-92598779D02*
G01*
X74904405Y-92212508D01*
X75290676Y-91023687D01*
X76479497Y-91409958D01*
X76093226Y-92598779D01*
G37*
G36*
X76878129Y-90183096D02*
G01*
X75689308Y-89796825D01*
X76075579Y-88608004D01*
X77264400Y-88994275D01*
X76878129Y-90183096D01*
G37*
G36*
X77663032Y-87767412D02*
G01*
X76474211Y-87381141D01*
X76860482Y-86192320D01*
X78049303Y-86578591D01*
X77663032Y-87767412D01*
G37*
G36*
X78447935Y-85351729D02*
G01*
X77259114Y-84965458D01*
X77645385Y-83776637D01*
X78834206Y-84162908D01*
X78447935Y-85351729D01*
G37*
G36*
X79232838Y-82936045D02*
G01*
X78044017Y-82549774D01*
X78430288Y-81360953D01*
X79619109Y-81747224D01*
X79232838Y-82936045D01*
G37*
G36*
X80017741Y-80520362D02*
G01*
X78828920Y-80134091D01*
X79215191Y-78945270D01*
X80404012Y-79331541D01*
X80017741Y-80520362D01*
G37*
G36*
X80802645Y-78104678D02*
G01*
X79613824Y-77718407D01*
X80000095Y-76529586D01*
X81188916Y-76915857D01*
X80802645Y-78104678D01*
G37*
%TD*%
%TO.C,R11*%
G36*
G01*
X139775000Y-62375000D02*
X139775000Y-61825000D01*
G75*
G02*
X139975000Y-61625000I200000J0D01*
G01*
X140375000Y-61625000D01*
G75*
G02*
X140575000Y-61825000I0J-200000D01*
G01*
X140575000Y-62375000D01*
G75*
G02*
X140375000Y-62575000I-200000J0D01*
G01*
X139975000Y-62575000D01*
G75*
G02*
X139775000Y-62375000I0J200000D01*
G01*
G37*
G36*
G01*
X141425000Y-62375000D02*
X141425000Y-61825000D01*
G75*
G02*
X141625000Y-61625000I200000J0D01*
G01*
X142025000Y-61625000D01*
G75*
G02*
X142225000Y-61825000I0J-200000D01*
G01*
X142225000Y-62375000D01*
G75*
G02*
X142025000Y-62575000I-200000J0D01*
G01*
X141625000Y-62575000D01*
G75*
G02*
X141425000Y-62375000I0J200000D01*
G01*
G37*
%TD*%
D13*
%TO.C,BZ1*%
X125400000Y-74550000D03*
D14*
X117800000Y-74550000D03*
%TD*%
D13*
%TO.C,SW1*%
X144500000Y-61850000D03*
X148500000Y-61850000D03*
%TD*%
D15*
%TO.C,SW2*%
X125650000Y-127350000D03*
X125650000Y-136950000D03*
D16*
X120850000Y-131850000D03*
X130450000Y-131850000D03*
%TD*%
D17*
%TO.C,J1*%
X99250000Y-63700000D03*
G36*
G01*
X91750000Y-64700000D02*
X91750000Y-62700000D01*
G75*
G02*
X92500000Y-61950000I750000J0D01*
G01*
X94000000Y-61950000D01*
G75*
G02*
X94750000Y-62700000I0J-750000D01*
G01*
X94750000Y-64700000D01*
G75*
G02*
X94000000Y-65450000I-750000J0D01*
G01*
X92500000Y-65450000D01*
G75*
G02*
X91750000Y-64700000I0J750000D01*
G01*
G37*
G36*
G01*
X94500000Y-69275000D02*
X94500000Y-67525000D01*
G75*
G02*
X95375000Y-66650000I875000J0D01*
G01*
X97125000Y-66650000D01*
G75*
G02*
X98000000Y-67525000I0J-875000D01*
G01*
X98000000Y-69275000D01*
G75*
G02*
X97125000Y-70150000I-875000J0D01*
G01*
X95375000Y-70150000D01*
G75*
G02*
X94500000Y-69275000I0J875000D01*
G01*
G37*
%TD*%
D11*
%TO.C,U2*%
X162300000Y-102740000D03*
X162300000Y-107820000D03*
X162300000Y-115440000D03*
X162300000Y-90040000D03*
X162300000Y-112900000D03*
X162300000Y-92580000D03*
X162300000Y-110360000D03*
X162300000Y-95120000D03*
X162300000Y-100200000D03*
X162300000Y-105280000D03*
X162300000Y-87500000D03*
X162300000Y-120520000D03*
X162300000Y-117980000D03*
X162300000Y-97660000D03*
%TD*%
M02*
