%TF.GenerationSoftware,KiCad,Pcbnew,(5.1.7-0-10_14)*%
%TF.CreationDate,2021-04-06T14:52:43+02:00*%
%TF.ProjectId,Octogone_Sans_Regle,4f63746f-676f-46e6-955f-53616e735f52,rev?*%
%TF.SameCoordinates,Original*%
%TF.FileFunction,Legend,Top*%
%TF.FilePolarity,Positive*%
%FSLAX46Y46*%
G04 Gerber Fmt 4.6, Leading zero omitted, Abs format (unit mm)*
G04 Created by KiCad (PCBNEW (5.1.7-0-10_14)) date 2021-04-06 14:52:43*
%MOMM*%
%LPD*%
G01*
G04 APERTURE LIST*
%ADD10C,0.120000*%
%ADD11C,0.150000*%
G04 APERTURE END LIST*
D10*
%TO.C,J2*%
X171515471Y-104720581D02*
X171654644Y-105710850D01*
X170426176Y-104873672D02*
X171515471Y-104720581D01*
%TO.C,P3*%
X120580554Y-160997624D02*
X119771537Y-160409839D01*
X121227118Y-160107706D02*
X120580554Y-160997624D01*
%TO.C,P1*%
X161762331Y-55717875D02*
X162071348Y-56668932D01*
X160716168Y-56057794D02*
X161762331Y-55717875D01*
%TO.C,P5*%
X92040000Y-51600000D02*
X93040000Y-51600000D01*
X92040000Y-52700000D02*
X92040000Y-51600000D01*
%TO.C,P4*%
X179381030Y-123362155D02*
X178572013Y-123949940D01*
X178734466Y-122472236D02*
X179381030Y-123362155D01*
%TO.C,P2*%
X66582845Y-116610109D02*
X66891862Y-115659052D01*
X67629008Y-116950027D02*
X66582845Y-116610109D01*
%TO.C,R11*%
X140762742Y-61577500D02*
X141237258Y-61577500D01*
X140762742Y-62622500D02*
X141237258Y-62622500D01*
%TO.C,BZ1*%
X127700000Y-74550000D02*
G75*
G03*
X127700000Y-74550000I-6100000J0D01*
G01*
%TO.C,SW1*%
X148700000Y-60650000D02*
X149700000Y-60650000D01*
X149700000Y-60650000D02*
X149700000Y-61650000D01*
%TO.C,SW2*%
X119150000Y-131850000D02*
X119150000Y-125850000D01*
X119150000Y-125850000D02*
X125650000Y-125850000D01*
X120650000Y-129850000D02*
X120650000Y-128850000D01*
X120650000Y-128850000D02*
X120650000Y-129350000D01*
X120650000Y-129350000D02*
X120150000Y-129350000D01*
X120150000Y-129350000D02*
X121150000Y-129350000D01*
X130150000Y-129350000D02*
X131150000Y-129350000D01*
%TO.C,J1*%
X100350000Y-59950000D02*
X100350000Y-58900000D01*
X99300000Y-58900000D02*
X100350000Y-58900000D01*
X94250000Y-68300000D02*
X85450000Y-68300000D01*
X85450000Y-68300000D02*
X85450000Y-59100000D01*
X100150000Y-65600000D02*
X100150000Y-68300000D01*
X100150000Y-68300000D02*
X98250000Y-68300000D01*
X85450000Y-59100000D02*
X100150000Y-59100000D01*
X100150000Y-59100000D02*
X100150000Y-61700000D01*
%TO.C,U2*%
X162200000Y-86500000D02*
X163300000Y-86500000D01*
X163300000Y-86500000D02*
X163300000Y-87500000D01*
%TO.C,J2*%
D11*
X175786166Y-111054523D02*
X175078832Y-111153933D01*
X174930738Y-111126659D01*
X174823172Y-111045602D01*
X174756134Y-110910763D01*
X174742880Y-110816451D01*
X175751500Y-111492178D02*
X175805283Y-111532707D01*
X175865694Y-111620391D01*
X175898830Y-111856169D01*
X175864929Y-111957107D01*
X175824401Y-112010890D01*
X175736717Y-112071301D01*
X175642405Y-112084555D01*
X175494311Y-112057281D01*
X174848916Y-111570941D01*
X174935071Y-112183964D01*
X167749599Y-111695905D02*
X167853265Y-111714997D01*
X168018309Y-111691801D01*
X168079688Y-111649514D01*
X168108058Y-111611866D01*
X168131789Y-111541209D01*
X168122510Y-111475191D01*
X168080223Y-111413813D01*
X168042575Y-111385443D01*
X167971918Y-111361712D01*
X167835243Y-111347259D01*
X167764586Y-111323529D01*
X167726938Y-111295159D01*
X167684651Y-111233780D01*
X167675373Y-111167762D01*
X167699104Y-111097105D01*
X167727474Y-111059457D01*
X167788852Y-111017170D01*
X167953897Y-110993975D01*
X168057563Y-111013066D01*
X168834254Y-111509806D02*
X168805885Y-111547454D01*
X168711497Y-111594380D01*
X168645479Y-111603658D01*
X168541813Y-111584567D01*
X168466517Y-111527827D01*
X168424230Y-111466448D01*
X168372665Y-111339052D01*
X168358747Y-111240025D01*
X168373200Y-111103350D01*
X168396930Y-111032693D01*
X168453670Y-110957397D01*
X168548058Y-110910471D01*
X168614076Y-110901193D01*
X168717742Y-110920284D01*
X168755390Y-110948654D01*
X169140613Y-111534072D02*
X169043192Y-110840884D01*
X169536720Y-111478403D02*
X169183971Y-111124047D01*
X169439299Y-110785215D02*
X169098861Y-111236991D01*
X166662265Y-106833244D02*
X166564844Y-106140056D01*
X166865493Y-106602716D01*
X167026969Y-106075109D01*
X167124390Y-106768296D01*
X167454480Y-106721905D02*
X167357058Y-106028718D01*
X167746921Y-106647144D02*
X167850587Y-106666236D01*
X168015631Y-106643041D01*
X168077010Y-106600753D01*
X168105380Y-106563105D01*
X168129111Y-106492448D01*
X168119833Y-106426431D01*
X168077545Y-106365052D01*
X168039897Y-106336682D01*
X167969240Y-106312951D01*
X167832566Y-106298499D01*
X167761909Y-106274768D01*
X167724261Y-106246398D01*
X167681973Y-106185019D01*
X167672695Y-106119001D01*
X167696426Y-106048345D01*
X167724796Y-106010696D01*
X167786175Y-105968409D01*
X167951219Y-105945214D01*
X168054885Y-105964305D01*
X168479362Y-105870988D02*
X168611398Y-105852432D01*
X168682055Y-105876162D01*
X168757351Y-105932902D01*
X168808916Y-106060299D01*
X168841390Y-106291361D01*
X168826938Y-106428036D01*
X168770198Y-106503332D01*
X168708819Y-106545619D01*
X168576783Y-106564176D01*
X168506126Y-106540445D01*
X168430830Y-106483705D01*
X168379265Y-106356309D01*
X168346791Y-106125246D01*
X168361244Y-105988571D01*
X168417983Y-105913275D01*
X168479362Y-105870988D01*
X167275876Y-108564696D02*
X167604359Y-109225410D01*
X167738001Y-108499748D01*
X168453313Y-109038775D02*
X168424944Y-109076423D01*
X168330556Y-109123349D01*
X168264538Y-109132627D01*
X168160872Y-109113536D01*
X168085576Y-109056796D01*
X168043289Y-108995417D01*
X167991724Y-108868021D01*
X167977806Y-108768994D01*
X167992259Y-108632319D01*
X168015990Y-108561662D01*
X168072729Y-108486366D01*
X168167117Y-108439440D01*
X168233135Y-108430162D01*
X168336801Y-108449253D01*
X168374449Y-108477623D01*
X169146501Y-108941354D02*
X169118131Y-108979002D01*
X169023744Y-109025928D01*
X168957726Y-109035206D01*
X168854060Y-109016115D01*
X168778764Y-108959375D01*
X168736477Y-108897996D01*
X168684911Y-108770600D01*
X168670994Y-108671573D01*
X168685446Y-108534898D01*
X168709177Y-108464241D01*
X168765917Y-108388945D01*
X168860305Y-108342019D01*
X168926322Y-108332740D01*
X169029988Y-108351832D01*
X169067636Y-108380202D01*
X174885291Y-115422408D02*
X175310456Y-115026046D01*
X174805763Y-114856541D02*
X175796032Y-114717368D01*
X175849050Y-115094613D01*
X175815149Y-115195551D01*
X175774620Y-115249334D01*
X175686937Y-115309744D01*
X175545470Y-115329626D01*
X175444531Y-115295725D01*
X175390748Y-115255197D01*
X175330338Y-115167513D01*
X175277320Y-114790268D01*
X175463648Y-115773909D02*
X175510039Y-116103998D01*
X175011209Y-116318365D02*
X174944937Y-115846809D01*
X175935205Y-115707636D01*
X176001478Y-116179192D01*
X175635958Y-116999955D02*
X175589567Y-116669866D01*
X175070855Y-116742766D02*
X176061123Y-116603593D01*
X176127396Y-117075149D01*
X176200296Y-117593861D02*
X175964518Y-117626997D01*
X176025693Y-117377964D02*
X175964518Y-117626997D01*
X176091966Y-117849521D01*
X175756014Y-117512039D02*
X175964518Y-117626997D01*
X175795778Y-117794973D01*
X176306333Y-118348351D02*
X176070555Y-118381487D01*
X176131730Y-118132454D02*
X176070555Y-118381487D01*
X176198002Y-118604011D01*
X175862050Y-118266529D02*
X176070555Y-118381487D01*
X175901814Y-118549463D01*
X167819008Y-114345364D02*
X167721587Y-113652176D01*
X168022236Y-114114836D01*
X168183712Y-113587229D01*
X168281133Y-114280416D01*
X168645837Y-113522281D02*
X168777873Y-113503725D01*
X168848530Y-113527456D01*
X168923826Y-113584195D01*
X168975391Y-113711592D01*
X169007865Y-113942654D01*
X168993412Y-114079329D01*
X168936673Y-114154625D01*
X168875294Y-114196912D01*
X168743258Y-114215469D01*
X168672601Y-114191738D01*
X168597305Y-114134999D01*
X168545740Y-114007602D01*
X168513266Y-113776539D01*
X168527719Y-113639864D01*
X168584458Y-113564568D01*
X168645837Y-113522281D01*
X169299771Y-114103595D02*
X169403437Y-114122687D01*
X169568482Y-114099491D01*
X169629860Y-114057204D01*
X169658230Y-114019556D01*
X169681961Y-113948899D01*
X169672683Y-113882881D01*
X169630396Y-113821503D01*
X169592748Y-113793133D01*
X169522091Y-113769402D01*
X169385416Y-113754949D01*
X169314759Y-113731219D01*
X169277111Y-113702849D01*
X169234824Y-113641470D01*
X169225545Y-113575452D01*
X169249276Y-113504795D01*
X169277646Y-113467147D01*
X169339025Y-113424860D01*
X169504069Y-113401665D01*
X169607735Y-113420756D01*
X169997598Y-114039183D02*
X169900177Y-113345995D01*
X168037491Y-116738244D02*
X167760038Y-116440628D01*
X167641384Y-116793913D02*
X167543963Y-116100726D01*
X167808035Y-116063613D01*
X167878692Y-116087344D01*
X167916340Y-116115713D01*
X167958627Y-116177092D01*
X167972544Y-116276119D01*
X167948813Y-116346776D01*
X167920443Y-116384424D01*
X167859065Y-116426711D01*
X167594993Y-116463824D01*
X168283542Y-116333394D02*
X168514604Y-116300920D01*
X168664661Y-116650101D02*
X168334572Y-116696492D01*
X168237151Y-116003304D01*
X168567240Y-115956913D01*
X168924094Y-116579979D02*
X169027760Y-116599071D01*
X169192804Y-116575875D01*
X169254183Y-116533588D01*
X169282553Y-116495940D01*
X169306284Y-116425283D01*
X169297005Y-116359265D01*
X169254718Y-116297887D01*
X169217070Y-116269517D01*
X169146413Y-116245786D01*
X169009738Y-116231334D01*
X168939081Y-116207603D01*
X168901433Y-116179233D01*
X168859146Y-116117854D01*
X168849868Y-116051836D01*
X168873599Y-115981179D01*
X168901969Y-115943531D01*
X168963347Y-115901244D01*
X169128392Y-115878049D01*
X169232058Y-115897140D01*
X169570890Y-116152469D02*
X169801953Y-116119995D01*
X169952010Y-116469176D02*
X169621920Y-116515567D01*
X169524499Y-115822379D01*
X169854589Y-115775988D01*
X170052642Y-115748154D02*
X170448749Y-115692485D01*
X170348117Y-116413507D02*
X170250696Y-115720319D01*
X169195214Y-118628852D02*
X169124557Y-118605122D01*
X169025530Y-118619039D01*
X168931142Y-118665965D01*
X168874403Y-118741261D01*
X168850672Y-118811918D01*
X168836220Y-118948593D01*
X168850137Y-119047620D01*
X168901702Y-119175017D01*
X168943989Y-119236395D01*
X169019285Y-119293135D01*
X169122951Y-119312227D01*
X169188969Y-119302948D01*
X169283357Y-119256022D01*
X169311727Y-119218374D01*
X169279253Y-118987312D01*
X169147217Y-119005868D01*
X169618085Y-119242640D02*
X169520664Y-118549452D01*
X170014193Y-119186971D01*
X169916771Y-118493783D01*
X170344282Y-119140580D02*
X170246861Y-118447392D01*
X170411905Y-118424197D01*
X170515571Y-118443288D01*
X170590867Y-118500028D01*
X170633155Y-118561407D01*
X170684720Y-118688803D01*
X170698637Y-118787830D01*
X170684185Y-118924505D01*
X170660454Y-118995162D01*
X170603714Y-119070458D01*
X170509327Y-119117384D01*
X170344282Y-119140580D01*
%TO.C,P3*%
X117180413Y-162720491D02*
X117768198Y-161911474D01*
X118076395Y-162135392D01*
X118125455Y-162229896D01*
X118135990Y-162296411D01*
X118118535Y-162401450D01*
X118034565Y-162517024D01*
X117940061Y-162566083D01*
X117873547Y-162576618D01*
X117768508Y-162559163D01*
X117460311Y-162335245D01*
X118500166Y-162443280D02*
X119000986Y-162807147D01*
X118507396Y-162919415D01*
X118622969Y-163003385D01*
X118672029Y-163097889D01*
X118682564Y-163164403D01*
X118665109Y-163269442D01*
X118525160Y-163462065D01*
X118430656Y-163511125D01*
X118364141Y-163521659D01*
X118259102Y-163504205D01*
X118027955Y-163336266D01*
X117978895Y-163241762D01*
X117968360Y-163175247D01*
X88822482Y-134360038D02*
X88829856Y-134406598D01*
X88798045Y-134507093D01*
X88758859Y-134561027D01*
X88673113Y-134622336D01*
X88579993Y-134637085D01*
X88506466Y-134624866D01*
X88379004Y-134573462D01*
X88298103Y-134514684D01*
X88209826Y-134409345D01*
X88175485Y-134343192D01*
X88160736Y-134250072D01*
X88192547Y-134149578D01*
X88231733Y-134095643D01*
X88317479Y-134034334D01*
X88364039Y-134026960D01*
X89006192Y-134163893D02*
X89091938Y-134102584D01*
X89189902Y-133967748D01*
X89202120Y-133894221D01*
X89194746Y-133847661D01*
X89160404Y-133781508D01*
X89106470Y-133742322D01*
X89032942Y-133730104D01*
X88986382Y-133737478D01*
X88920229Y-133771820D01*
X88814891Y-133860096D01*
X88748738Y-133894437D01*
X88702178Y-133901812D01*
X88628651Y-133889593D01*
X88574716Y-133850408D01*
X88540374Y-133784255D01*
X88533000Y-133737695D01*
X88545218Y-133664167D01*
X88643183Y-133529331D01*
X88728928Y-133468022D01*
X90587895Y-136240119D02*
X90673641Y-136178810D01*
X90771605Y-136043974D01*
X90783824Y-135970447D01*
X90776449Y-135923887D01*
X90742108Y-135857734D01*
X90688173Y-135818548D01*
X90614646Y-135806329D01*
X90568086Y-135813704D01*
X90501933Y-135848046D01*
X90396594Y-135936322D01*
X90330441Y-135970663D01*
X90283881Y-135978038D01*
X90210354Y-135965819D01*
X90156420Y-135926633D01*
X90122078Y-135860481D01*
X90114704Y-135813920D01*
X90126922Y-135740393D01*
X90224886Y-135605557D01*
X90310632Y-135544248D01*
X91207492Y-135330607D02*
X91214866Y-135377167D01*
X91183055Y-135477662D01*
X91143869Y-135531596D01*
X91058123Y-135592905D01*
X90965003Y-135607654D01*
X90891476Y-135595436D01*
X90764014Y-135544032D01*
X90683113Y-135485253D01*
X90594836Y-135379914D01*
X90560495Y-135313762D01*
X90545746Y-135220641D01*
X90577557Y-135120147D01*
X90616743Y-135066212D01*
X90702489Y-135004903D01*
X90749049Y-134997529D01*
X91437762Y-135127088D02*
X90871450Y-134715638D01*
X91672876Y-134803481D02*
X91172934Y-134811072D01*
X91106564Y-134392032D02*
X91195057Y-134950752D01*
X92659527Y-137868855D02*
X92093216Y-137457406D01*
X92634874Y-137562528D01*
X92367515Y-137079864D01*
X92933827Y-137491314D01*
X92641815Y-136702323D02*
X92720186Y-136594454D01*
X92786339Y-136560112D01*
X92879460Y-136545364D01*
X93006921Y-136596768D01*
X93195692Y-136733918D01*
X93283968Y-136839256D01*
X93298717Y-136932376D01*
X93286498Y-137005904D01*
X93208127Y-137113773D01*
X93141974Y-137148114D01*
X93048854Y-137162863D01*
X92921392Y-137111459D01*
X92732622Y-136974309D01*
X92644345Y-136868970D01*
X92629597Y-136775850D01*
X92641815Y-136702323D01*
X93514238Y-136635737D02*
X93599984Y-136574428D01*
X93697948Y-136439592D01*
X93710167Y-136366065D01*
X93702792Y-136319504D01*
X93668450Y-136253352D01*
X93614516Y-136214166D01*
X93540989Y-136201947D01*
X93494429Y-136209322D01*
X93428276Y-136243663D01*
X93322937Y-136331940D01*
X93256784Y-136366281D01*
X93210224Y-136373656D01*
X93136697Y-136361437D01*
X93082762Y-136322251D01*
X93048421Y-136256098D01*
X93041046Y-136209538D01*
X93053265Y-136136011D01*
X93151229Y-136001175D01*
X93236975Y-135939866D01*
X93952655Y-136089018D02*
X93386343Y-135677568D01*
X94762971Y-139397096D02*
X94196660Y-138985647D01*
X94738318Y-139090769D01*
X94470959Y-138608105D01*
X95037271Y-139019555D01*
X95233200Y-138749883D02*
X94666888Y-138338433D01*
X95382568Y-138487585D02*
X95468314Y-138426276D01*
X95566278Y-138291440D01*
X95578496Y-138217912D01*
X95571122Y-138171352D01*
X95536780Y-138105199D01*
X95482846Y-138066014D01*
X95409319Y-138053795D01*
X95362759Y-138061170D01*
X95296606Y-138095511D01*
X95191267Y-138183787D01*
X95125114Y-138218129D01*
X95078554Y-138225503D01*
X95005027Y-138213285D01*
X94951092Y-138174099D01*
X94916751Y-138107946D01*
X94909376Y-138061386D01*
X94921595Y-137987859D01*
X95019559Y-137853023D01*
X95105305Y-137791714D01*
X95333044Y-137421547D02*
X95411416Y-137313678D01*
X95477569Y-137279336D01*
X95570689Y-137264588D01*
X95698151Y-137315992D01*
X95886921Y-137453142D01*
X95975197Y-137558480D01*
X95989946Y-137651600D01*
X95977728Y-137725128D01*
X95899356Y-137832997D01*
X95833203Y-137867338D01*
X95740083Y-137882087D01*
X95612621Y-137830683D01*
X95423851Y-137693533D01*
X95335575Y-137588194D01*
X95320826Y-137495074D01*
X95333044Y-137421547D01*
X96893275Y-140718240D02*
X96326963Y-140306790D01*
X97324318Y-140124961D02*
X96917495Y-140117803D01*
X97089204Y-140448568D02*
X96522892Y-140037118D01*
X96679634Y-139821380D01*
X96745787Y-139787039D01*
X96792347Y-139779664D01*
X96865875Y-139791883D01*
X96946776Y-139850661D01*
X96981118Y-139916814D01*
X96988492Y-139963374D01*
X96976274Y-140036901D01*
X96819531Y-140252639D01*
X97828887Y-139543900D02*
X97762735Y-139578242D01*
X97669614Y-139592991D01*
X97529934Y-139615114D01*
X97463781Y-139649455D01*
X97424596Y-139703390D01*
X97579025Y-139774387D02*
X97512872Y-139808728D01*
X97419752Y-139823477D01*
X97292290Y-139772073D01*
X97103519Y-139634923D01*
X97015243Y-139529585D01*
X97000494Y-139436464D01*
X97012713Y-139362937D01*
X97091084Y-139255068D01*
X97157237Y-139220727D01*
X97250357Y-139205978D01*
X97377819Y-139257382D01*
X97566590Y-139394532D01*
X97654866Y-139499870D01*
X97669614Y-139592991D01*
X97657396Y-139666518D01*
X97579025Y-139774387D01*
X99111746Y-141918031D02*
X98704923Y-141910873D01*
X98876631Y-142241637D02*
X98310320Y-141830188D01*
X98467062Y-141614450D01*
X98533215Y-141580108D01*
X98579775Y-141572734D01*
X98653303Y-141584952D01*
X98734204Y-141643731D01*
X98768546Y-141709884D01*
X98775920Y-141756444D01*
X98763702Y-141829971D01*
X98606959Y-142045709D01*
X99241521Y-141682700D02*
X99327267Y-141621391D01*
X99425231Y-141486555D01*
X99437449Y-141413028D01*
X99430075Y-141366468D01*
X99395733Y-141300315D01*
X99341799Y-141261129D01*
X99268272Y-141248911D01*
X99221712Y-141256285D01*
X99155559Y-141290627D01*
X99050220Y-141378903D01*
X98984067Y-141413244D01*
X98937507Y-141420619D01*
X98863980Y-141408400D01*
X98810045Y-141369215D01*
X98775704Y-141303062D01*
X98768329Y-141256502D01*
X98780548Y-141182974D01*
X98878512Y-141048138D01*
X98964258Y-140986829D01*
X99054848Y-140805433D02*
X99289962Y-140481826D01*
X99738716Y-141055079D02*
X99172405Y-140643630D01*
X100641721Y-143441645D02*
X100778871Y-143252875D01*
X101134289Y-143387494D02*
X100938360Y-143657167D01*
X100372049Y-143245717D01*
X100567977Y-142976044D01*
X101310624Y-143144789D02*
X100744313Y-142733339D01*
X101545739Y-142821182D01*
X100979427Y-142409733D01*
X101922847Y-142188717D02*
X101930221Y-142235278D01*
X101898410Y-142335772D01*
X101859224Y-142389707D01*
X101773478Y-142451015D01*
X101680358Y-142465764D01*
X101606831Y-142453546D01*
X101479369Y-142402142D01*
X101398467Y-142343363D01*
X101310191Y-142238024D01*
X101275850Y-142171872D01*
X101261101Y-142078751D01*
X101292912Y-141978257D01*
X101332098Y-141924322D01*
X101417844Y-141863014D01*
X101464404Y-141855639D01*
X101993627Y-141580906D02*
X102079373Y-141519597D01*
X102125933Y-141512223D01*
X102199460Y-141524441D01*
X102280362Y-141583220D01*
X102314703Y-141649373D01*
X102322078Y-141695933D01*
X102309859Y-141769460D01*
X102153117Y-141985198D01*
X101586805Y-141573748D01*
X101723955Y-141384978D01*
X101790108Y-141350636D01*
X101836668Y-141343262D01*
X101910195Y-141355480D01*
X101964129Y-141394666D01*
X101998471Y-141460819D01*
X102005845Y-141507379D01*
X101993627Y-141580906D01*
X101856477Y-141769677D01*
X102833332Y-144848534D02*
X102970482Y-144659764D01*
X103325900Y-144794383D02*
X103129972Y-145064056D01*
X102563660Y-144652606D01*
X102759588Y-144382934D01*
X103502236Y-144551678D02*
X102935924Y-144140229D01*
X103737350Y-144228071D01*
X103171038Y-143816622D01*
X104114458Y-143595607D02*
X104121832Y-143642167D01*
X104090021Y-143742661D01*
X104050835Y-143796596D01*
X103965090Y-143857905D01*
X103871969Y-143872653D01*
X103798442Y-143860435D01*
X103670980Y-143809031D01*
X103590079Y-143750252D01*
X103501803Y-143644914D01*
X103467461Y-143578761D01*
X103452712Y-143485641D01*
X103484523Y-143385146D01*
X103523709Y-143331212D01*
X103609455Y-143269903D01*
X103656015Y-143262528D01*
X104163332Y-143301497D02*
X104359260Y-143031825D01*
X104285949Y-143472989D02*
X103856787Y-142872769D01*
X104560249Y-143095448D01*
X104696602Y-146367087D02*
X104833752Y-146178317D01*
X105189170Y-146312936D02*
X104993242Y-146582609D01*
X104426930Y-146171159D01*
X104622858Y-145901487D01*
X105365506Y-146070231D02*
X104799194Y-145658782D01*
X105600620Y-145746624D01*
X105034308Y-145335175D01*
X105977728Y-145114160D02*
X105985102Y-145160720D01*
X105953291Y-145261214D01*
X105914105Y-145315149D01*
X105828360Y-145376458D01*
X105735239Y-145391206D01*
X105661712Y-145378988D01*
X105534250Y-145327584D01*
X105453349Y-145268805D01*
X105365073Y-145163467D01*
X105330731Y-145097314D01*
X105315982Y-145004194D01*
X105347793Y-144903699D01*
X105386979Y-144849765D01*
X105472725Y-144788456D01*
X105519285Y-144781081D01*
X106161438Y-144918015D02*
X106247184Y-144856706D01*
X106345148Y-144721870D01*
X106357366Y-144648342D01*
X106349992Y-144601782D01*
X106315650Y-144535629D01*
X106261716Y-144496444D01*
X106188189Y-144484225D01*
X106141628Y-144491600D01*
X106075476Y-144525941D01*
X105970137Y-144614217D01*
X105903984Y-144648559D01*
X105857424Y-144655933D01*
X105783897Y-144643715D01*
X105729962Y-144604529D01*
X105695621Y-144538376D01*
X105688246Y-144491816D01*
X105700465Y-144418289D01*
X105798429Y-144283453D01*
X105884175Y-144222144D01*
X105994357Y-144013780D02*
X106658633Y-144290394D01*
X106332496Y-143888632D01*
X106815376Y-144074656D01*
X106347028Y-143528370D01*
X106898010Y-147760493D02*
X106983756Y-147699184D01*
X107030316Y-147691810D01*
X107103843Y-147704028D01*
X107184745Y-147762806D01*
X107219087Y-147828959D01*
X107226461Y-147875519D01*
X107214242Y-147949047D01*
X107057500Y-148164785D01*
X106491188Y-147753335D01*
X106628338Y-147564564D01*
X106694491Y-147530223D01*
X106741051Y-147522848D01*
X106814578Y-147535067D01*
X106868513Y-147574252D01*
X106902854Y-147640405D01*
X106910229Y-147686965D01*
X106898010Y-147760493D01*
X106760860Y-147949263D01*
X106902638Y-147187023D02*
X107361080Y-147520101D01*
X107434608Y-147532320D01*
X107481168Y-147524945D01*
X107547321Y-147490604D01*
X107625692Y-147382735D01*
X107637911Y-147309208D01*
X107630536Y-147262648D01*
X107596195Y-147196495D01*
X107137752Y-146863416D01*
X107274902Y-146674646D02*
X107510016Y-146351039D01*
X107958770Y-146924292D02*
X107392459Y-146512842D01*
X108053988Y-146169426D02*
X108139734Y-146108117D01*
X108186294Y-146100743D01*
X108259821Y-146112961D01*
X108340723Y-146171740D01*
X108375064Y-146237893D01*
X108382439Y-146284453D01*
X108370220Y-146357980D01*
X108213477Y-146573718D01*
X107647166Y-146162268D01*
X107784315Y-145973498D01*
X107850468Y-145939156D01*
X107897028Y-145931782D01*
X107970556Y-145944000D01*
X108024490Y-145983186D01*
X108058832Y-146049339D01*
X108066206Y-146095899D01*
X108053988Y-146169426D01*
X107916838Y-146358197D01*
X109030843Y-149248284D02*
X109116589Y-149186975D01*
X109163149Y-149179601D01*
X109236676Y-149191819D01*
X109317578Y-149250598D01*
X109351920Y-149316751D01*
X109359294Y-149363311D01*
X109347076Y-149436838D01*
X109190333Y-149652576D01*
X108624021Y-149241126D01*
X108761171Y-149052355D01*
X108827324Y-149018014D01*
X108873884Y-149010639D01*
X108947411Y-149022858D01*
X109001346Y-149062044D01*
X109035687Y-149128197D01*
X109043062Y-149174757D01*
X109030843Y-149248284D01*
X108893693Y-149437055D01*
X109035471Y-148674814D02*
X109493914Y-149007893D01*
X109567441Y-149020111D01*
X109614001Y-149012737D01*
X109680154Y-148978395D01*
X109758525Y-148870526D01*
X109770744Y-148796999D01*
X109763369Y-148750439D01*
X109729028Y-148684286D01*
X109270585Y-148351207D01*
X109407735Y-148162437D02*
X109642849Y-147838830D01*
X110091604Y-148412083D02*
X109525292Y-148000633D01*
X110164914Y-147970919D02*
X110360843Y-147701247D01*
X110287532Y-148142411D02*
X109858370Y-147542190D01*
X110561832Y-147764869D01*
X111122178Y-151076744D02*
X110555866Y-150665294D01*
X111097524Y-150770416D01*
X110830165Y-150287753D01*
X111396477Y-150699203D01*
X111411010Y-150338940D02*
X111606938Y-150069268D01*
X111533627Y-150510432D02*
X111104465Y-149910212D01*
X111807927Y-150132891D01*
X111319986Y-149613572D02*
X111555101Y-149289965D01*
X112003855Y-149863218D02*
X111437544Y-149451769D01*
X112258562Y-149512644D02*
X111692250Y-149101195D01*
X112454491Y-149242972D02*
X111888179Y-148831522D01*
X112689605Y-148919365D01*
X112123293Y-148507915D01*
X113512248Y-152380608D02*
X113316320Y-152650280D01*
X112750008Y-152238831D01*
X113352759Y-151976316D02*
X113489909Y-151787545D01*
X113845327Y-151922165D02*
X113649398Y-152191837D01*
X113083086Y-151780388D01*
X113279015Y-151510715D01*
X114021662Y-151679460D02*
X113455350Y-151268010D01*
X113553315Y-151133174D01*
X113639060Y-151071865D01*
X113732180Y-151057116D01*
X113805708Y-151069335D01*
X113933170Y-151120739D01*
X114014071Y-151179517D01*
X114102347Y-151284856D01*
X114136689Y-151351009D01*
X114151438Y-151444129D01*
X114119626Y-151544624D01*
X114021662Y-151679460D01*
X114433112Y-151113148D02*
X113866800Y-150701698D01*
X114629040Y-150843476D02*
X114062728Y-150432026D01*
X114864154Y-150519869D01*
X114297843Y-150108419D01*
X115473482Y-153764325D02*
X115277553Y-154033997D01*
X114711241Y-153622548D01*
X115313992Y-153360033D02*
X115451142Y-153171263D01*
X115806560Y-153305882D02*
X115610631Y-153575555D01*
X115044320Y-153164105D01*
X115240248Y-152894432D01*
X115982895Y-153063177D02*
X115416584Y-152651727D01*
X115514548Y-152516891D01*
X115600294Y-152455582D01*
X115693414Y-152440834D01*
X115766941Y-152453052D01*
X115894403Y-152504456D01*
X115975304Y-152563235D01*
X116063581Y-152668573D01*
X116097922Y-152734726D01*
X116112671Y-152827846D01*
X116080860Y-152928341D01*
X115982895Y-153063177D01*
X115906405Y-151977547D02*
X115984776Y-151869678D01*
X116050929Y-151835336D01*
X116144049Y-151820587D01*
X116271511Y-151871991D01*
X116460281Y-152009141D01*
X116548558Y-152114480D01*
X116563306Y-152207600D01*
X116551088Y-152281127D01*
X116472717Y-152388996D01*
X116406564Y-152423338D01*
X116313443Y-152438087D01*
X116185982Y-152386683D01*
X115997211Y-152249533D01*
X115908935Y-152144194D01*
X115894186Y-152051074D01*
X115906405Y-151977547D01*
X116259076Y-151492136D02*
X116717519Y-151825215D01*
X116791046Y-151837433D01*
X116837606Y-151830059D01*
X116903759Y-151795717D01*
X116982130Y-151687848D01*
X116994349Y-151614321D01*
X116986974Y-151567761D01*
X116952633Y-151501608D01*
X116494190Y-151168530D01*
X116631340Y-150979759D02*
X116866454Y-150656152D01*
X117315209Y-151229405D02*
X116748897Y-150817956D01*
X117047378Y-154887226D02*
X116981225Y-154921568D01*
X116922447Y-155002470D01*
X116890635Y-155102964D01*
X116905384Y-155196084D01*
X116939726Y-155262237D01*
X117028002Y-155367576D01*
X117108904Y-155426354D01*
X117236365Y-155477759D01*
X117309893Y-155489977D01*
X117403013Y-155475228D01*
X117488759Y-155413919D01*
X117527944Y-155359985D01*
X117559756Y-155259490D01*
X117552381Y-155212930D01*
X117363610Y-155075780D01*
X117285239Y-155183649D01*
X117782651Y-155009411D02*
X117216339Y-154597961D01*
X118017765Y-154685804D01*
X117451453Y-154274354D01*
X118213694Y-154416132D02*
X117647382Y-154004682D01*
X117745346Y-153869846D01*
X117831092Y-153808537D01*
X117924212Y-153793788D01*
X117997739Y-153806007D01*
X118125201Y-153857411D01*
X118206103Y-153916189D01*
X118294379Y-154021528D01*
X118328720Y-154087681D01*
X118343469Y-154180801D01*
X118311658Y-154281296D01*
X118213694Y-154416132D01*
X118749060Y-156741606D02*
X119003767Y-156391032D01*
X119082355Y-156736545D01*
X119141134Y-156655644D01*
X119207287Y-156621302D01*
X119253847Y-156613928D01*
X119327374Y-156626146D01*
X119462210Y-156724110D01*
X119496552Y-156790263D01*
X119503926Y-156836823D01*
X119491708Y-156910351D01*
X119374151Y-157072154D01*
X119307998Y-157106496D01*
X119261438Y-157113870D01*
X119692480Y-156520591D02*
X119739040Y-156513217D01*
X119746415Y-156559777D01*
X119699855Y-156567151D01*
X119692480Y-156520591D01*
X119746415Y-156559777D01*
X119336845Y-155932589D02*
X119591552Y-155582015D01*
X119670140Y-155927528D01*
X119728919Y-155846627D01*
X119795072Y-155812285D01*
X119841632Y-155804911D01*
X119915159Y-155817129D01*
X120049995Y-155915093D01*
X120084337Y-155981246D01*
X120091711Y-156027806D01*
X120079493Y-156101334D01*
X119961936Y-156263137D01*
X119895783Y-156297479D01*
X119849223Y-156304853D01*
X119709109Y-155420212D02*
X120412571Y-155642891D01*
X119983409Y-155042670D01*
X121146398Y-157865339D02*
X120950470Y-158135011D01*
X121200549Y-158357907D01*
X121193175Y-158311347D01*
X121205393Y-158237819D01*
X121303357Y-158102983D01*
X121369510Y-158068642D01*
X121416070Y-158061267D01*
X121489598Y-158073486D01*
X121624434Y-158171450D01*
X121658775Y-158237603D01*
X121666150Y-158284163D01*
X121653931Y-158357690D01*
X121555967Y-158492526D01*
X121489814Y-158526868D01*
X121443254Y-158534242D01*
X121283548Y-157676568D02*
X121987010Y-157899247D01*
X121557848Y-157299027D01*
%TO.C,P1*%
X164209130Y-55198245D02*
X165160186Y-54889228D01*
X165277907Y-55251535D01*
X165262049Y-55356827D01*
X165231475Y-55416830D01*
X165155614Y-55491549D01*
X165019748Y-55535694D01*
X164914457Y-55519836D01*
X164854453Y-55489263D01*
X164779734Y-55413401D01*
X164662014Y-55051094D01*
X164680013Y-56647474D02*
X164503432Y-56104013D01*
X164591722Y-56375743D02*
X165542779Y-56066726D01*
X165377483Y-56020295D01*
X165257476Y-55959148D01*
X165182758Y-55883286D01*
X171730565Y-96482694D02*
X171709164Y-96524696D01*
X171624359Y-96587300D01*
X171560955Y-96607901D01*
X171455549Y-96607101D01*
X171371544Y-96564298D01*
X171319241Y-96511195D01*
X171246337Y-96394688D01*
X171215435Y-96299582D01*
X171205935Y-96162474D01*
X171217035Y-96088770D01*
X171259838Y-96004765D01*
X171344643Y-95942161D01*
X171408047Y-95921560D01*
X171513453Y-95922360D01*
X171555456Y-95943762D01*
X171994481Y-96431991D02*
X172099887Y-96432791D01*
X172258396Y-96381288D01*
X172311500Y-96328985D01*
X172332901Y-96286983D01*
X172344002Y-96213279D01*
X172323401Y-96149875D01*
X172271098Y-96096772D01*
X172229095Y-96075370D01*
X172155391Y-96064269D01*
X172018283Y-96073770D01*
X171944578Y-96062669D01*
X171902576Y-96041268D01*
X171850273Y-95988165D01*
X171829672Y-95924761D01*
X171840772Y-95851056D01*
X171862174Y-95809054D01*
X171915277Y-95756751D01*
X172073786Y-95705248D01*
X172179193Y-95706048D01*
X169938011Y-94471522D02*
X170043418Y-94472322D01*
X170201927Y-94420819D01*
X170255030Y-94368516D01*
X170276432Y-94326514D01*
X170287532Y-94252809D01*
X170266931Y-94189406D01*
X170214628Y-94136302D01*
X170172626Y-94114901D01*
X170098921Y-94103800D01*
X169961813Y-94113301D01*
X169888109Y-94102200D01*
X169846107Y-94080799D01*
X169793804Y-94027695D01*
X169773202Y-93964292D01*
X169784303Y-93890587D01*
X169805704Y-93848585D01*
X169858808Y-93796282D01*
X170017317Y-93744779D01*
X170122723Y-93745579D01*
X170973873Y-94099901D02*
X170952472Y-94141904D01*
X170867667Y-94204507D01*
X170804263Y-94225108D01*
X170698857Y-94224308D01*
X170614852Y-94181506D01*
X170562549Y-94128402D01*
X170489645Y-94011895D01*
X170458743Y-93916790D01*
X170449243Y-93779682D01*
X170460343Y-93705977D01*
X170503146Y-93621972D01*
X170587951Y-93559369D01*
X170651355Y-93538768D01*
X170756761Y-93539568D01*
X170798763Y-93560969D01*
X171279791Y-94070600D02*
X171063479Y-93404860D01*
X171660214Y-93946993D02*
X171251290Y-93659276D01*
X171443902Y-93281254D02*
X171187086Y-93785283D01*
X168859552Y-92123182D02*
X168643240Y-91457443D01*
X169019662Y-91860867D01*
X169087066Y-91313235D01*
X169303378Y-91978974D01*
X169530893Y-91169027D02*
X169657700Y-91127824D01*
X169731404Y-91138925D01*
X169815409Y-91181728D01*
X169888313Y-91298235D01*
X169960417Y-91520148D01*
X169969918Y-91657256D01*
X169927115Y-91741261D01*
X169874012Y-91793564D01*
X169747204Y-91834766D01*
X169673500Y-91823665D01*
X169589495Y-91780863D01*
X169516591Y-91664356D01*
X169444487Y-91442443D01*
X169434987Y-91305335D01*
X169477789Y-91221330D01*
X169530893Y-91169027D01*
X170275836Y-91627955D02*
X170381242Y-91628755D01*
X170539752Y-91577252D01*
X170592855Y-91524949D01*
X170614256Y-91482947D01*
X170625357Y-91409242D01*
X170604756Y-91345838D01*
X170552453Y-91292735D01*
X170510450Y-91271334D01*
X170436746Y-91260233D01*
X170299638Y-91269734D01*
X170225933Y-91258633D01*
X170183931Y-91237232D01*
X170131628Y-91184128D01*
X170111027Y-91120725D01*
X170122128Y-91047020D01*
X170143529Y-91005018D01*
X170196632Y-90952715D01*
X170355142Y-90901212D01*
X170460548Y-90902012D01*
X170951876Y-91443345D02*
X170735564Y-90777605D01*
X168056107Y-89650435D02*
X167839795Y-88984696D01*
X168216217Y-89388120D01*
X168283621Y-88840488D01*
X168499933Y-89506227D01*
X168816952Y-89403221D02*
X168600640Y-88737482D01*
X169091968Y-89278815D02*
X169197375Y-89279615D01*
X169355884Y-89228112D01*
X169408987Y-89175809D01*
X169430388Y-89133806D01*
X169441489Y-89060102D01*
X169420888Y-88996698D01*
X169368585Y-88943595D01*
X169326583Y-88922194D01*
X169252878Y-88911093D01*
X169115770Y-88920593D01*
X169042066Y-88909493D01*
X169000063Y-88888091D01*
X168947760Y-88834988D01*
X168927159Y-88771584D01*
X168938260Y-88697880D01*
X168959661Y-88655878D01*
X169012765Y-88603575D01*
X169171274Y-88552072D01*
X169276680Y-88552872D01*
X169678504Y-88387263D02*
X169805312Y-88346060D01*
X169879016Y-88357161D01*
X169963021Y-88399964D01*
X170035925Y-88516471D01*
X170108029Y-88738384D01*
X170117529Y-88875492D01*
X170074727Y-88959497D01*
X170021624Y-89011800D01*
X169894816Y-89053002D01*
X169821112Y-89041901D01*
X169737107Y-88999099D01*
X169664203Y-88882592D01*
X169592099Y-88660679D01*
X169582598Y-88523571D01*
X169625401Y-88439566D01*
X169678504Y-88387263D01*
X167838347Y-87092534D02*
X167622035Y-86426794D01*
X168535789Y-86865921D02*
X168210870Y-86621006D01*
X168155366Y-86989528D02*
X167939054Y-86323788D01*
X168192669Y-86241384D01*
X168266374Y-86252485D01*
X168308376Y-86273886D01*
X168360679Y-86326989D01*
X168391581Y-86422095D01*
X168380480Y-86495799D01*
X168359079Y-86537802D01*
X168305976Y-86590105D01*
X168052361Y-86672509D01*
X169285533Y-86692412D02*
X169211829Y-86681311D01*
X169127824Y-86638508D01*
X169001817Y-86574305D01*
X168928112Y-86563204D01*
X168864709Y-86583805D01*
X168947913Y-86732014D02*
X168874209Y-86720913D01*
X168790204Y-86678110D01*
X168717300Y-86561603D01*
X168645196Y-86339690D01*
X168635696Y-86202582D01*
X168678498Y-86118577D01*
X168731601Y-86066274D01*
X168858409Y-86025072D01*
X168932113Y-86036173D01*
X169016118Y-86078975D01*
X169089022Y-86195482D01*
X169161126Y-86417395D01*
X169170627Y-86554504D01*
X169127824Y-86638508D01*
X169074721Y-86690811D01*
X168947913Y-86732014D01*
X167382824Y-84611887D02*
X167057905Y-84366972D01*
X167002402Y-84735494D02*
X166786090Y-84069754D01*
X167039705Y-83987350D01*
X167113409Y-83998450D01*
X167155412Y-84019852D01*
X167207715Y-84072955D01*
X167238616Y-84168061D01*
X167227516Y-84241765D01*
X167206114Y-84283767D01*
X167153011Y-84336070D01*
X166899396Y-84418475D01*
X167626139Y-84497780D02*
X167731545Y-84498581D01*
X167890054Y-84447078D01*
X167943158Y-84394775D01*
X167964559Y-84352772D01*
X167975660Y-84279068D01*
X167955058Y-84215664D01*
X167902755Y-84162561D01*
X167860753Y-84141160D01*
X167787049Y-84130059D01*
X167649941Y-84139559D01*
X167576236Y-84128459D01*
X167534234Y-84107057D01*
X167481931Y-84053954D01*
X167461330Y-83990550D01*
X167472430Y-83916846D01*
X167493832Y-83874844D01*
X167546935Y-83822541D01*
X167705444Y-83771038D01*
X167810851Y-83771838D01*
X167990761Y-83678333D02*
X168371184Y-83554726D01*
X168397285Y-84282269D02*
X168180973Y-83616529D01*
X165228900Y-82297547D02*
X165450813Y-82225443D01*
X165659225Y-82543262D02*
X165342206Y-82646268D01*
X165125894Y-81980529D01*
X165442913Y-81877523D01*
X165944542Y-82450557D02*
X165728230Y-81784818D01*
X166324965Y-82326951D01*
X166108653Y-81661211D01*
X167001805Y-82036934D02*
X166980404Y-82078937D01*
X166895598Y-82141540D01*
X166832195Y-82162141D01*
X166726788Y-82161341D01*
X166642784Y-82118539D01*
X166590481Y-82065435D01*
X166517576Y-81948928D01*
X166486675Y-81853823D01*
X166477174Y-81716715D01*
X166488275Y-81643010D01*
X166531078Y-81559005D01*
X166615883Y-81496402D01*
X166679287Y-81475801D01*
X166784693Y-81476601D01*
X166826695Y-81498002D01*
X167416330Y-81586808D02*
X167521736Y-81587608D01*
X167563739Y-81609010D01*
X167616042Y-81662113D01*
X167646943Y-81757219D01*
X167635843Y-81830923D01*
X167614441Y-81872925D01*
X167561338Y-81925228D01*
X167307723Y-82007633D01*
X167091411Y-81341893D01*
X167313324Y-81269789D01*
X167387029Y-81280890D01*
X167429031Y-81302291D01*
X167481334Y-81355395D01*
X167501935Y-81418798D01*
X167490834Y-81492503D01*
X167469433Y-81534505D01*
X167416330Y-81586808D01*
X167194417Y-81658912D01*
X164377903Y-79840252D02*
X164599816Y-79768148D01*
X164808228Y-80085967D02*
X164491209Y-80188972D01*
X164274897Y-79523233D01*
X164591916Y-79420227D01*
X165093545Y-79993261D02*
X164877233Y-79327522D01*
X165473967Y-79869655D01*
X165257655Y-79203915D01*
X166150808Y-79579638D02*
X166129406Y-79621641D01*
X166044601Y-79684244D01*
X165981197Y-79704846D01*
X165875791Y-79704045D01*
X165791786Y-79661243D01*
X165739483Y-79608140D01*
X165666579Y-79491633D01*
X165635678Y-79396527D01*
X165626177Y-79259419D01*
X165637278Y-79185715D01*
X165680081Y-79101710D01*
X165764886Y-79039106D01*
X165828289Y-79018505D01*
X165933696Y-79019305D01*
X165975698Y-79040706D01*
X166363220Y-79370426D02*
X166680239Y-79267421D01*
X166361620Y-79581239D02*
X166367221Y-78843395D01*
X166805446Y-79437031D01*
X162938820Y-77784329D02*
X163160733Y-77712225D01*
X163369145Y-78030044D02*
X163052126Y-78133050D01*
X162835815Y-77467310D01*
X163152833Y-77364304D01*
X163654462Y-77937339D02*
X163438150Y-77271599D01*
X164034885Y-77813732D01*
X163818573Y-77147992D01*
X164711725Y-77523716D02*
X164690324Y-77565718D01*
X164605519Y-77628322D01*
X164542115Y-77648923D01*
X164436709Y-77648123D01*
X164352704Y-77605320D01*
X164300401Y-77552217D01*
X164227497Y-77435710D01*
X164196595Y-77340604D01*
X164187095Y-77203496D01*
X164198195Y-77129792D01*
X164240998Y-77045787D01*
X164325803Y-76983183D01*
X164389207Y-76962582D01*
X164494613Y-76963382D01*
X164536616Y-76984784D01*
X164975641Y-77473013D02*
X165081047Y-77473813D01*
X165239556Y-77422311D01*
X165292660Y-77370007D01*
X165314061Y-77328005D01*
X165325162Y-77254301D01*
X165304561Y-77190897D01*
X165252258Y-77137794D01*
X165210255Y-77116392D01*
X165136551Y-77105292D01*
X164999443Y-77114792D01*
X164925738Y-77103691D01*
X164883736Y-77082290D01*
X164831433Y-77029187D01*
X164810832Y-76965783D01*
X164821932Y-76892079D01*
X164843334Y-76850076D01*
X164896437Y-76797773D01*
X165054946Y-76746270D01*
X165160353Y-76747071D01*
X165371965Y-76643265D02*
X165746787Y-77257501D01*
X165719086Y-76740771D01*
X166000402Y-77175097D01*
X165942599Y-76457855D01*
X163244943Y-74951062D02*
X163350349Y-74951862D01*
X163392352Y-74973263D01*
X163444655Y-75026366D01*
X163475556Y-75121472D01*
X163464456Y-75195176D01*
X163443054Y-75237179D01*
X163389951Y-75289482D01*
X163136336Y-75371886D01*
X162920024Y-74706147D01*
X163141937Y-74634043D01*
X163215642Y-74645143D01*
X163257644Y-74666545D01*
X163309947Y-74719648D01*
X163330548Y-74783052D01*
X163319447Y-74856756D01*
X163298046Y-74898759D01*
X163244943Y-74951062D01*
X163023030Y-75023166D01*
X163585764Y-74489835D02*
X163760873Y-75028767D01*
X163813176Y-75081870D01*
X163855179Y-75103271D01*
X163928883Y-75114372D01*
X164055691Y-75073170D01*
X164108794Y-75020867D01*
X164130195Y-74978864D01*
X164141296Y-74905160D01*
X163966186Y-74366228D01*
X164188099Y-74294124D02*
X164568522Y-74170517D01*
X164594623Y-74898060D02*
X164378311Y-74232321D01*
X165115354Y-74343328D02*
X165220760Y-74344128D01*
X165262763Y-74365530D01*
X165315066Y-74418633D01*
X165345967Y-74513738D01*
X165334867Y-74587443D01*
X165313465Y-74629445D01*
X165260362Y-74681748D01*
X165006747Y-74764153D01*
X164790435Y-74098413D01*
X165012348Y-74026309D01*
X165086053Y-74037410D01*
X165128055Y-74058811D01*
X165180358Y-74111915D01*
X165200959Y-74175318D01*
X165189859Y-74249023D01*
X165168457Y-74291025D01*
X165115354Y-74343328D01*
X164893441Y-74415432D01*
X162489051Y-72462864D02*
X162594457Y-72463664D01*
X162636459Y-72485065D01*
X162688762Y-72538168D01*
X162719664Y-72633274D01*
X162708563Y-72706978D01*
X162687162Y-72748981D01*
X162634059Y-72801284D01*
X162380444Y-72883688D01*
X162164132Y-72217949D01*
X162386045Y-72145845D01*
X162459749Y-72156946D01*
X162501752Y-72178347D01*
X162554055Y-72231450D01*
X162574656Y-72294854D01*
X162563555Y-72368558D01*
X162542154Y-72410561D01*
X162489051Y-72462864D01*
X162267138Y-72534968D01*
X162829871Y-72001637D02*
X163004981Y-72540569D01*
X163057284Y-72593672D01*
X163099287Y-72615073D01*
X163172991Y-72626174D01*
X163299798Y-72584972D01*
X163352902Y-72532669D01*
X163374303Y-72490666D01*
X163385404Y-72416962D01*
X163210294Y-71878030D01*
X163432207Y-71805926D02*
X163812630Y-71682319D01*
X163838730Y-72409862D02*
X163622419Y-71744123D01*
X164157350Y-72096044D02*
X164474368Y-71993039D01*
X164155749Y-72306857D02*
X164161351Y-71569013D01*
X164599576Y-72162649D01*
X161242530Y-70729910D02*
X161026218Y-70064170D01*
X161402639Y-70467595D01*
X161470044Y-69919963D01*
X161686356Y-70585702D01*
X161909869Y-70302786D02*
X162226888Y-70199780D01*
X161908269Y-70513598D02*
X161913870Y-69775755D01*
X162352095Y-70369390D01*
X162262591Y-69662448D02*
X162643014Y-69538842D01*
X162669114Y-70266385D02*
X162452802Y-69600645D01*
X163081239Y-70132477D02*
X162864927Y-69466738D01*
X163398258Y-70029472D02*
X163181946Y-69363732D01*
X163778680Y-69905865D01*
X163562368Y-69240125D01*
X160741053Y-68053900D02*
X160424034Y-68156906D01*
X160207723Y-67491166D01*
X160849660Y-67633075D02*
X161071573Y-67560971D01*
X161279985Y-67878790D02*
X160962966Y-67981796D01*
X160746655Y-67316057D01*
X161063673Y-67213051D01*
X161565302Y-67786085D02*
X161348990Y-67120346D01*
X161507500Y-67068843D01*
X161612906Y-67069643D01*
X161696911Y-67112446D01*
X161749214Y-67165549D01*
X161822118Y-67282056D01*
X161853020Y-67377162D01*
X161862520Y-67514270D01*
X161851419Y-67587974D01*
X161808617Y-67671979D01*
X161723812Y-67734583D01*
X161565302Y-67786085D01*
X162231042Y-67569773D02*
X162014730Y-66904034D01*
X162548061Y-67466768D02*
X162331749Y-66801028D01*
X162928483Y-67343161D01*
X162712171Y-66677421D01*
X159080058Y-66070082D02*
X158763039Y-66173088D01*
X158546727Y-65507348D01*
X159188665Y-65649257D02*
X159410578Y-65577153D01*
X159618990Y-65894972D02*
X159301971Y-65997978D01*
X159085659Y-65332239D01*
X159402678Y-65229233D01*
X159904307Y-65802267D02*
X159687995Y-65136528D01*
X159846504Y-65085025D01*
X159951911Y-65085825D01*
X160035916Y-65128628D01*
X160088219Y-65181731D01*
X160161123Y-65298238D01*
X160192024Y-65393344D01*
X160201525Y-65530452D01*
X160190424Y-65604156D01*
X160147621Y-65688161D01*
X160062816Y-65750764D01*
X159904307Y-65802267D01*
X160480542Y-64879014D02*
X160607350Y-64837811D01*
X160681054Y-64848912D01*
X160765059Y-64891715D01*
X160837963Y-65008222D01*
X160910067Y-65230135D01*
X160919567Y-65367243D01*
X160876765Y-65451248D01*
X160823662Y-65503551D01*
X160696854Y-65544753D01*
X160623150Y-65533652D01*
X160539145Y-65490850D01*
X160466241Y-65374343D01*
X160394137Y-65152430D01*
X160384636Y-65015322D01*
X160427439Y-64931317D01*
X160480542Y-64879014D01*
X161051176Y-64693603D02*
X161226286Y-65232535D01*
X161278589Y-65285639D01*
X161320591Y-65307040D01*
X161394295Y-65318141D01*
X161521103Y-65276938D01*
X161574206Y-65224635D01*
X161595608Y-65182633D01*
X161606708Y-65108929D01*
X161431599Y-64569997D01*
X161653512Y-64497893D02*
X162033934Y-64374286D01*
X162060035Y-65101829D02*
X161843723Y-64436089D01*
X159798355Y-62401917D02*
X159724651Y-62390816D01*
X159629545Y-62421718D01*
X159544740Y-62484321D01*
X159501938Y-62568326D01*
X159490837Y-62642031D01*
X159500337Y-62779139D01*
X159531239Y-62874244D01*
X159604143Y-62990751D01*
X159656446Y-63043854D01*
X159740451Y-63086657D01*
X159845857Y-63087457D01*
X159909261Y-63066856D01*
X159994066Y-63004253D01*
X160015467Y-62962250D01*
X159943364Y-62740337D01*
X159816556Y-62781539D01*
X160321386Y-62932949D02*
X160105074Y-62267209D01*
X160701808Y-62809342D01*
X160485496Y-62143602D01*
X161018827Y-62706336D02*
X160802515Y-62040597D01*
X160961025Y-61989094D01*
X161066431Y-61989894D01*
X161150436Y-62032697D01*
X161202739Y-62085800D01*
X161275643Y-62202307D01*
X161306545Y-62297413D01*
X161316045Y-62434521D01*
X161304944Y-62508225D01*
X161262142Y-62592230D01*
X161177336Y-62654834D01*
X161018827Y-62706336D01*
X158539985Y-60147082D02*
X158952109Y-60013175D01*
X158812600Y-60338894D01*
X158907706Y-60307992D01*
X158981410Y-60319093D01*
X159023413Y-60340494D01*
X159075716Y-60393598D01*
X159127219Y-60552107D01*
X159116118Y-60625811D01*
X159094717Y-60667814D01*
X159041613Y-60720117D01*
X158851402Y-60781920D01*
X158777698Y-60770820D01*
X158735695Y-60749418D01*
X159433137Y-60522806D02*
X159475139Y-60544207D01*
X159453738Y-60586209D01*
X159411735Y-60564808D01*
X159433137Y-60522806D01*
X159453738Y-60586209D01*
X159491041Y-59838065D02*
X159903166Y-59704158D01*
X159763657Y-60029877D01*
X159858763Y-59998975D01*
X159932467Y-60010076D01*
X159974469Y-60031477D01*
X160026772Y-60084581D01*
X160078275Y-60243090D01*
X160067174Y-60316794D01*
X160045773Y-60358797D01*
X159992670Y-60411100D01*
X159802459Y-60472903D01*
X159728754Y-60461803D01*
X159686752Y-60440401D01*
X160093377Y-59642355D02*
X160531602Y-60235990D01*
X160537203Y-59498147D01*
X158972913Y-57272613D02*
X158655895Y-57375619D01*
X158727198Y-57702938D01*
X158748600Y-57660936D01*
X158801703Y-57608633D01*
X158960212Y-57557130D01*
X159033917Y-57568231D01*
X159075919Y-57589632D01*
X159128222Y-57642735D01*
X159179725Y-57801245D01*
X159168624Y-57874949D01*
X159147223Y-57916951D01*
X159094120Y-57969254D01*
X158935610Y-58020757D01*
X158861906Y-58009656D01*
X158819903Y-57988255D01*
X159194827Y-57200509D02*
X159633052Y-57794145D01*
X159638653Y-57056301D01*
%TO.C,P5*%
X92301904Y-49112380D02*
X92301904Y-48112380D01*
X92682857Y-48112380D01*
X92778095Y-48160000D01*
X92825714Y-48207619D01*
X92873333Y-48302857D01*
X92873333Y-48445714D01*
X92825714Y-48540952D01*
X92778095Y-48588571D01*
X92682857Y-48636190D01*
X92301904Y-48636190D01*
X93778095Y-48112380D02*
X93301904Y-48112380D01*
X93254285Y-48588571D01*
X93301904Y-48540952D01*
X93397142Y-48493333D01*
X93635238Y-48493333D01*
X93730476Y-48540952D01*
X93778095Y-48588571D01*
X93825714Y-48683809D01*
X93825714Y-48921904D01*
X93778095Y-49017142D01*
X93730476Y-49064761D01*
X93635238Y-49112380D01*
X93397142Y-49112380D01*
X93301904Y-49064761D01*
X93254285Y-49017142D01*
X133890000Y-54716666D02*
X133923333Y-54750000D01*
X133956666Y-54850000D01*
X133956666Y-54916666D01*
X133923333Y-55016666D01*
X133856666Y-55083333D01*
X133790000Y-55116666D01*
X133656666Y-55150000D01*
X133556666Y-55150000D01*
X133423333Y-55116666D01*
X133356666Y-55083333D01*
X133290000Y-55016666D01*
X133256666Y-54916666D01*
X133256666Y-54850000D01*
X133290000Y-54750000D01*
X133323333Y-54716666D01*
X133923333Y-54450000D02*
X133956666Y-54350000D01*
X133956666Y-54183333D01*
X133923333Y-54116666D01*
X133890000Y-54083333D01*
X133823333Y-54050000D01*
X133756666Y-54050000D01*
X133690000Y-54083333D01*
X133656666Y-54116666D01*
X133623333Y-54183333D01*
X133590000Y-54316666D01*
X133556666Y-54383333D01*
X133523333Y-54416666D01*
X133456666Y-54450000D01*
X133390000Y-54450000D01*
X133323333Y-54416666D01*
X133290000Y-54383333D01*
X133256666Y-54316666D01*
X133256666Y-54150000D01*
X133290000Y-54050000D01*
X131423333Y-55800000D02*
X131456666Y-55700000D01*
X131456666Y-55533333D01*
X131423333Y-55466666D01*
X131390000Y-55433333D01*
X131323333Y-55400000D01*
X131256666Y-55400000D01*
X131190000Y-55433333D01*
X131156666Y-55466666D01*
X131123333Y-55533333D01*
X131090000Y-55666666D01*
X131056666Y-55733333D01*
X131023333Y-55766666D01*
X130956666Y-55800000D01*
X130890000Y-55800000D01*
X130823333Y-55766666D01*
X130790000Y-55733333D01*
X130756666Y-55666666D01*
X130756666Y-55500000D01*
X130790000Y-55400000D01*
X131390000Y-54700000D02*
X131423333Y-54733333D01*
X131456666Y-54833333D01*
X131456666Y-54900000D01*
X131423333Y-55000000D01*
X131356666Y-55066666D01*
X131290000Y-55100000D01*
X131156666Y-55133333D01*
X131056666Y-55133333D01*
X130923333Y-55100000D01*
X130856666Y-55066666D01*
X130790000Y-55000000D01*
X130756666Y-54900000D01*
X130756666Y-54833333D01*
X130790000Y-54733333D01*
X130823333Y-54700000D01*
X131456666Y-54400000D02*
X130756666Y-54400000D01*
X131456666Y-54000000D02*
X131056666Y-54300000D01*
X130756666Y-54000000D02*
X131156666Y-54400000D01*
X128856666Y-56100000D02*
X128156666Y-56100000D01*
X128656666Y-55866666D01*
X128156666Y-55633333D01*
X128856666Y-55633333D01*
X128156666Y-55166666D02*
X128156666Y-55033333D01*
X128190000Y-54966666D01*
X128256666Y-54900000D01*
X128390000Y-54866666D01*
X128623333Y-54866666D01*
X128756666Y-54900000D01*
X128823333Y-54966666D01*
X128856666Y-55033333D01*
X128856666Y-55166666D01*
X128823333Y-55233333D01*
X128756666Y-55300000D01*
X128623333Y-55333333D01*
X128390000Y-55333333D01*
X128256666Y-55300000D01*
X128190000Y-55233333D01*
X128156666Y-55166666D01*
X128823333Y-54600000D02*
X128856666Y-54500000D01*
X128856666Y-54333333D01*
X128823333Y-54266666D01*
X128790000Y-54233333D01*
X128723333Y-54200000D01*
X128656666Y-54200000D01*
X128590000Y-54233333D01*
X128556666Y-54266666D01*
X128523333Y-54333333D01*
X128490000Y-54466666D01*
X128456666Y-54533333D01*
X128423333Y-54566666D01*
X128356666Y-54600000D01*
X128290000Y-54600000D01*
X128223333Y-54566666D01*
X128190000Y-54533333D01*
X128156666Y-54466666D01*
X128156666Y-54300000D01*
X128190000Y-54200000D01*
X128856666Y-53900000D02*
X128156666Y-53900000D01*
X126256666Y-56100000D02*
X125556666Y-56100000D01*
X126056666Y-55866666D01*
X125556666Y-55633333D01*
X126256666Y-55633333D01*
X126256666Y-55300000D02*
X125556666Y-55300000D01*
X126223333Y-55000000D02*
X126256666Y-54900000D01*
X126256666Y-54733333D01*
X126223333Y-54666666D01*
X126190000Y-54633333D01*
X126123333Y-54600000D01*
X126056666Y-54600000D01*
X125990000Y-54633333D01*
X125956666Y-54666666D01*
X125923333Y-54733333D01*
X125890000Y-54866666D01*
X125856666Y-54933333D01*
X125823333Y-54966666D01*
X125756666Y-55000000D01*
X125690000Y-55000000D01*
X125623333Y-54966666D01*
X125590000Y-54933333D01*
X125556666Y-54866666D01*
X125556666Y-54700000D01*
X125590000Y-54600000D01*
X125556666Y-54166666D02*
X125556666Y-54033333D01*
X125590000Y-53966666D01*
X125656666Y-53900000D01*
X125790000Y-53866666D01*
X126023333Y-53866666D01*
X126156666Y-53900000D01*
X126223333Y-53966666D01*
X126256666Y-54033333D01*
X126256666Y-54166666D01*
X126223333Y-54233333D01*
X126156666Y-54300000D01*
X126023333Y-54333333D01*
X125790000Y-54333333D01*
X125656666Y-54300000D01*
X125590000Y-54233333D01*
X125556666Y-54166666D01*
X123756666Y-55516666D02*
X123056666Y-55516666D01*
X123756666Y-54783333D02*
X123423333Y-55016666D01*
X123756666Y-55183333D02*
X123056666Y-55183333D01*
X123056666Y-54916666D01*
X123090000Y-54850000D01*
X123123333Y-54816666D01*
X123190000Y-54783333D01*
X123290000Y-54783333D01*
X123356666Y-54816666D01*
X123390000Y-54850000D01*
X123423333Y-54916666D01*
X123423333Y-55183333D01*
X123823333Y-54016666D02*
X123790000Y-54083333D01*
X123723333Y-54150000D01*
X123623333Y-54250000D01*
X123590000Y-54316666D01*
X123590000Y-54383333D01*
X123756666Y-54350000D02*
X123723333Y-54416666D01*
X123656666Y-54483333D01*
X123523333Y-54516666D01*
X123290000Y-54516666D01*
X123156666Y-54483333D01*
X123090000Y-54416666D01*
X123056666Y-54350000D01*
X123056666Y-54216666D01*
X123090000Y-54150000D01*
X123156666Y-54083333D01*
X123290000Y-54050000D01*
X123523333Y-54050000D01*
X123656666Y-54083333D01*
X123723333Y-54150000D01*
X123756666Y-54216666D01*
X123756666Y-54350000D01*
X121256666Y-55183333D02*
X120923333Y-55416666D01*
X121256666Y-55583333D02*
X120556666Y-55583333D01*
X120556666Y-55316666D01*
X120590000Y-55250000D01*
X120623333Y-55216666D01*
X120690000Y-55183333D01*
X120790000Y-55183333D01*
X120856666Y-55216666D01*
X120890000Y-55250000D01*
X120923333Y-55316666D01*
X120923333Y-55583333D01*
X121223333Y-54916666D02*
X121256666Y-54816666D01*
X121256666Y-54650000D01*
X121223333Y-54583333D01*
X121190000Y-54550000D01*
X121123333Y-54516666D01*
X121056666Y-54516666D01*
X120990000Y-54550000D01*
X120956666Y-54583333D01*
X120923333Y-54650000D01*
X120890000Y-54783333D01*
X120856666Y-54850000D01*
X120823333Y-54883333D01*
X120756666Y-54916666D01*
X120690000Y-54916666D01*
X120623333Y-54883333D01*
X120590000Y-54850000D01*
X120556666Y-54783333D01*
X120556666Y-54616666D01*
X120590000Y-54516666D01*
X120556666Y-54316666D02*
X120556666Y-53916666D01*
X121256666Y-54116666D02*
X120556666Y-54116666D01*
X118390000Y-56516666D02*
X118390000Y-56283333D01*
X118756666Y-56183333D02*
X118756666Y-56516666D01*
X118056666Y-56516666D01*
X118056666Y-56183333D01*
X118756666Y-55883333D02*
X118056666Y-55883333D01*
X118756666Y-55483333D01*
X118056666Y-55483333D01*
X118690000Y-54750000D02*
X118723333Y-54783333D01*
X118756666Y-54883333D01*
X118756666Y-54950000D01*
X118723333Y-55050000D01*
X118656666Y-55116666D01*
X118590000Y-55150000D01*
X118456666Y-55183333D01*
X118356666Y-55183333D01*
X118223333Y-55150000D01*
X118156666Y-55116666D01*
X118090000Y-55050000D01*
X118056666Y-54950000D01*
X118056666Y-54883333D01*
X118090000Y-54783333D01*
X118123333Y-54750000D01*
X118390000Y-54216666D02*
X118423333Y-54116666D01*
X118456666Y-54083333D01*
X118523333Y-54050000D01*
X118623333Y-54050000D01*
X118690000Y-54083333D01*
X118723333Y-54116666D01*
X118756666Y-54183333D01*
X118756666Y-54450000D01*
X118056666Y-54450000D01*
X118056666Y-54216666D01*
X118090000Y-54150000D01*
X118123333Y-54116666D01*
X118190000Y-54083333D01*
X118256666Y-54083333D01*
X118323333Y-54116666D01*
X118356666Y-54150000D01*
X118390000Y-54216666D01*
X118390000Y-54450000D01*
X115790000Y-56566666D02*
X115790000Y-56333333D01*
X116156666Y-56233333D02*
X116156666Y-56566666D01*
X115456666Y-56566666D01*
X115456666Y-56233333D01*
X116156666Y-55933333D02*
X115456666Y-55933333D01*
X116156666Y-55533333D01*
X115456666Y-55533333D01*
X116090000Y-54800000D02*
X116123333Y-54833333D01*
X116156666Y-54933333D01*
X116156666Y-55000000D01*
X116123333Y-55100000D01*
X116056666Y-55166666D01*
X115990000Y-55200000D01*
X115856666Y-55233333D01*
X115756666Y-55233333D01*
X115623333Y-55200000D01*
X115556666Y-55166666D01*
X115490000Y-55100000D01*
X115456666Y-55000000D01*
X115456666Y-54933333D01*
X115490000Y-54833333D01*
X115523333Y-54800000D01*
X115956666Y-54533333D02*
X115956666Y-54200000D01*
X116156666Y-54600000D02*
X115456666Y-54366666D01*
X116156666Y-54133333D01*
X113390000Y-57300000D02*
X113390000Y-57066666D01*
X113756666Y-56966666D02*
X113756666Y-57300000D01*
X113056666Y-57300000D01*
X113056666Y-56966666D01*
X113756666Y-56666666D02*
X113056666Y-56666666D01*
X113756666Y-56266666D01*
X113056666Y-56266666D01*
X113690000Y-55533333D02*
X113723333Y-55566666D01*
X113756666Y-55666666D01*
X113756666Y-55733333D01*
X113723333Y-55833333D01*
X113656666Y-55900000D01*
X113590000Y-55933333D01*
X113456666Y-55966666D01*
X113356666Y-55966666D01*
X113223333Y-55933333D01*
X113156666Y-55900000D01*
X113090000Y-55833333D01*
X113056666Y-55733333D01*
X113056666Y-55666666D01*
X113090000Y-55566666D01*
X113123333Y-55533333D01*
X113723333Y-55266666D02*
X113756666Y-55166666D01*
X113756666Y-55000000D01*
X113723333Y-54933333D01*
X113690000Y-54900000D01*
X113623333Y-54866666D01*
X113556666Y-54866666D01*
X113490000Y-54900000D01*
X113456666Y-54933333D01*
X113423333Y-55000000D01*
X113390000Y-55133333D01*
X113356666Y-55200000D01*
X113323333Y-55233333D01*
X113256666Y-55266666D01*
X113190000Y-55266666D01*
X113123333Y-55233333D01*
X113090000Y-55200000D01*
X113056666Y-55133333D01*
X113056666Y-54966666D01*
X113090000Y-54866666D01*
X113056666Y-54633333D02*
X113756666Y-54466666D01*
X113256666Y-54333333D01*
X113756666Y-54200000D01*
X113056666Y-54033333D01*
X110790000Y-56133333D02*
X110823333Y-56033333D01*
X110856666Y-56000000D01*
X110923333Y-55966666D01*
X111023333Y-55966666D01*
X111090000Y-56000000D01*
X111123333Y-56033333D01*
X111156666Y-56100000D01*
X111156666Y-56366666D01*
X110456666Y-56366666D01*
X110456666Y-56133333D01*
X110490000Y-56066666D01*
X110523333Y-56033333D01*
X110590000Y-56000000D01*
X110656666Y-56000000D01*
X110723333Y-56033333D01*
X110756666Y-56066666D01*
X110790000Y-56133333D01*
X110790000Y-56366666D01*
X110456666Y-55666666D02*
X111023333Y-55666666D01*
X111090000Y-55633333D01*
X111123333Y-55600000D01*
X111156666Y-55533333D01*
X111156666Y-55400000D01*
X111123333Y-55333333D01*
X111090000Y-55300000D01*
X111023333Y-55266666D01*
X110456666Y-55266666D01*
X110456666Y-55033333D02*
X110456666Y-54633333D01*
X111156666Y-54833333D02*
X110456666Y-54833333D01*
X110790000Y-54166666D02*
X110823333Y-54066666D01*
X110856666Y-54033333D01*
X110923333Y-54000000D01*
X111023333Y-54000000D01*
X111090000Y-54033333D01*
X111123333Y-54066666D01*
X111156666Y-54133333D01*
X111156666Y-54400000D01*
X110456666Y-54400000D01*
X110456666Y-54166666D01*
X110490000Y-54100000D01*
X110523333Y-54066666D01*
X110590000Y-54033333D01*
X110656666Y-54033333D01*
X110723333Y-54066666D01*
X110756666Y-54100000D01*
X110790000Y-54166666D01*
X110790000Y-54400000D01*
X108190000Y-56083333D02*
X108223333Y-55983333D01*
X108256666Y-55950000D01*
X108323333Y-55916666D01*
X108423333Y-55916666D01*
X108490000Y-55950000D01*
X108523333Y-55983333D01*
X108556666Y-56050000D01*
X108556666Y-56316666D01*
X107856666Y-56316666D01*
X107856666Y-56083333D01*
X107890000Y-56016666D01*
X107923333Y-55983333D01*
X107990000Y-55950000D01*
X108056666Y-55950000D01*
X108123333Y-55983333D01*
X108156666Y-56016666D01*
X108190000Y-56083333D01*
X108190000Y-56316666D01*
X107856666Y-55616666D02*
X108423333Y-55616666D01*
X108490000Y-55583333D01*
X108523333Y-55550000D01*
X108556666Y-55483333D01*
X108556666Y-55350000D01*
X108523333Y-55283333D01*
X108490000Y-55250000D01*
X108423333Y-55216666D01*
X107856666Y-55216666D01*
X107856666Y-54983333D02*
X107856666Y-54583333D01*
X108556666Y-54783333D02*
X107856666Y-54783333D01*
X108356666Y-54383333D02*
X108356666Y-54050000D01*
X108556666Y-54450000D02*
X107856666Y-54216666D01*
X108556666Y-53983333D01*
X106156666Y-56733333D02*
X105456666Y-56733333D01*
X105956666Y-56500000D01*
X105456666Y-56266666D01*
X106156666Y-56266666D01*
X105956666Y-55966666D02*
X105956666Y-55633333D01*
X106156666Y-56033333D02*
X105456666Y-55800000D01*
X106156666Y-55566666D01*
X105456666Y-55433333D02*
X105456666Y-55033333D01*
X106156666Y-55233333D02*
X105456666Y-55233333D01*
X106156666Y-54800000D02*
X105456666Y-54800000D01*
X106156666Y-54466666D02*
X105456666Y-54466666D01*
X106156666Y-54066666D01*
X105456666Y-54066666D01*
X103456666Y-56383333D02*
X103456666Y-56716666D01*
X102756666Y-56716666D01*
X103090000Y-56150000D02*
X103090000Y-55916666D01*
X103456666Y-55816666D02*
X103456666Y-56150000D01*
X102756666Y-56150000D01*
X102756666Y-55816666D01*
X103456666Y-55516666D02*
X102756666Y-55516666D01*
X102756666Y-55350000D01*
X102790000Y-55250000D01*
X102856666Y-55183333D01*
X102923333Y-55150000D01*
X103056666Y-55116666D01*
X103156666Y-55116666D01*
X103290000Y-55150000D01*
X103356666Y-55183333D01*
X103423333Y-55250000D01*
X103456666Y-55350000D01*
X103456666Y-55516666D01*
X103456666Y-54816666D02*
X102756666Y-54816666D01*
X103456666Y-54483333D02*
X102756666Y-54483333D01*
X103456666Y-54083333D01*
X102756666Y-54083333D01*
X101056666Y-57350000D02*
X101056666Y-57683333D01*
X100356666Y-57683333D01*
X100690000Y-57116666D02*
X100690000Y-56883333D01*
X101056666Y-56783333D02*
X101056666Y-57116666D01*
X100356666Y-57116666D01*
X100356666Y-56783333D01*
X101056666Y-56483333D02*
X100356666Y-56483333D01*
X100356666Y-56316666D01*
X100390000Y-56216666D01*
X100456666Y-56150000D01*
X100523333Y-56116666D01*
X100656666Y-56083333D01*
X100756666Y-56083333D01*
X100890000Y-56116666D01*
X100956666Y-56150000D01*
X101023333Y-56216666D01*
X101056666Y-56316666D01*
X101056666Y-56483333D01*
X100356666Y-55650000D02*
X100356666Y-55516666D01*
X100390000Y-55450000D01*
X100456666Y-55383333D01*
X100590000Y-55350000D01*
X100823333Y-55350000D01*
X100956666Y-55383333D01*
X101023333Y-55450000D01*
X101056666Y-55516666D01*
X101056666Y-55650000D01*
X101023333Y-55716666D01*
X100956666Y-55783333D01*
X100823333Y-55816666D01*
X100590000Y-55816666D01*
X100456666Y-55783333D01*
X100390000Y-55716666D01*
X100356666Y-55650000D01*
X100356666Y-55050000D02*
X100923333Y-55050000D01*
X100990000Y-55016666D01*
X101023333Y-54983333D01*
X101056666Y-54916666D01*
X101056666Y-54783333D01*
X101023333Y-54716666D01*
X100990000Y-54683333D01*
X100923333Y-54650000D01*
X100356666Y-54650000D01*
X100356666Y-54416666D02*
X100356666Y-54016666D01*
X101056666Y-54216666D02*
X100356666Y-54216666D01*
X97790000Y-55533333D02*
X97756666Y-55600000D01*
X97756666Y-55700000D01*
X97790000Y-55800000D01*
X97856666Y-55866666D01*
X97923333Y-55900000D01*
X98056666Y-55933333D01*
X98156666Y-55933333D01*
X98290000Y-55900000D01*
X98356666Y-55866666D01*
X98423333Y-55800000D01*
X98456666Y-55700000D01*
X98456666Y-55633333D01*
X98423333Y-55533333D01*
X98390000Y-55500000D01*
X98156666Y-55500000D01*
X98156666Y-55633333D01*
X98456666Y-55200000D02*
X97756666Y-55200000D01*
X98456666Y-54800000D01*
X97756666Y-54800000D01*
X98456666Y-54466666D02*
X97756666Y-54466666D01*
X97756666Y-54300000D01*
X97790000Y-54200000D01*
X97856666Y-54133333D01*
X97923333Y-54100000D01*
X98056666Y-54066666D01*
X98156666Y-54066666D01*
X98290000Y-54100000D01*
X98356666Y-54133333D01*
X98423333Y-54200000D01*
X98456666Y-54300000D01*
X98456666Y-54466666D01*
X95256666Y-56033333D02*
X95256666Y-55600000D01*
X95523333Y-55833333D01*
X95523333Y-55733333D01*
X95556666Y-55666666D01*
X95590000Y-55633333D01*
X95656666Y-55600000D01*
X95823333Y-55600000D01*
X95890000Y-55633333D01*
X95923333Y-55666666D01*
X95956666Y-55733333D01*
X95956666Y-55933333D01*
X95923333Y-56000000D01*
X95890000Y-56033333D01*
X95890000Y-55300000D02*
X95923333Y-55266666D01*
X95956666Y-55300000D01*
X95923333Y-55333333D01*
X95890000Y-55300000D01*
X95956666Y-55300000D01*
X95256666Y-55033333D02*
X95256666Y-54600000D01*
X95523333Y-54833333D01*
X95523333Y-54733333D01*
X95556666Y-54666666D01*
X95590000Y-54633333D01*
X95656666Y-54600000D01*
X95823333Y-54600000D01*
X95890000Y-54633333D01*
X95923333Y-54666666D01*
X95956666Y-54733333D01*
X95956666Y-54933333D01*
X95923333Y-55000000D01*
X95890000Y-55033333D01*
X95256666Y-54400000D02*
X95956666Y-54166666D01*
X95256666Y-53933333D01*
X92656666Y-54733333D02*
X92656666Y-55066666D01*
X92990000Y-55100000D01*
X92956666Y-55066666D01*
X92923333Y-55000000D01*
X92923333Y-54833333D01*
X92956666Y-54766666D01*
X92990000Y-54733333D01*
X93056666Y-54700000D01*
X93223333Y-54700000D01*
X93290000Y-54733333D01*
X93323333Y-54766666D01*
X93356666Y-54833333D01*
X93356666Y-55000000D01*
X93323333Y-55066666D01*
X93290000Y-55100000D01*
X92656666Y-54500000D02*
X93356666Y-54266666D01*
X92656666Y-54033333D01*
%TO.C,P4*%
X179968873Y-127128275D02*
X179381088Y-126319258D01*
X179689284Y-126095340D01*
X179794323Y-126077885D01*
X179860838Y-126088420D01*
X179955342Y-126137479D01*
X180039311Y-126253053D01*
X180056766Y-126358092D01*
X180046231Y-126424606D01*
X179997172Y-126519110D01*
X179688975Y-126743029D01*
X180732754Y-125749237D02*
X181124611Y-126288582D01*
X180316213Y-125580989D02*
X180543437Y-126298807D01*
X181044257Y-125934940D01*
X143691738Y-145439530D02*
X143645178Y-145432156D01*
X143559432Y-145370847D01*
X143520247Y-145316913D01*
X143488435Y-145216418D01*
X143503184Y-145123298D01*
X143537526Y-145057145D01*
X143625802Y-144951807D01*
X143706704Y-144893028D01*
X143834165Y-144841624D01*
X143907693Y-144829405D01*
X144000813Y-144844154D01*
X144086559Y-144905463D01*
X144125744Y-144959398D01*
X144157556Y-145059892D01*
X144150181Y-145106452D01*
X143821514Y-145674861D02*
X143853325Y-145775356D01*
X143951289Y-145910192D01*
X144017442Y-145944534D01*
X144064002Y-145951908D01*
X144137530Y-145939689D01*
X144191464Y-145900504D01*
X144225806Y-145834351D01*
X144233180Y-145787791D01*
X144220962Y-145714263D01*
X144169558Y-145586802D01*
X144157339Y-145513274D01*
X144164713Y-145466714D01*
X144199055Y-145400561D01*
X144252990Y-145361376D01*
X144326517Y-145349157D01*
X144373077Y-145356532D01*
X144439230Y-145390873D01*
X144537194Y-145525709D01*
X144569005Y-145626204D01*
X145050545Y-143113225D02*
X145082357Y-143213720D01*
X145180321Y-143348556D01*
X145246474Y-143382898D01*
X145293034Y-143390272D01*
X145366561Y-143378054D01*
X145420496Y-143338868D01*
X145454837Y-143272715D01*
X145462212Y-143226155D01*
X145449993Y-143152628D01*
X145398589Y-143025166D01*
X145386371Y-142951639D01*
X145393745Y-142905078D01*
X145428087Y-142838926D01*
X145482021Y-142799740D01*
X145555548Y-142787521D01*
X145602108Y-142794896D01*
X145668261Y-142829237D01*
X145766226Y-142964074D01*
X145798037Y-143064568D01*
X145724076Y-143983551D02*
X145677516Y-143976177D01*
X145591770Y-143914868D01*
X145552585Y-143860933D01*
X145520773Y-143760439D01*
X145535522Y-143667319D01*
X145569864Y-143601166D01*
X145658140Y-143495827D01*
X145739042Y-143437049D01*
X145866503Y-143385645D01*
X145940031Y-143373426D01*
X146033151Y-143388175D01*
X146118897Y-143449484D01*
X146158082Y-143503418D01*
X146189894Y-143603913D01*
X146182519Y-143650473D01*
X145846477Y-144265442D02*
X146412789Y-143853992D01*
X146081592Y-144589049D02*
X146228863Y-144111230D01*
X146647903Y-144177599D02*
X146089183Y-144089106D01*
X146950687Y-141361872D02*
X147516999Y-140950422D01*
X147249640Y-141433085D01*
X147791299Y-141327963D01*
X147224987Y-141739413D01*
X148065598Y-141705505D02*
X148143970Y-141813374D01*
X148156188Y-141886901D01*
X148141440Y-141980021D01*
X148053163Y-142085360D01*
X147864393Y-142222510D01*
X147736931Y-142273914D01*
X147643811Y-142259165D01*
X147577658Y-142224823D01*
X147499287Y-142116954D01*
X147487068Y-142043427D01*
X147501817Y-141950307D01*
X147590093Y-141844968D01*
X147778864Y-141707818D01*
X147906325Y-141656414D01*
X147999446Y-141671163D01*
X148065598Y-141705505D01*
X147859332Y-142555804D02*
X147891143Y-142656299D01*
X147989108Y-142791135D01*
X148055261Y-142825477D01*
X148101821Y-142832851D01*
X148175348Y-142820633D01*
X148229282Y-142781447D01*
X148263624Y-142715294D01*
X148270998Y-142668734D01*
X148258780Y-142595207D01*
X148207376Y-142467745D01*
X148195157Y-142394218D01*
X148202532Y-142347658D01*
X148236873Y-142281505D01*
X148290808Y-142242319D01*
X148364335Y-142230101D01*
X148410895Y-142237475D01*
X148477048Y-142271817D01*
X148575012Y-142406653D01*
X148606824Y-142507147D01*
X148243815Y-143141709D02*
X148810126Y-142730260D01*
X149054131Y-139833630D02*
X149620443Y-139422180D01*
X149353084Y-139904843D01*
X149894743Y-139799721D01*
X149328431Y-140211171D01*
X149524359Y-140480843D02*
X150090671Y-140069394D01*
X149727662Y-140703956D02*
X149759473Y-140804450D01*
X149857438Y-140939286D01*
X149923590Y-140973628D01*
X149970151Y-140981002D01*
X150043678Y-140968784D01*
X150097612Y-140929598D01*
X150131954Y-140863445D01*
X150139328Y-140816885D01*
X150127110Y-140743358D01*
X150075706Y-140615896D01*
X150063487Y-140542369D01*
X150070862Y-140495809D01*
X150105203Y-140429656D01*
X150159138Y-140390470D01*
X150232665Y-140378252D01*
X150279225Y-140385626D01*
X150345378Y-140419968D01*
X150443342Y-140554804D01*
X150475154Y-140655298D01*
X150756828Y-140986280D02*
X150835199Y-141094149D01*
X150847418Y-141167676D01*
X150832669Y-141260796D01*
X150744393Y-141366135D01*
X150555622Y-141503285D01*
X150428160Y-141554689D01*
X150335040Y-141539940D01*
X150268887Y-141505598D01*
X150190516Y-141397729D01*
X150178297Y-141324202D01*
X150193046Y-141231082D01*
X150281322Y-141125743D01*
X150470093Y-140988593D01*
X150597555Y-140937189D01*
X150690675Y-140951938D01*
X150756828Y-140986280D01*
X151419549Y-138836093D02*
X151985861Y-138424643D01*
X151850591Y-139429372D02*
X151983114Y-139044673D01*
X151615477Y-139105765D02*
X152181789Y-138694316D01*
X152338532Y-138910054D01*
X152350750Y-138983581D01*
X152343376Y-139030141D01*
X152309034Y-139096294D01*
X152228132Y-139155072D01*
X152154605Y-139167291D01*
X152108045Y-139159916D01*
X152041892Y-139125575D01*
X151885149Y-138909837D01*
X152247292Y-140088804D02*
X152235074Y-140015277D01*
X152249822Y-139922157D01*
X152271946Y-139782476D01*
X152259727Y-139708949D01*
X152220541Y-139655015D01*
X152105298Y-139779946D02*
X152093080Y-139706419D01*
X152107828Y-139613299D01*
X152196105Y-139507960D01*
X152384875Y-139370810D01*
X152512337Y-139319406D01*
X152605457Y-139334155D01*
X152671610Y-139368496D01*
X152749981Y-139476365D01*
X152762200Y-139549893D01*
X152747451Y-139643013D01*
X152659175Y-139748351D01*
X152470404Y-139885501D01*
X152342943Y-139936905D01*
X152249822Y-139922157D01*
X152183670Y-139887815D01*
X152105298Y-139779946D01*
X153638019Y-137636302D02*
X153770542Y-137251603D01*
X153402905Y-137312696D02*
X153969217Y-136901246D01*
X154125960Y-137116984D01*
X154138178Y-137190511D01*
X154130804Y-137237071D01*
X154096462Y-137303224D01*
X154015560Y-137362003D01*
X153942033Y-137374221D01*
X153895473Y-137366847D01*
X153829320Y-137332505D01*
X153672577Y-137116767D01*
X153821729Y-137832447D02*
X153853540Y-137932942D01*
X153951505Y-138067778D01*
X154017657Y-138102120D01*
X154064218Y-138109494D01*
X154137745Y-138097276D01*
X154191679Y-138058090D01*
X154226021Y-137991937D01*
X154233395Y-137945377D01*
X154221177Y-137871850D01*
X154169773Y-137744388D01*
X154157554Y-137670861D01*
X154164929Y-137624300D01*
X154199270Y-137558148D01*
X154253205Y-137518962D01*
X154326732Y-137506743D01*
X154373292Y-137514118D01*
X154439445Y-137548459D01*
X154537409Y-137683296D01*
X154569221Y-137783790D01*
X154713745Y-137926001D02*
X154948859Y-138249607D01*
X154264990Y-138499254D02*
X154831302Y-138087804D01*
X155173488Y-134872629D02*
X155310638Y-135061400D01*
X155072776Y-135357823D02*
X154876848Y-135088150D01*
X155443160Y-134676701D01*
X155639088Y-134946373D01*
X155249112Y-135600528D02*
X155815424Y-135189078D01*
X155484226Y-135924135D01*
X156050538Y-135512685D01*
X155969203Y-136478228D02*
X155922643Y-136470854D01*
X155836897Y-136409545D01*
X155797712Y-136355610D01*
X155765900Y-136255116D01*
X155780649Y-136161996D01*
X155814991Y-136095843D01*
X155903267Y-135990504D01*
X155984169Y-135931726D01*
X156111630Y-135880322D01*
X156185158Y-135868103D01*
X156278278Y-135882852D01*
X156364024Y-135944161D01*
X156403209Y-135998095D01*
X156435020Y-136098590D01*
X156427646Y-136145150D01*
X156525394Y-136733368D02*
X156557205Y-136833863D01*
X156549831Y-136880423D01*
X156515489Y-136946576D01*
X156434587Y-137005354D01*
X156361060Y-137017573D01*
X156314500Y-137010198D01*
X156248347Y-136975857D01*
X156091604Y-136760119D01*
X156657916Y-136348669D01*
X156795066Y-136537440D01*
X156807284Y-136610967D01*
X156799910Y-136657527D01*
X156765568Y-136723680D01*
X156711634Y-136762866D01*
X156638107Y-136775084D01*
X156591547Y-136767710D01*
X156525394Y-136733368D01*
X156388244Y-136544598D01*
X157247543Y-133303936D02*
X157384693Y-133492707D01*
X157146832Y-133789130D02*
X156950903Y-133519457D01*
X157517215Y-133108008D01*
X157713144Y-133377680D01*
X157323167Y-134031835D02*
X157889479Y-133620385D01*
X157558281Y-134355442D01*
X158124593Y-133943992D01*
X158043258Y-134909535D02*
X157996698Y-134902161D01*
X157910953Y-134840852D01*
X157871767Y-134786917D01*
X157839956Y-134686423D01*
X157854704Y-134593303D01*
X157889046Y-134527150D01*
X157977322Y-134421811D01*
X158058224Y-134363033D01*
X158185686Y-134311628D01*
X158259213Y-134299410D01*
X158352333Y-134314159D01*
X158438079Y-134375468D01*
X158477264Y-134429402D01*
X158509076Y-134529897D01*
X158501701Y-134576457D01*
X158307870Y-135046902D02*
X158503798Y-135316574D01*
X158106881Y-135110524D02*
X158810343Y-134887845D01*
X158381181Y-135488065D01*
X158758141Y-131299972D02*
X158895291Y-131488743D01*
X158657430Y-131785166D02*
X158461501Y-131515493D01*
X159027813Y-131104044D01*
X159223742Y-131373716D01*
X158833765Y-132027871D02*
X159400077Y-131616421D01*
X159068879Y-132351478D01*
X159635191Y-131940028D01*
X159553856Y-132905571D02*
X159507296Y-132898197D01*
X159421551Y-132836888D01*
X159382365Y-132782953D01*
X159350554Y-132682459D01*
X159365302Y-132589339D01*
X159399644Y-132523186D01*
X159487920Y-132417847D01*
X159568822Y-132359069D01*
X159696284Y-132307664D01*
X159769811Y-132295446D01*
X159862931Y-132310195D01*
X159948677Y-132371504D01*
X159987863Y-132425438D01*
X160019674Y-132525933D01*
X160012299Y-132572493D01*
X159683632Y-133140902D02*
X159715443Y-133241396D01*
X159813407Y-133376232D01*
X159879560Y-133410574D01*
X159926120Y-133417948D01*
X159999648Y-133405730D01*
X160053582Y-133366544D01*
X160087924Y-133300391D01*
X160095298Y-133253831D01*
X160083080Y-133180304D01*
X160031676Y-133052842D01*
X160019457Y-132979315D01*
X160026832Y-132932755D01*
X160061173Y-132866602D01*
X160115108Y-132827416D01*
X160188635Y-132815198D01*
X160235195Y-132822572D01*
X160301348Y-132856914D01*
X160399312Y-132991750D01*
X160431123Y-133092244D01*
X160595241Y-133261422D02*
X160126893Y-133807708D01*
X160609773Y-133621684D01*
X160283636Y-134023446D01*
X160947912Y-133746832D01*
X161547335Y-130715584D02*
X161579146Y-130816078D01*
X161571772Y-130862638D01*
X161537430Y-130928791D01*
X161456528Y-130987570D01*
X161383001Y-130999788D01*
X161336441Y-130992414D01*
X161270288Y-130958072D01*
X161113545Y-130742334D01*
X161679857Y-130330885D01*
X161817007Y-130519655D01*
X161829226Y-130593183D01*
X161821851Y-130639743D01*
X161787510Y-130705896D01*
X161733575Y-130745081D01*
X161660048Y-130757300D01*
X161613488Y-130749925D01*
X161547335Y-130715584D01*
X161410185Y-130526813D01*
X162091307Y-130897197D02*
X161632864Y-131230275D01*
X161598522Y-131296428D01*
X161591148Y-131342988D01*
X161603366Y-131416515D01*
X161681738Y-131524384D01*
X161747891Y-131558726D01*
X161794451Y-131566100D01*
X161867978Y-131553882D01*
X162326421Y-131220803D01*
X162463571Y-131409574D02*
X162698685Y-131733181D01*
X162014816Y-131982827D02*
X162581128Y-131571377D01*
X162703312Y-132306650D02*
X162735124Y-132407145D01*
X162727749Y-132453705D01*
X162693408Y-132519858D01*
X162612506Y-132578637D01*
X162538979Y-132590855D01*
X162492419Y-132583481D01*
X162426266Y-132549139D01*
X162269523Y-132333401D01*
X162835835Y-131921951D01*
X162972985Y-132110722D01*
X162985203Y-132184249D01*
X162977829Y-132230809D01*
X162943487Y-132296962D01*
X162889553Y-132336148D01*
X162816025Y-132348366D01*
X162769465Y-132340992D01*
X162703312Y-132306650D01*
X162566163Y-132117880D01*
X163680168Y-129227794D02*
X163711979Y-129328288D01*
X163704605Y-129374848D01*
X163670263Y-129441001D01*
X163589362Y-129499780D01*
X163515834Y-129511998D01*
X163469274Y-129504624D01*
X163403121Y-129470282D01*
X163246379Y-129254544D01*
X163812690Y-128843095D01*
X163949840Y-129031865D01*
X163962059Y-129105392D01*
X163954684Y-129151953D01*
X163920343Y-129218105D01*
X163866408Y-129257291D01*
X163792881Y-129269510D01*
X163746321Y-129262135D01*
X163680168Y-129227794D01*
X163543018Y-129039023D01*
X164224140Y-129409406D02*
X163765697Y-129742485D01*
X163731356Y-129808638D01*
X163723981Y-129855198D01*
X163736200Y-129928725D01*
X163814571Y-130036594D01*
X163880724Y-130070936D01*
X163927284Y-130078310D01*
X164000811Y-130066092D01*
X164459254Y-129733013D01*
X164596404Y-129921784D02*
X164831518Y-130245391D01*
X164147649Y-130495037D02*
X164713961Y-130083587D01*
X164544567Y-130701087D02*
X164740495Y-130970759D01*
X164343578Y-130764709D02*
X165047040Y-130542030D01*
X164617878Y-131142251D01*
X164943109Y-127506769D02*
X165509421Y-127095319D01*
X165242062Y-127577983D01*
X165783721Y-127472861D01*
X165217409Y-127884310D01*
X165555548Y-128009458D02*
X165751476Y-128279131D01*
X165354559Y-128073081D02*
X166058021Y-127850402D01*
X165628859Y-128450622D01*
X166273542Y-128147042D02*
X166508656Y-128470648D01*
X165824787Y-128720295D02*
X166391099Y-128308845D01*
X166079494Y-129070869D02*
X166645806Y-128659419D01*
X166275422Y-129340541D02*
X166841734Y-128929091D01*
X166510536Y-129664148D01*
X167076848Y-129252698D01*
X167333180Y-126202904D02*
X167137252Y-125933232D01*
X167703563Y-125521782D01*
X167766969Y-126176153D02*
X167904119Y-126364924D01*
X167666258Y-126661347D02*
X167470330Y-126391675D01*
X168036642Y-125980225D01*
X168232570Y-126249897D01*
X167842594Y-126904052D02*
X168408906Y-126492603D01*
X168506870Y-126627439D01*
X168538681Y-126727933D01*
X168523932Y-126821053D01*
X168489591Y-126887206D01*
X168401315Y-126992545D01*
X168320413Y-127051323D01*
X168192951Y-127102728D01*
X168119424Y-127114946D01*
X168026304Y-127100197D01*
X167940558Y-127038888D01*
X167842594Y-126904052D01*
X168254044Y-127470364D02*
X168820355Y-127058914D01*
X168449972Y-127740036D02*
X169016284Y-127328587D01*
X168685086Y-128063643D01*
X169251398Y-127652194D01*
X168706628Y-124010170D02*
X168510700Y-123740498D01*
X169077012Y-123329048D01*
X169140418Y-123983419D02*
X169277568Y-124172190D01*
X169039706Y-124468613D02*
X168843778Y-124198940D01*
X169410090Y-123787491D01*
X169606018Y-124057163D01*
X169216042Y-124711318D02*
X169782354Y-124299868D01*
X169880318Y-124434704D01*
X169912129Y-124535199D01*
X169897381Y-124628319D01*
X169863039Y-124694472D01*
X169774763Y-124799811D01*
X169693861Y-124858589D01*
X169566399Y-124909993D01*
X169492872Y-124922212D01*
X169399752Y-124907463D01*
X169314006Y-124846154D01*
X169216042Y-124711318D01*
X170272175Y-124974049D02*
X170350546Y-125081918D01*
X170362765Y-125155445D01*
X170348016Y-125248565D01*
X170259740Y-125353904D01*
X170070969Y-125491054D01*
X169943508Y-125542458D01*
X169850387Y-125527709D01*
X169784234Y-125493368D01*
X169705863Y-125385499D01*
X169693645Y-125311971D01*
X169708393Y-125218851D01*
X169796670Y-125113513D01*
X169985440Y-124976363D01*
X170112902Y-124924959D01*
X170206022Y-124939707D01*
X170272175Y-124974049D01*
X170624846Y-125459459D02*
X170166403Y-125792538D01*
X170132062Y-125858690D01*
X170124687Y-125905251D01*
X170136906Y-125978778D01*
X170215277Y-126086647D01*
X170281430Y-126120988D01*
X170327990Y-126128363D01*
X170401517Y-126116144D01*
X170859960Y-125783066D01*
X170997110Y-125971837D02*
X171232224Y-126295443D01*
X170548355Y-126545090D02*
X171114667Y-126133640D01*
X172417227Y-123559786D02*
X172405009Y-123486259D01*
X172346230Y-123405357D01*
X172260484Y-123344048D01*
X172167364Y-123329299D01*
X172093837Y-123341518D01*
X171966375Y-123392922D01*
X171885473Y-123451700D01*
X171797197Y-123557039D01*
X171762856Y-123623192D01*
X171748107Y-123716312D01*
X171779918Y-123816807D01*
X171819104Y-123870741D01*
X171904850Y-123932050D01*
X171951410Y-123939424D01*
X172140180Y-123802274D01*
X172061809Y-123694405D01*
X172073811Y-124221315D02*
X172640123Y-123809865D01*
X172308925Y-124544922D01*
X172875237Y-124133472D01*
X172504853Y-124814594D02*
X173071165Y-124403145D01*
X173169129Y-124537981D01*
X173200941Y-124638475D01*
X173186192Y-124731595D01*
X173151850Y-124797748D01*
X173063574Y-124903087D01*
X172982672Y-124961865D01*
X172855211Y-125013270D01*
X172781683Y-125025488D01*
X172688563Y-125010739D01*
X172602817Y-124949430D01*
X172504853Y-124814594D01*
X174172844Y-121666222D02*
X174427551Y-122016796D01*
X174074663Y-121984768D01*
X174133441Y-122065669D01*
X174145660Y-122139197D01*
X174138285Y-122185757D01*
X174103944Y-122251910D01*
X173969108Y-122349874D01*
X173895580Y-122362092D01*
X173849020Y-122354718D01*
X173782867Y-122320376D01*
X173665310Y-122158573D01*
X173653092Y-122085046D01*
X173660466Y-122038486D01*
X174091509Y-122631765D02*
X174084134Y-122678325D01*
X174037574Y-122670950D01*
X174044949Y-122624390D01*
X174091509Y-122631765D01*
X174037574Y-122670950D01*
X174760629Y-122475239D02*
X175015336Y-122825813D01*
X174662448Y-122793785D01*
X174721227Y-122874686D01*
X174733445Y-122948214D01*
X174726071Y-122994774D01*
X174691729Y-123060927D01*
X174556893Y-123158891D01*
X174483366Y-123171109D01*
X174436805Y-123163735D01*
X174370653Y-123129393D01*
X174253095Y-122967590D01*
X174240877Y-122894063D01*
X174248251Y-122847503D01*
X175132893Y-122987616D02*
X174703731Y-123587836D01*
X175407193Y-123365157D01*
X177040408Y-121189702D02*
X176844480Y-120920030D01*
X176555215Y-121088991D01*
X176601775Y-121096365D01*
X176667928Y-121130707D01*
X176765892Y-121265543D01*
X176778110Y-121339070D01*
X176770736Y-121385630D01*
X176736394Y-121451783D01*
X176601558Y-121549747D01*
X176528031Y-121561966D01*
X176481471Y-121554591D01*
X176415318Y-121520250D01*
X176317354Y-121385414D01*
X176305135Y-121311886D01*
X176312510Y-121265326D01*
X177177558Y-121378473D02*
X176748396Y-121978693D01*
X177451858Y-121756014D01*
%TO.C,P2*%
X64297911Y-115592305D02*
X63346855Y-115283288D01*
X63464576Y-114920981D01*
X63539294Y-114845119D01*
X63599298Y-114814546D01*
X63704590Y-114798688D01*
X63840455Y-114842833D01*
X63916317Y-114917552D01*
X63946890Y-114977555D01*
X63962748Y-115082847D01*
X63845027Y-115445154D01*
X63731734Y-114406950D02*
X63701160Y-114346947D01*
X63685302Y-114241655D01*
X63758878Y-114015213D01*
X63833596Y-113939351D01*
X63893600Y-113908778D01*
X63998892Y-113892920D01*
X64089468Y-113922350D01*
X64210618Y-114011783D01*
X64577498Y-114731825D01*
X64768794Y-114143076D01*
X82102911Y-78174920D02*
X82060908Y-78196321D01*
X81955502Y-78197121D01*
X81892098Y-78176520D01*
X81807293Y-78113916D01*
X81764491Y-78029912D01*
X81753390Y-77956207D01*
X81762890Y-77819099D01*
X81793792Y-77723993D01*
X81866696Y-77607486D01*
X81918999Y-77554383D01*
X82003004Y-77511581D01*
X82108410Y-77510780D01*
X82171814Y-77531382D01*
X82256619Y-77593985D01*
X82278020Y-77635988D01*
X82346225Y-78289026D02*
X82431030Y-78351630D01*
X82589540Y-78403132D01*
X82663244Y-78392032D01*
X82705246Y-78370630D01*
X82757549Y-78317527D01*
X82778151Y-78254123D01*
X82767050Y-78180419D01*
X82745649Y-78138417D01*
X82692545Y-78086114D01*
X82576038Y-78013209D01*
X82522935Y-77960906D01*
X82501534Y-77918904D01*
X82490433Y-77845200D01*
X82511034Y-77781796D01*
X82563337Y-77728693D01*
X82605340Y-77707291D01*
X82679044Y-77696191D01*
X82837553Y-77747693D01*
X82922359Y-77810297D01*
X80860390Y-80434905D02*
X80945195Y-80497509D01*
X81103704Y-80549012D01*
X81177409Y-80537911D01*
X81219411Y-80516510D01*
X81271714Y-80463406D01*
X81292315Y-80400003D01*
X81281215Y-80326298D01*
X81259813Y-80284296D01*
X81206710Y-80231993D01*
X81090203Y-80159089D01*
X81037100Y-80106786D01*
X81015699Y-80064783D01*
X81004598Y-79991079D01*
X81025199Y-79927675D01*
X81077502Y-79874572D01*
X81119504Y-79853171D01*
X81193209Y-79842070D01*
X81351718Y-79893573D01*
X81436523Y-79956176D01*
X81916853Y-80743122D02*
X81874850Y-80764523D01*
X81769444Y-80765324D01*
X81706040Y-80744722D01*
X81621235Y-80682119D01*
X81578432Y-80598114D01*
X81567332Y-80524410D01*
X81576832Y-80387301D01*
X81607734Y-80292196D01*
X81680638Y-80175689D01*
X81732941Y-80122586D01*
X81816946Y-80079783D01*
X81922352Y-80078983D01*
X81985756Y-80099584D01*
X82070561Y-80162188D01*
X82091962Y-80204190D01*
X82181568Y-80899231D02*
X82397880Y-80233491D01*
X82561991Y-81022838D02*
X82400281Y-80549710D01*
X82778303Y-80357098D02*
X82274273Y-80613914D01*
X79951540Y-82908452D02*
X80167852Y-82242712D01*
X80235257Y-82790344D01*
X80611678Y-82386920D01*
X80395366Y-83052660D01*
X81055505Y-82531128D02*
X81182312Y-82572330D01*
X81235415Y-82624633D01*
X81278218Y-82708638D01*
X81268718Y-82845746D01*
X81196614Y-83067659D01*
X81123709Y-83184166D01*
X81039705Y-83226969D01*
X80966000Y-83238070D01*
X80839193Y-83196868D01*
X80786089Y-83144565D01*
X80743287Y-83060560D01*
X80752787Y-82923452D01*
X80824891Y-82701538D01*
X80897795Y-82585031D01*
X80981800Y-82542229D01*
X81055505Y-82531128D01*
X81388425Y-83340275D02*
X81473230Y-83402879D01*
X81631740Y-83454382D01*
X81705444Y-83443281D01*
X81747447Y-83421880D01*
X81799750Y-83368776D01*
X81820351Y-83305373D01*
X81809250Y-83231668D01*
X81787849Y-83189666D01*
X81734745Y-83137363D01*
X81618238Y-83064459D01*
X81565135Y-83012156D01*
X81543734Y-82970153D01*
X81532633Y-82896449D01*
X81553234Y-82833045D01*
X81605537Y-82779942D01*
X81647540Y-82758541D01*
X81721244Y-82747440D01*
X81879754Y-82798943D01*
X81964559Y-82861546D01*
X82043864Y-83588289D02*
X82260176Y-82922550D01*
X79148096Y-85381199D02*
X79364408Y-84715459D01*
X79431813Y-85263091D01*
X79808234Y-84859667D01*
X79591922Y-85525407D01*
X79908941Y-85628412D02*
X80125253Y-84962673D01*
X80204559Y-85689416D02*
X80289364Y-85752019D01*
X80447873Y-85803522D01*
X80521578Y-85792421D01*
X80563580Y-85771020D01*
X80615883Y-85717917D01*
X80636484Y-85654513D01*
X80625383Y-85580809D01*
X80603982Y-85538806D01*
X80550879Y-85486503D01*
X80434372Y-85413599D01*
X80381269Y-85361296D01*
X80359867Y-85319293D01*
X80348767Y-85245589D01*
X80369368Y-85182185D01*
X80421671Y-85129082D01*
X80463673Y-85107681D01*
X80537378Y-85096580D01*
X80695887Y-85148083D01*
X80780692Y-85210687D01*
X81203117Y-85312892D02*
X81329925Y-85354094D01*
X81383028Y-85406397D01*
X81425830Y-85490402D01*
X81416330Y-85627510D01*
X81344226Y-85849423D01*
X81271322Y-85965930D01*
X81187317Y-86008733D01*
X81113613Y-86019834D01*
X80986805Y-85978632D01*
X80933702Y-85926329D01*
X80890899Y-85842324D01*
X80900400Y-85705216D01*
X80972504Y-85483302D01*
X81045408Y-85366795D01*
X81129413Y-85323993D01*
X81203117Y-85312892D01*
X78549914Y-87815493D02*
X78766226Y-87149754D01*
X79247355Y-88042106D02*
X79128448Y-87652983D01*
X78866932Y-87918499D02*
X79083244Y-87252759D01*
X79336859Y-87335164D01*
X79389963Y-87387467D01*
X79411364Y-87429469D01*
X79422465Y-87503174D01*
X79391563Y-87598279D01*
X79339260Y-87651383D01*
X79297258Y-87672784D01*
X79223553Y-87683885D01*
X78969938Y-87601480D01*
X79955897Y-88342422D02*
X79902794Y-88290119D01*
X79859991Y-88206115D01*
X79795787Y-88080107D01*
X79742684Y-88027804D01*
X79679280Y-88007203D01*
X79659480Y-88176013D02*
X79606376Y-88123710D01*
X79563574Y-88039705D01*
X79573074Y-87902597D01*
X79645178Y-87680684D01*
X79718082Y-87564177D01*
X79802087Y-87521374D01*
X79875791Y-87510273D01*
X80002599Y-87551476D01*
X80055702Y-87603779D01*
X80098505Y-87687784D01*
X80089004Y-87824892D01*
X80016900Y-88046805D01*
X79943996Y-88163312D01*
X79859991Y-88206115D01*
X79786287Y-88217215D01*
X79659480Y-88176013D01*
X78094389Y-90296142D02*
X77975482Y-89907019D01*
X77713967Y-90172535D02*
X77930279Y-89506796D01*
X78183894Y-89589200D01*
X78236997Y-89641503D01*
X78258398Y-89683506D01*
X78269499Y-89757210D01*
X78238597Y-89852316D01*
X78186294Y-89905419D01*
X78144292Y-89926820D01*
X78070588Y-89937921D01*
X77816973Y-89855516D01*
X78358305Y-90346845D02*
X78443110Y-90409448D01*
X78601620Y-90460951D01*
X78675324Y-90449850D01*
X78717326Y-90428449D01*
X78769629Y-90375346D01*
X78790231Y-90311942D01*
X78779130Y-90238238D01*
X78757728Y-90196235D01*
X78704625Y-90143932D01*
X78588118Y-90071028D01*
X78535015Y-90018725D01*
X78513614Y-89976722D01*
X78502513Y-89903018D01*
X78523114Y-89839614D01*
X78575417Y-89786511D01*
X78617420Y-89765110D01*
X78691124Y-89754009D01*
X78849633Y-89805512D01*
X78934438Y-89868116D01*
X79134950Y-89898217D02*
X79515373Y-90021824D01*
X79108850Y-90625760D02*
X79325162Y-89960020D01*
X77118135Y-92222055D02*
X77340048Y-92294159D01*
X77321847Y-92673781D02*
X77004828Y-92570776D01*
X77221140Y-91905036D01*
X77538159Y-92008042D01*
X77607164Y-92766486D02*
X77823476Y-92100747D01*
X77987587Y-92890093D01*
X78203899Y-92224354D01*
X78705629Y-93053302D02*
X78663627Y-93074703D01*
X78558221Y-93075503D01*
X78494817Y-93054902D01*
X78410012Y-92992299D01*
X78367209Y-92908294D01*
X78356108Y-92834590D01*
X78365609Y-92697481D01*
X78396511Y-92602376D01*
X78469415Y-92485869D01*
X78521718Y-92432766D01*
X78605723Y-92389963D01*
X78711129Y-92389163D01*
X78774533Y-92409764D01*
X78859338Y-92472367D01*
X78880739Y-92514370D01*
X79305565Y-92932794D02*
X79390370Y-92995398D01*
X79411771Y-93037400D01*
X79422872Y-93111104D01*
X79391970Y-93206210D01*
X79339667Y-93259313D01*
X79297665Y-93280715D01*
X79223960Y-93291815D01*
X78970345Y-93209411D01*
X79186657Y-92543671D01*
X79408570Y-92615775D01*
X79461673Y-92668078D01*
X79483075Y-92710081D01*
X79494176Y-92783785D01*
X79473574Y-92847189D01*
X79421271Y-92900292D01*
X79379269Y-92921693D01*
X79305565Y-92932794D01*
X79083651Y-92860690D01*
X76457349Y-94741155D02*
X76679263Y-94813259D01*
X76661062Y-95192881D02*
X76344043Y-95089876D01*
X76560355Y-94424136D01*
X76877374Y-94527142D01*
X76946379Y-95285586D02*
X77162691Y-94619847D01*
X77326802Y-95409193D01*
X77543113Y-94743454D01*
X78044844Y-95572402D02*
X78002842Y-95593803D01*
X77897435Y-95594603D01*
X77834032Y-95574002D01*
X77749227Y-95511399D01*
X77706424Y-95427394D01*
X77695323Y-95353689D01*
X77704824Y-95216581D01*
X77735725Y-95121476D01*
X77808629Y-95004969D01*
X77860933Y-94951865D01*
X77944937Y-94909063D01*
X78050344Y-94908263D01*
X78113747Y-94928864D01*
X78198552Y-94991467D01*
X78219954Y-95033470D01*
X78339661Y-95527999D02*
X78656680Y-95631004D01*
X78214454Y-95697609D02*
X78652679Y-95103973D01*
X78658281Y-95841817D01*
X75588901Y-96982488D02*
X75810814Y-97054592D01*
X75792614Y-97434215D02*
X75475595Y-97331209D01*
X75691907Y-96665470D01*
X76008925Y-96768475D01*
X76077930Y-97526920D02*
X76294242Y-96861180D01*
X76458353Y-97650527D01*
X76674665Y-96984787D01*
X77176396Y-97813735D02*
X77134393Y-97835137D01*
X77028987Y-97835937D01*
X76965583Y-97815336D01*
X76880778Y-97752732D01*
X76837976Y-97668727D01*
X76826875Y-97595023D01*
X76836375Y-97457915D01*
X76867277Y-97362809D01*
X76940181Y-97246302D01*
X76992484Y-97193199D01*
X77076489Y-97150396D01*
X77181895Y-97149596D01*
X77245299Y-97170197D01*
X77330104Y-97232801D01*
X77351505Y-97274803D01*
X77419710Y-97927842D02*
X77504515Y-97990445D01*
X77663025Y-98041948D01*
X77736729Y-98030848D01*
X77778731Y-98009446D01*
X77831034Y-97956343D01*
X77851636Y-97892939D01*
X77840535Y-97819235D01*
X77819134Y-97777232D01*
X77766030Y-97724929D01*
X77649523Y-97652025D01*
X77596420Y-97599722D01*
X77575019Y-97557720D01*
X77563918Y-97484016D01*
X77584519Y-97420612D01*
X77636822Y-97367509D01*
X77678825Y-97346107D01*
X77752529Y-97335006D01*
X77911038Y-97386509D01*
X77995844Y-97449113D01*
X78228057Y-97489515D02*
X78170255Y-98206757D01*
X78451571Y-97772431D01*
X78423870Y-98289162D01*
X78798691Y-97674925D01*
X74943966Y-99506738D02*
X75028771Y-99569341D01*
X75050172Y-99611344D01*
X75061273Y-99685048D01*
X75030371Y-99780154D01*
X74978068Y-99833257D01*
X74936066Y-99854658D01*
X74862361Y-99865759D01*
X74608746Y-99783355D01*
X74825058Y-99117615D01*
X75046971Y-99189719D01*
X75100074Y-99242022D01*
X75121476Y-99284024D01*
X75132577Y-99357729D01*
X75111975Y-99421133D01*
X75059672Y-99474236D01*
X75017670Y-99495637D01*
X74943966Y-99506738D01*
X74722052Y-99434634D01*
X75490798Y-99333927D02*
X75315688Y-99872859D01*
X75326789Y-99946563D01*
X75348190Y-99988566D01*
X75401293Y-100040869D01*
X75528101Y-100082071D01*
X75601805Y-100070970D01*
X75643808Y-100049569D01*
X75696111Y-99996466D01*
X75871220Y-99457534D01*
X76093133Y-99529638D02*
X76473556Y-99653244D01*
X76067033Y-100257181D02*
X76283345Y-99591441D01*
X76814377Y-100114471D02*
X76899182Y-100177075D01*
X76920583Y-100219077D01*
X76931684Y-100292782D01*
X76900782Y-100387887D01*
X76848479Y-100440990D01*
X76806477Y-100462392D01*
X76732772Y-100473493D01*
X76479157Y-100391088D01*
X76695469Y-99725348D01*
X76917382Y-99797452D01*
X76970486Y-99849755D01*
X76991887Y-99891758D01*
X77002988Y-99965462D01*
X76982387Y-100028866D01*
X76930084Y-100081969D01*
X76888081Y-100103370D01*
X76814377Y-100114471D01*
X76592464Y-100042367D01*
X74188074Y-101994936D02*
X74272880Y-102057539D01*
X74294281Y-102099542D01*
X74305382Y-102173246D01*
X74274480Y-102268352D01*
X74222177Y-102321455D01*
X74180174Y-102342856D01*
X74106470Y-102353957D01*
X73852855Y-102271552D01*
X74069167Y-101605813D01*
X74291080Y-101677917D01*
X74344183Y-101730220D01*
X74365585Y-101772222D01*
X74376685Y-101845927D01*
X74356084Y-101909330D01*
X74303781Y-101962434D01*
X74261779Y-101983835D01*
X74188074Y-101994936D01*
X73966161Y-101922832D01*
X74734906Y-101822125D02*
X74559797Y-102361057D01*
X74570898Y-102434761D01*
X74592299Y-102476764D01*
X74645402Y-102529067D01*
X74772210Y-102570269D01*
X74845914Y-102559168D01*
X74887916Y-102537767D01*
X74940219Y-102484664D01*
X75115329Y-101945732D01*
X75337242Y-102017836D02*
X75717665Y-102141442D01*
X75311142Y-102745378D02*
X75527454Y-102079639D01*
X75753368Y-102678774D02*
X76070387Y-102781780D01*
X75628161Y-102848384D02*
X76066386Y-102254749D01*
X76071987Y-102992592D01*
X73095364Y-104548938D02*
X73311676Y-103883198D01*
X73379080Y-104430830D01*
X73755502Y-104027406D01*
X73539190Y-104693146D01*
X73886310Y-104595639D02*
X74203329Y-104698645D01*
X73761103Y-104765250D02*
X74199328Y-104171614D01*
X74204930Y-104909458D01*
X74548049Y-104284920D02*
X74928472Y-104408527D01*
X74521949Y-105012463D02*
X74738260Y-104346724D01*
X74934073Y-105146371D02*
X75150385Y-104480631D01*
X75251092Y-105249376D02*
X75467404Y-104583637D01*
X75631514Y-105372983D01*
X75847826Y-104707243D01*
X72593888Y-107224947D02*
X72276869Y-107121941D01*
X72493181Y-106456201D01*
X72929107Y-106948330D02*
X73151020Y-107020434D01*
X73132820Y-107400056D02*
X72815801Y-107297051D01*
X73032113Y-106631311D01*
X73349131Y-106734317D01*
X73418137Y-107492761D02*
X73634448Y-106827022D01*
X73792958Y-106878525D01*
X73877763Y-106941128D01*
X73920566Y-107025133D01*
X73931666Y-107098838D01*
X73922166Y-107235946D01*
X73891264Y-107331051D01*
X73818360Y-107447558D01*
X73766057Y-107500661D01*
X73682052Y-107543464D01*
X73576646Y-107544264D01*
X73418137Y-107492761D01*
X74083876Y-107709073D02*
X74300188Y-107043334D01*
X74400895Y-107812079D02*
X74617207Y-107146339D01*
X74781318Y-107935686D01*
X74997629Y-107269946D01*
X71883948Y-109517783D02*
X71566929Y-109414777D01*
X71783241Y-108749038D01*
X72219168Y-109241166D02*
X72441081Y-109313270D01*
X72422880Y-109692892D02*
X72105861Y-109589887D01*
X72322173Y-108924147D01*
X72639192Y-109027153D01*
X72708197Y-109785597D02*
X72924509Y-109119858D01*
X73083018Y-109171361D01*
X73167824Y-109233964D01*
X73210626Y-109317969D01*
X73221727Y-109391674D01*
X73212227Y-109528782D01*
X73181325Y-109623887D01*
X73108421Y-109740394D01*
X73056118Y-109793497D01*
X72972113Y-109836300D01*
X72866707Y-109837100D01*
X72708197Y-109785597D01*
X73717056Y-109377372D02*
X73843864Y-109418574D01*
X73896967Y-109470877D01*
X73939770Y-109554882D01*
X73930269Y-109691990D01*
X73858165Y-109913904D01*
X73785261Y-110030411D01*
X73701256Y-110073213D01*
X73627552Y-110084314D01*
X73500744Y-110043112D01*
X73447641Y-109990809D01*
X73404838Y-109906804D01*
X73414339Y-109769696D01*
X73486443Y-109547782D01*
X73559347Y-109431275D01*
X73643352Y-109388473D01*
X73717056Y-109377372D01*
X74287690Y-109562782D02*
X74112580Y-110101714D01*
X74123681Y-110175419D01*
X74145082Y-110217421D01*
X74198186Y-110269724D01*
X74324993Y-110310926D01*
X74398698Y-110299826D01*
X74440700Y-110278424D01*
X74493003Y-110225321D01*
X74668113Y-109686389D01*
X74890026Y-109758493D02*
X75270448Y-109882100D01*
X74863925Y-110486036D02*
X75080237Y-109820296D01*
X71302366Y-111361644D02*
X71249263Y-111309341D01*
X71154157Y-111278439D01*
X71048751Y-111279239D01*
X70964746Y-111322042D01*
X70912443Y-111375145D01*
X70839539Y-111491652D01*
X70808637Y-111586758D01*
X70799137Y-111723866D01*
X70810238Y-111797570D01*
X70853040Y-111881575D01*
X70937846Y-111944179D01*
X71001249Y-111964780D01*
X71106656Y-111963979D01*
X71148658Y-111942578D01*
X71220762Y-111720665D01*
X71093954Y-111679463D01*
X71413374Y-112098687D02*
X71629686Y-111432947D01*
X71793796Y-112222294D01*
X72010108Y-111556554D01*
X72110815Y-112325299D02*
X72327127Y-111659560D01*
X72485637Y-111711063D01*
X72570442Y-111773666D01*
X72613244Y-111857671D01*
X72624345Y-111931376D01*
X72614845Y-112068484D01*
X72583943Y-112163589D01*
X72511039Y-112280096D01*
X72458736Y-112333199D01*
X72374731Y-112376002D01*
X72269325Y-112376802D01*
X72110815Y-112325299D01*
X70064597Y-113553073D02*
X70476721Y-113686981D01*
X70172403Y-113868492D01*
X70267509Y-113899393D01*
X70320612Y-113951696D01*
X70342014Y-113993699D01*
X70353114Y-114067403D01*
X70301611Y-114225913D01*
X70249308Y-114279016D01*
X70207306Y-114300417D01*
X70133602Y-114311518D01*
X69943390Y-114249715D01*
X69890287Y-114197412D01*
X69868886Y-114155409D01*
X70566327Y-114382022D02*
X70587729Y-114424024D01*
X70545726Y-114445425D01*
X70524325Y-114403423D01*
X70566327Y-114382022D01*
X70545726Y-114445425D01*
X71015653Y-113862090D02*
X71427778Y-113995998D01*
X71123460Y-114177509D01*
X71218566Y-114208410D01*
X71271669Y-114260713D01*
X71293070Y-114302716D01*
X71304171Y-114376420D01*
X71252668Y-114534930D01*
X71200365Y-114588033D01*
X71158363Y-114609434D01*
X71084658Y-114620535D01*
X70894447Y-114558732D01*
X70841344Y-114506429D01*
X70819942Y-114464426D01*
X71617989Y-114057801D02*
X71623590Y-114795645D01*
X72061815Y-114202009D01*
X69736680Y-116180329D02*
X69419662Y-116077323D01*
X69284954Y-116384041D01*
X69326957Y-116362640D01*
X69400661Y-116351539D01*
X69559170Y-116403042D01*
X69612273Y-116455345D01*
X69633675Y-116497347D01*
X69644776Y-116571052D01*
X69593273Y-116729561D01*
X69540970Y-116782664D01*
X69498967Y-116804066D01*
X69425263Y-116815166D01*
X69266754Y-116763664D01*
X69213650Y-116711361D01*
X69192249Y-116669358D01*
X69958594Y-116252433D02*
X69964195Y-116990276D01*
X70402420Y-116396640D01*
%TO.C,R11*%
X140357142Y-61122380D02*
X140023809Y-60646190D01*
X139785714Y-61122380D02*
X139785714Y-60122380D01*
X140166666Y-60122380D01*
X140261904Y-60170000D01*
X140309523Y-60217619D01*
X140357142Y-60312857D01*
X140357142Y-60455714D01*
X140309523Y-60550952D01*
X140261904Y-60598571D01*
X140166666Y-60646190D01*
X139785714Y-60646190D01*
X141309523Y-61122380D02*
X140738095Y-61122380D01*
X141023809Y-61122380D02*
X141023809Y-60122380D01*
X140928571Y-60265238D01*
X140833333Y-60360476D01*
X140738095Y-60408095D01*
X142261904Y-61122380D02*
X141690476Y-61122380D01*
X141976190Y-61122380D02*
X141976190Y-60122380D01*
X141880952Y-60265238D01*
X141785714Y-60360476D01*
X141690476Y-60408095D01*
%TO.C,BZ1*%
X120719047Y-81678571D02*
X120861904Y-81726190D01*
X120909523Y-81773809D01*
X120957142Y-81869047D01*
X120957142Y-82011904D01*
X120909523Y-82107142D01*
X120861904Y-82154761D01*
X120766666Y-82202380D01*
X120385714Y-82202380D01*
X120385714Y-81202380D01*
X120719047Y-81202380D01*
X120814285Y-81250000D01*
X120861904Y-81297619D01*
X120909523Y-81392857D01*
X120909523Y-81488095D01*
X120861904Y-81583333D01*
X120814285Y-81630952D01*
X120719047Y-81678571D01*
X120385714Y-81678571D01*
X121290476Y-81202380D02*
X121957142Y-81202380D01*
X121290476Y-82202380D01*
X121957142Y-82202380D01*
X122861904Y-82202380D02*
X122290476Y-82202380D01*
X122576190Y-82202380D02*
X122576190Y-81202380D01*
X122480952Y-81345238D01*
X122385714Y-81440476D01*
X122290476Y-81488095D01*
X125029047Y-77161428D02*
X125790952Y-77161428D01*
X125410000Y-77542380D02*
X125410000Y-76780476D01*
%TO.C,SW1*%
X145166666Y-59454761D02*
X145309523Y-59502380D01*
X145547619Y-59502380D01*
X145642857Y-59454761D01*
X145690476Y-59407142D01*
X145738095Y-59311904D01*
X145738095Y-59216666D01*
X145690476Y-59121428D01*
X145642857Y-59073809D01*
X145547619Y-59026190D01*
X145357142Y-58978571D01*
X145261904Y-58930952D01*
X145214285Y-58883333D01*
X145166666Y-58788095D01*
X145166666Y-58692857D01*
X145214285Y-58597619D01*
X145261904Y-58550000D01*
X145357142Y-58502380D01*
X145595238Y-58502380D01*
X145738095Y-58550000D01*
X146071428Y-58502380D02*
X146309523Y-59502380D01*
X146500000Y-58788095D01*
X146690476Y-59502380D01*
X146928571Y-58502380D01*
X147833333Y-59502380D02*
X147261904Y-59502380D01*
X147547619Y-59502380D02*
X147547619Y-58502380D01*
X147452380Y-58645238D01*
X147357142Y-58740476D01*
X147261904Y-58788095D01*
%TO.C,SW2*%
X124316666Y-124754761D02*
X124459523Y-124802380D01*
X124697619Y-124802380D01*
X124792857Y-124754761D01*
X124840476Y-124707142D01*
X124888095Y-124611904D01*
X124888095Y-124516666D01*
X124840476Y-124421428D01*
X124792857Y-124373809D01*
X124697619Y-124326190D01*
X124507142Y-124278571D01*
X124411904Y-124230952D01*
X124364285Y-124183333D01*
X124316666Y-124088095D01*
X124316666Y-123992857D01*
X124364285Y-123897619D01*
X124411904Y-123850000D01*
X124507142Y-123802380D01*
X124745238Y-123802380D01*
X124888095Y-123850000D01*
X125221428Y-123802380D02*
X125459523Y-124802380D01*
X125650000Y-124088095D01*
X125840476Y-124802380D01*
X126078571Y-123802380D01*
X126411904Y-123897619D02*
X126459523Y-123850000D01*
X126554761Y-123802380D01*
X126792857Y-123802380D01*
X126888095Y-123850000D01*
X126935714Y-123897619D01*
X126983333Y-123992857D01*
X126983333Y-124088095D01*
X126935714Y-124230952D01*
X126364285Y-124802380D01*
X126983333Y-124802380D01*
%TO.C,J1*%
X90466666Y-68902380D02*
X90466666Y-69616666D01*
X90419047Y-69759523D01*
X90323809Y-69854761D01*
X90180952Y-69902380D01*
X90085714Y-69902380D01*
X91466666Y-69902380D02*
X90895238Y-69902380D01*
X91180952Y-69902380D02*
X91180952Y-68902380D01*
X91085714Y-69045238D01*
X90990476Y-69140476D01*
X90895238Y-69188095D01*
%TO.C,U2*%
X164352380Y-109861904D02*
X165161904Y-109861904D01*
X165257142Y-109814285D01*
X165304761Y-109766666D01*
X165352380Y-109671428D01*
X165352380Y-109480952D01*
X165304761Y-109385714D01*
X165257142Y-109338095D01*
X165161904Y-109290476D01*
X164352380Y-109290476D01*
X164447619Y-108861904D02*
X164400000Y-108814285D01*
X164352380Y-108719047D01*
X164352380Y-108480952D01*
X164400000Y-108385714D01*
X164447619Y-108338095D01*
X164542857Y-108290476D01*
X164638095Y-108290476D01*
X164780952Y-108338095D01*
X165352380Y-108909523D01*
X165352380Y-108290476D01*
X158766666Y-87216666D02*
X159200000Y-87216666D01*
X158966666Y-87483333D01*
X159066666Y-87483333D01*
X159133333Y-87516666D01*
X159166666Y-87550000D01*
X159200000Y-87616666D01*
X159200000Y-87783333D01*
X159166666Y-87850000D01*
X159133333Y-87883333D01*
X159066666Y-87916666D01*
X158866666Y-87916666D01*
X158800000Y-87883333D01*
X158766666Y-87850000D01*
X159500000Y-87850000D02*
X159533333Y-87883333D01*
X159500000Y-87916666D01*
X159466666Y-87883333D01*
X159500000Y-87850000D01*
X159500000Y-87916666D01*
X159766666Y-87216666D02*
X160200000Y-87216666D01*
X159966666Y-87483333D01*
X160066666Y-87483333D01*
X160133333Y-87516666D01*
X160166666Y-87550000D01*
X160200000Y-87616666D01*
X160200000Y-87783333D01*
X160166666Y-87850000D01*
X160133333Y-87883333D01*
X160066666Y-87916666D01*
X159866666Y-87916666D01*
X159800000Y-87883333D01*
X159766666Y-87850000D01*
X160400000Y-87216666D02*
X160633333Y-87916666D01*
X160866666Y-87216666D01*
X159366666Y-89750000D02*
X159300000Y-89716666D01*
X159200000Y-89716666D01*
X159100000Y-89750000D01*
X159033333Y-89816666D01*
X159000000Y-89883333D01*
X158966666Y-90016666D01*
X158966666Y-90116666D01*
X159000000Y-90250000D01*
X159033333Y-90316666D01*
X159100000Y-90383333D01*
X159200000Y-90416666D01*
X159266666Y-90416666D01*
X159366666Y-90383333D01*
X159400000Y-90350000D01*
X159400000Y-90116666D01*
X159266666Y-90116666D01*
X159700000Y-90416666D02*
X159700000Y-89716666D01*
X160100000Y-90416666D01*
X160100000Y-89716666D01*
X160433333Y-90416666D02*
X160433333Y-89716666D01*
X160600000Y-89716666D01*
X160700000Y-89750000D01*
X160766666Y-89816666D01*
X160800000Y-89883333D01*
X160833333Y-90016666D01*
X160833333Y-90116666D01*
X160800000Y-90250000D01*
X160766666Y-90316666D01*
X160700000Y-90383333D01*
X160600000Y-90416666D01*
X160433333Y-90416666D01*
X160083333Y-92850000D02*
X160050000Y-92883333D01*
X159950000Y-92916666D01*
X159883333Y-92916666D01*
X159783333Y-92883333D01*
X159716666Y-92816666D01*
X159683333Y-92750000D01*
X159650000Y-92616666D01*
X159650000Y-92516666D01*
X159683333Y-92383333D01*
X159716666Y-92316666D01*
X159783333Y-92250000D01*
X159883333Y-92216666D01*
X159950000Y-92216666D01*
X160050000Y-92250000D01*
X160083333Y-92283333D01*
X160350000Y-92883333D02*
X160450000Y-92916666D01*
X160616666Y-92916666D01*
X160683333Y-92883333D01*
X160716666Y-92850000D01*
X160750000Y-92783333D01*
X160750000Y-92716666D01*
X160716666Y-92650000D01*
X160683333Y-92616666D01*
X160616666Y-92583333D01*
X160483333Y-92550000D01*
X160416666Y-92516666D01*
X160383333Y-92483333D01*
X160350000Y-92416666D01*
X160350000Y-92350000D01*
X160383333Y-92283333D01*
X160416666Y-92250000D01*
X160483333Y-92216666D01*
X160650000Y-92216666D01*
X160750000Y-92250000D01*
X159616666Y-95516666D02*
X159383333Y-95183333D01*
X159216666Y-95516666D02*
X159216666Y-94816666D01*
X159483333Y-94816666D01*
X159550000Y-94850000D01*
X159583333Y-94883333D01*
X159616666Y-94950000D01*
X159616666Y-95050000D01*
X159583333Y-95116666D01*
X159550000Y-95150000D01*
X159483333Y-95183333D01*
X159216666Y-95183333D01*
X159883333Y-95483333D02*
X159983333Y-95516666D01*
X160150000Y-95516666D01*
X160216666Y-95483333D01*
X160250000Y-95450000D01*
X160283333Y-95383333D01*
X160283333Y-95316666D01*
X160250000Y-95250000D01*
X160216666Y-95216666D01*
X160150000Y-95183333D01*
X160016666Y-95150000D01*
X159950000Y-95116666D01*
X159916666Y-95083333D01*
X159883333Y-95016666D01*
X159883333Y-94950000D01*
X159916666Y-94883333D01*
X159950000Y-94850000D01*
X160016666Y-94816666D01*
X160183333Y-94816666D01*
X160283333Y-94850000D01*
X160483333Y-94816666D02*
X160883333Y-94816666D01*
X160683333Y-95516666D02*
X160683333Y-94816666D01*
X159566666Y-97916666D02*
X159566666Y-97216666D01*
X159733333Y-97216666D01*
X159833333Y-97250000D01*
X159900000Y-97316666D01*
X159933333Y-97383333D01*
X159966666Y-97516666D01*
X159966666Y-97616666D01*
X159933333Y-97750000D01*
X159900000Y-97816666D01*
X159833333Y-97883333D01*
X159733333Y-97916666D01*
X159566666Y-97916666D01*
X160666666Y-97850000D02*
X160633333Y-97883333D01*
X160533333Y-97916666D01*
X160466666Y-97916666D01*
X160366666Y-97883333D01*
X160300000Y-97816666D01*
X160266666Y-97750000D01*
X160233333Y-97616666D01*
X160233333Y-97516666D01*
X160266666Y-97383333D01*
X160300000Y-97316666D01*
X160366666Y-97250000D01*
X160466666Y-97216666D01*
X160533333Y-97216666D01*
X160633333Y-97250000D01*
X160666666Y-97283333D01*
X158500000Y-100616666D02*
X158500000Y-99916666D01*
X158733333Y-100416666D01*
X158966666Y-99916666D01*
X158966666Y-100616666D01*
X159433333Y-99916666D02*
X159566666Y-99916666D01*
X159633333Y-99950000D01*
X159700000Y-100016666D01*
X159733333Y-100150000D01*
X159733333Y-100383333D01*
X159700000Y-100516666D01*
X159633333Y-100583333D01*
X159566666Y-100616666D01*
X159433333Y-100616666D01*
X159366666Y-100583333D01*
X159300000Y-100516666D01*
X159266666Y-100383333D01*
X159266666Y-100150000D01*
X159300000Y-100016666D01*
X159366666Y-99950000D01*
X159433333Y-99916666D01*
X160000000Y-100583333D02*
X160100000Y-100616666D01*
X160266666Y-100616666D01*
X160333333Y-100583333D01*
X160366666Y-100550000D01*
X160400000Y-100483333D01*
X160400000Y-100416666D01*
X160366666Y-100350000D01*
X160333333Y-100316666D01*
X160266666Y-100283333D01*
X160133333Y-100250000D01*
X160066666Y-100216666D01*
X160033333Y-100183333D01*
X160000000Y-100116666D01*
X160000000Y-100050000D01*
X160033333Y-99983333D01*
X160066666Y-99950000D01*
X160133333Y-99916666D01*
X160300000Y-99916666D01*
X160400000Y-99950000D01*
X160700000Y-100616666D02*
X160700000Y-99916666D01*
X159483333Y-102950000D02*
X159450000Y-102983333D01*
X159350000Y-103016666D01*
X159283333Y-103016666D01*
X159183333Y-102983333D01*
X159116666Y-102916666D01*
X159083333Y-102850000D01*
X159050000Y-102716666D01*
X159050000Y-102616666D01*
X159083333Y-102483333D01*
X159116666Y-102416666D01*
X159183333Y-102350000D01*
X159283333Y-102316666D01*
X159350000Y-102316666D01*
X159450000Y-102350000D01*
X159483333Y-102383333D01*
X160116666Y-103016666D02*
X159783333Y-103016666D01*
X159783333Y-102316666D01*
X160350000Y-103016666D02*
X160350000Y-102316666D01*
X160750000Y-103016666D02*
X160450000Y-102616666D01*
X160750000Y-102316666D02*
X160350000Y-102716666D01*
X159650000Y-105616666D02*
X159316666Y-105616666D01*
X159316666Y-104916666D01*
X159883333Y-105250000D02*
X160116666Y-105250000D01*
X160216666Y-105616666D02*
X159883333Y-105616666D01*
X159883333Y-104916666D01*
X160216666Y-104916666D01*
X160516666Y-105616666D02*
X160516666Y-104916666D01*
X160683333Y-104916666D01*
X160783333Y-104950000D01*
X160850000Y-105016666D01*
X160883333Y-105083333D01*
X160916666Y-105216666D01*
X160916666Y-105316666D01*
X160883333Y-105450000D01*
X160850000Y-105516666D01*
X160783333Y-105583333D01*
X160683333Y-105616666D01*
X160516666Y-105616666D01*
X158700000Y-108216666D02*
X158700000Y-107516666D01*
X158933333Y-108016666D01*
X159166666Y-107516666D01*
X159166666Y-108216666D01*
X159500000Y-108216666D02*
X159500000Y-107516666D01*
X159800000Y-108183333D02*
X159900000Y-108216666D01*
X160066666Y-108216666D01*
X160133333Y-108183333D01*
X160166666Y-108150000D01*
X160200000Y-108083333D01*
X160200000Y-108016666D01*
X160166666Y-107950000D01*
X160133333Y-107916666D01*
X160066666Y-107883333D01*
X159933333Y-107850000D01*
X159866666Y-107816666D01*
X159833333Y-107783333D01*
X159800000Y-107716666D01*
X159800000Y-107650000D01*
X159833333Y-107583333D01*
X159866666Y-107550000D01*
X159933333Y-107516666D01*
X160100000Y-107516666D01*
X160200000Y-107550000D01*
X160633333Y-107516666D02*
X160766666Y-107516666D01*
X160833333Y-107550000D01*
X160900000Y-107616666D01*
X160933333Y-107750000D01*
X160933333Y-107983333D01*
X160900000Y-108116666D01*
X160833333Y-108183333D01*
X160766666Y-108216666D01*
X160633333Y-108216666D01*
X160566666Y-108183333D01*
X160500000Y-108116666D01*
X160466666Y-107983333D01*
X160466666Y-107750000D01*
X160500000Y-107616666D01*
X160566666Y-107550000D01*
X160633333Y-107516666D01*
X158050000Y-109916666D02*
X158450000Y-109916666D01*
X158250000Y-110616666D02*
X158250000Y-109916666D01*
X158516666Y-110683333D02*
X159050000Y-110683333D01*
X159616666Y-110550000D02*
X159583333Y-110583333D01*
X159483333Y-110616666D01*
X159416666Y-110616666D01*
X159316666Y-110583333D01*
X159250000Y-110516666D01*
X159216666Y-110450000D01*
X159183333Y-110316666D01*
X159183333Y-110216666D01*
X159216666Y-110083333D01*
X159250000Y-110016666D01*
X159316666Y-109950000D01*
X159416666Y-109916666D01*
X159483333Y-109916666D01*
X159583333Y-109950000D01*
X159616666Y-109983333D01*
X160250000Y-110616666D02*
X159916666Y-110616666D01*
X159916666Y-109916666D01*
X160483333Y-110616666D02*
X160483333Y-109916666D01*
X160883333Y-110616666D02*
X160583333Y-110216666D01*
X160883333Y-109916666D02*
X160483333Y-110316666D01*
X158450000Y-112516666D02*
X158850000Y-112516666D01*
X158650000Y-113216666D02*
X158650000Y-112516666D01*
X158916666Y-113283333D02*
X159450000Y-113283333D01*
X160016666Y-113150000D02*
X159983333Y-113183333D01*
X159883333Y-113216666D01*
X159816666Y-113216666D01*
X159716666Y-113183333D01*
X159650000Y-113116666D01*
X159616666Y-113050000D01*
X159583333Y-112916666D01*
X159583333Y-112816666D01*
X159616666Y-112683333D01*
X159650000Y-112616666D01*
X159716666Y-112550000D01*
X159816666Y-112516666D01*
X159883333Y-112516666D01*
X159983333Y-112550000D01*
X160016666Y-112583333D01*
X160283333Y-113183333D02*
X160383333Y-113216666D01*
X160550000Y-113216666D01*
X160616666Y-113183333D01*
X160650000Y-113150000D01*
X160683333Y-113083333D01*
X160683333Y-113016666D01*
X160650000Y-112950000D01*
X160616666Y-112916666D01*
X160550000Y-112883333D01*
X160416666Y-112850000D01*
X160350000Y-112816666D01*
X160316666Y-112783333D01*
X160283333Y-112716666D01*
X160283333Y-112650000D01*
X160316666Y-112583333D01*
X160350000Y-112550000D01*
X160416666Y-112516666D01*
X160583333Y-112516666D01*
X160683333Y-112550000D01*
X158150000Y-115016666D02*
X158550000Y-115016666D01*
X158350000Y-115716666D02*
X158350000Y-115016666D01*
X158616666Y-115783333D02*
X159150000Y-115783333D01*
X159316666Y-115716666D02*
X159316666Y-115016666D01*
X159483333Y-115016666D01*
X159583333Y-115050000D01*
X159650000Y-115116666D01*
X159683333Y-115183333D01*
X159716666Y-115316666D01*
X159716666Y-115416666D01*
X159683333Y-115550000D01*
X159650000Y-115616666D01*
X159583333Y-115683333D01*
X159483333Y-115716666D01*
X159316666Y-115716666D01*
X160016666Y-115716666D02*
X160016666Y-115016666D01*
X160350000Y-115716666D02*
X160350000Y-115016666D01*
X160750000Y-115716666D01*
X160750000Y-115016666D01*
X158516666Y-117516666D02*
X158916666Y-117516666D01*
X158716666Y-118216666D02*
X158716666Y-117516666D01*
X158983333Y-118283333D02*
X159516666Y-118283333D01*
X159683333Y-118216666D02*
X159683333Y-117516666D01*
X159850000Y-117516666D01*
X159950000Y-117550000D01*
X160016666Y-117616666D01*
X160050000Y-117683333D01*
X160083333Y-117816666D01*
X160083333Y-117916666D01*
X160050000Y-118050000D01*
X160016666Y-118116666D01*
X159950000Y-118183333D01*
X159850000Y-118216666D01*
X159683333Y-118216666D01*
X160516666Y-117516666D02*
X160650000Y-117516666D01*
X160716666Y-117550000D01*
X160783333Y-117616666D01*
X160816666Y-117750000D01*
X160816666Y-117983333D01*
X160783333Y-118116666D01*
X160716666Y-118183333D01*
X160650000Y-118216666D01*
X160516666Y-118216666D01*
X160450000Y-118183333D01*
X160383333Y-118116666D01*
X160350000Y-117983333D01*
X160350000Y-117750000D01*
X160383333Y-117616666D01*
X160450000Y-117550000D01*
X160516666Y-117516666D01*
X158250000Y-120016666D02*
X158650000Y-120016666D01*
X158450000Y-120716666D02*
X158450000Y-120016666D01*
X158716666Y-120783333D02*
X159250000Y-120783333D01*
X159416666Y-120716666D02*
X159416666Y-120016666D01*
X160150000Y-120716666D02*
X159916666Y-120383333D01*
X159750000Y-120716666D02*
X159750000Y-120016666D01*
X160016666Y-120016666D01*
X160083333Y-120050000D01*
X160116666Y-120083333D01*
X160150000Y-120150000D01*
X160150000Y-120250000D01*
X160116666Y-120316666D01*
X160083333Y-120350000D01*
X160016666Y-120383333D01*
X159750000Y-120383333D01*
X160916666Y-120783333D02*
X160850000Y-120750000D01*
X160783333Y-120683333D01*
X160683333Y-120583333D01*
X160616666Y-120550000D01*
X160550000Y-120550000D01*
X160583333Y-120716666D02*
X160516666Y-120683333D01*
X160450000Y-120616666D01*
X160416666Y-120483333D01*
X160416666Y-120250000D01*
X160450000Y-120116666D01*
X160516666Y-120050000D01*
X160583333Y-120016666D01*
X160716666Y-120016666D01*
X160783333Y-120050000D01*
X160850000Y-120116666D01*
X160883333Y-120250000D01*
X160883333Y-120483333D01*
X160850000Y-120616666D01*
X160783333Y-120683333D01*
X160716666Y-120716666D01*
X160583333Y-120716666D01*
%TD*%
M02*
