%FSLAX45Y45*%
G04 Gerber Fmt 4.5, Leading zero omitted, Abs format (unit mm)*
G04 Created by KiCad (PCBNEW (5.1.7-0-10_14)) date 2021-04-07 16:23:26*
%MOMM*%
%LPD*%
G01*
G04 APERTURE LIST*
%TA.AperFunction,Profile*%
%ADD10C,0.050000*%
%TD*%
%TA.AperFunction,Profile*%
%ADD11C,0.150000*%
%TD*%
%ADD12C,0.200000*%
%ADD13C,0.300000*%
G04 APERTURE END LIST*
D10*
X19680000Y-7320000D02*
X19860000Y-7320000D01*
X19680000Y-4400000D02*
X19680000Y-7320000D01*
X22020000Y-7320000D02*
X19860000Y-7320000D01*
X22020000Y-4400000D02*
X22020000Y-7320000D01*
X19680000Y-4400000D02*
X22020000Y-4400000D01*
D11*
X25690302Y-5809164D02*
G75*
G03*
X2193600Y-6640400I-11176302J-16585836D01*
G01*
X10289100Y-17783000D02*
X2193600Y-6640400D01*
X16990800Y-17783000D02*
X25690300Y-5809100D01*
X10289100Y-17783000D02*
X16990800Y-17783000D01*
D12*
X6010000Y-11563000D02*
X6050000Y-11603000D01*
X6050000Y-11563000D02*
X6010000Y-11603000D01*
X6571000Y-11575000D02*
X6611000Y-11615000D01*
X6611000Y-11575000D02*
X6571000Y-11615000D01*
X6787000Y-11054000D02*
X6827000Y-11094000D01*
X6827000Y-11054000D02*
X6787000Y-11094000D01*
X6818000Y-12384000D02*
X6858000Y-12424000D01*
X6858000Y-12384000D02*
X6818000Y-12424000D01*
X7865100Y-12360900D02*
X7905100Y-12400900D01*
X7905100Y-12360900D02*
X7865100Y-12400900D01*
X7939000Y-13954000D02*
X7979000Y-13994000D01*
X7979000Y-13954000D02*
X7939000Y-13994000D01*
X7984000Y-12923000D02*
X8024000Y-12963000D01*
X8024000Y-12923000D02*
X7984000Y-12963000D01*
X8327850Y-9775650D02*
X8367850Y-9815650D01*
X8367850Y-9775650D02*
X8327850Y-9815650D01*
X9025000Y-15458000D02*
X9065000Y-15498000D01*
X9065000Y-15458000D02*
X9025000Y-15498000D01*
X9111000Y-14426000D02*
X9151000Y-14466000D01*
X9151000Y-14426000D02*
X9111000Y-14466000D01*
X9358800Y-14274000D02*
X9398800Y-14314000D01*
X9398800Y-14274000D02*
X9358800Y-14314000D01*
X9570700Y-8757900D02*
X9610700Y-8797900D01*
X9610700Y-8757900D02*
X9570700Y-8797900D01*
X9786000Y-16030000D02*
X9826000Y-16070000D01*
X9826000Y-16030000D02*
X9786000Y-16070000D01*
X9896300Y-11013900D02*
X9936300Y-11053900D01*
X9936300Y-11013900D02*
X9896300Y-11053900D01*
X10044000Y-17015000D02*
X10084000Y-17055000D01*
X10084000Y-17015000D02*
X10044000Y-17055000D01*
X10769150Y-12685850D02*
X10809150Y-12725850D01*
X10809150Y-12685850D02*
X10769150Y-12725850D01*
X10773850Y-7979850D02*
X10813850Y-8019850D01*
X10813850Y-7979850D02*
X10773850Y-8019850D01*
X10923000Y-11001000D02*
X10963000Y-11041000D01*
X10963000Y-11001000D02*
X10923000Y-11041000D01*
X11026000Y-17184000D02*
X11066000Y-17224000D01*
X11066000Y-17184000D02*
X11026000Y-17224000D01*
X11232500Y-9962500D02*
X11272500Y-10002500D01*
X11272500Y-9962500D02*
X11232500Y-10002500D01*
X11527000Y-16390000D02*
X11567000Y-16430000D01*
X11567000Y-16390000D02*
X11527000Y-16430000D01*
X11530000Y-16839000D02*
X11570000Y-16879000D01*
X11570000Y-16839000D02*
X11530000Y-16879000D01*
X11573000Y-15788000D02*
X11613000Y-15828000D01*
X11613000Y-15788000D02*
X11573000Y-15828000D01*
X11944000Y-11257000D02*
X11984000Y-11297000D01*
X11984000Y-11257000D02*
X11944000Y-11297000D01*
X12115000Y-9961000D02*
X12155000Y-10001000D01*
X12155000Y-9961000D02*
X12115000Y-10001000D01*
X12272900Y-9047100D02*
X12312900Y-9087100D01*
X12312900Y-9047100D02*
X12272900Y-9087100D01*
X12440200Y-14266000D02*
X12480200Y-14306000D01*
X12480200Y-14266000D02*
X12440200Y-14306000D01*
X12550000Y-5470000D02*
X12590000Y-5510000D01*
X12590000Y-5470000D02*
X12550000Y-5510000D01*
X12811400Y-12701000D02*
X12851400Y-12741000D01*
X12851400Y-12701000D02*
X12811400Y-12741000D01*
X12993000Y-9560000D02*
X13033000Y-9600000D01*
X13033000Y-9560000D02*
X12993000Y-9600000D01*
X13311000Y-11350000D02*
X13351000Y-11390000D01*
X13351000Y-11350000D02*
X13311000Y-11390000D01*
X13400800Y-8327000D02*
X13440800Y-8367000D01*
X13440800Y-8327000D02*
X13400800Y-8367000D01*
X13690400Y-9790000D02*
X13730400Y-9830000D01*
X13730400Y-9790000D02*
X13690400Y-9830000D01*
X13705200Y-14271000D02*
X13745200Y-14311000D01*
X13745200Y-14271000D02*
X13705200Y-14311000D01*
X13726600Y-11227000D02*
X13766600Y-11267000D01*
X13766600Y-11227000D02*
X13726600Y-11267000D01*
X13900600Y-12704000D02*
X13940600Y-12744000D01*
X13940600Y-12704000D02*
X13900600Y-12744000D01*
X14143600Y-17287000D02*
X14183600Y-17327000D01*
X14183600Y-17287000D02*
X14143600Y-17327000D01*
X14610000Y-5780000D02*
X14650000Y-5820000D01*
X14650000Y-5780000D02*
X14610000Y-5820000D01*
X14631000Y-5577000D02*
X14671000Y-5617000D01*
X14671000Y-5577000D02*
X14631000Y-5617000D01*
X14662400Y-8310000D02*
X14702400Y-8350000D01*
X14702400Y-8310000D02*
X14662400Y-8350000D01*
X14873600Y-14271000D02*
X14913600Y-14311000D01*
X14913600Y-14271000D02*
X14873600Y-14311000D01*
X15372800Y-12705000D02*
X15412800Y-12745000D01*
X15412800Y-12705000D02*
X15372800Y-12745000D01*
X15414600Y-9793000D02*
X15454600Y-9833000D01*
X15454600Y-9793000D02*
X15414600Y-9833000D01*
X15426000Y-5786000D02*
X15466000Y-5826000D01*
X15466000Y-5786000D02*
X15426000Y-5826000D01*
X15429000Y-5574000D02*
X15469000Y-5614000D01*
X15469000Y-5574000D02*
X15429000Y-5614000D01*
X15455900Y-8267700D02*
X15495900Y-8307700D01*
X15495900Y-8267700D02*
X15455900Y-8307700D01*
X15513000Y-15834000D02*
X15553000Y-15874000D01*
X15553000Y-15834000D02*
X15513000Y-15874000D01*
X15513000Y-15834000D02*
X15553000Y-15874000D01*
X15553000Y-15834000D02*
X15513000Y-15874000D01*
X15583800Y-11224000D02*
X15623800Y-11264000D01*
X15623800Y-11224000D02*
X15583800Y-11264000D01*
X16080200Y-8924200D02*
X16120200Y-8964200D01*
X16120200Y-8924200D02*
X16080200Y-8964200D01*
X16090100Y-12698900D02*
X16130100Y-12738900D01*
X16130100Y-12698900D02*
X16090100Y-12738900D01*
X16206000Y-5263000D02*
X16246000Y-5303000D01*
X16246000Y-5263000D02*
X16206000Y-5303000D01*
X16379200Y-17312000D02*
X16419200Y-17352000D01*
X16419200Y-17312000D02*
X16379200Y-17352000D01*
X16937000Y-14299000D02*
X16977000Y-14339000D01*
X16977000Y-14299000D02*
X16937000Y-14339000D01*
X17029600Y-12698900D02*
X17069600Y-12738900D01*
X17069600Y-12698900D02*
X17029600Y-12738900D01*
X17204800Y-9857000D02*
X17244800Y-9897000D01*
X17244800Y-9857000D02*
X17204800Y-9897000D01*
X17240000Y-6360000D02*
X17280000Y-6400000D01*
X17280000Y-6360000D02*
X17240000Y-6400000D01*
X17305800Y-12575400D02*
X17345800Y-12615400D01*
X17345800Y-12575400D02*
X17305800Y-12615400D01*
X17324000Y-12789000D02*
X17364000Y-12829000D01*
X17364000Y-12789000D02*
X17324000Y-12829000D01*
X17348000Y-11207000D02*
X17388000Y-11247000D01*
X17388000Y-11207000D02*
X17348000Y-11247000D01*
X17565400Y-15821000D02*
X17605400Y-15861000D01*
X17605400Y-15821000D02*
X17565400Y-15861000D01*
X17834000Y-16030000D02*
X17874000Y-16070000D01*
X17874000Y-16030000D02*
X17834000Y-16070000D01*
X17861200Y-12782000D02*
X17901200Y-12822000D01*
X17901200Y-12782000D02*
X17861200Y-12822000D01*
X18366000Y-15324000D02*
X18406000Y-15364000D01*
X18406000Y-15324000D02*
X18366000Y-15364000D01*
X18394600Y-12782000D02*
X18434600Y-12822000D01*
X18434600Y-12782000D02*
X18394600Y-12822000D01*
X18423400Y-8257400D02*
X18463400Y-8297400D01*
X18463400Y-8257400D02*
X18423400Y-8297400D01*
X18450600Y-10567000D02*
X18490600Y-10607000D01*
X18490600Y-10567000D02*
X18450600Y-10607000D01*
X18542000Y-10853000D02*
X18582000Y-10893000D01*
X18582000Y-10853000D02*
X18542000Y-10893000D01*
X18862400Y-14270000D02*
X18902400Y-14310000D01*
X18902400Y-14270000D02*
X18862400Y-14310000D01*
X18911900Y-10943900D02*
X18951900Y-10983900D01*
X18951900Y-10943900D02*
X18911900Y-10983900D01*
X19355300Y-11313300D02*
X19395300Y-11353300D01*
X19395300Y-11313300D02*
X19355300Y-11353300D01*
X19396000Y-11799000D02*
X19436000Y-11839000D01*
X19436000Y-11799000D02*
X19396000Y-11839000D01*
X19680800Y-9209800D02*
X19720800Y-9249800D01*
X19720800Y-9209800D02*
X19680800Y-9249800D01*
X21163000Y-10415000D02*
X21203000Y-10455000D01*
X21203000Y-10415000D02*
X21163000Y-10455000D01*
X21280000Y-11328000D02*
X21320000Y-11368000D01*
X21320000Y-11328000D02*
X21280000Y-11368000D01*
X18427100Y-11506200D02*
G75*
G03*
X18427100Y-11506200I-37500J0D01*
G01*
X18960500Y-11506200D02*
G75*
G03*
X18960500Y-11506200I-37500J0D01*
G01*
X11451500Y-17495000D02*
G75*
G03*
X11451500Y-17495000I-37500J0D01*
G01*
X11705500Y-17495000D02*
G75*
G03*
X11705500Y-17495000I-37500J0D01*
G01*
X11959500Y-17495000D02*
G75*
G03*
X11959500Y-17495000I-37500J0D01*
G01*
X12213500Y-17495000D02*
G75*
G03*
X12213500Y-17495000I-37500J0D01*
G01*
X12467500Y-17495000D02*
G75*
G03*
X12467500Y-17495000I-37500J0D01*
G01*
X12721500Y-17495000D02*
G75*
G03*
X12721500Y-17495000I-37500J0D01*
G01*
X12975500Y-17495000D02*
G75*
G03*
X12975500Y-17495000I-37500J0D01*
G01*
X13229500Y-17495000D02*
G75*
G03*
X13229500Y-17495000I-37500J0D01*
G01*
X13483500Y-17495000D02*
G75*
G03*
X13483500Y-17495000I-37500J0D01*
G01*
X13737500Y-17495000D02*
G75*
G03*
X13737500Y-17495000I-37500J0D01*
G01*
X13991500Y-17495000D02*
G75*
G03*
X13991500Y-17495000I-37500J0D01*
G01*
X14245500Y-17495000D02*
G75*
G03*
X14245500Y-17495000I-37500J0D01*
G01*
X14499500Y-17495000D02*
G75*
G03*
X14499500Y-17495000I-37500J0D01*
G01*
X14753500Y-17495000D02*
G75*
G03*
X14753500Y-17495000I-37500J0D01*
G01*
X15007500Y-17495000D02*
G75*
G03*
X15007500Y-17495000I-37500J0D01*
G01*
X15261500Y-17495000D02*
G75*
G03*
X15261500Y-17495000I-37500J0D01*
G01*
X15515500Y-17495000D02*
G75*
G03*
X15515500Y-17495000I-37500J0D01*
G01*
X15343500Y-3315000D02*
G75*
G03*
X15343500Y-3315000I-37500J0D01*
G01*
X15343500Y-6465000D02*
G75*
G03*
X15343500Y-6465000I-37500J0D01*
G01*
X15597500Y-3315000D02*
G75*
G03*
X15597500Y-3315000I-37500J0D01*
G01*
X15597500Y-6465000D02*
G75*
G03*
X15597500Y-6465000I-37500J0D01*
G01*
X15851500Y-3315000D02*
G75*
G03*
X15851500Y-3315000I-37500J0D01*
G01*
X15851500Y-6465000D02*
G75*
G03*
X15851500Y-6465000I-37500J0D01*
G01*
X20080000Y-7772900D02*
X20080000Y-7849100D01*
X20041900Y-7811000D02*
X20118100Y-7811000D01*
X20334000Y-7772900D02*
X20334000Y-7849100D01*
X20295900Y-7811000D02*
X20372100Y-7811000D01*
X20588000Y-7772900D02*
X20588000Y-7849100D01*
X20549900Y-7811000D02*
X20626100Y-7811000D01*
X20842000Y-7772900D02*
X20842000Y-7849100D01*
X20803900Y-7811000D02*
X20880100Y-7811000D01*
X21096000Y-7772900D02*
X21096000Y-7849100D01*
X21057900Y-7811000D02*
X21134100Y-7811000D01*
X21350000Y-7772900D02*
X21350000Y-7849100D01*
X21311900Y-7811000D02*
X21388100Y-7811000D01*
X21604000Y-7772900D02*
X21604000Y-7849100D01*
X21565900Y-7811000D02*
X21642100Y-7811000D01*
X21858000Y-7772900D02*
X21858000Y-7849100D01*
X21819900Y-7811000D02*
X21896100Y-7811000D01*
X15884956Y-14868956D02*
X15884956Y-14798244D01*
X15814244Y-14798244D01*
X15814244Y-14868956D01*
X15884956Y-14868956D01*
X16443756Y-14945156D02*
X16443756Y-14874444D01*
X16373044Y-14874444D01*
X16373044Y-14945156D01*
X16443756Y-14945156D01*
X19295356Y-9793356D02*
X19295356Y-9722644D01*
X19224644Y-9722644D01*
X19224644Y-9793356D01*
X19295356Y-9793356D01*
X21117356Y-10779556D02*
X21117356Y-10708844D01*
X21046644Y-10708844D01*
X21046644Y-10779556D01*
X21117356Y-10779556D01*
X17849356Y-4580356D02*
X17849356Y-4509644D01*
X17778644Y-4509644D01*
X17778644Y-4580356D01*
X17849356Y-4580356D01*
X17849356Y-6030356D02*
X17849356Y-5959644D01*
X17778644Y-5959644D01*
X17778644Y-6030356D01*
X17849356Y-6030356D01*
X18099356Y-6030356D02*
X18099356Y-5959644D01*
X18028644Y-5959644D01*
X18028644Y-6030356D01*
X18099356Y-6030356D01*
X18349356Y-4580356D02*
X18349356Y-4509644D01*
X18278644Y-4509644D01*
X18278644Y-4580356D01*
X18349356Y-4580356D01*
X18349356Y-6030356D02*
X18349356Y-5959644D01*
X18278644Y-5959644D01*
X18278644Y-6030356D01*
X18349356Y-6030356D01*
X17504000Y-5320000D02*
X17579000Y-5245000D01*
X17504000Y-5170000D01*
X17429000Y-5245000D01*
X17504000Y-5320000D01*
X17569000Y-5310000D02*
X17569000Y-5180000D01*
X17439000Y-5310000D02*
X17439000Y-5180000D01*
X17569000Y-5180000D02*
G75*
G03*
X17439000Y-5180000I-65000J0D01*
G01*
X17439000Y-5310000D02*
G75*
G03*
X17569000Y-5310000I65000J0D01*
G01*
X18624000Y-5320000D02*
X18699000Y-5245000D01*
X18624000Y-5170000D01*
X18549000Y-5245000D01*
X18624000Y-5320000D01*
X18689000Y-5310000D02*
X18689000Y-5180000D01*
X18559000Y-5310000D02*
X18559000Y-5180000D01*
X18689000Y-5180000D02*
G75*
G03*
X18559000Y-5180000I-65000J0D01*
G01*
X18559000Y-5310000D02*
G75*
G03*
X18689000Y-5310000I65000J0D01*
G01*
X10587000Y-4721000D02*
X10662000Y-4646000D01*
X10587000Y-4571000D01*
X10512000Y-4646000D01*
X10587000Y-4721000D01*
X10522000Y-4581000D02*
X10522000Y-4711000D01*
X10652000Y-4581000D02*
X10652000Y-4711000D01*
X10522000Y-4711000D02*
G75*
G03*
X10652000Y-4711000I65000J0D01*
G01*
X10652000Y-4581000D02*
G75*
G03*
X10522000Y-4581000I-65000J0D01*
G01*
X11067000Y-4271000D02*
X11142000Y-4196000D01*
X11067000Y-4121000D01*
X10992000Y-4196000D01*
X11067000Y-4271000D01*
X11002000Y-4261000D02*
X11132000Y-4261000D01*
X11002000Y-4131000D02*
X11132000Y-4131000D01*
X11132000Y-4261000D02*
G75*
G03*
X11132000Y-4131000I0J65000D01*
G01*
X11002000Y-4131000D02*
G75*
G03*
X11002000Y-4261000I0J-65000D01*
G01*
X11067000Y-5231000D02*
X11142000Y-5156000D01*
X11067000Y-5081000D01*
X10992000Y-5156000D01*
X11067000Y-5231000D01*
X11002000Y-5221000D02*
X11132000Y-5221000D01*
X11002000Y-5091000D02*
X11132000Y-5091000D01*
X11132000Y-5221000D02*
G75*
G03*
X11132000Y-5091000I0J65000D01*
G01*
X11002000Y-5091000D02*
G75*
G03*
X11002000Y-5221000I0J-65000D01*
G01*
X11547000Y-4721000D02*
X11622000Y-4646000D01*
X11547000Y-4571000D01*
X11472000Y-4646000D01*
X11547000Y-4721000D01*
X11482000Y-4581000D02*
X11482000Y-4711000D01*
X11612000Y-4581000D02*
X11612000Y-4711000D01*
X11482000Y-4711000D02*
G75*
G03*
X11612000Y-4711000I65000J0D01*
G01*
X11612000Y-4581000D02*
G75*
G03*
X11482000Y-4581000I-65000J0D01*
G01*
X8506000Y-5394000D02*
X8581000Y-5319000D01*
X8506000Y-5244000D01*
X8431000Y-5319000D01*
X8506000Y-5394000D01*
X8441000Y-5254000D02*
X8441000Y-5384000D01*
X8571000Y-5254000D02*
X8571000Y-5384000D01*
X8441000Y-5384000D02*
G75*
G03*
X8571000Y-5384000I65000J0D01*
G01*
X8571000Y-5254000D02*
G75*
G03*
X8441000Y-5254000I-65000J0D01*
G01*
X8986000Y-4944000D02*
X9061000Y-4869000D01*
X8986000Y-4794000D01*
X8911000Y-4869000D01*
X8986000Y-4944000D01*
X8921000Y-4934000D02*
X9051000Y-4934000D01*
X8921000Y-4804000D02*
X9051000Y-4804000D01*
X9051000Y-4934000D02*
G75*
G03*
X9051000Y-4804000I0J65000D01*
G01*
X8921000Y-4804000D02*
G75*
G03*
X8921000Y-4934000I0J-65000D01*
G01*
X8986000Y-5904000D02*
X9061000Y-5829000D01*
X8986000Y-5754000D01*
X8911000Y-5829000D01*
X8986000Y-5904000D01*
X8921000Y-5894000D02*
X9051000Y-5894000D01*
X8921000Y-5764000D02*
X9051000Y-5764000D01*
X9051000Y-5894000D02*
G75*
G03*
X9051000Y-5764000I0J65000D01*
G01*
X8921000Y-5764000D02*
G75*
G03*
X8921000Y-5894000I0J-65000D01*
G01*
X9466000Y-5394000D02*
X9541000Y-5319000D01*
X9466000Y-5244000D01*
X9391000Y-5319000D01*
X9466000Y-5394000D01*
X9401000Y-5254000D02*
X9401000Y-5384000D01*
X9531000Y-5254000D02*
X9531000Y-5384000D01*
X9401000Y-5384000D02*
G75*
G03*
X9531000Y-5384000I65000J0D01*
G01*
X9531000Y-5254000D02*
G75*
G03*
X9401000Y-5254000I-65000J0D01*
G01*
D13*
X2472528Y-18256214D02*
X2472528Y-17956214D01*
X2543957Y-17956214D01*
X2586814Y-17970500D01*
X2615386Y-17999072D01*
X2629671Y-18027643D01*
X2643957Y-18084786D01*
X2643957Y-18127643D01*
X2629671Y-18184786D01*
X2615386Y-18213357D01*
X2586814Y-18241929D01*
X2543957Y-18256214D01*
X2472528Y-18256214D01*
X2772528Y-18256214D02*
X2772528Y-18056214D01*
X2772528Y-18113357D02*
X2786814Y-18084786D01*
X2801100Y-18070500D01*
X2829671Y-18056214D01*
X2858243Y-18056214D01*
X2958243Y-18256214D02*
X2958243Y-18056214D01*
X2958243Y-17956214D02*
X2943957Y-17970500D01*
X2958243Y-17984786D01*
X2972528Y-17970500D01*
X2958243Y-17956214D01*
X2958243Y-17984786D01*
X3143957Y-18256214D02*
X3115386Y-18241929D01*
X3101100Y-18213357D01*
X3101100Y-17956214D01*
X3301100Y-18256214D02*
X3272528Y-18241929D01*
X3258243Y-18213357D01*
X3258243Y-17956214D01*
X3643957Y-18256214D02*
X3643957Y-17956214D01*
X3743957Y-18170500D01*
X3843957Y-17956214D01*
X3843957Y-18256214D01*
X4115386Y-18256214D02*
X4115386Y-18099072D01*
X4101100Y-18070500D01*
X4072528Y-18056214D01*
X4015386Y-18056214D01*
X3986814Y-18070500D01*
X4115386Y-18241929D02*
X4086814Y-18256214D01*
X4015386Y-18256214D01*
X3986814Y-18241929D01*
X3972528Y-18213357D01*
X3972528Y-18184786D01*
X3986814Y-18156214D01*
X4015386Y-18141929D01*
X4086814Y-18141929D01*
X4115386Y-18127643D01*
X4258243Y-18056214D02*
X4258243Y-18356214D01*
X4258243Y-18070500D02*
X4286814Y-18056214D01*
X4343957Y-18056214D01*
X4372528Y-18070500D01*
X4386814Y-18084786D01*
X4401100Y-18113357D01*
X4401100Y-18199072D01*
X4386814Y-18227643D01*
X4372528Y-18241929D01*
X4343957Y-18256214D01*
X4286814Y-18256214D01*
X4258243Y-18241929D01*
X4529671Y-18227643D02*
X4543957Y-18241929D01*
X4529671Y-18256214D01*
X4515386Y-18241929D01*
X4529671Y-18227643D01*
X4529671Y-18256214D01*
X4529671Y-18070500D02*
X4543957Y-18084786D01*
X4529671Y-18099072D01*
X4515386Y-18084786D01*
X4529671Y-18070500D01*
X4529671Y-18099072D01*
X2146100Y-18730500D02*
X2186100Y-18770500D01*
X2186100Y-18730500D02*
X2146100Y-18770500D01*
X2529671Y-18586214D02*
X2558243Y-18586214D01*
X2586814Y-18600500D01*
X2601100Y-18614786D01*
X2615386Y-18643357D01*
X2629671Y-18700500D01*
X2629671Y-18771929D01*
X2615386Y-18829072D01*
X2601100Y-18857643D01*
X2586814Y-18871929D01*
X2558243Y-18886214D01*
X2529671Y-18886214D01*
X2501100Y-18871929D01*
X2486814Y-18857643D01*
X2472528Y-18829072D01*
X2458243Y-18771929D01*
X2458243Y-18700500D01*
X2472528Y-18643357D01*
X2486814Y-18614786D01*
X2501100Y-18600500D01*
X2529671Y-18586214D01*
X2758243Y-18857643D02*
X2772528Y-18871929D01*
X2758243Y-18886214D01*
X2743957Y-18871929D01*
X2758243Y-18857643D01*
X2758243Y-18886214D01*
X3029671Y-18686214D02*
X3029671Y-18886214D01*
X2958243Y-18571929D02*
X2886814Y-18786214D01*
X3072528Y-18786214D01*
X3243957Y-18586214D02*
X3272528Y-18586214D01*
X3301100Y-18600500D01*
X3315386Y-18614786D01*
X3329671Y-18643357D01*
X3343957Y-18700500D01*
X3343957Y-18771929D01*
X3329671Y-18829072D01*
X3315386Y-18857643D01*
X3301100Y-18871929D01*
X3272528Y-18886214D01*
X3243957Y-18886214D01*
X3215386Y-18871929D01*
X3201100Y-18857643D01*
X3186814Y-18829072D01*
X3172528Y-18771929D01*
X3172528Y-18700500D01*
X3186814Y-18643357D01*
X3201100Y-18614786D01*
X3215386Y-18600500D01*
X3243957Y-18586214D01*
X3472528Y-18886214D02*
X3472528Y-18686214D01*
X3472528Y-18714786D02*
X3486814Y-18700500D01*
X3515386Y-18686214D01*
X3558243Y-18686214D01*
X3586814Y-18700500D01*
X3601100Y-18729072D01*
X3601100Y-18886214D01*
X3601100Y-18729072D02*
X3615386Y-18700500D01*
X3643957Y-18686214D01*
X3686814Y-18686214D01*
X3715386Y-18700500D01*
X3729671Y-18729072D01*
X3729671Y-18886214D01*
X3872528Y-18886214D02*
X3872528Y-18686214D01*
X3872528Y-18714786D02*
X3886814Y-18700500D01*
X3915386Y-18686214D01*
X3958243Y-18686214D01*
X3986814Y-18700500D01*
X4001100Y-18729072D01*
X4001100Y-18886214D01*
X4001100Y-18729072D02*
X4015386Y-18700500D01*
X4043957Y-18686214D01*
X4086814Y-18686214D01*
X4115386Y-18700500D01*
X4129671Y-18729072D01*
X4129671Y-18886214D01*
X4715386Y-18571929D02*
X4458243Y-18957643D01*
X5101100Y-18586214D02*
X5129671Y-18586214D01*
X5158243Y-18600500D01*
X5172528Y-18614786D01*
X5186814Y-18643357D01*
X5201100Y-18700500D01*
X5201100Y-18771929D01*
X5186814Y-18829072D01*
X5172528Y-18857643D01*
X5158243Y-18871929D01*
X5129671Y-18886214D01*
X5101100Y-18886214D01*
X5072528Y-18871929D01*
X5058243Y-18857643D01*
X5043957Y-18829072D01*
X5029671Y-18771929D01*
X5029671Y-18700500D01*
X5043957Y-18643357D01*
X5058243Y-18614786D01*
X5072528Y-18600500D01*
X5101100Y-18586214D01*
X5329671Y-18857643D02*
X5343957Y-18871929D01*
X5329671Y-18886214D01*
X5315386Y-18871929D01*
X5329671Y-18857643D01*
X5329671Y-18886214D01*
X5529671Y-18586214D02*
X5558243Y-18586214D01*
X5586814Y-18600500D01*
X5601100Y-18614786D01*
X5615386Y-18643357D01*
X5629671Y-18700500D01*
X5629671Y-18771929D01*
X5615386Y-18829072D01*
X5601100Y-18857643D01*
X5586814Y-18871929D01*
X5558243Y-18886214D01*
X5529671Y-18886214D01*
X5501100Y-18871929D01*
X5486814Y-18857643D01*
X5472528Y-18829072D01*
X5458243Y-18771929D01*
X5458243Y-18700500D01*
X5472528Y-18643357D01*
X5486814Y-18614786D01*
X5501100Y-18600500D01*
X5529671Y-18586214D01*
X5915386Y-18886214D02*
X5743957Y-18886214D01*
X5829671Y-18886214D02*
X5829671Y-18586214D01*
X5801100Y-18629072D01*
X5772528Y-18657643D01*
X5743957Y-18671929D01*
X6172528Y-18586214D02*
X6115386Y-18586214D01*
X6086814Y-18600500D01*
X6072528Y-18614786D01*
X6043957Y-18657643D01*
X6029671Y-18714786D01*
X6029671Y-18829072D01*
X6043957Y-18857643D01*
X6058243Y-18871929D01*
X6086814Y-18886214D01*
X6143957Y-18886214D01*
X6172528Y-18871929D01*
X6186814Y-18857643D01*
X6201100Y-18829072D01*
X6201100Y-18757643D01*
X6186814Y-18729072D01*
X6172528Y-18714786D01*
X6143957Y-18700500D01*
X6086814Y-18700500D01*
X6058243Y-18714786D01*
X6043957Y-18729072D01*
X6029671Y-18757643D01*
X6315386Y-18586214D02*
X6315386Y-18643357D01*
X6429671Y-18586214D02*
X6429671Y-18643357D01*
X6872528Y-19000500D02*
X6858243Y-18986214D01*
X6829671Y-18943357D01*
X6815386Y-18914786D01*
X6801100Y-18871929D01*
X6786814Y-18800500D01*
X6786814Y-18743357D01*
X6801100Y-18671929D01*
X6815386Y-18629072D01*
X6829671Y-18600500D01*
X6858243Y-18557643D01*
X6872528Y-18543357D01*
X6958243Y-18586214D02*
X7158243Y-18586214D01*
X7029671Y-18886214D01*
X7415386Y-18586214D02*
X7272528Y-18586214D01*
X7258243Y-18729072D01*
X7272528Y-18714786D01*
X7301100Y-18700500D01*
X7372528Y-18700500D01*
X7401100Y-18714786D01*
X7415386Y-18729072D01*
X7429671Y-18757643D01*
X7429671Y-18829072D01*
X7415386Y-18857643D01*
X7401100Y-18871929D01*
X7372528Y-18886214D01*
X7301100Y-18886214D01*
X7272528Y-18871929D01*
X7258243Y-18857643D01*
X7786814Y-18886214D02*
X7786814Y-18586214D01*
X7915386Y-18886214D02*
X7915386Y-18729072D01*
X7901100Y-18700500D01*
X7872528Y-18686214D01*
X7829671Y-18686214D01*
X7801100Y-18700500D01*
X7786814Y-18714786D01*
X8101100Y-18886214D02*
X8072528Y-18871929D01*
X8058243Y-18857643D01*
X8043957Y-18829072D01*
X8043957Y-18743357D01*
X8058243Y-18714786D01*
X8072528Y-18700500D01*
X8101100Y-18686214D01*
X8143957Y-18686214D01*
X8172528Y-18700500D01*
X8186814Y-18714786D01*
X8201100Y-18743357D01*
X8201100Y-18829072D01*
X8186814Y-18857643D01*
X8172528Y-18871929D01*
X8143957Y-18886214D01*
X8101100Y-18886214D01*
X8372528Y-18886214D02*
X8343957Y-18871929D01*
X8329671Y-18843357D01*
X8329671Y-18586214D01*
X8601100Y-18871929D02*
X8572528Y-18886214D01*
X8515386Y-18886214D01*
X8486814Y-18871929D01*
X8472528Y-18843357D01*
X8472528Y-18729072D01*
X8486814Y-18700500D01*
X8515386Y-18686214D01*
X8572528Y-18686214D01*
X8601100Y-18700500D01*
X8615386Y-18729072D01*
X8615386Y-18757643D01*
X8472528Y-18786214D01*
X8729671Y-18871929D02*
X8758243Y-18886214D01*
X8815386Y-18886214D01*
X8843957Y-18871929D01*
X8858243Y-18843357D01*
X8858243Y-18829072D01*
X8843957Y-18800500D01*
X8815386Y-18786214D01*
X8772528Y-18786214D01*
X8743957Y-18771929D01*
X8729671Y-18743357D01*
X8729671Y-18729072D01*
X8743957Y-18700500D01*
X8772528Y-18686214D01*
X8815386Y-18686214D01*
X8843957Y-18700500D01*
X8958243Y-19000500D02*
X8972528Y-18986214D01*
X9001100Y-18943357D01*
X9015386Y-18914786D01*
X9029671Y-18871929D01*
X9043957Y-18800500D01*
X9043957Y-18743357D01*
X9029671Y-18671929D01*
X9015386Y-18629072D01*
X9001100Y-18600500D01*
X8972528Y-18557643D01*
X8958243Y-18543357D01*
X2186100Y-19146500D02*
G75*
G03*
X2186100Y-19146500I-37500J0D01*
G01*
X2529671Y-18982214D02*
X2558243Y-18982214D01*
X2586814Y-18996500D01*
X2601100Y-19010786D01*
X2615386Y-19039357D01*
X2629671Y-19096500D01*
X2629671Y-19167929D01*
X2615386Y-19225072D01*
X2601100Y-19253643D01*
X2586814Y-19267929D01*
X2558243Y-19282214D01*
X2529671Y-19282214D01*
X2501100Y-19267929D01*
X2486814Y-19253643D01*
X2472528Y-19225072D01*
X2458243Y-19167929D01*
X2458243Y-19096500D01*
X2472528Y-19039357D01*
X2486814Y-19010786D01*
X2501100Y-18996500D01*
X2529671Y-18982214D01*
X2758243Y-19253643D02*
X2772528Y-19267929D01*
X2758243Y-19282214D01*
X2743957Y-19267929D01*
X2758243Y-19253643D01*
X2758243Y-19282214D01*
X2872528Y-18982214D02*
X3072528Y-18982214D01*
X2943957Y-19282214D01*
X3329671Y-18982214D02*
X3186814Y-18982214D01*
X3172528Y-19125072D01*
X3186814Y-19110786D01*
X3215386Y-19096500D01*
X3286814Y-19096500D01*
X3315386Y-19110786D01*
X3329671Y-19125072D01*
X3343957Y-19153643D01*
X3343957Y-19225072D01*
X3329671Y-19253643D01*
X3315386Y-19267929D01*
X3286814Y-19282214D01*
X3215386Y-19282214D01*
X3186814Y-19267929D01*
X3172528Y-19253643D01*
X3472528Y-19282214D02*
X3472528Y-19082214D01*
X3472528Y-19110786D02*
X3486814Y-19096500D01*
X3515386Y-19082214D01*
X3558243Y-19082214D01*
X3586814Y-19096500D01*
X3601100Y-19125072D01*
X3601100Y-19282214D01*
X3601100Y-19125072D02*
X3615386Y-19096500D01*
X3643957Y-19082214D01*
X3686814Y-19082214D01*
X3715386Y-19096500D01*
X3729671Y-19125072D01*
X3729671Y-19282214D01*
X3872528Y-19282214D02*
X3872528Y-19082214D01*
X3872528Y-19110786D02*
X3886814Y-19096500D01*
X3915386Y-19082214D01*
X3958243Y-19082214D01*
X3986814Y-19096500D01*
X4001100Y-19125072D01*
X4001100Y-19282214D01*
X4001100Y-19125072D02*
X4015386Y-19096500D01*
X4043957Y-19082214D01*
X4086814Y-19082214D01*
X4115386Y-19096500D01*
X4129671Y-19125072D01*
X4129671Y-19282214D01*
X4715386Y-18967929D02*
X4458243Y-19353643D01*
X5101100Y-18982214D02*
X5129671Y-18982214D01*
X5158243Y-18996500D01*
X5172528Y-19010786D01*
X5186814Y-19039357D01*
X5201100Y-19096500D01*
X5201100Y-19167929D01*
X5186814Y-19225072D01*
X5172528Y-19253643D01*
X5158243Y-19267929D01*
X5129671Y-19282214D01*
X5101100Y-19282214D01*
X5072528Y-19267929D01*
X5058243Y-19253643D01*
X5043957Y-19225072D01*
X5029671Y-19167929D01*
X5029671Y-19096500D01*
X5043957Y-19039357D01*
X5058243Y-19010786D01*
X5072528Y-18996500D01*
X5101100Y-18982214D01*
X5329671Y-19253643D02*
X5343957Y-19267929D01*
X5329671Y-19282214D01*
X5315386Y-19267929D01*
X5329671Y-19253643D01*
X5329671Y-19282214D01*
X5529671Y-18982214D02*
X5558243Y-18982214D01*
X5586814Y-18996500D01*
X5601100Y-19010786D01*
X5615386Y-19039357D01*
X5629671Y-19096500D01*
X5629671Y-19167929D01*
X5615386Y-19225072D01*
X5601100Y-19253643D01*
X5586814Y-19267929D01*
X5558243Y-19282214D01*
X5529671Y-19282214D01*
X5501100Y-19267929D01*
X5486814Y-19253643D01*
X5472528Y-19225072D01*
X5458243Y-19167929D01*
X5458243Y-19096500D01*
X5472528Y-19039357D01*
X5486814Y-19010786D01*
X5501100Y-18996500D01*
X5529671Y-18982214D01*
X5729671Y-18982214D02*
X5915386Y-18982214D01*
X5815386Y-19096500D01*
X5858243Y-19096500D01*
X5886814Y-19110786D01*
X5901100Y-19125072D01*
X5915386Y-19153643D01*
X5915386Y-19225072D01*
X5901100Y-19253643D01*
X5886814Y-19267929D01*
X5858243Y-19282214D01*
X5772528Y-19282214D01*
X5743957Y-19267929D01*
X5729671Y-19253643D01*
X6101100Y-18982214D02*
X6129671Y-18982214D01*
X6158243Y-18996500D01*
X6172528Y-19010786D01*
X6186814Y-19039357D01*
X6201100Y-19096500D01*
X6201100Y-19167929D01*
X6186814Y-19225072D01*
X6172528Y-19253643D01*
X6158243Y-19267929D01*
X6129671Y-19282214D01*
X6101100Y-19282214D01*
X6072528Y-19267929D01*
X6058243Y-19253643D01*
X6043957Y-19225072D01*
X6029671Y-19167929D01*
X6029671Y-19096500D01*
X6043957Y-19039357D01*
X6058243Y-19010786D01*
X6072528Y-18996500D01*
X6101100Y-18982214D01*
X6315386Y-18982214D02*
X6315386Y-19039357D01*
X6429671Y-18982214D02*
X6429671Y-19039357D01*
X6872528Y-19396500D02*
X6858243Y-19382214D01*
X6829671Y-19339357D01*
X6815386Y-19310786D01*
X6801100Y-19267929D01*
X6786814Y-19196500D01*
X6786814Y-19139357D01*
X6801100Y-19067929D01*
X6815386Y-19025072D01*
X6829671Y-18996500D01*
X6858243Y-18953643D01*
X6872528Y-18939357D01*
X6972528Y-19010786D02*
X6986814Y-18996500D01*
X7015386Y-18982214D01*
X7086814Y-18982214D01*
X7115386Y-18996500D01*
X7129671Y-19010786D01*
X7143957Y-19039357D01*
X7143957Y-19067929D01*
X7129671Y-19110786D01*
X6958243Y-19282214D01*
X7143957Y-19282214D01*
X7415386Y-18982214D02*
X7272528Y-18982214D01*
X7258243Y-19125072D01*
X7272528Y-19110786D01*
X7301100Y-19096500D01*
X7372528Y-19096500D01*
X7401100Y-19110786D01*
X7415386Y-19125072D01*
X7429671Y-19153643D01*
X7429671Y-19225072D01*
X7415386Y-19253643D01*
X7401100Y-19267929D01*
X7372528Y-19282214D01*
X7301100Y-19282214D01*
X7272528Y-19267929D01*
X7258243Y-19253643D01*
X7786814Y-19282214D02*
X7786814Y-18982214D01*
X7915386Y-19282214D02*
X7915386Y-19125072D01*
X7901100Y-19096500D01*
X7872528Y-19082214D01*
X7829671Y-19082214D01*
X7801100Y-19096500D01*
X7786814Y-19110786D01*
X8101100Y-19282214D02*
X8072528Y-19267929D01*
X8058243Y-19253643D01*
X8043957Y-19225072D01*
X8043957Y-19139357D01*
X8058243Y-19110786D01*
X8072528Y-19096500D01*
X8101100Y-19082214D01*
X8143957Y-19082214D01*
X8172528Y-19096500D01*
X8186814Y-19110786D01*
X8201100Y-19139357D01*
X8201100Y-19225072D01*
X8186814Y-19253643D01*
X8172528Y-19267929D01*
X8143957Y-19282214D01*
X8101100Y-19282214D01*
X8372528Y-19282214D02*
X8343957Y-19267929D01*
X8329671Y-19239357D01*
X8329671Y-18982214D01*
X8601100Y-19267929D02*
X8572528Y-19282214D01*
X8515386Y-19282214D01*
X8486814Y-19267929D01*
X8472528Y-19239357D01*
X8472528Y-19125072D01*
X8486814Y-19096500D01*
X8515386Y-19082214D01*
X8572528Y-19082214D01*
X8601100Y-19096500D01*
X8615386Y-19125072D01*
X8615386Y-19153643D01*
X8472528Y-19182214D01*
X8729671Y-19267929D02*
X8758243Y-19282214D01*
X8815386Y-19282214D01*
X8843957Y-19267929D01*
X8858243Y-19239357D01*
X8858243Y-19225072D01*
X8843957Y-19196500D01*
X8815386Y-19182214D01*
X8772528Y-19182214D01*
X8743957Y-19167929D01*
X8729671Y-19139357D01*
X8729671Y-19125072D01*
X8743957Y-19096500D01*
X8772528Y-19082214D01*
X8815386Y-19082214D01*
X8843957Y-19096500D01*
X8958243Y-19396500D02*
X8972528Y-19382214D01*
X9001100Y-19339357D01*
X9015386Y-19310786D01*
X9029671Y-19267929D01*
X9043957Y-19196500D01*
X9043957Y-19139357D01*
X9029671Y-19067929D01*
X9015386Y-19025072D01*
X9001100Y-18996500D01*
X8972528Y-18953643D01*
X8958243Y-18939357D01*
X2148000Y-19504400D02*
X2148000Y-19580600D01*
X2109900Y-19542500D02*
X2186100Y-19542500D01*
X2529671Y-19378214D02*
X2558243Y-19378214D01*
X2586814Y-19392500D01*
X2601100Y-19406786D01*
X2615386Y-19435357D01*
X2629671Y-19492500D01*
X2629671Y-19563929D01*
X2615386Y-19621072D01*
X2601100Y-19649643D01*
X2586814Y-19663929D01*
X2558243Y-19678214D01*
X2529671Y-19678214D01*
X2501100Y-19663929D01*
X2486814Y-19649643D01*
X2472528Y-19621072D01*
X2458243Y-19563929D01*
X2458243Y-19492500D01*
X2472528Y-19435357D01*
X2486814Y-19406786D01*
X2501100Y-19392500D01*
X2529671Y-19378214D01*
X2758243Y-19649643D02*
X2772528Y-19663929D01*
X2758243Y-19678214D01*
X2743957Y-19663929D01*
X2758243Y-19649643D01*
X2758243Y-19678214D01*
X2872528Y-19378214D02*
X3072528Y-19378214D01*
X2943957Y-19678214D01*
X3315386Y-19378214D02*
X3258243Y-19378214D01*
X3229671Y-19392500D01*
X3215386Y-19406786D01*
X3186814Y-19449643D01*
X3172528Y-19506786D01*
X3172528Y-19621072D01*
X3186814Y-19649643D01*
X3201100Y-19663929D01*
X3229671Y-19678214D01*
X3286814Y-19678214D01*
X3315386Y-19663929D01*
X3329671Y-19649643D01*
X3343957Y-19621072D01*
X3343957Y-19549643D01*
X3329671Y-19521072D01*
X3315386Y-19506786D01*
X3286814Y-19492500D01*
X3229671Y-19492500D01*
X3201100Y-19506786D01*
X3186814Y-19521072D01*
X3172528Y-19549643D01*
X3472528Y-19678214D02*
X3472528Y-19478214D01*
X3472528Y-19506786D02*
X3486814Y-19492500D01*
X3515386Y-19478214D01*
X3558243Y-19478214D01*
X3586814Y-19492500D01*
X3601100Y-19521072D01*
X3601100Y-19678214D01*
X3601100Y-19521072D02*
X3615386Y-19492500D01*
X3643957Y-19478214D01*
X3686814Y-19478214D01*
X3715386Y-19492500D01*
X3729671Y-19521072D01*
X3729671Y-19678214D01*
X3872528Y-19678214D02*
X3872528Y-19478214D01*
X3872528Y-19506786D02*
X3886814Y-19492500D01*
X3915386Y-19478214D01*
X3958243Y-19478214D01*
X3986814Y-19492500D01*
X4001100Y-19521072D01*
X4001100Y-19678214D01*
X4001100Y-19521072D02*
X4015386Y-19492500D01*
X4043957Y-19478214D01*
X4086814Y-19478214D01*
X4115386Y-19492500D01*
X4129671Y-19521072D01*
X4129671Y-19678214D01*
X4715386Y-19363929D02*
X4458243Y-19749643D01*
X5101100Y-19378214D02*
X5129671Y-19378214D01*
X5158243Y-19392500D01*
X5172528Y-19406786D01*
X5186814Y-19435357D01*
X5201100Y-19492500D01*
X5201100Y-19563929D01*
X5186814Y-19621072D01*
X5172528Y-19649643D01*
X5158243Y-19663929D01*
X5129671Y-19678214D01*
X5101100Y-19678214D01*
X5072528Y-19663929D01*
X5058243Y-19649643D01*
X5043957Y-19621072D01*
X5029671Y-19563929D01*
X5029671Y-19492500D01*
X5043957Y-19435357D01*
X5058243Y-19406786D01*
X5072528Y-19392500D01*
X5101100Y-19378214D01*
X5329671Y-19649643D02*
X5343957Y-19663929D01*
X5329671Y-19678214D01*
X5315386Y-19663929D01*
X5329671Y-19649643D01*
X5329671Y-19678214D01*
X5529671Y-19378214D02*
X5558243Y-19378214D01*
X5586814Y-19392500D01*
X5601100Y-19406786D01*
X5615386Y-19435357D01*
X5629671Y-19492500D01*
X5629671Y-19563929D01*
X5615386Y-19621072D01*
X5601100Y-19649643D01*
X5586814Y-19663929D01*
X5558243Y-19678214D01*
X5529671Y-19678214D01*
X5501100Y-19663929D01*
X5486814Y-19649643D01*
X5472528Y-19621072D01*
X5458243Y-19563929D01*
X5458243Y-19492500D01*
X5472528Y-19435357D01*
X5486814Y-19406786D01*
X5501100Y-19392500D01*
X5529671Y-19378214D01*
X5729671Y-19378214D02*
X5915386Y-19378214D01*
X5815386Y-19492500D01*
X5858243Y-19492500D01*
X5886814Y-19506786D01*
X5901100Y-19521072D01*
X5915386Y-19549643D01*
X5915386Y-19621072D01*
X5901100Y-19649643D01*
X5886814Y-19663929D01*
X5858243Y-19678214D01*
X5772528Y-19678214D01*
X5743957Y-19663929D01*
X5729671Y-19649643D01*
X6101100Y-19378214D02*
X6129671Y-19378214D01*
X6158243Y-19392500D01*
X6172528Y-19406786D01*
X6186814Y-19435357D01*
X6201100Y-19492500D01*
X6201100Y-19563929D01*
X6186814Y-19621072D01*
X6172528Y-19649643D01*
X6158243Y-19663929D01*
X6129671Y-19678214D01*
X6101100Y-19678214D01*
X6072528Y-19663929D01*
X6058243Y-19649643D01*
X6043957Y-19621072D01*
X6029671Y-19563929D01*
X6029671Y-19492500D01*
X6043957Y-19435357D01*
X6058243Y-19406786D01*
X6072528Y-19392500D01*
X6101100Y-19378214D01*
X6315386Y-19378214D02*
X6315386Y-19435357D01*
X6429671Y-19378214D02*
X6429671Y-19435357D01*
X6872528Y-19792500D02*
X6858243Y-19778214D01*
X6829671Y-19735357D01*
X6815386Y-19706786D01*
X6801100Y-19663929D01*
X6786814Y-19592500D01*
X6786814Y-19535357D01*
X6801100Y-19463929D01*
X6815386Y-19421072D01*
X6829671Y-19392500D01*
X6858243Y-19349643D01*
X6872528Y-19335357D01*
X7029671Y-19506786D02*
X7001100Y-19492500D01*
X6986814Y-19478214D01*
X6972528Y-19449643D01*
X6972528Y-19435357D01*
X6986814Y-19406786D01*
X7001100Y-19392500D01*
X7029671Y-19378214D01*
X7086814Y-19378214D01*
X7115386Y-19392500D01*
X7129671Y-19406786D01*
X7143957Y-19435357D01*
X7143957Y-19449643D01*
X7129671Y-19478214D01*
X7115386Y-19492500D01*
X7086814Y-19506786D01*
X7029671Y-19506786D01*
X7001100Y-19521072D01*
X6986814Y-19535357D01*
X6972528Y-19563929D01*
X6972528Y-19621072D01*
X6986814Y-19649643D01*
X7001100Y-19663929D01*
X7029671Y-19678214D01*
X7086814Y-19678214D01*
X7115386Y-19663929D01*
X7129671Y-19649643D01*
X7143957Y-19621072D01*
X7143957Y-19563929D01*
X7129671Y-19535357D01*
X7115386Y-19521072D01*
X7086814Y-19506786D01*
X7501100Y-19678214D02*
X7501100Y-19378214D01*
X7629671Y-19678214D02*
X7629671Y-19521072D01*
X7615386Y-19492500D01*
X7586814Y-19478214D01*
X7543957Y-19478214D01*
X7515386Y-19492500D01*
X7501100Y-19506786D01*
X7815386Y-19678214D02*
X7786814Y-19663929D01*
X7772528Y-19649643D01*
X7758243Y-19621072D01*
X7758243Y-19535357D01*
X7772528Y-19506786D01*
X7786814Y-19492500D01*
X7815386Y-19478214D01*
X7858243Y-19478214D01*
X7886814Y-19492500D01*
X7901100Y-19506786D01*
X7915386Y-19535357D01*
X7915386Y-19621072D01*
X7901100Y-19649643D01*
X7886814Y-19663929D01*
X7858243Y-19678214D01*
X7815386Y-19678214D01*
X8086814Y-19678214D02*
X8058243Y-19663929D01*
X8043957Y-19635357D01*
X8043957Y-19378214D01*
X8315386Y-19663929D02*
X8286814Y-19678214D01*
X8229671Y-19678214D01*
X8201100Y-19663929D01*
X8186814Y-19635357D01*
X8186814Y-19521072D01*
X8201100Y-19492500D01*
X8229671Y-19478214D01*
X8286814Y-19478214D01*
X8315386Y-19492500D01*
X8329671Y-19521072D01*
X8329671Y-19549643D01*
X8186814Y-19578214D01*
X8443957Y-19663929D02*
X8472528Y-19678214D01*
X8529671Y-19678214D01*
X8558243Y-19663929D01*
X8572528Y-19635357D01*
X8572528Y-19621072D01*
X8558243Y-19592500D01*
X8529671Y-19578214D01*
X8486814Y-19578214D01*
X8458243Y-19563929D01*
X8443957Y-19535357D01*
X8443957Y-19521072D01*
X8458243Y-19492500D01*
X8486814Y-19478214D01*
X8529671Y-19478214D01*
X8558243Y-19492500D01*
X8672528Y-19792500D02*
X8686814Y-19778214D01*
X8715386Y-19735357D01*
X8729671Y-19706786D01*
X8743957Y-19663929D01*
X8758243Y-19592500D01*
X8758243Y-19535357D01*
X8743957Y-19463929D01*
X8729671Y-19421072D01*
X8715386Y-19392500D01*
X8686814Y-19349643D01*
X8672528Y-19335357D01*
X2171456Y-19973856D02*
X2171456Y-19903144D01*
X2100744Y-19903144D01*
X2100744Y-19973856D01*
X2171456Y-19973856D01*
X2629671Y-20074214D02*
X2458243Y-20074214D01*
X2543957Y-20074214D02*
X2543957Y-19774214D01*
X2515386Y-19817072D01*
X2486814Y-19845643D01*
X2458243Y-19859929D01*
X2758243Y-20045643D02*
X2772528Y-20059929D01*
X2758243Y-20074214D01*
X2743957Y-20059929D01*
X2758243Y-20045643D01*
X2758243Y-20074214D01*
X2958243Y-19774214D02*
X2986814Y-19774214D01*
X3015386Y-19788500D01*
X3029671Y-19802786D01*
X3043957Y-19831357D01*
X3058243Y-19888500D01*
X3058243Y-19959929D01*
X3043957Y-20017072D01*
X3029671Y-20045643D01*
X3015386Y-20059929D01*
X2986814Y-20074214D01*
X2958243Y-20074214D01*
X2929671Y-20059929D01*
X2915386Y-20045643D01*
X2901100Y-20017072D01*
X2886814Y-19959929D01*
X2886814Y-19888500D01*
X2901100Y-19831357D01*
X2915386Y-19802786D01*
X2929671Y-19788500D01*
X2958243Y-19774214D01*
X3243957Y-19774214D02*
X3272528Y-19774214D01*
X3301100Y-19788500D01*
X3315386Y-19802786D01*
X3329671Y-19831357D01*
X3343957Y-19888500D01*
X3343957Y-19959929D01*
X3329671Y-20017072D01*
X3315386Y-20045643D01*
X3301100Y-20059929D01*
X3272528Y-20074214D01*
X3243957Y-20074214D01*
X3215386Y-20059929D01*
X3201100Y-20045643D01*
X3186814Y-20017072D01*
X3172528Y-19959929D01*
X3172528Y-19888500D01*
X3186814Y-19831357D01*
X3201100Y-19802786D01*
X3215386Y-19788500D01*
X3243957Y-19774214D01*
X3472528Y-20074214D02*
X3472528Y-19874214D01*
X3472528Y-19902786D02*
X3486814Y-19888500D01*
X3515386Y-19874214D01*
X3558243Y-19874214D01*
X3586814Y-19888500D01*
X3601100Y-19917072D01*
X3601100Y-20074214D01*
X3601100Y-19917072D02*
X3615386Y-19888500D01*
X3643957Y-19874214D01*
X3686814Y-19874214D01*
X3715386Y-19888500D01*
X3729671Y-19917072D01*
X3729671Y-20074214D01*
X3872528Y-20074214D02*
X3872528Y-19874214D01*
X3872528Y-19902786D02*
X3886814Y-19888500D01*
X3915386Y-19874214D01*
X3958243Y-19874214D01*
X3986814Y-19888500D01*
X4001100Y-19917072D01*
X4001100Y-20074214D01*
X4001100Y-19917072D02*
X4015386Y-19888500D01*
X4043957Y-19874214D01*
X4086814Y-19874214D01*
X4115386Y-19888500D01*
X4129671Y-19917072D01*
X4129671Y-20074214D01*
X4715386Y-19759929D02*
X4458243Y-20145643D01*
X5101100Y-19774214D02*
X5129671Y-19774214D01*
X5158243Y-19788500D01*
X5172528Y-19802786D01*
X5186814Y-19831357D01*
X5201100Y-19888500D01*
X5201100Y-19959929D01*
X5186814Y-20017072D01*
X5172528Y-20045643D01*
X5158243Y-20059929D01*
X5129671Y-20074214D01*
X5101100Y-20074214D01*
X5072528Y-20059929D01*
X5058243Y-20045643D01*
X5043957Y-20017072D01*
X5029671Y-19959929D01*
X5029671Y-19888500D01*
X5043957Y-19831357D01*
X5058243Y-19802786D01*
X5072528Y-19788500D01*
X5101100Y-19774214D01*
X5329671Y-20045643D02*
X5343957Y-20059929D01*
X5329671Y-20074214D01*
X5315386Y-20059929D01*
X5329671Y-20045643D01*
X5329671Y-20074214D01*
X5529671Y-19774214D02*
X5558243Y-19774214D01*
X5586814Y-19788500D01*
X5601100Y-19802786D01*
X5615386Y-19831357D01*
X5629671Y-19888500D01*
X5629671Y-19959929D01*
X5615386Y-20017072D01*
X5601100Y-20045643D01*
X5586814Y-20059929D01*
X5558243Y-20074214D01*
X5529671Y-20074214D01*
X5501100Y-20059929D01*
X5486814Y-20045643D01*
X5472528Y-20017072D01*
X5458243Y-19959929D01*
X5458243Y-19888500D01*
X5472528Y-19831357D01*
X5486814Y-19802786D01*
X5501100Y-19788500D01*
X5529671Y-19774214D01*
X5729671Y-19774214D02*
X5915386Y-19774214D01*
X5815386Y-19888500D01*
X5858243Y-19888500D01*
X5886814Y-19902786D01*
X5901100Y-19917072D01*
X5915386Y-19945643D01*
X5915386Y-20017072D01*
X5901100Y-20045643D01*
X5886814Y-20059929D01*
X5858243Y-20074214D01*
X5772528Y-20074214D01*
X5743957Y-20059929D01*
X5729671Y-20045643D01*
X6058243Y-20074214D02*
X6115386Y-20074214D01*
X6143957Y-20059929D01*
X6158243Y-20045643D01*
X6186814Y-20002786D01*
X6201100Y-19945643D01*
X6201100Y-19831357D01*
X6186814Y-19802786D01*
X6172528Y-19788500D01*
X6143957Y-19774214D01*
X6086814Y-19774214D01*
X6058243Y-19788500D01*
X6043957Y-19802786D01*
X6029671Y-19831357D01*
X6029671Y-19902786D01*
X6043957Y-19931357D01*
X6058243Y-19945643D01*
X6086814Y-19959929D01*
X6143957Y-19959929D01*
X6172528Y-19945643D01*
X6186814Y-19931357D01*
X6201100Y-19902786D01*
X6315386Y-19774214D02*
X6315386Y-19831357D01*
X6429671Y-19774214D02*
X6429671Y-19831357D01*
X6872528Y-20188500D02*
X6858243Y-20174214D01*
X6829671Y-20131357D01*
X6815386Y-20102786D01*
X6801100Y-20059929D01*
X6786814Y-19988500D01*
X6786814Y-19931357D01*
X6801100Y-19859929D01*
X6815386Y-19817072D01*
X6829671Y-19788500D01*
X6858243Y-19745643D01*
X6872528Y-19731357D01*
X7001100Y-20074214D02*
X7058243Y-20074214D01*
X7086814Y-20059929D01*
X7101100Y-20045643D01*
X7129671Y-20002786D01*
X7143957Y-19945643D01*
X7143957Y-19831357D01*
X7129671Y-19802786D01*
X7115386Y-19788500D01*
X7086814Y-19774214D01*
X7029671Y-19774214D01*
X7001100Y-19788500D01*
X6986814Y-19802786D01*
X6972528Y-19831357D01*
X6972528Y-19902786D01*
X6986814Y-19931357D01*
X7001100Y-19945643D01*
X7029671Y-19959929D01*
X7086814Y-19959929D01*
X7115386Y-19945643D01*
X7129671Y-19931357D01*
X7143957Y-19902786D01*
X7501100Y-20074214D02*
X7501100Y-19774214D01*
X7629671Y-20074214D02*
X7629671Y-19917072D01*
X7615386Y-19888500D01*
X7586814Y-19874214D01*
X7543957Y-19874214D01*
X7515386Y-19888500D01*
X7501100Y-19902786D01*
X7815386Y-20074214D02*
X7786814Y-20059929D01*
X7772528Y-20045643D01*
X7758243Y-20017072D01*
X7758243Y-19931357D01*
X7772528Y-19902786D01*
X7786814Y-19888500D01*
X7815386Y-19874214D01*
X7858243Y-19874214D01*
X7886814Y-19888500D01*
X7901100Y-19902786D01*
X7915386Y-19931357D01*
X7915386Y-20017072D01*
X7901100Y-20045643D01*
X7886814Y-20059929D01*
X7858243Y-20074214D01*
X7815386Y-20074214D01*
X8086814Y-20074214D02*
X8058243Y-20059929D01*
X8043957Y-20031357D01*
X8043957Y-19774214D01*
X8315386Y-20059929D02*
X8286814Y-20074214D01*
X8229671Y-20074214D01*
X8201100Y-20059929D01*
X8186814Y-20031357D01*
X8186814Y-19917072D01*
X8201100Y-19888500D01*
X8229671Y-19874214D01*
X8286814Y-19874214D01*
X8315386Y-19888500D01*
X8329671Y-19917072D01*
X8329671Y-19945643D01*
X8186814Y-19974214D01*
X8443957Y-20059929D02*
X8472528Y-20074214D01*
X8529671Y-20074214D01*
X8558243Y-20059929D01*
X8572528Y-20031357D01*
X8572528Y-20017072D01*
X8558243Y-19988500D01*
X8529671Y-19974214D01*
X8486814Y-19974214D01*
X8458243Y-19959929D01*
X8443957Y-19931357D01*
X8443957Y-19917072D01*
X8458243Y-19888500D01*
X8486814Y-19874214D01*
X8529671Y-19874214D01*
X8558243Y-19888500D01*
X8672528Y-20188500D02*
X8686814Y-20174214D01*
X8715386Y-20131357D01*
X8729671Y-20102786D01*
X8743957Y-20059929D01*
X8758243Y-19988500D01*
X8758243Y-19931357D01*
X8743957Y-19859929D01*
X8729671Y-19817072D01*
X8715386Y-19788500D01*
X8686814Y-19745643D01*
X8672528Y-19731357D01*
X2111100Y-20409500D02*
X2186100Y-20334500D01*
X2111100Y-20259500D01*
X2036100Y-20334500D01*
X2111100Y-20409500D01*
X2629671Y-20470214D02*
X2458243Y-20470214D01*
X2543957Y-20470214D02*
X2543957Y-20170214D01*
X2515386Y-20213072D01*
X2486814Y-20241643D01*
X2458243Y-20255929D01*
X2758243Y-20441643D02*
X2772528Y-20455929D01*
X2758243Y-20470214D01*
X2743957Y-20455929D01*
X2758243Y-20441643D01*
X2758243Y-20470214D01*
X3043957Y-20170214D02*
X2901100Y-20170214D01*
X2886814Y-20313072D01*
X2901100Y-20298786D01*
X2929671Y-20284500D01*
X3001100Y-20284500D01*
X3029671Y-20298786D01*
X3043957Y-20313072D01*
X3058243Y-20341643D01*
X3058243Y-20413072D01*
X3043957Y-20441643D01*
X3029671Y-20455929D01*
X3001100Y-20470214D01*
X2929671Y-20470214D01*
X2901100Y-20455929D01*
X2886814Y-20441643D01*
X3243957Y-20170214D02*
X3272528Y-20170214D01*
X3301100Y-20184500D01*
X3315386Y-20198786D01*
X3329671Y-20227357D01*
X3343957Y-20284500D01*
X3343957Y-20355929D01*
X3329671Y-20413072D01*
X3315386Y-20441643D01*
X3301100Y-20455929D01*
X3272528Y-20470214D01*
X3243957Y-20470214D01*
X3215386Y-20455929D01*
X3201100Y-20441643D01*
X3186814Y-20413072D01*
X3172528Y-20355929D01*
X3172528Y-20284500D01*
X3186814Y-20227357D01*
X3201100Y-20198786D01*
X3215386Y-20184500D01*
X3243957Y-20170214D01*
X3472528Y-20470214D02*
X3472528Y-20270214D01*
X3472528Y-20298786D02*
X3486814Y-20284500D01*
X3515386Y-20270214D01*
X3558243Y-20270214D01*
X3586814Y-20284500D01*
X3601100Y-20313072D01*
X3601100Y-20470214D01*
X3601100Y-20313072D02*
X3615386Y-20284500D01*
X3643957Y-20270214D01*
X3686814Y-20270214D01*
X3715386Y-20284500D01*
X3729671Y-20313072D01*
X3729671Y-20470214D01*
X3872528Y-20470214D02*
X3872528Y-20270214D01*
X3872528Y-20298786D02*
X3886814Y-20284500D01*
X3915386Y-20270214D01*
X3958243Y-20270214D01*
X3986814Y-20284500D01*
X4001100Y-20313072D01*
X4001100Y-20470214D01*
X4001100Y-20313072D02*
X4015386Y-20284500D01*
X4043957Y-20270214D01*
X4086814Y-20270214D01*
X4115386Y-20284500D01*
X4129671Y-20313072D01*
X4129671Y-20470214D01*
X4715386Y-20155929D02*
X4458243Y-20541643D01*
X5101100Y-20170214D02*
X5129671Y-20170214D01*
X5158243Y-20184500D01*
X5172528Y-20198786D01*
X5186814Y-20227357D01*
X5201100Y-20284500D01*
X5201100Y-20355929D01*
X5186814Y-20413072D01*
X5172528Y-20441643D01*
X5158243Y-20455929D01*
X5129671Y-20470214D01*
X5101100Y-20470214D01*
X5072528Y-20455929D01*
X5058243Y-20441643D01*
X5043957Y-20413072D01*
X5029671Y-20355929D01*
X5029671Y-20284500D01*
X5043957Y-20227357D01*
X5058243Y-20198786D01*
X5072528Y-20184500D01*
X5101100Y-20170214D01*
X5329671Y-20441643D02*
X5343957Y-20455929D01*
X5329671Y-20470214D01*
X5315386Y-20455929D01*
X5329671Y-20441643D01*
X5329671Y-20470214D01*
X5529671Y-20170214D02*
X5558243Y-20170214D01*
X5586814Y-20184500D01*
X5601100Y-20198786D01*
X5615386Y-20227357D01*
X5629671Y-20284500D01*
X5629671Y-20355929D01*
X5615386Y-20413072D01*
X5601100Y-20441643D01*
X5586814Y-20455929D01*
X5558243Y-20470214D01*
X5529671Y-20470214D01*
X5501100Y-20455929D01*
X5486814Y-20441643D01*
X5472528Y-20413072D01*
X5458243Y-20355929D01*
X5458243Y-20284500D01*
X5472528Y-20227357D01*
X5486814Y-20198786D01*
X5501100Y-20184500D01*
X5529671Y-20170214D01*
X5901100Y-20170214D02*
X5758243Y-20170214D01*
X5743957Y-20313072D01*
X5758243Y-20298786D01*
X5786814Y-20284500D01*
X5858243Y-20284500D01*
X5886814Y-20298786D01*
X5901100Y-20313072D01*
X5915386Y-20341643D01*
X5915386Y-20413072D01*
X5901100Y-20441643D01*
X5886814Y-20455929D01*
X5858243Y-20470214D01*
X5786814Y-20470214D01*
X5758243Y-20455929D01*
X5743957Y-20441643D01*
X6058243Y-20470214D02*
X6115386Y-20470214D01*
X6143957Y-20455929D01*
X6158243Y-20441643D01*
X6186814Y-20398786D01*
X6201100Y-20341643D01*
X6201100Y-20227357D01*
X6186814Y-20198786D01*
X6172528Y-20184500D01*
X6143957Y-20170214D01*
X6086814Y-20170214D01*
X6058243Y-20184500D01*
X6043957Y-20198786D01*
X6029671Y-20227357D01*
X6029671Y-20298786D01*
X6043957Y-20327357D01*
X6058243Y-20341643D01*
X6086814Y-20355929D01*
X6143957Y-20355929D01*
X6172528Y-20341643D01*
X6186814Y-20327357D01*
X6201100Y-20298786D01*
X6315386Y-20170214D02*
X6315386Y-20227357D01*
X6429671Y-20170214D02*
X6429671Y-20227357D01*
X6872528Y-20584500D02*
X6858243Y-20570214D01*
X6829671Y-20527357D01*
X6815386Y-20498786D01*
X6801100Y-20455929D01*
X6786814Y-20384500D01*
X6786814Y-20327357D01*
X6801100Y-20255929D01*
X6815386Y-20213072D01*
X6829671Y-20184500D01*
X6858243Y-20141643D01*
X6872528Y-20127357D01*
X7043957Y-20170214D02*
X7072528Y-20170214D01*
X7101100Y-20184500D01*
X7115386Y-20198786D01*
X7129671Y-20227357D01*
X7143957Y-20284500D01*
X7143957Y-20355929D01*
X7129671Y-20413072D01*
X7115386Y-20441643D01*
X7101100Y-20455929D01*
X7072528Y-20470214D01*
X7043957Y-20470214D01*
X7015386Y-20455929D01*
X7001100Y-20441643D01*
X6986814Y-20413072D01*
X6972528Y-20355929D01*
X6972528Y-20284500D01*
X6986814Y-20227357D01*
X7001100Y-20198786D01*
X7015386Y-20184500D01*
X7043957Y-20170214D01*
X7501100Y-20470214D02*
X7501100Y-20170214D01*
X7629671Y-20470214D02*
X7629671Y-20313072D01*
X7615386Y-20284500D01*
X7586814Y-20270214D01*
X7543957Y-20270214D01*
X7515386Y-20284500D01*
X7501100Y-20298786D01*
X7815386Y-20470214D02*
X7786814Y-20455929D01*
X7772528Y-20441643D01*
X7758243Y-20413072D01*
X7758243Y-20327357D01*
X7772528Y-20298786D01*
X7786814Y-20284500D01*
X7815386Y-20270214D01*
X7858243Y-20270214D01*
X7886814Y-20284500D01*
X7901100Y-20298786D01*
X7915386Y-20327357D01*
X7915386Y-20413072D01*
X7901100Y-20441643D01*
X7886814Y-20455929D01*
X7858243Y-20470214D01*
X7815386Y-20470214D01*
X8086814Y-20470214D02*
X8058243Y-20455929D01*
X8043957Y-20427357D01*
X8043957Y-20170214D01*
X8315386Y-20455929D02*
X8286814Y-20470214D01*
X8229671Y-20470214D01*
X8201100Y-20455929D01*
X8186814Y-20427357D01*
X8186814Y-20313072D01*
X8201100Y-20284500D01*
X8229671Y-20270214D01*
X8286814Y-20270214D01*
X8315386Y-20284500D01*
X8329671Y-20313072D01*
X8329671Y-20341643D01*
X8186814Y-20370214D01*
X8443957Y-20455929D02*
X8472528Y-20470214D01*
X8529671Y-20470214D01*
X8558243Y-20455929D01*
X8572528Y-20427357D01*
X8572528Y-20413072D01*
X8558243Y-20384500D01*
X8529671Y-20370214D01*
X8486814Y-20370214D01*
X8458243Y-20355929D01*
X8443957Y-20327357D01*
X8443957Y-20313072D01*
X8458243Y-20284500D01*
X8486814Y-20270214D01*
X8529671Y-20270214D01*
X8558243Y-20284500D01*
X8929671Y-20355929D02*
X9158243Y-20355929D01*
X9043957Y-20470214D02*
X9043957Y-20241643D01*
X9686814Y-20470214D02*
X9515386Y-20470214D01*
X9601100Y-20470214D02*
X9601100Y-20170214D01*
X9572528Y-20213072D01*
X9543957Y-20241643D01*
X9515386Y-20255929D01*
X9872528Y-20170214D02*
X9901100Y-20170214D01*
X9929671Y-20184500D01*
X9943957Y-20198786D01*
X9958243Y-20227357D01*
X9972528Y-20284500D01*
X9972528Y-20355929D01*
X9958243Y-20413072D01*
X9943957Y-20441643D01*
X9929671Y-20455929D01*
X9901100Y-20470214D01*
X9872528Y-20470214D01*
X9843957Y-20455929D01*
X9829671Y-20441643D01*
X9815386Y-20413072D01*
X9801100Y-20355929D01*
X9801100Y-20284500D01*
X9815386Y-20227357D01*
X9829671Y-20198786D01*
X9843957Y-20184500D01*
X9872528Y-20170214D01*
X10315386Y-20455929D02*
X10343957Y-20470214D01*
X10401100Y-20470214D01*
X10429671Y-20455929D01*
X10443957Y-20427357D01*
X10443957Y-20413072D01*
X10429671Y-20384500D01*
X10401100Y-20370214D01*
X10358243Y-20370214D01*
X10329671Y-20355929D01*
X10315386Y-20327357D01*
X10315386Y-20313072D01*
X10329671Y-20284500D01*
X10358243Y-20270214D01*
X10401100Y-20270214D01*
X10429671Y-20284500D01*
X10615386Y-20470214D02*
X10586814Y-20455929D01*
X10572528Y-20427357D01*
X10572528Y-20170214D01*
X10772528Y-20470214D02*
X10743957Y-20455929D01*
X10729671Y-20441643D01*
X10715386Y-20413072D01*
X10715386Y-20327357D01*
X10729671Y-20298786D01*
X10743957Y-20284500D01*
X10772528Y-20270214D01*
X10815386Y-20270214D01*
X10843957Y-20284500D01*
X10858243Y-20298786D01*
X10872528Y-20327357D01*
X10872528Y-20413072D01*
X10858243Y-20441643D01*
X10843957Y-20455929D01*
X10815386Y-20470214D01*
X10772528Y-20470214D01*
X10958243Y-20270214D02*
X11072528Y-20270214D01*
X11001100Y-20170214D02*
X11001100Y-20427357D01*
X11015386Y-20455929D01*
X11043957Y-20470214D01*
X11072528Y-20470214D01*
X11158243Y-20455929D02*
X11186814Y-20470214D01*
X11243957Y-20470214D01*
X11272528Y-20455929D01*
X11286814Y-20427357D01*
X11286814Y-20413072D01*
X11272528Y-20384500D01*
X11243957Y-20370214D01*
X11201100Y-20370214D01*
X11172528Y-20355929D01*
X11158243Y-20327357D01*
X11158243Y-20313072D01*
X11172528Y-20284500D01*
X11201100Y-20270214D01*
X11243957Y-20270214D01*
X11272528Y-20284500D01*
X11386814Y-20584500D02*
X11401100Y-20570214D01*
X11429671Y-20527357D01*
X11443957Y-20498786D01*
X11458243Y-20455929D01*
X11472528Y-20384500D01*
X11472528Y-20327357D01*
X11458243Y-20255929D01*
X11443957Y-20213072D01*
X11429671Y-20184500D01*
X11401100Y-20141643D01*
X11386814Y-20127357D01*
M02*
