%FSLAX45Y45*%
G04 Gerber Fmt 4.5, Leading zero omitted, Abs format (unit mm)*
G04 Created by KiCad (PCBNEW (5.1.7-0-10_14)) date 2021-04-07 16:23:26*
%MOMM*%
%LPD*%
G01*
G04 APERTURE LIST*
%TA.AperFunction,Profile*%
%ADD10C,0.050000*%
%TD*%
%TA.AperFunction,Profile*%
%ADD11C,0.150000*%
%TD*%
%ADD12C,0.200000*%
%ADD13C,0.300000*%
G04 APERTURE END LIST*
D10*
X19680000Y-7320000D02*
X19860000Y-7320000D01*
X19680000Y-4400000D02*
X19680000Y-7320000D01*
X22020000Y-7320000D02*
X19860000Y-7320000D01*
X22020000Y-4400000D02*
X22020000Y-7320000D01*
X19680000Y-4400000D02*
X22020000Y-4400000D01*
D11*
X25690302Y-5809164D02*
G75*
G03*
X2193600Y-6640400I-11176302J-16585836D01*
G01*
X10289100Y-17783000D02*
X2193600Y-6640400D01*
X16990800Y-17783000D02*
X25690300Y-5809100D01*
X10289100Y-17783000D02*
X16990800Y-17783000D01*
D12*
X4843000Y-9764000D02*
X5163000Y-10084000D01*
X5163000Y-9764000D02*
X4843000Y-10084000D01*
X25036800Y-5732800D02*
X25356800Y-6052800D01*
X25356800Y-5732800D02*
X25036800Y-6052800D01*
X2504000Y-6545600D02*
X2824000Y-6865600D01*
X2824000Y-6545600D02*
X2504000Y-6865600D01*
X22700000Y-8958600D02*
X23020000Y-9278600D01*
X23020000Y-8958600D02*
X22700000Y-9278600D01*
D13*
X2472528Y-18256214D02*
X2472528Y-17956214D01*
X2543957Y-17956214D01*
X2586814Y-17970500D01*
X2615386Y-17999072D01*
X2629671Y-18027643D01*
X2643957Y-18084786D01*
X2643957Y-18127643D01*
X2629671Y-18184786D01*
X2615386Y-18213357D01*
X2586814Y-18241929D01*
X2543957Y-18256214D01*
X2472528Y-18256214D01*
X2772528Y-18256214D02*
X2772528Y-18056214D01*
X2772528Y-18113357D02*
X2786814Y-18084786D01*
X2801100Y-18070500D01*
X2829671Y-18056214D01*
X2858243Y-18056214D01*
X2958243Y-18256214D02*
X2958243Y-18056214D01*
X2958243Y-17956214D02*
X2943957Y-17970500D01*
X2958243Y-17984786D01*
X2972528Y-17970500D01*
X2958243Y-17956214D01*
X2958243Y-17984786D01*
X3143957Y-18256214D02*
X3115386Y-18241929D01*
X3101100Y-18213357D01*
X3101100Y-17956214D01*
X3301100Y-18256214D02*
X3272528Y-18241929D01*
X3258243Y-18213357D01*
X3258243Y-17956214D01*
X3643957Y-18256214D02*
X3643957Y-17956214D01*
X3743957Y-18170500D01*
X3843957Y-17956214D01*
X3843957Y-18256214D01*
X4115386Y-18256214D02*
X4115386Y-18099072D01*
X4101100Y-18070500D01*
X4072528Y-18056214D01*
X4015386Y-18056214D01*
X3986814Y-18070500D01*
X4115386Y-18241929D02*
X4086814Y-18256214D01*
X4015386Y-18256214D01*
X3986814Y-18241929D01*
X3972528Y-18213357D01*
X3972528Y-18184786D01*
X3986814Y-18156214D01*
X4015386Y-18141929D01*
X4086814Y-18141929D01*
X4115386Y-18127643D01*
X4258243Y-18056214D02*
X4258243Y-18356214D01*
X4258243Y-18070500D02*
X4286814Y-18056214D01*
X4343957Y-18056214D01*
X4372528Y-18070500D01*
X4386814Y-18084786D01*
X4401100Y-18113357D01*
X4401100Y-18199072D01*
X4386814Y-18227643D01*
X4372528Y-18241929D01*
X4343957Y-18256214D01*
X4286814Y-18256214D01*
X4258243Y-18241929D01*
X4529671Y-18227643D02*
X4543957Y-18241929D01*
X4529671Y-18256214D01*
X4515386Y-18241929D01*
X4529671Y-18227643D01*
X4529671Y-18256214D01*
X4529671Y-18070500D02*
X4543957Y-18084786D01*
X4529671Y-18099072D01*
X4515386Y-18084786D01*
X4529671Y-18070500D01*
X4529671Y-18099072D01*
X1866100Y-18590500D02*
X2186100Y-18910500D01*
X2186100Y-18590500D02*
X1866100Y-18910500D01*
X2443957Y-18586214D02*
X2629671Y-18586214D01*
X2529671Y-18700500D01*
X2572528Y-18700500D01*
X2601100Y-18714786D01*
X2615386Y-18729072D01*
X2629671Y-18757643D01*
X2629671Y-18829072D01*
X2615386Y-18857643D01*
X2601100Y-18871929D01*
X2572528Y-18886214D01*
X2486814Y-18886214D01*
X2458243Y-18871929D01*
X2443957Y-18857643D01*
X2758243Y-18857643D02*
X2772528Y-18871929D01*
X2758243Y-18886214D01*
X2743957Y-18871929D01*
X2758243Y-18857643D01*
X2758243Y-18886214D01*
X2886814Y-18614786D02*
X2901100Y-18600500D01*
X2929671Y-18586214D01*
X3001100Y-18586214D01*
X3029671Y-18600500D01*
X3043957Y-18614786D01*
X3058243Y-18643357D01*
X3058243Y-18671929D01*
X3043957Y-18714786D01*
X2872528Y-18886214D01*
X3058243Y-18886214D01*
X3243957Y-18586214D02*
X3272528Y-18586214D01*
X3301100Y-18600500D01*
X3315386Y-18614786D01*
X3329671Y-18643357D01*
X3343957Y-18700500D01*
X3343957Y-18771929D01*
X3329671Y-18829072D01*
X3315386Y-18857643D01*
X3301100Y-18871929D01*
X3272528Y-18886214D01*
X3243957Y-18886214D01*
X3215386Y-18871929D01*
X3201100Y-18857643D01*
X3186814Y-18829072D01*
X3172528Y-18771929D01*
X3172528Y-18700500D01*
X3186814Y-18643357D01*
X3201100Y-18614786D01*
X3215386Y-18600500D01*
X3243957Y-18586214D01*
X3472528Y-18886214D02*
X3472528Y-18686214D01*
X3472528Y-18714786D02*
X3486814Y-18700500D01*
X3515386Y-18686214D01*
X3558243Y-18686214D01*
X3586814Y-18700500D01*
X3601100Y-18729072D01*
X3601100Y-18886214D01*
X3601100Y-18729072D02*
X3615386Y-18700500D01*
X3643957Y-18686214D01*
X3686814Y-18686214D01*
X3715386Y-18700500D01*
X3729671Y-18729072D01*
X3729671Y-18886214D01*
X3872528Y-18886214D02*
X3872528Y-18686214D01*
X3872528Y-18714786D02*
X3886814Y-18700500D01*
X3915386Y-18686214D01*
X3958243Y-18686214D01*
X3986814Y-18700500D01*
X4001100Y-18729072D01*
X4001100Y-18886214D01*
X4001100Y-18729072D02*
X4015386Y-18700500D01*
X4043957Y-18686214D01*
X4086814Y-18686214D01*
X4115386Y-18700500D01*
X4129671Y-18729072D01*
X4129671Y-18886214D01*
X4715386Y-18571929D02*
X4458243Y-18957643D01*
X5101100Y-18586214D02*
X5129671Y-18586214D01*
X5158243Y-18600500D01*
X5172528Y-18614786D01*
X5186814Y-18643357D01*
X5201100Y-18700500D01*
X5201100Y-18771929D01*
X5186814Y-18829072D01*
X5172528Y-18857643D01*
X5158243Y-18871929D01*
X5129671Y-18886214D01*
X5101100Y-18886214D01*
X5072528Y-18871929D01*
X5058243Y-18857643D01*
X5043957Y-18829072D01*
X5029671Y-18771929D01*
X5029671Y-18700500D01*
X5043957Y-18643357D01*
X5058243Y-18614786D01*
X5072528Y-18600500D01*
X5101100Y-18586214D01*
X5329671Y-18857643D02*
X5343957Y-18871929D01*
X5329671Y-18886214D01*
X5315386Y-18871929D01*
X5329671Y-18857643D01*
X5329671Y-18886214D01*
X5629671Y-18886214D02*
X5458243Y-18886214D01*
X5543957Y-18886214D02*
X5543957Y-18586214D01*
X5515386Y-18629072D01*
X5486814Y-18657643D01*
X5458243Y-18671929D01*
X5743957Y-18614786D02*
X5758243Y-18600500D01*
X5786814Y-18586214D01*
X5858243Y-18586214D01*
X5886814Y-18600500D01*
X5901100Y-18614786D01*
X5915386Y-18643357D01*
X5915386Y-18671929D01*
X5901100Y-18714786D01*
X5729671Y-18886214D01*
X5915386Y-18886214D01*
X6172528Y-18586214D02*
X6115386Y-18586214D01*
X6086814Y-18600500D01*
X6072528Y-18614786D01*
X6043957Y-18657643D01*
X6029671Y-18714786D01*
X6029671Y-18829072D01*
X6043957Y-18857643D01*
X6058243Y-18871929D01*
X6086814Y-18886214D01*
X6143957Y-18886214D01*
X6172528Y-18871929D01*
X6186814Y-18857643D01*
X6201100Y-18829072D01*
X6201100Y-18757643D01*
X6186814Y-18729072D01*
X6172528Y-18714786D01*
X6143957Y-18700500D01*
X6086814Y-18700500D01*
X6058243Y-18714786D01*
X6043957Y-18729072D01*
X6029671Y-18757643D01*
X6315386Y-18586214D02*
X6315386Y-18643357D01*
X6429671Y-18586214D02*
X6429671Y-18643357D01*
X6872528Y-19000500D02*
X6858243Y-18986214D01*
X6829671Y-18943357D01*
X6815386Y-18914786D01*
X6801100Y-18871929D01*
X6786814Y-18800500D01*
X6786814Y-18743357D01*
X6801100Y-18671929D01*
X6815386Y-18629072D01*
X6829671Y-18600500D01*
X6858243Y-18557643D01*
X6872528Y-18543357D01*
X7115386Y-18686214D02*
X7115386Y-18886214D01*
X7043957Y-18571929D02*
X6972528Y-18786214D01*
X7158243Y-18786214D01*
X7501100Y-18886214D02*
X7501100Y-18586214D01*
X7629671Y-18886214D02*
X7629671Y-18729072D01*
X7615386Y-18700500D01*
X7586814Y-18686214D01*
X7543957Y-18686214D01*
X7515386Y-18700500D01*
X7501100Y-18714786D01*
X7815386Y-18886214D02*
X7786814Y-18871929D01*
X7772528Y-18857643D01*
X7758243Y-18829072D01*
X7758243Y-18743357D01*
X7772528Y-18714786D01*
X7786814Y-18700500D01*
X7815386Y-18686214D01*
X7858243Y-18686214D01*
X7886814Y-18700500D01*
X7901100Y-18714786D01*
X7915386Y-18743357D01*
X7915386Y-18829072D01*
X7901100Y-18857643D01*
X7886814Y-18871929D01*
X7858243Y-18886214D01*
X7815386Y-18886214D01*
X8086814Y-18886214D02*
X8058243Y-18871929D01*
X8043957Y-18843357D01*
X8043957Y-18586214D01*
X8315386Y-18871929D02*
X8286814Y-18886214D01*
X8229671Y-18886214D01*
X8201100Y-18871929D01*
X8186814Y-18843357D01*
X8186814Y-18729072D01*
X8201100Y-18700500D01*
X8229671Y-18686214D01*
X8286814Y-18686214D01*
X8315386Y-18700500D01*
X8329671Y-18729072D01*
X8329671Y-18757643D01*
X8186814Y-18786214D01*
X8443957Y-18871929D02*
X8472528Y-18886214D01*
X8529671Y-18886214D01*
X8558243Y-18871929D01*
X8572528Y-18843357D01*
X8572528Y-18829072D01*
X8558243Y-18800500D01*
X8529671Y-18786214D01*
X8486814Y-18786214D01*
X8458243Y-18771929D01*
X8443957Y-18743357D01*
X8443957Y-18729072D01*
X8458243Y-18700500D01*
X8486814Y-18686214D01*
X8529671Y-18686214D01*
X8558243Y-18700500D01*
X8672528Y-19000500D02*
X8686814Y-18986214D01*
X8715386Y-18943357D01*
X8729671Y-18914786D01*
X8743957Y-18871929D01*
X8758243Y-18800500D01*
X8758243Y-18743357D01*
X8743957Y-18671929D01*
X8729671Y-18629072D01*
X8715386Y-18600500D01*
X8686814Y-18557643D01*
X8672528Y-18543357D01*
X9215386Y-19000500D02*
X9201100Y-18986214D01*
X9172528Y-18943357D01*
X9158243Y-18914786D01*
X9143957Y-18871929D01*
X9129671Y-18800500D01*
X9129671Y-18743357D01*
X9143957Y-18671929D01*
X9158243Y-18629072D01*
X9172528Y-18600500D01*
X9201100Y-18557643D01*
X9215386Y-18543357D01*
X9329671Y-18686214D02*
X9329671Y-18886214D01*
X9329671Y-18714786D02*
X9343957Y-18700500D01*
X9372528Y-18686214D01*
X9415386Y-18686214D01*
X9443957Y-18700500D01*
X9458243Y-18729072D01*
X9458243Y-18886214D01*
X9643957Y-18886214D02*
X9615386Y-18871929D01*
X9601100Y-18857643D01*
X9586814Y-18829072D01*
X9586814Y-18743357D01*
X9601100Y-18714786D01*
X9615386Y-18700500D01*
X9643957Y-18686214D01*
X9686814Y-18686214D01*
X9715386Y-18700500D01*
X9729671Y-18714786D01*
X9743957Y-18743357D01*
X9743957Y-18829072D01*
X9729671Y-18857643D01*
X9715386Y-18871929D01*
X9686814Y-18886214D01*
X9643957Y-18886214D01*
X9829671Y-18686214D02*
X9943957Y-18686214D01*
X9872528Y-18586214D02*
X9872528Y-18843357D01*
X9886814Y-18871929D01*
X9915386Y-18886214D01*
X9943957Y-18886214D01*
X10272528Y-18686214D02*
X10272528Y-18986214D01*
X10272528Y-18700500D02*
X10301100Y-18686214D01*
X10358243Y-18686214D01*
X10386814Y-18700500D01*
X10401100Y-18714786D01*
X10415386Y-18743357D01*
X10415386Y-18829072D01*
X10401100Y-18857643D01*
X10386814Y-18871929D01*
X10358243Y-18886214D01*
X10301100Y-18886214D01*
X10272528Y-18871929D01*
X10586814Y-18886214D02*
X10558243Y-18871929D01*
X10543957Y-18843357D01*
X10543957Y-18586214D01*
X10829671Y-18886214D02*
X10829671Y-18729072D01*
X10815386Y-18700500D01*
X10786814Y-18686214D01*
X10729671Y-18686214D01*
X10701100Y-18700500D01*
X10829671Y-18871929D02*
X10801100Y-18886214D01*
X10729671Y-18886214D01*
X10701100Y-18871929D01*
X10686814Y-18843357D01*
X10686814Y-18814786D01*
X10701100Y-18786214D01*
X10729671Y-18771929D01*
X10801100Y-18771929D01*
X10829671Y-18757643D01*
X10929671Y-18686214D02*
X11043957Y-18686214D01*
X10972528Y-18586214D02*
X10972528Y-18843357D01*
X10986814Y-18871929D01*
X11015386Y-18886214D01*
X11043957Y-18886214D01*
X11258243Y-18871929D02*
X11229671Y-18886214D01*
X11172528Y-18886214D01*
X11143957Y-18871929D01*
X11129671Y-18843357D01*
X11129671Y-18729072D01*
X11143957Y-18700500D01*
X11172528Y-18686214D01*
X11229671Y-18686214D01*
X11258243Y-18700500D01*
X11272528Y-18729072D01*
X11272528Y-18757643D01*
X11129671Y-18786214D01*
X11529671Y-18886214D02*
X11529671Y-18586214D01*
X11529671Y-18871929D02*
X11501100Y-18886214D01*
X11443957Y-18886214D01*
X11415386Y-18871929D01*
X11401100Y-18857643D01*
X11386814Y-18829072D01*
X11386814Y-18743357D01*
X11401100Y-18714786D01*
X11415386Y-18700500D01*
X11443957Y-18686214D01*
X11501100Y-18686214D01*
X11529671Y-18700500D01*
X11643957Y-19000500D02*
X11658243Y-18986214D01*
X11686814Y-18943357D01*
X11701100Y-18914786D01*
X11715386Y-18871929D01*
X11729671Y-18800500D01*
X11729671Y-18743357D01*
X11715386Y-18671929D01*
X11701100Y-18629072D01*
X11686814Y-18600500D01*
X11658243Y-18557643D01*
X11643957Y-18543357D01*
M02*
