%TF.GenerationSoftware,KiCad,Pcbnew,(5.1.7-0-10_14)*%
%TF.CreationDate,2021-04-07T15:47:16+02:00*%
%TF.ProjectId,Octogone_Sans_Regle,4f63746f-676f-46e6-955f-53616e735f52,rev?*%
%TF.SameCoordinates,Original*%
%TF.FileFunction,Soldermask,Bot*%
%TF.FilePolarity,Negative*%
%FSLAX46Y46*%
G04 Gerber Fmt 4.6, Leading zero omitted, Abs format (unit mm)*
G04 Created by KiCad (PCBNEW (5.1.7-0-10_14)) date 2021-04-07 15:47:16*
%MOMM*%
%LPD*%
G01*
G04 APERTURE LIST*
%ADD10C,3.200000*%
%ADD11R,1.250000X1.250000*%
%ADD12C,0.100000*%
%ADD13R,0.900000X0.800000*%
%ADD14C,0.650000*%
%ADD15R,2.000000X2.000000*%
%ADD16C,2.000000*%
%ADD17R,1.500000X1.300000*%
%ADD18R,3.200000X2.000000*%
%ADD19R,2.000000X3.200000*%
%ADD20R,3.500000X3.500000*%
G04 APERTURE END LIST*
D10*
%TO.C,H3*%
X99900000Y-117890000D03*
%TD*%
%TO.C,H2*%
X144530000Y-68350000D03*
%TD*%
%TO.C,H1*%
X96560000Y-75310000D03*
%TD*%
D11*
%TO.C,U2*%
X162300000Y-102740000D03*
X162300000Y-107820000D03*
X162300000Y-115440000D03*
X162300000Y-90040000D03*
X162300000Y-112900000D03*
X162300000Y-92580000D03*
X162300000Y-110360000D03*
X162300000Y-95120000D03*
X162300000Y-100200000D03*
X162300000Y-105280000D03*
X162300000Y-87500000D03*
X162300000Y-120520000D03*
X162300000Y-117980000D03*
X162300000Y-97660000D03*
%TD*%
D12*
%TO.C,P2*%
G36*
X68244194Y-116755615D02*
G01*
X67055373Y-116369344D01*
X67441644Y-115180523D01*
X68630465Y-115566794D01*
X68244194Y-116755615D01*
G37*
G36*
X69029097Y-114339931D02*
G01*
X67840276Y-113953660D01*
X68226547Y-112764839D01*
X69415368Y-113151110D01*
X69029097Y-114339931D01*
G37*
G36*
X69814000Y-111924248D02*
G01*
X68625179Y-111537977D01*
X69011450Y-110349156D01*
X70200271Y-110735427D01*
X69814000Y-111924248D01*
G37*
G36*
X70598903Y-109508564D02*
G01*
X69410082Y-109122293D01*
X69796353Y-107933472D01*
X70985174Y-108319743D01*
X70598903Y-109508564D01*
G37*
G36*
X71383807Y-107092881D02*
G01*
X70194986Y-106706610D01*
X70581257Y-105517789D01*
X71770078Y-105904060D01*
X71383807Y-107092881D01*
G37*
G36*
X72168710Y-104677197D02*
G01*
X70979889Y-104290926D01*
X71366160Y-103102105D01*
X72554981Y-103488376D01*
X72168710Y-104677197D01*
G37*
G36*
X72953613Y-102261514D02*
G01*
X71764792Y-101875243D01*
X72151063Y-100686422D01*
X73339884Y-101072693D01*
X72953613Y-102261514D01*
G37*
G36*
X73738516Y-99845830D02*
G01*
X72549695Y-99459559D01*
X72935966Y-98270738D01*
X74124787Y-98657009D01*
X73738516Y-99845830D01*
G37*
G36*
X74523419Y-97430147D02*
G01*
X73334598Y-97043876D01*
X73720869Y-95855055D01*
X74909690Y-96241326D01*
X74523419Y-97430147D01*
G37*
G36*
X75308322Y-95014463D02*
G01*
X74119501Y-94628192D01*
X74505772Y-93439371D01*
X75694593Y-93825642D01*
X75308322Y-95014463D01*
G37*
G36*
X76093226Y-92598779D02*
G01*
X74904405Y-92212508D01*
X75290676Y-91023687D01*
X76479497Y-91409958D01*
X76093226Y-92598779D01*
G37*
G36*
X76878129Y-90183096D02*
G01*
X75689308Y-89796825D01*
X76075579Y-88608004D01*
X77264400Y-88994275D01*
X76878129Y-90183096D01*
G37*
G36*
X77663032Y-87767412D02*
G01*
X76474211Y-87381141D01*
X76860482Y-86192320D01*
X78049303Y-86578591D01*
X77663032Y-87767412D01*
G37*
G36*
X78447935Y-85351729D02*
G01*
X77259114Y-84965458D01*
X77645385Y-83776637D01*
X78834206Y-84162908D01*
X78447935Y-85351729D01*
G37*
G36*
X79232838Y-82936045D02*
G01*
X78044017Y-82549774D01*
X78430288Y-81360953D01*
X79619109Y-81747224D01*
X79232838Y-82936045D01*
G37*
G36*
X80017741Y-80520362D02*
G01*
X78828920Y-80134091D01*
X79215191Y-78945270D01*
X80404012Y-79331541D01*
X80017741Y-80520362D01*
G37*
G36*
X80802645Y-78104678D02*
G01*
X79613824Y-77718407D01*
X80000095Y-76529586D01*
X81188916Y-76915857D01*
X80802645Y-78104678D01*
G37*
%TD*%
%TO.C,U4*%
G36*
G01*
X87999111Y-119887348D02*
X87756406Y-119711012D01*
G75*
G02*
X87723221Y-119501491I88168J121353D01*
G01*
X88693066Y-118166613D01*
G75*
G02*
X88902587Y-118133428I121353J-88168D01*
G01*
X89145292Y-118309764D01*
G75*
G02*
X89178477Y-118519285I-88168J-121353D01*
G01*
X88208632Y-119854163D01*
G75*
G02*
X87999111Y-119887348I-121353J88168D01*
G01*
G37*
G36*
G01*
X86971659Y-119140861D02*
X86728954Y-118964525D01*
G75*
G02*
X86695769Y-118755004I88168J121353D01*
G01*
X87665614Y-117420126D01*
G75*
G02*
X87875135Y-117386941I121353J-88168D01*
G01*
X88117840Y-117563277D01*
G75*
G02*
X88151025Y-117772798I-88168J-121353D01*
G01*
X87181180Y-119107676D01*
G75*
G02*
X86971659Y-119140861I-121353J88168D01*
G01*
G37*
G36*
G01*
X85944208Y-118394374D02*
X85701503Y-118218038D01*
G75*
G02*
X85668318Y-118008517I88168J121353D01*
G01*
X86638163Y-116673639D01*
G75*
G02*
X86847684Y-116640454I121353J-88168D01*
G01*
X87090389Y-116816790D01*
G75*
G02*
X87123574Y-117026311I-88168J-121353D01*
G01*
X86153729Y-118361189D01*
G75*
G02*
X85944208Y-118394374I-121353J88168D01*
G01*
G37*
G36*
G01*
X84916756Y-117647887D02*
X84674051Y-117471551D01*
G75*
G02*
X84640866Y-117262030I88168J121353D01*
G01*
X85610711Y-115927152D01*
G75*
G02*
X85820232Y-115893967I121353J-88168D01*
G01*
X86062937Y-116070303D01*
G75*
G02*
X86096122Y-116279824I-88168J-121353D01*
G01*
X85126277Y-117614702D01*
G75*
G02*
X84916756Y-117647887I-121353J88168D01*
G01*
G37*
G36*
G01*
X83889305Y-116901399D02*
X83646600Y-116725063D01*
G75*
G02*
X83613415Y-116515542I88168J121353D01*
G01*
X84583260Y-115180664D01*
G75*
G02*
X84792781Y-115147479I121353J-88168D01*
G01*
X85035486Y-115323815D01*
G75*
G02*
X85068671Y-115533336I-88168J-121353D01*
G01*
X84098826Y-116868214D01*
G75*
G02*
X83889305Y-116901399I-121353J88168D01*
G01*
G37*
G36*
G01*
X82861853Y-116154912D02*
X82619148Y-115978576D01*
G75*
G02*
X82585963Y-115769055I88168J121353D01*
G01*
X83555808Y-114434177D01*
G75*
G02*
X83765329Y-114400992I121353J-88168D01*
G01*
X84008034Y-114577328D01*
G75*
G02*
X84041219Y-114786849I-88168J-121353D01*
G01*
X83071374Y-116121727D01*
G75*
G02*
X82861853Y-116154912I-121353J88168D01*
G01*
G37*
G36*
G01*
X81834402Y-115408425D02*
X81591697Y-115232089D01*
G75*
G02*
X81558512Y-115022568I88168J121353D01*
G01*
X82528357Y-113687690D01*
G75*
G02*
X82737878Y-113654505I121353J-88168D01*
G01*
X82980583Y-113830841D01*
G75*
G02*
X83013768Y-114040362I-88168J-121353D01*
G01*
X82043923Y-115375240D01*
G75*
G02*
X81834402Y-115408425I-121353J88168D01*
G01*
G37*
G36*
G01*
X80806950Y-114661937D02*
X80564245Y-114485601D01*
G75*
G02*
X80531060Y-114276080I88168J121353D01*
G01*
X81500905Y-112941202D01*
G75*
G02*
X81710426Y-112908017I121353J-88168D01*
G01*
X81953131Y-113084353D01*
G75*
G02*
X81986316Y-113293874I-88168J-121353D01*
G01*
X81016471Y-114628752D01*
G75*
G02*
X80806950Y-114661937I-121353J88168D01*
G01*
G37*
G36*
G01*
X77897413Y-118666572D02*
X77654708Y-118490236D01*
G75*
G02*
X77621523Y-118280715I88168J121353D01*
G01*
X78591368Y-116945837D01*
G75*
G02*
X78800889Y-116912652I121353J-88168D01*
G01*
X79043594Y-117088988D01*
G75*
G02*
X79076779Y-117298509I-88168J-121353D01*
G01*
X78106934Y-118633387D01*
G75*
G02*
X77897413Y-118666572I-121353J88168D01*
G01*
G37*
G36*
G01*
X78924865Y-119413059D02*
X78682160Y-119236723D01*
G75*
G02*
X78648975Y-119027202I88168J121353D01*
G01*
X79618820Y-117692324D01*
G75*
G02*
X79828341Y-117659139I121353J-88168D01*
G01*
X80071046Y-117835475D01*
G75*
G02*
X80104231Y-118044996I-88168J-121353D01*
G01*
X79134386Y-119379874D01*
G75*
G02*
X78924865Y-119413059I-121353J88168D01*
G01*
G37*
G36*
G01*
X79952316Y-120159546D02*
X79709611Y-119983210D01*
G75*
G02*
X79676426Y-119773689I88168J121353D01*
G01*
X80646271Y-118438811D01*
G75*
G02*
X80855792Y-118405626I121353J-88168D01*
G01*
X81098497Y-118581962D01*
G75*
G02*
X81131682Y-118791483I-88168J-121353D01*
G01*
X80161837Y-120126361D01*
G75*
G02*
X79952316Y-120159546I-121353J88168D01*
G01*
G37*
G36*
G01*
X80979768Y-120906033D02*
X80737063Y-120729697D01*
G75*
G02*
X80703878Y-120520176I88168J121353D01*
G01*
X81673723Y-119185298D01*
G75*
G02*
X81883244Y-119152113I121353J-88168D01*
G01*
X82125949Y-119328449D01*
G75*
G02*
X82159134Y-119537970I-88168J-121353D01*
G01*
X81189289Y-120872848D01*
G75*
G02*
X80979768Y-120906033I-121353J88168D01*
G01*
G37*
G36*
G01*
X82007219Y-121652521D02*
X81764514Y-121476185D01*
G75*
G02*
X81731329Y-121266664I88168J121353D01*
G01*
X82701174Y-119931786D01*
G75*
G02*
X82910695Y-119898601I121353J-88168D01*
G01*
X83153400Y-120074937D01*
G75*
G02*
X83186585Y-120284458I-88168J-121353D01*
G01*
X82216740Y-121619336D01*
G75*
G02*
X82007219Y-121652521I-121353J88168D01*
G01*
G37*
G36*
G01*
X83034671Y-122399008D02*
X82791966Y-122222672D01*
G75*
G02*
X82758781Y-122013151I88168J121353D01*
G01*
X83728626Y-120678273D01*
G75*
G02*
X83938147Y-120645088I121353J-88168D01*
G01*
X84180852Y-120821424D01*
G75*
G02*
X84214037Y-121030945I-88168J-121353D01*
G01*
X83244192Y-122365823D01*
G75*
G02*
X83034671Y-122399008I-121353J88168D01*
G01*
G37*
G36*
G01*
X84062122Y-123145495D02*
X83819417Y-122969159D01*
G75*
G02*
X83786232Y-122759638I88168J121353D01*
G01*
X84756077Y-121424760D01*
G75*
G02*
X84965598Y-121391575I121353J-88168D01*
G01*
X85208303Y-121567911D01*
G75*
G02*
X85241488Y-121777432I-88168J-121353D01*
G01*
X84271643Y-123112310D01*
G75*
G02*
X84062122Y-123145495I-121353J88168D01*
G01*
G37*
G36*
G01*
X85089574Y-123891983D02*
X84846869Y-123715647D01*
G75*
G02*
X84813684Y-123506126I88168J121353D01*
G01*
X85783529Y-122171248D01*
G75*
G02*
X85993050Y-122138063I121353J-88168D01*
G01*
X86235755Y-122314399D01*
G75*
G02*
X86268940Y-122523920I-88168J-121353D01*
G01*
X85299095Y-123858798D01*
G75*
G02*
X85089574Y-123891983I-121353J88168D01*
G01*
G37*
%TD*%
%TO.C,R60*%
G36*
G01*
X87217808Y-128327711D02*
X86894526Y-128772671D01*
G75*
G02*
X86615166Y-128816917I-161803J117557D01*
G01*
X86291560Y-128581803D01*
G75*
G02*
X86247314Y-128302443I117557J161803D01*
G01*
X86570596Y-127857483D01*
G75*
G02*
X86849956Y-127813237I161803J-117557D01*
G01*
X87173562Y-128048351D01*
G75*
G02*
X87217808Y-128327711I-117557J-161803D01*
G01*
G37*
G36*
G01*
X88552686Y-129297557D02*
X88229404Y-129742517D01*
G75*
G02*
X87950044Y-129786763I-161803J117557D01*
G01*
X87626438Y-129551649D01*
G75*
G02*
X87582192Y-129272289I117557J161803D01*
G01*
X87905474Y-128827329D01*
G75*
G02*
X88184834Y-128783083I161803J-117557D01*
G01*
X88508440Y-129018197D01*
G75*
G02*
X88552686Y-129297557I-117557J-161803D01*
G01*
G37*
%TD*%
%TO.C,R59*%
G36*
G01*
X84217808Y-125827711D02*
X83894526Y-126272671D01*
G75*
G02*
X83615166Y-126316917I-161803J117557D01*
G01*
X83291560Y-126081803D01*
G75*
G02*
X83247314Y-125802443I117557J161803D01*
G01*
X83570596Y-125357483D01*
G75*
G02*
X83849956Y-125313237I161803J-117557D01*
G01*
X84173562Y-125548351D01*
G75*
G02*
X84217808Y-125827711I-117557J-161803D01*
G01*
G37*
G36*
G01*
X85552686Y-126797557D02*
X85229404Y-127242517D01*
G75*
G02*
X84950044Y-127286763I-161803J117557D01*
G01*
X84626438Y-127051649D01*
G75*
G02*
X84582192Y-126772289I117557J161803D01*
G01*
X84905474Y-126327329D01*
G75*
G02*
X85184834Y-126283083I161803J-117557D01*
G01*
X85508440Y-126518197D01*
G75*
G02*
X85552686Y-126797557I-117557J-161803D01*
G01*
G37*
%TD*%
%TO.C,C11*%
G36*
G01*
X81588996Y-123237751D02*
X81882888Y-122833242D01*
G75*
G02*
X82197169Y-122783465I182029J-132252D01*
G01*
X82561227Y-123047968D01*
G75*
G02*
X82611004Y-123362249I-132252J-182029D01*
G01*
X82317112Y-123766758D01*
G75*
G02*
X82002831Y-123816535I-182029J132252D01*
G01*
X81638773Y-123552032D01*
G75*
G02*
X81588996Y-123237751I132252J182029D01*
G01*
G37*
G36*
G01*
X80335020Y-122326683D02*
X80628912Y-121922174D01*
G75*
G02*
X80943193Y-121872397I182029J-132252D01*
G01*
X81307251Y-122136900D01*
G75*
G02*
X81357028Y-122451181I-132252J-182029D01*
G01*
X81063136Y-122855690D01*
G75*
G02*
X80748855Y-122905467I-182029J132252D01*
G01*
X80384797Y-122640964D01*
G75*
G02*
X80335020Y-122326683I132252J182029D01*
G01*
G37*
%TD*%
%TO.C,C10*%
G36*
G01*
X87254751Y-114059103D02*
X87654068Y-114360011D01*
G75*
G02*
X87698353Y-114675112I-135408J-179693D01*
G01*
X87427536Y-115034498D01*
G75*
G02*
X87112435Y-115078783I-179693J135408D01*
G01*
X86713118Y-114777875D01*
G75*
G02*
X86668833Y-114462774I135408J179693D01*
G01*
X86939650Y-114103388D01*
G75*
G02*
X87254751Y-114059103I179693J-135408D01*
G01*
G37*
G36*
G01*
X88187565Y-112821217D02*
X88586882Y-113122125D01*
G75*
G02*
X88631167Y-113437226I-135408J-179693D01*
G01*
X88360350Y-113796612D01*
G75*
G02*
X88045249Y-113840897I-179693J135408D01*
G01*
X87645932Y-113539989D01*
G75*
G02*
X87601647Y-113224888I135408J179693D01*
G01*
X87872464Y-112865502D01*
G75*
G02*
X88187565Y-112821217I179693J-135408D01*
G01*
G37*
%TD*%
%TO.C,C9*%
G36*
G01*
X88451181Y-121442972D02*
X88855690Y-121736864D01*
G75*
G02*
X88905467Y-122051145I-132252J-182029D01*
G01*
X88640964Y-122415203D01*
G75*
G02*
X88326683Y-122464980I-182029J132252D01*
G01*
X87922174Y-122171088D01*
G75*
G02*
X87872397Y-121856807I132252J182029D01*
G01*
X88136900Y-121492749D01*
G75*
G02*
X88451181Y-121442972I182029J-132252D01*
G01*
G37*
G36*
G01*
X89362249Y-120188996D02*
X89766758Y-120482888D01*
G75*
G02*
X89816535Y-120797169I-132252J-182029D01*
G01*
X89552032Y-121161227D01*
G75*
G02*
X89237751Y-121211004I-182029J132252D01*
G01*
X88833242Y-120917112D01*
G75*
G02*
X88783465Y-120602831I132252J182029D01*
G01*
X89047968Y-120238773D01*
G75*
G02*
X89362249Y-120188996I182029J-132252D01*
G01*
G37*
%TD*%
%TO.C,J2*%
G36*
X170665475Y-110348650D02*
G01*
X171903310Y-110174683D01*
X172077277Y-111412518D01*
X170839442Y-111586485D01*
X170665475Y-110348650D01*
G37*
G36*
X170311975Y-107833370D02*
G01*
X171549810Y-107659403D01*
X171723777Y-108897238D01*
X170485942Y-109071205D01*
X170311975Y-107833370D01*
G37*
G36*
X169958475Y-105318089D02*
G01*
X171196310Y-105144122D01*
X171370277Y-106381957D01*
X170132442Y-106555924D01*
X169958475Y-105318089D01*
G37*
G36*
X171372474Y-115379212D02*
G01*
X172610309Y-115205245D01*
X172784276Y-116443080D01*
X171546441Y-116617047D01*
X171372474Y-115379212D01*
G37*
G36*
X171725974Y-117894493D02*
G01*
X172963809Y-117720526D01*
X173137776Y-118958361D01*
X171899941Y-119132328D01*
X171725974Y-117894493D01*
G37*
G36*
X171018974Y-112863931D02*
G01*
X172256809Y-112689964D01*
X172430776Y-113927799D01*
X171192941Y-114101766D01*
X171018974Y-112863931D01*
G37*
%TD*%
%TO.C,R1*%
G36*
G01*
X162580065Y-82959914D02*
X162750024Y-83482995D01*
G75*
G02*
X162621616Y-83735009I-190211J-61803D01*
G01*
X162241193Y-83858616D01*
G75*
G02*
X161989179Y-83730208I-61803J190211D01*
G01*
X161819220Y-83207127D01*
G75*
G02*
X161947628Y-82955113I190211J61803D01*
G01*
X162328051Y-82831506D01*
G75*
G02*
X162580065Y-82959914I61803J-190211D01*
G01*
G37*
G36*
G01*
X161010821Y-83469792D02*
X161180780Y-83992873D01*
G75*
G02*
X161052372Y-84244887I-190211J-61803D01*
G01*
X160671949Y-84368494D01*
G75*
G02*
X160419935Y-84240086I-61803J190211D01*
G01*
X160249976Y-83717005D01*
G75*
G02*
X160378384Y-83464991I190211J61803D01*
G01*
X160758807Y-83341384D01*
G75*
G02*
X161010821Y-83469792I61803J-190211D01*
G01*
G37*
%TD*%
%TO.C,R58*%
G36*
G01*
X121150000Y-65825000D02*
X121150000Y-65275000D01*
G75*
G02*
X121350000Y-65075000I200000J0D01*
G01*
X121750000Y-65075000D01*
G75*
G02*
X121950000Y-65275000I0J-200000D01*
G01*
X121950000Y-65825000D01*
G75*
G02*
X121750000Y-66025000I-200000J0D01*
G01*
X121350000Y-66025000D01*
G75*
G02*
X121150000Y-65825000I0J200000D01*
G01*
G37*
G36*
G01*
X122800000Y-65825000D02*
X122800000Y-65275000D01*
G75*
G02*
X123000000Y-65075000I200000J0D01*
G01*
X123400000Y-65075000D01*
G75*
G02*
X123600000Y-65275000I0J-200000D01*
G01*
X123600000Y-65825000D01*
G75*
G02*
X123400000Y-66025000I-200000J0D01*
G01*
X123000000Y-66025000D01*
G75*
G02*
X122800000Y-65825000I0J200000D01*
G01*
G37*
%TD*%
%TO.C,R57*%
G36*
G01*
X123075000Y-57875000D02*
X123075000Y-58425000D01*
G75*
G02*
X122875000Y-58625000I-200000J0D01*
G01*
X122475000Y-58625000D01*
G75*
G02*
X122275000Y-58425000I0J200000D01*
G01*
X122275000Y-57875000D01*
G75*
G02*
X122475000Y-57675000I200000J0D01*
G01*
X122875000Y-57675000D01*
G75*
G02*
X123075000Y-57875000I0J-200000D01*
G01*
G37*
G36*
G01*
X121425000Y-57875000D02*
X121425000Y-58425000D01*
G75*
G02*
X121225000Y-58625000I-200000J0D01*
G01*
X120825000Y-58625000D01*
G75*
G02*
X120625000Y-58425000I0J200000D01*
G01*
X120625000Y-57875000D01*
G75*
G02*
X120825000Y-57675000I200000J0D01*
G01*
X121225000Y-57675000D01*
G75*
G02*
X121425000Y-57875000I0J-200000D01*
G01*
G37*
%TD*%
%TO.C,R24*%
G36*
G01*
X106152443Y-141002686D02*
X105707483Y-140679404D01*
G75*
G02*
X105663237Y-140400044I117557J161803D01*
G01*
X105898351Y-140076438D01*
G75*
G02*
X106177711Y-140032192I161803J-117557D01*
G01*
X106622671Y-140355474D01*
G75*
G02*
X106666917Y-140634834I-117557J-161803D01*
G01*
X106431803Y-140958440D01*
G75*
G02*
X106152443Y-141002686I-161803J117557D01*
G01*
G37*
G36*
G01*
X107122289Y-139667808D02*
X106677329Y-139344526D01*
G75*
G02*
X106633083Y-139065166I117557J161803D01*
G01*
X106868197Y-138741560D01*
G75*
G02*
X107147557Y-138697314I161803J-117557D01*
G01*
X107592517Y-139020596D01*
G75*
G02*
X107636763Y-139299956I-117557J-161803D01*
G01*
X107401649Y-139623562D01*
G75*
G02*
X107122289Y-139667808I-161803J117557D01*
G01*
G37*
%TD*%
%TO.C,R23*%
G36*
G01*
X103902443Y-139402686D02*
X103457483Y-139079404D01*
G75*
G02*
X103413237Y-138800044I117557J161803D01*
G01*
X103648351Y-138476438D01*
G75*
G02*
X103927711Y-138432192I161803J-117557D01*
G01*
X104372671Y-138755474D01*
G75*
G02*
X104416917Y-139034834I-117557J-161803D01*
G01*
X104181803Y-139358440D01*
G75*
G02*
X103902443Y-139402686I-161803J117557D01*
G01*
G37*
G36*
G01*
X104872289Y-138067808D02*
X104427329Y-137744526D01*
G75*
G02*
X104383083Y-137465166I117557J161803D01*
G01*
X104618197Y-137141560D01*
G75*
G02*
X104897557Y-137097314I161803J-117557D01*
G01*
X105342517Y-137420596D01*
G75*
G02*
X105386763Y-137699956I-117557J-161803D01*
G01*
X105151649Y-138023562D01*
G75*
G02*
X104872289Y-138067808I-161803J117557D01*
G01*
G37*
%TD*%
%TO.C,R14*%
G36*
G01*
X81699976Y-97432995D02*
X81869935Y-96909914D01*
G75*
G02*
X82121949Y-96781506I190211J-61803D01*
G01*
X82502372Y-96905113D01*
G75*
G02*
X82630780Y-97157127I-61803J-190211D01*
G01*
X82460821Y-97680208D01*
G75*
G02*
X82208807Y-97808616I-190211J61803D01*
G01*
X81828384Y-97685009D01*
G75*
G02*
X81699976Y-97432995I61803J190211D01*
G01*
G37*
G36*
G01*
X83269220Y-97942873D02*
X83439179Y-97419792D01*
G75*
G02*
X83691193Y-97291384I190211J-61803D01*
G01*
X84071616Y-97414991D01*
G75*
G02*
X84200024Y-97667005I-61803J-190211D01*
G01*
X84030065Y-98190086D01*
G75*
G02*
X83778051Y-98318494I-190211J61803D01*
G01*
X83397628Y-98194887D01*
G75*
G02*
X83269220Y-97942873I61803J190211D01*
G01*
G37*
%TD*%
%TO.C,R16*%
G36*
G01*
X80799976Y-100132995D02*
X80969935Y-99609914D01*
G75*
G02*
X81221949Y-99481506I190211J-61803D01*
G01*
X81602372Y-99605113D01*
G75*
G02*
X81730780Y-99857127I-61803J-190211D01*
G01*
X81560821Y-100380208D01*
G75*
G02*
X81308807Y-100508616I-190211J61803D01*
G01*
X80928384Y-100385009D01*
G75*
G02*
X80799976Y-100132995I61803J190211D01*
G01*
G37*
G36*
G01*
X82369220Y-100642873D02*
X82539179Y-100119792D01*
G75*
G02*
X82791193Y-99991384I190211J-61803D01*
G01*
X83171616Y-100114991D01*
G75*
G02*
X83300024Y-100367005I-61803J-190211D01*
G01*
X83130065Y-100890086D01*
G75*
G02*
X82878051Y-101018494I-190211J61803D01*
G01*
X82497628Y-100894887D01*
G75*
G02*
X82369220Y-100642873I61803J190211D01*
G01*
G37*
%TD*%
%TO.C,R17*%
G36*
G01*
X79949976Y-102882995D02*
X80119935Y-102359914D01*
G75*
G02*
X80371949Y-102231506I190211J-61803D01*
G01*
X80752372Y-102355113D01*
G75*
G02*
X80880780Y-102607127I-61803J-190211D01*
G01*
X80710821Y-103130208D01*
G75*
G02*
X80458807Y-103258616I-190211J61803D01*
G01*
X80078384Y-103135009D01*
G75*
G02*
X79949976Y-102882995I61803J190211D01*
G01*
G37*
G36*
G01*
X81519220Y-103392873D02*
X81689179Y-102869792D01*
G75*
G02*
X81941193Y-102741384I190211J-61803D01*
G01*
X82321616Y-102864991D01*
G75*
G02*
X82450024Y-103117005I-61803J-190211D01*
G01*
X82280065Y-103640086D01*
G75*
G02*
X82028051Y-103768494I-190211J61803D01*
G01*
X81647628Y-103644887D01*
G75*
G02*
X81519220Y-103392873I61803J190211D01*
G01*
G37*
%TD*%
%TO.C,R18*%
G36*
G01*
X79065354Y-105528056D02*
X79235313Y-105004975D01*
G75*
G02*
X79487327Y-104876567I190211J-61803D01*
G01*
X79867750Y-105000174D01*
G75*
G02*
X79996158Y-105252188I-61803J-190211D01*
G01*
X79826199Y-105775269D01*
G75*
G02*
X79574185Y-105903677I-190211J61803D01*
G01*
X79193762Y-105780070D01*
G75*
G02*
X79065354Y-105528056I61803J190211D01*
G01*
G37*
G36*
G01*
X80634598Y-106037934D02*
X80804557Y-105514853D01*
G75*
G02*
X81056571Y-105386445I190211J-61803D01*
G01*
X81436994Y-105510052D01*
G75*
G02*
X81565402Y-105762066I-61803J-190211D01*
G01*
X81395443Y-106285147D01*
G75*
G02*
X81143429Y-106413555I-190211J61803D01*
G01*
X80763006Y-106289948D01*
G75*
G02*
X80634598Y-106037934I61803J190211D01*
G01*
G37*
%TD*%
%TO.C,R25*%
G36*
G01*
X115852443Y-147702686D02*
X115407483Y-147379404D01*
G75*
G02*
X115363237Y-147100044I117557J161803D01*
G01*
X115598351Y-146776438D01*
G75*
G02*
X115877711Y-146732192I161803J-117557D01*
G01*
X116322671Y-147055474D01*
G75*
G02*
X116366917Y-147334834I-117557J-161803D01*
G01*
X116131803Y-147658440D01*
G75*
G02*
X115852443Y-147702686I-161803J117557D01*
G01*
G37*
G36*
G01*
X116822289Y-146367808D02*
X116377329Y-146044526D01*
G75*
G02*
X116333083Y-145765166I117557J161803D01*
G01*
X116568197Y-145441560D01*
G75*
G02*
X116847557Y-145397314I161803J-117557D01*
G01*
X117292517Y-145720596D01*
G75*
G02*
X117336763Y-145999956I-117557J-161803D01*
G01*
X117101649Y-146323562D01*
G75*
G02*
X116822289Y-146367808I-161803J117557D01*
G01*
G37*
%TD*%
%TO.C,R26*%
G36*
G01*
X108517520Y-142670125D02*
X108072560Y-142346843D01*
G75*
G02*
X108028314Y-142067483I117557J161803D01*
G01*
X108263428Y-141743877D01*
G75*
G02*
X108542788Y-141699631I161803J-117557D01*
G01*
X108987748Y-142022913D01*
G75*
G02*
X109031994Y-142302273I-117557J-161803D01*
G01*
X108796880Y-142625879D01*
G75*
G02*
X108517520Y-142670125I-161803J117557D01*
G01*
G37*
G36*
G01*
X109487366Y-141335247D02*
X109042406Y-141011965D01*
G75*
G02*
X108998160Y-140732605I117557J161803D01*
G01*
X109233274Y-140408999D01*
G75*
G02*
X109512634Y-140364753I161803J-117557D01*
G01*
X109957594Y-140688035D01*
G75*
G02*
X110001840Y-140967395I-117557J-161803D01*
G01*
X109766726Y-141291001D01*
G75*
G02*
X109487366Y-141335247I-161803J117557D01*
G01*
G37*
%TD*%
D13*
%TO.C,Q8*%
X102070000Y-100960000D03*
X102070000Y-99060000D03*
X104070000Y-100010000D03*
%TD*%
%TO.C,R3*%
G36*
G01*
X158480065Y-69509914D02*
X158650024Y-70032995D01*
G75*
G02*
X158521616Y-70285009I-190211J-61803D01*
G01*
X158141193Y-70408616D01*
G75*
G02*
X157889179Y-70280208I-61803J190211D01*
G01*
X157719220Y-69757127D01*
G75*
G02*
X157847628Y-69505113I190211J61803D01*
G01*
X158228051Y-69381506D01*
G75*
G02*
X158480065Y-69509914I61803J-190211D01*
G01*
G37*
G36*
G01*
X156910821Y-70019792D02*
X157080780Y-70542873D01*
G75*
G02*
X156952372Y-70794887I-190211J-61803D01*
G01*
X156571949Y-70918494D01*
G75*
G02*
X156319935Y-70790086I-61803J190211D01*
G01*
X156149976Y-70267005D01*
G75*
G02*
X156278384Y-70014991I190211J61803D01*
G01*
X156658807Y-69891384D01*
G75*
G02*
X156910821Y-70019792I61803J-190211D01*
G01*
G37*
%TD*%
%TO.C,R32*%
G36*
G01*
X105952686Y-130647557D02*
X105629404Y-131092517D01*
G75*
G02*
X105350044Y-131136763I-161803J117557D01*
G01*
X105026438Y-130901649D01*
G75*
G02*
X104982192Y-130622289I117557J161803D01*
G01*
X105305474Y-130177329D01*
G75*
G02*
X105584834Y-130133083I161803J-117557D01*
G01*
X105908440Y-130368197D01*
G75*
G02*
X105952686Y-130647557I-117557J-161803D01*
G01*
G37*
G36*
G01*
X104617808Y-129677711D02*
X104294526Y-130122671D01*
G75*
G02*
X104015166Y-130166917I-161803J117557D01*
G01*
X103691560Y-129931803D01*
G75*
G02*
X103647314Y-129652443I117557J161803D01*
G01*
X103970596Y-129207483D01*
G75*
G02*
X104249956Y-129163237I161803J-117557D01*
G01*
X104573562Y-129398351D01*
G75*
G02*
X104617808Y-129677711I-117557J-161803D01*
G01*
G37*
%TD*%
%TO.C,R31*%
G36*
G01*
X99547314Y-136202443D02*
X99870596Y-135757483D01*
G75*
G02*
X100149956Y-135713237I161803J-117557D01*
G01*
X100473562Y-135948351D01*
G75*
G02*
X100517808Y-136227711I-117557J-161803D01*
G01*
X100194526Y-136672671D01*
G75*
G02*
X99915166Y-136716917I-161803J117557D01*
G01*
X99591560Y-136481803D01*
G75*
G02*
X99547314Y-136202443I117557J161803D01*
G01*
G37*
G36*
G01*
X100882192Y-137172289D02*
X101205474Y-136727329D01*
G75*
G02*
X101484834Y-136683083I161803J-117557D01*
G01*
X101808440Y-136918197D01*
G75*
G02*
X101852686Y-137197557I-117557J-161803D01*
G01*
X101529404Y-137642517D01*
G75*
G02*
X101250044Y-137686763I-161803J117557D01*
G01*
X100926438Y-137451649D01*
G75*
G02*
X100882192Y-137172289I117557J161803D01*
G01*
G37*
%TD*%
%TO.C,R30*%
G36*
G01*
X94897314Y-122152443D02*
X95220596Y-121707483D01*
G75*
G02*
X95499956Y-121663237I161803J-117557D01*
G01*
X95823562Y-121898351D01*
G75*
G02*
X95867808Y-122177711I-117557J-161803D01*
G01*
X95544526Y-122622671D01*
G75*
G02*
X95265166Y-122666917I-161803J117557D01*
G01*
X94941560Y-122431803D01*
G75*
G02*
X94897314Y-122152443I117557J161803D01*
G01*
G37*
G36*
G01*
X96232192Y-123122289D02*
X96555474Y-122677329D01*
G75*
G02*
X96834834Y-122633083I161803J-117557D01*
G01*
X97158440Y-122868197D01*
G75*
G02*
X97202686Y-123147557I-117557J-161803D01*
G01*
X96879404Y-123592517D01*
G75*
G02*
X96600044Y-123636763I-161803J117557D01*
G01*
X96276438Y-123401649D01*
G75*
G02*
X96232192Y-123122289I117557J161803D01*
G01*
G37*
%TD*%
%TO.C,R29*%
G36*
G01*
X90797314Y-128152443D02*
X91120596Y-127707483D01*
G75*
G02*
X91399956Y-127663237I161803J-117557D01*
G01*
X91723562Y-127898351D01*
G75*
G02*
X91767808Y-128177711I-117557J-161803D01*
G01*
X91444526Y-128622671D01*
G75*
G02*
X91165166Y-128666917I-161803J117557D01*
G01*
X90841560Y-128431803D01*
G75*
G02*
X90797314Y-128152443I117557J161803D01*
G01*
G37*
G36*
G01*
X92132192Y-129122289D02*
X92455474Y-128677329D01*
G75*
G02*
X92734834Y-128633083I161803J-117557D01*
G01*
X93058440Y-128868197D01*
G75*
G02*
X93102686Y-129147557I-117557J-161803D01*
G01*
X92779404Y-129592517D01*
G75*
G02*
X92500044Y-129636763I-161803J117557D01*
G01*
X92176438Y-129401649D01*
G75*
G02*
X92132192Y-129122289I117557J161803D01*
G01*
G37*
%TD*%
%TO.C,R22*%
G36*
G01*
X92528056Y-94534646D02*
X92004975Y-94364687D01*
G75*
G02*
X91876567Y-94112673I61803J190211D01*
G01*
X92000174Y-93732250D01*
G75*
G02*
X92252188Y-93603842I190211J-61803D01*
G01*
X92775269Y-93773801D01*
G75*
G02*
X92903677Y-94025815I-61803J-190211D01*
G01*
X92780070Y-94406238D01*
G75*
G02*
X92528056Y-94534646I-190211J61803D01*
G01*
G37*
G36*
G01*
X93037934Y-92965402D02*
X92514853Y-92795443D01*
G75*
G02*
X92386445Y-92543429I61803J190211D01*
G01*
X92510052Y-92163006D01*
G75*
G02*
X92762066Y-92034598I190211J-61803D01*
G01*
X93285147Y-92204557D01*
G75*
G02*
X93413555Y-92456571I-61803J-190211D01*
G01*
X93289948Y-92836994D01*
G75*
G02*
X93037934Y-92965402I-190211J61803D01*
G01*
G37*
%TD*%
%TO.C,R21*%
G36*
G01*
X83767005Y-89999976D02*
X84290086Y-90169935D01*
G75*
G02*
X84418494Y-90421949I-61803J-190211D01*
G01*
X84294887Y-90802372D01*
G75*
G02*
X84042873Y-90930780I-190211J61803D01*
G01*
X83519792Y-90760821D01*
G75*
G02*
X83391384Y-90508807I61803J190211D01*
G01*
X83514991Y-90128384D01*
G75*
G02*
X83767005Y-89999976I190211J-61803D01*
G01*
G37*
G36*
G01*
X83257127Y-91569220D02*
X83780208Y-91739179D01*
G75*
G02*
X83908616Y-91991193I-61803J-190211D01*
G01*
X83785009Y-92371616D01*
G75*
G02*
X83532995Y-92500024I-190211J61803D01*
G01*
X83009914Y-92330065D01*
G75*
G02*
X82881506Y-92078051I61803J190211D01*
G01*
X83005113Y-91697628D01*
G75*
G02*
X83257127Y-91569220I190211J-61803D01*
G01*
G37*
%TD*%
%TO.C,R20*%
G36*
G01*
X93287934Y-81815402D02*
X92764853Y-81645443D01*
G75*
G02*
X92636445Y-81393429I61803J190211D01*
G01*
X92760052Y-81013006D01*
G75*
G02*
X93012066Y-80884598I190211J-61803D01*
G01*
X93535147Y-81054557D01*
G75*
G02*
X93663555Y-81306571I-61803J-190211D01*
G01*
X93539948Y-81686994D01*
G75*
G02*
X93287934Y-81815402I-190211J61803D01*
G01*
G37*
G36*
G01*
X93797812Y-80246158D02*
X93274731Y-80076199D01*
G75*
G02*
X93146323Y-79824185I61803J190211D01*
G01*
X93269930Y-79443762D01*
G75*
G02*
X93521944Y-79315354I190211J-61803D01*
G01*
X94045025Y-79485313D01*
G75*
G02*
X94173433Y-79737327I-61803J-190211D01*
G01*
X94049826Y-80117750D01*
G75*
G02*
X93797812Y-80246158I-190211J61803D01*
G01*
G37*
%TD*%
%TO.C,R19*%
G36*
G01*
X86667005Y-77399976D02*
X87190086Y-77569935D01*
G75*
G02*
X87318494Y-77821949I-61803J-190211D01*
G01*
X87194887Y-78202372D01*
G75*
G02*
X86942873Y-78330780I-190211J61803D01*
G01*
X86419792Y-78160821D01*
G75*
G02*
X86291384Y-77908807I61803J190211D01*
G01*
X86414991Y-77528384D01*
G75*
G02*
X86667005Y-77399976I190211J-61803D01*
G01*
G37*
G36*
G01*
X86157127Y-78969220D02*
X86680208Y-79139179D01*
G75*
G02*
X86808616Y-79391193I-61803J-190211D01*
G01*
X86685009Y-79771616D01*
G75*
G02*
X86432995Y-79900024I-190211J61803D01*
G01*
X85909914Y-79730065D01*
G75*
G02*
X85781506Y-79478051I61803J190211D01*
G01*
X85905113Y-79097628D01*
G75*
G02*
X86157127Y-78969220I190211J-61803D01*
G01*
G37*
%TD*%
%TO.C,R10*%
G36*
G01*
X150340086Y-89830065D02*
X149817005Y-90000024D01*
G75*
G02*
X149564991Y-89871616I-61803J190211D01*
G01*
X149441384Y-89491193D01*
G75*
G02*
X149569792Y-89239179I190211J61803D01*
G01*
X150092873Y-89069220D01*
G75*
G02*
X150344887Y-89197628I61803J-190211D01*
G01*
X150468494Y-89578051D01*
G75*
G02*
X150340086Y-89830065I-190211J-61803D01*
G01*
G37*
G36*
G01*
X149830208Y-88260821D02*
X149307127Y-88430780D01*
G75*
G02*
X149055113Y-88302372I-61803J190211D01*
G01*
X148931506Y-87921949D01*
G75*
G02*
X149059914Y-87669935I190211J61803D01*
G01*
X149582995Y-87499976D01*
G75*
G02*
X149835009Y-87628384I61803J-190211D01*
G01*
X149958616Y-88008807D01*
G75*
G02*
X149830208Y-88260821I-190211J-61803D01*
G01*
G37*
%TD*%
%TO.C,R9*%
G36*
G01*
X159890086Y-87230065D02*
X159367005Y-87400024D01*
G75*
G02*
X159114991Y-87271616I-61803J190211D01*
G01*
X158991384Y-86891193D01*
G75*
G02*
X159119792Y-86639179I190211J61803D01*
G01*
X159642873Y-86469220D01*
G75*
G02*
X159894887Y-86597628I61803J-190211D01*
G01*
X160018494Y-86978051D01*
G75*
G02*
X159890086Y-87230065I-190211J-61803D01*
G01*
G37*
G36*
G01*
X159380208Y-85660821D02*
X158857127Y-85830780D01*
G75*
G02*
X158605113Y-85702372I-61803J190211D01*
G01*
X158481506Y-85321949D01*
G75*
G02*
X158609914Y-85069935I190211J61803D01*
G01*
X159132995Y-84899976D01*
G75*
G02*
X159385009Y-85028384I61803J-190211D01*
G01*
X159508616Y-85408807D01*
G75*
G02*
X159380208Y-85660821I-190211J-61803D01*
G01*
G37*
%TD*%
%TO.C,R8*%
G36*
G01*
X165104975Y-95335313D02*
X165628056Y-95165354D01*
G75*
G02*
X165880070Y-95293762I61803J-190211D01*
G01*
X166003677Y-95674185D01*
G75*
G02*
X165875269Y-95926199I-190211J-61803D01*
G01*
X165352188Y-96096158D01*
G75*
G02*
X165100174Y-95967750I-61803J190211D01*
G01*
X164976567Y-95587327D01*
G75*
G02*
X165104975Y-95335313I190211J61803D01*
G01*
G37*
G36*
G01*
X165614853Y-96904557D02*
X166137934Y-96734598D01*
G75*
G02*
X166389948Y-96863006I61803J-190211D01*
G01*
X166513555Y-97243429D01*
G75*
G02*
X166385147Y-97495443I-190211J-61803D01*
G01*
X165862066Y-97665402D01*
G75*
G02*
X165610052Y-97536994I-61803J190211D01*
G01*
X165486445Y-97156571D01*
G75*
G02*
X165614853Y-96904557I190211J61803D01*
G01*
G37*
%TD*%
%TO.C,R7*%
G36*
G01*
X168485313Y-99495025D02*
X168315354Y-98971944D01*
G75*
G02*
X168443762Y-98719930I190211J61803D01*
G01*
X168824185Y-98596323D01*
G75*
G02*
X169076199Y-98724731I61803J-190211D01*
G01*
X169246158Y-99247812D01*
G75*
G02*
X169117750Y-99499826I-190211J-61803D01*
G01*
X168737327Y-99623433D01*
G75*
G02*
X168485313Y-99495025I-61803J190211D01*
G01*
G37*
G36*
G01*
X170054557Y-98985147D02*
X169884598Y-98462066D01*
G75*
G02*
X170013006Y-98210052I190211J61803D01*
G01*
X170393429Y-98086445D01*
G75*
G02*
X170645443Y-98214853I61803J-190211D01*
G01*
X170815402Y-98737934D01*
G75*
G02*
X170686994Y-98989948I-190211J-61803D01*
G01*
X170306571Y-99113555D01*
G75*
G02*
X170054557Y-98985147I-61803J190211D01*
G01*
G37*
%TD*%
%TO.C,R38*%
G36*
G01*
X106725000Y-93875000D02*
X106175000Y-93875000D01*
G75*
G02*
X105975000Y-93675000I0J200000D01*
G01*
X105975000Y-93275000D01*
G75*
G02*
X106175000Y-93075000I200000J0D01*
G01*
X106725000Y-93075000D01*
G75*
G02*
X106925000Y-93275000I0J-200000D01*
G01*
X106925000Y-93675000D01*
G75*
G02*
X106725000Y-93875000I-200000J0D01*
G01*
G37*
G36*
G01*
X106725000Y-92225000D02*
X106175000Y-92225000D01*
G75*
G02*
X105975000Y-92025000I0J200000D01*
G01*
X105975000Y-91625000D01*
G75*
G02*
X106175000Y-91425000I200000J0D01*
G01*
X106725000Y-91425000D01*
G75*
G02*
X106925000Y-91625000I0J-200000D01*
G01*
X106925000Y-92025000D01*
G75*
G02*
X106725000Y-92225000I-200000J0D01*
G01*
G37*
%TD*%
%TO.C,R37*%
G36*
G01*
X99925000Y-93975000D02*
X99375000Y-93975000D01*
G75*
G02*
X99175000Y-93775000I0J200000D01*
G01*
X99175000Y-93375000D01*
G75*
G02*
X99375000Y-93175000I200000J0D01*
G01*
X99925000Y-93175000D01*
G75*
G02*
X100125000Y-93375000I0J-200000D01*
G01*
X100125000Y-93775000D01*
G75*
G02*
X99925000Y-93975000I-200000J0D01*
G01*
G37*
G36*
G01*
X99925000Y-92325000D02*
X99375000Y-92325000D01*
G75*
G02*
X99175000Y-92125000I0J200000D01*
G01*
X99175000Y-91725000D01*
G75*
G02*
X99375000Y-91525000I200000J0D01*
G01*
X99925000Y-91525000D01*
G75*
G02*
X100125000Y-91725000I0J-200000D01*
G01*
X100125000Y-92125000D01*
G75*
G02*
X99925000Y-92325000I-200000J0D01*
G01*
G37*
%TD*%
%TO.C,R36*%
G36*
G01*
X106725000Y-97575000D02*
X106175000Y-97575000D01*
G75*
G02*
X105975000Y-97375000I0J200000D01*
G01*
X105975000Y-96975000D01*
G75*
G02*
X106175000Y-96775000I200000J0D01*
G01*
X106725000Y-96775000D01*
G75*
G02*
X106925000Y-96975000I0J-200000D01*
G01*
X106925000Y-97375000D01*
G75*
G02*
X106725000Y-97575000I-200000J0D01*
G01*
G37*
G36*
G01*
X106725000Y-95925000D02*
X106175000Y-95925000D01*
G75*
G02*
X105975000Y-95725000I0J200000D01*
G01*
X105975000Y-95325000D01*
G75*
G02*
X106175000Y-95125000I200000J0D01*
G01*
X106725000Y-95125000D01*
G75*
G02*
X106925000Y-95325000I0J-200000D01*
G01*
X106925000Y-95725000D01*
G75*
G02*
X106725000Y-95925000I-200000J0D01*
G01*
G37*
%TD*%
%TO.C,R35*%
G36*
G01*
X99925000Y-97475000D02*
X99375000Y-97475000D01*
G75*
G02*
X99175000Y-97275000I0J200000D01*
G01*
X99175000Y-96875000D01*
G75*
G02*
X99375000Y-96675000I200000J0D01*
G01*
X99925000Y-96675000D01*
G75*
G02*
X100125000Y-96875000I0J-200000D01*
G01*
X100125000Y-97275000D01*
G75*
G02*
X99925000Y-97475000I-200000J0D01*
G01*
G37*
G36*
G01*
X99925000Y-95825000D02*
X99375000Y-95825000D01*
G75*
G02*
X99175000Y-95625000I0J200000D01*
G01*
X99175000Y-95225000D01*
G75*
G02*
X99375000Y-95025000I200000J0D01*
G01*
X99925000Y-95025000D01*
G75*
G02*
X100125000Y-95225000I0J-200000D01*
G01*
X100125000Y-95625000D01*
G75*
G02*
X99925000Y-95825000I-200000J0D01*
G01*
G37*
%TD*%
%TO.C,R34*%
G36*
G01*
X106725000Y-101375000D02*
X106175000Y-101375000D01*
G75*
G02*
X105975000Y-101175000I0J200000D01*
G01*
X105975000Y-100775000D01*
G75*
G02*
X106175000Y-100575000I200000J0D01*
G01*
X106725000Y-100575000D01*
G75*
G02*
X106925000Y-100775000I0J-200000D01*
G01*
X106925000Y-101175000D01*
G75*
G02*
X106725000Y-101375000I-200000J0D01*
G01*
G37*
G36*
G01*
X106725000Y-99725000D02*
X106175000Y-99725000D01*
G75*
G02*
X105975000Y-99525000I0J200000D01*
G01*
X105975000Y-99125000D01*
G75*
G02*
X106175000Y-98925000I200000J0D01*
G01*
X106725000Y-98925000D01*
G75*
G02*
X106925000Y-99125000I0J-200000D01*
G01*
X106925000Y-99525000D01*
G75*
G02*
X106725000Y-99725000I-200000J0D01*
G01*
G37*
%TD*%
%TO.C,R13*%
G36*
G01*
X82534598Y-94687934D02*
X82704557Y-94164853D01*
G75*
G02*
X82956571Y-94036445I190211J-61803D01*
G01*
X83336994Y-94160052D01*
G75*
G02*
X83465402Y-94412066I-61803J-190211D01*
G01*
X83295443Y-94935147D01*
G75*
G02*
X83043429Y-95063555I-190211J61803D01*
G01*
X82663006Y-94939948D01*
G75*
G02*
X82534598Y-94687934I61803J190211D01*
G01*
G37*
G36*
G01*
X84103842Y-95197812D02*
X84273801Y-94674731D01*
G75*
G02*
X84525815Y-94546323I190211J-61803D01*
G01*
X84906238Y-94669930D01*
G75*
G02*
X85034646Y-94921944I-61803J-190211D01*
G01*
X84864687Y-95445025D01*
G75*
G02*
X84612673Y-95573433I-190211J61803D01*
G01*
X84232250Y-95449826D01*
G75*
G02*
X84103842Y-95197812I61803J190211D01*
G01*
G37*
%TD*%
%TO.C,R33*%
G36*
G01*
X99925000Y-101275000D02*
X99375000Y-101275000D01*
G75*
G02*
X99175000Y-101075000I0J200000D01*
G01*
X99175000Y-100675000D01*
G75*
G02*
X99375000Y-100475000I200000J0D01*
G01*
X99925000Y-100475000D01*
G75*
G02*
X100125000Y-100675000I0J-200000D01*
G01*
X100125000Y-101075000D01*
G75*
G02*
X99925000Y-101275000I-200000J0D01*
G01*
G37*
G36*
G01*
X99925000Y-99625000D02*
X99375000Y-99625000D01*
G75*
G02*
X99175000Y-99425000I0J200000D01*
G01*
X99175000Y-99025000D01*
G75*
G02*
X99375000Y-98825000I200000J0D01*
G01*
X99925000Y-98825000D01*
G75*
G02*
X100125000Y-99025000I0J-200000D01*
G01*
X100125000Y-99425000D01*
G75*
G02*
X99925000Y-99625000I-200000J0D01*
G01*
G37*
%TD*%
D12*
%TO.C,P3*%
G36*
X121232323Y-159462552D02*
G01*
X120497592Y-160473823D01*
X119486321Y-159739092D01*
X120221052Y-158727821D01*
X121232323Y-159462552D01*
G37*
G36*
X119177420Y-157969577D02*
G01*
X118442689Y-158980848D01*
X117431418Y-158246117D01*
X118166149Y-157234846D01*
X119177420Y-157969577D01*
G37*
G36*
X117122517Y-156476603D02*
G01*
X116387786Y-157487874D01*
X115376515Y-156753143D01*
X116111246Y-155741872D01*
X117122517Y-156476603D01*
G37*
G36*
X115067614Y-154983628D02*
G01*
X114332883Y-155994899D01*
X113321612Y-155260168D01*
X114056343Y-154248897D01*
X115067614Y-154983628D01*
G37*
G36*
X113012710Y-153490654D02*
G01*
X112277979Y-154501925D01*
X111266708Y-153767194D01*
X112001439Y-152755923D01*
X113012710Y-153490654D01*
G37*
G36*
X110957807Y-151997679D02*
G01*
X110223076Y-153008950D01*
X109211805Y-152274219D01*
X109946536Y-151262948D01*
X110957807Y-151997679D01*
G37*
G36*
X108902904Y-150504705D02*
G01*
X108168173Y-151515976D01*
X107156902Y-150781245D01*
X107891633Y-149769974D01*
X108902904Y-150504705D01*
G37*
G36*
X106848001Y-149011730D02*
G01*
X106113270Y-150023001D01*
X105101999Y-149288270D01*
X105836730Y-148276999D01*
X106848001Y-149011730D01*
G37*
G36*
X104793098Y-147518756D02*
G01*
X104058367Y-148530027D01*
X103047096Y-147795296D01*
X103781827Y-146784025D01*
X104793098Y-147518756D01*
G37*
G36*
X102738195Y-146025781D02*
G01*
X102003464Y-147037052D01*
X100992193Y-146302321D01*
X101726924Y-145291050D01*
X102738195Y-146025781D01*
G37*
G36*
X100683291Y-144532807D02*
G01*
X99948560Y-145544078D01*
X98937289Y-144809347D01*
X99672020Y-143798076D01*
X100683291Y-144532807D01*
G37*
G36*
X98628388Y-143039832D02*
G01*
X97893657Y-144051103D01*
X96882386Y-143316372D01*
X97617117Y-142305101D01*
X98628388Y-143039832D01*
G37*
G36*
X96573485Y-141546858D02*
G01*
X95838754Y-142558129D01*
X94827483Y-141823398D01*
X95562214Y-140812127D01*
X96573485Y-141546858D01*
G37*
G36*
X94518582Y-140053883D02*
G01*
X93783851Y-141065154D01*
X92772580Y-140330423D01*
X93507311Y-139319152D01*
X94518582Y-140053883D01*
G37*
G36*
X92463679Y-138560908D02*
G01*
X91728948Y-139572179D01*
X90717677Y-138837448D01*
X91452408Y-137826177D01*
X92463679Y-138560908D01*
G37*
G36*
X90408776Y-137067934D02*
G01*
X89674045Y-138079205D01*
X88662774Y-137344474D01*
X89397505Y-136333203D01*
X90408776Y-137067934D01*
G37*
G36*
X88353872Y-135574959D02*
G01*
X87619141Y-136586230D01*
X86607870Y-135851499D01*
X87342601Y-134840228D01*
X88353872Y-135574959D01*
G37*
%TD*%
%TO.C,P1*%
G36*
X160332745Y-56576674D02*
G01*
X161521566Y-56190403D01*
X161907837Y-57379224D01*
X160719016Y-57765495D01*
X160332745Y-56576674D01*
G37*
G36*
X161117648Y-58992358D02*
G01*
X162306469Y-58606087D01*
X162692740Y-59794908D01*
X161503919Y-60181179D01*
X161117648Y-58992358D01*
G37*
G36*
X161902551Y-61408041D02*
G01*
X163091372Y-61021770D01*
X163477643Y-62210591D01*
X162288822Y-62596862D01*
X161902551Y-61408041D01*
G37*
G36*
X162687454Y-63823725D02*
G01*
X163876275Y-63437454D01*
X164262546Y-64626275D01*
X163073725Y-65012546D01*
X162687454Y-63823725D01*
G37*
G36*
X163472358Y-66239408D02*
G01*
X164661179Y-65853137D01*
X165047450Y-67041958D01*
X163858629Y-67428229D01*
X163472358Y-66239408D01*
G37*
G36*
X164257261Y-68655092D02*
G01*
X165446082Y-68268821D01*
X165832353Y-69457642D01*
X164643532Y-69843913D01*
X164257261Y-68655092D01*
G37*
G36*
X165042164Y-71070775D02*
G01*
X166230985Y-70684504D01*
X166617256Y-71873325D01*
X165428435Y-72259596D01*
X165042164Y-71070775D01*
G37*
G36*
X165827067Y-73486459D02*
G01*
X167015888Y-73100188D01*
X167402159Y-74289009D01*
X166213338Y-74675280D01*
X165827067Y-73486459D01*
G37*
G36*
X166611970Y-75902142D02*
G01*
X167800791Y-75515871D01*
X168187062Y-76704692D01*
X166998241Y-77090963D01*
X166611970Y-75902142D01*
G37*
G36*
X167396873Y-78317826D02*
G01*
X168585694Y-77931555D01*
X168971965Y-79120376D01*
X167783144Y-79506647D01*
X167396873Y-78317826D01*
G37*
G36*
X168181777Y-80733510D02*
G01*
X169370598Y-80347239D01*
X169756869Y-81536060D01*
X168568048Y-81922331D01*
X168181777Y-80733510D01*
G37*
G36*
X168966680Y-83149193D02*
G01*
X170155501Y-82762922D01*
X170541772Y-83951743D01*
X169352951Y-84338014D01*
X168966680Y-83149193D01*
G37*
G36*
X169751583Y-85564877D02*
G01*
X170940404Y-85178606D01*
X171326675Y-86367427D01*
X170137854Y-86753698D01*
X169751583Y-85564877D01*
G37*
G36*
X170536486Y-87980560D02*
G01*
X171725307Y-87594289D01*
X172111578Y-88783110D01*
X170922757Y-89169381D01*
X170536486Y-87980560D01*
G37*
G36*
X171321389Y-90396244D02*
G01*
X172510210Y-90009973D01*
X172896481Y-91198794D01*
X171707660Y-91585065D01*
X171321389Y-90396244D01*
G37*
G36*
X172106292Y-92811927D02*
G01*
X173295113Y-92425656D01*
X173681384Y-93614477D01*
X172492563Y-94000748D01*
X172106292Y-92811927D01*
G37*
G36*
X172891196Y-95227611D02*
G01*
X174080017Y-94841340D01*
X174466288Y-96030161D01*
X173277467Y-96416432D01*
X172891196Y-95227611D01*
G37*
%TD*%
D11*
%TO.C,P5*%
X93040000Y-52600000D03*
X95580000Y-52600000D03*
X98120000Y-52600000D03*
X100660000Y-52600000D03*
X103200000Y-52600000D03*
X105740000Y-52600000D03*
X108280000Y-52600000D03*
X110820000Y-52600000D03*
X113360000Y-52600000D03*
X115900000Y-52600000D03*
X118440000Y-52600000D03*
X120980000Y-52600000D03*
X123520000Y-52600000D03*
X126060000Y-52600000D03*
X128600000Y-52600000D03*
X131140000Y-52600000D03*
X133680000Y-52600000D03*
%TD*%
D12*
%TO.C,P4*%
G36*
X178122498Y-122267922D02*
G01*
X178857229Y-123279193D01*
X177845958Y-124013924D01*
X177111227Y-123002653D01*
X178122498Y-122267922D01*
G37*
G36*
X176067595Y-123760897D02*
G01*
X176802326Y-124772168D01*
X175791055Y-125506899D01*
X175056324Y-124495628D01*
X176067595Y-123760897D01*
G37*
G36*
X174012692Y-125253871D02*
G01*
X174747423Y-126265142D01*
X173736152Y-126999873D01*
X173001421Y-125988602D01*
X174012692Y-125253871D01*
G37*
G36*
X171957789Y-126746846D02*
G01*
X172692520Y-127758117D01*
X171681249Y-128492848D01*
X170946518Y-127481577D01*
X171957789Y-126746846D01*
G37*
G36*
X169902885Y-128239820D02*
G01*
X170637616Y-129251091D01*
X169626345Y-129985822D01*
X168891614Y-128974551D01*
X169902885Y-128239820D01*
G37*
G36*
X167847982Y-129732795D02*
G01*
X168582713Y-130744066D01*
X167571442Y-131478797D01*
X166836711Y-130467526D01*
X167847982Y-129732795D01*
G37*
G36*
X165793079Y-131225769D02*
G01*
X166527810Y-132237040D01*
X165516539Y-132971771D01*
X164781808Y-131960500D01*
X165793079Y-131225769D01*
G37*
G36*
X163738176Y-132718744D02*
G01*
X164472907Y-133730015D01*
X163461636Y-134464746D01*
X162726905Y-133453475D01*
X163738176Y-132718744D01*
G37*
G36*
X161683273Y-134211718D02*
G01*
X162418004Y-135222989D01*
X161406733Y-135957720D01*
X160672002Y-134946449D01*
X161683273Y-134211718D01*
G37*
G36*
X159628370Y-135704693D02*
G01*
X160363101Y-136715964D01*
X159351830Y-137450695D01*
X158617099Y-136439424D01*
X159628370Y-135704693D01*
G37*
G36*
X157573466Y-137197667D02*
G01*
X158308197Y-138208938D01*
X157296926Y-138943669D01*
X156562195Y-137932398D01*
X157573466Y-137197667D01*
G37*
G36*
X155518563Y-138690642D02*
G01*
X156253294Y-139701913D01*
X155242023Y-140436644D01*
X154507292Y-139425373D01*
X155518563Y-138690642D01*
G37*
G36*
X153463660Y-140183616D02*
G01*
X154198391Y-141194887D01*
X153187120Y-141929618D01*
X152452389Y-140918347D01*
X153463660Y-140183616D01*
G37*
G36*
X151408757Y-141676591D02*
G01*
X152143488Y-142687862D01*
X151132217Y-143422593D01*
X150397486Y-142411322D01*
X151408757Y-141676591D01*
G37*
G36*
X149353854Y-143169566D02*
G01*
X150088585Y-144180837D01*
X149077314Y-144915568D01*
X148342583Y-143904297D01*
X149353854Y-143169566D01*
G37*
G36*
X147298951Y-144662540D02*
G01*
X148033682Y-145673811D01*
X147022411Y-146408542D01*
X146287680Y-145397271D01*
X147298951Y-144662540D01*
G37*
G36*
X145244047Y-146155515D02*
G01*
X145978778Y-147166786D01*
X144967507Y-147901517D01*
X144232776Y-146890246D01*
X145244047Y-146155515D01*
G37*
%TD*%
%TO.C,Q2*%
G36*
X151691801Y-86683889D02*
G01*
X152452646Y-86436676D01*
X152730761Y-87292627D01*
X151969916Y-87539840D01*
X151691801Y-86683889D01*
G37*
G36*
X153498809Y-86096756D02*
G01*
X154259654Y-85849543D01*
X154537769Y-86705494D01*
X153776924Y-86952707D01*
X153498809Y-86096756D01*
G37*
G36*
X153213339Y-88292436D02*
G01*
X153974184Y-88045223D01*
X154252299Y-88901174D01*
X153491454Y-89148387D01*
X153213339Y-88292436D01*
G37*
%TD*%
%TO.C,U1*%
G36*
G01*
X118150000Y-105625000D02*
X118150000Y-105475000D01*
G75*
G02*
X118225000Y-105400000I75000J0D01*
G01*
X119550000Y-105400000D01*
G75*
G02*
X119625000Y-105475000I0J-75000D01*
G01*
X119625000Y-105625000D01*
G75*
G02*
X119550000Y-105700000I-75000J0D01*
G01*
X118225000Y-105700000D01*
G75*
G02*
X118150000Y-105625000I0J75000D01*
G01*
G37*
G36*
G01*
X118150000Y-105125000D02*
X118150000Y-104975000D01*
G75*
G02*
X118225000Y-104900000I75000J0D01*
G01*
X119550000Y-104900000D01*
G75*
G02*
X119625000Y-104975000I0J-75000D01*
G01*
X119625000Y-105125000D01*
G75*
G02*
X119550000Y-105200000I-75000J0D01*
G01*
X118225000Y-105200000D01*
G75*
G02*
X118150000Y-105125000I0J75000D01*
G01*
G37*
G36*
G01*
X118150000Y-104625000D02*
X118150000Y-104475000D01*
G75*
G02*
X118225000Y-104400000I75000J0D01*
G01*
X119550000Y-104400000D01*
G75*
G02*
X119625000Y-104475000I0J-75000D01*
G01*
X119625000Y-104625000D01*
G75*
G02*
X119550000Y-104700000I-75000J0D01*
G01*
X118225000Y-104700000D01*
G75*
G02*
X118150000Y-104625000I0J75000D01*
G01*
G37*
G36*
G01*
X118150000Y-104125000D02*
X118150000Y-103975000D01*
G75*
G02*
X118225000Y-103900000I75000J0D01*
G01*
X119550000Y-103900000D01*
G75*
G02*
X119625000Y-103975000I0J-75000D01*
G01*
X119625000Y-104125000D01*
G75*
G02*
X119550000Y-104200000I-75000J0D01*
G01*
X118225000Y-104200000D01*
G75*
G02*
X118150000Y-104125000I0J75000D01*
G01*
G37*
G36*
G01*
X118150000Y-103625000D02*
X118150000Y-103475000D01*
G75*
G02*
X118225000Y-103400000I75000J0D01*
G01*
X119550000Y-103400000D01*
G75*
G02*
X119625000Y-103475000I0J-75000D01*
G01*
X119625000Y-103625000D01*
G75*
G02*
X119550000Y-103700000I-75000J0D01*
G01*
X118225000Y-103700000D01*
G75*
G02*
X118150000Y-103625000I0J75000D01*
G01*
G37*
G36*
G01*
X118150000Y-103125000D02*
X118150000Y-102975000D01*
G75*
G02*
X118225000Y-102900000I75000J0D01*
G01*
X119550000Y-102900000D01*
G75*
G02*
X119625000Y-102975000I0J-75000D01*
G01*
X119625000Y-103125000D01*
G75*
G02*
X119550000Y-103200000I-75000J0D01*
G01*
X118225000Y-103200000D01*
G75*
G02*
X118150000Y-103125000I0J75000D01*
G01*
G37*
G36*
G01*
X118150000Y-102625000D02*
X118150000Y-102475000D01*
G75*
G02*
X118225000Y-102400000I75000J0D01*
G01*
X119550000Y-102400000D01*
G75*
G02*
X119625000Y-102475000I0J-75000D01*
G01*
X119625000Y-102625000D01*
G75*
G02*
X119550000Y-102700000I-75000J0D01*
G01*
X118225000Y-102700000D01*
G75*
G02*
X118150000Y-102625000I0J75000D01*
G01*
G37*
G36*
G01*
X118150000Y-102125000D02*
X118150000Y-101975000D01*
G75*
G02*
X118225000Y-101900000I75000J0D01*
G01*
X119550000Y-101900000D01*
G75*
G02*
X119625000Y-101975000I0J-75000D01*
G01*
X119625000Y-102125000D01*
G75*
G02*
X119550000Y-102200000I-75000J0D01*
G01*
X118225000Y-102200000D01*
G75*
G02*
X118150000Y-102125000I0J75000D01*
G01*
G37*
G36*
G01*
X118150000Y-101625000D02*
X118150000Y-101475000D01*
G75*
G02*
X118225000Y-101400000I75000J0D01*
G01*
X119550000Y-101400000D01*
G75*
G02*
X119625000Y-101475000I0J-75000D01*
G01*
X119625000Y-101625000D01*
G75*
G02*
X119550000Y-101700000I-75000J0D01*
G01*
X118225000Y-101700000D01*
G75*
G02*
X118150000Y-101625000I0J75000D01*
G01*
G37*
G36*
G01*
X118150000Y-101125000D02*
X118150000Y-100975000D01*
G75*
G02*
X118225000Y-100900000I75000J0D01*
G01*
X119550000Y-100900000D01*
G75*
G02*
X119625000Y-100975000I0J-75000D01*
G01*
X119625000Y-101125000D01*
G75*
G02*
X119550000Y-101200000I-75000J0D01*
G01*
X118225000Y-101200000D01*
G75*
G02*
X118150000Y-101125000I0J75000D01*
G01*
G37*
G36*
G01*
X118150000Y-100625000D02*
X118150000Y-100475000D01*
G75*
G02*
X118225000Y-100400000I75000J0D01*
G01*
X119550000Y-100400000D01*
G75*
G02*
X119625000Y-100475000I0J-75000D01*
G01*
X119625000Y-100625000D01*
G75*
G02*
X119550000Y-100700000I-75000J0D01*
G01*
X118225000Y-100700000D01*
G75*
G02*
X118150000Y-100625000I0J75000D01*
G01*
G37*
G36*
G01*
X118150000Y-100125000D02*
X118150000Y-99975000D01*
G75*
G02*
X118225000Y-99900000I75000J0D01*
G01*
X119550000Y-99900000D01*
G75*
G02*
X119625000Y-99975000I0J-75000D01*
G01*
X119625000Y-100125000D01*
G75*
G02*
X119550000Y-100200000I-75000J0D01*
G01*
X118225000Y-100200000D01*
G75*
G02*
X118150000Y-100125000I0J75000D01*
G01*
G37*
G36*
G01*
X118150000Y-99625000D02*
X118150000Y-99475000D01*
G75*
G02*
X118225000Y-99400000I75000J0D01*
G01*
X119550000Y-99400000D01*
G75*
G02*
X119625000Y-99475000I0J-75000D01*
G01*
X119625000Y-99625000D01*
G75*
G02*
X119550000Y-99700000I-75000J0D01*
G01*
X118225000Y-99700000D01*
G75*
G02*
X118150000Y-99625000I0J75000D01*
G01*
G37*
G36*
G01*
X118150000Y-99125000D02*
X118150000Y-98975000D01*
G75*
G02*
X118225000Y-98900000I75000J0D01*
G01*
X119550000Y-98900000D01*
G75*
G02*
X119625000Y-98975000I0J-75000D01*
G01*
X119625000Y-99125000D01*
G75*
G02*
X119550000Y-99200000I-75000J0D01*
G01*
X118225000Y-99200000D01*
G75*
G02*
X118150000Y-99125000I0J75000D01*
G01*
G37*
G36*
G01*
X118150000Y-98625000D02*
X118150000Y-98475000D01*
G75*
G02*
X118225000Y-98400000I75000J0D01*
G01*
X119550000Y-98400000D01*
G75*
G02*
X119625000Y-98475000I0J-75000D01*
G01*
X119625000Y-98625000D01*
G75*
G02*
X119550000Y-98700000I-75000J0D01*
G01*
X118225000Y-98700000D01*
G75*
G02*
X118150000Y-98625000I0J75000D01*
G01*
G37*
G36*
G01*
X118150000Y-98125000D02*
X118150000Y-97975000D01*
G75*
G02*
X118225000Y-97900000I75000J0D01*
G01*
X119550000Y-97900000D01*
G75*
G02*
X119625000Y-97975000I0J-75000D01*
G01*
X119625000Y-98125000D01*
G75*
G02*
X119550000Y-98200000I-75000J0D01*
G01*
X118225000Y-98200000D01*
G75*
G02*
X118150000Y-98125000I0J75000D01*
G01*
G37*
G36*
G01*
X118150000Y-97625000D02*
X118150000Y-97475000D01*
G75*
G02*
X118225000Y-97400000I75000J0D01*
G01*
X119550000Y-97400000D01*
G75*
G02*
X119625000Y-97475000I0J-75000D01*
G01*
X119625000Y-97625000D01*
G75*
G02*
X119550000Y-97700000I-75000J0D01*
G01*
X118225000Y-97700000D01*
G75*
G02*
X118150000Y-97625000I0J75000D01*
G01*
G37*
G36*
G01*
X118150000Y-97125000D02*
X118150000Y-96975000D01*
G75*
G02*
X118225000Y-96900000I75000J0D01*
G01*
X119550000Y-96900000D01*
G75*
G02*
X119625000Y-96975000I0J-75000D01*
G01*
X119625000Y-97125000D01*
G75*
G02*
X119550000Y-97200000I-75000J0D01*
G01*
X118225000Y-97200000D01*
G75*
G02*
X118150000Y-97125000I0J75000D01*
G01*
G37*
G36*
G01*
X118150000Y-96625000D02*
X118150000Y-96475000D01*
G75*
G02*
X118225000Y-96400000I75000J0D01*
G01*
X119550000Y-96400000D01*
G75*
G02*
X119625000Y-96475000I0J-75000D01*
G01*
X119625000Y-96625000D01*
G75*
G02*
X119550000Y-96700000I-75000J0D01*
G01*
X118225000Y-96700000D01*
G75*
G02*
X118150000Y-96625000I0J75000D01*
G01*
G37*
G36*
G01*
X118150000Y-96125000D02*
X118150000Y-95975000D01*
G75*
G02*
X118225000Y-95900000I75000J0D01*
G01*
X119550000Y-95900000D01*
G75*
G02*
X119625000Y-95975000I0J-75000D01*
G01*
X119625000Y-96125000D01*
G75*
G02*
X119550000Y-96200000I-75000J0D01*
G01*
X118225000Y-96200000D01*
G75*
G02*
X118150000Y-96125000I0J75000D01*
G01*
G37*
G36*
G01*
X118150000Y-95625000D02*
X118150000Y-95475000D01*
G75*
G02*
X118225000Y-95400000I75000J0D01*
G01*
X119550000Y-95400000D01*
G75*
G02*
X119625000Y-95475000I0J-75000D01*
G01*
X119625000Y-95625000D01*
G75*
G02*
X119550000Y-95700000I-75000J0D01*
G01*
X118225000Y-95700000D01*
G75*
G02*
X118150000Y-95625000I0J75000D01*
G01*
G37*
G36*
G01*
X118150000Y-95125000D02*
X118150000Y-94975000D01*
G75*
G02*
X118225000Y-94900000I75000J0D01*
G01*
X119550000Y-94900000D01*
G75*
G02*
X119625000Y-94975000I0J-75000D01*
G01*
X119625000Y-95125000D01*
G75*
G02*
X119550000Y-95200000I-75000J0D01*
G01*
X118225000Y-95200000D01*
G75*
G02*
X118150000Y-95125000I0J75000D01*
G01*
G37*
G36*
G01*
X118150000Y-94625000D02*
X118150000Y-94475000D01*
G75*
G02*
X118225000Y-94400000I75000J0D01*
G01*
X119550000Y-94400000D01*
G75*
G02*
X119625000Y-94475000I0J-75000D01*
G01*
X119625000Y-94625000D01*
G75*
G02*
X119550000Y-94700000I-75000J0D01*
G01*
X118225000Y-94700000D01*
G75*
G02*
X118150000Y-94625000I0J75000D01*
G01*
G37*
G36*
G01*
X118150000Y-94125000D02*
X118150000Y-93975000D01*
G75*
G02*
X118225000Y-93900000I75000J0D01*
G01*
X119550000Y-93900000D01*
G75*
G02*
X119625000Y-93975000I0J-75000D01*
G01*
X119625000Y-94125000D01*
G75*
G02*
X119550000Y-94200000I-75000J0D01*
G01*
X118225000Y-94200000D01*
G75*
G02*
X118150000Y-94125000I0J75000D01*
G01*
G37*
G36*
G01*
X118150000Y-93625000D02*
X118150000Y-93475000D01*
G75*
G02*
X118225000Y-93400000I75000J0D01*
G01*
X119550000Y-93400000D01*
G75*
G02*
X119625000Y-93475000I0J-75000D01*
G01*
X119625000Y-93625000D01*
G75*
G02*
X119550000Y-93700000I-75000J0D01*
G01*
X118225000Y-93700000D01*
G75*
G02*
X118150000Y-93625000I0J75000D01*
G01*
G37*
G36*
G01*
X120400000Y-92550000D02*
X120400000Y-91225000D01*
G75*
G02*
X120475000Y-91150000I75000J0D01*
G01*
X120625000Y-91150000D01*
G75*
G02*
X120700000Y-91225000I0J-75000D01*
G01*
X120700000Y-92550000D01*
G75*
G02*
X120625000Y-92625000I-75000J0D01*
G01*
X120475000Y-92625000D01*
G75*
G02*
X120400000Y-92550000I0J75000D01*
G01*
G37*
G36*
G01*
X120900000Y-92550000D02*
X120900000Y-91225000D01*
G75*
G02*
X120975000Y-91150000I75000J0D01*
G01*
X121125000Y-91150000D01*
G75*
G02*
X121200000Y-91225000I0J-75000D01*
G01*
X121200000Y-92550000D01*
G75*
G02*
X121125000Y-92625000I-75000J0D01*
G01*
X120975000Y-92625000D01*
G75*
G02*
X120900000Y-92550000I0J75000D01*
G01*
G37*
G36*
G01*
X121400000Y-92550000D02*
X121400000Y-91225000D01*
G75*
G02*
X121475000Y-91150000I75000J0D01*
G01*
X121625000Y-91150000D01*
G75*
G02*
X121700000Y-91225000I0J-75000D01*
G01*
X121700000Y-92550000D01*
G75*
G02*
X121625000Y-92625000I-75000J0D01*
G01*
X121475000Y-92625000D01*
G75*
G02*
X121400000Y-92550000I0J75000D01*
G01*
G37*
G36*
G01*
X121900000Y-92550000D02*
X121900000Y-91225000D01*
G75*
G02*
X121975000Y-91150000I75000J0D01*
G01*
X122125000Y-91150000D01*
G75*
G02*
X122200000Y-91225000I0J-75000D01*
G01*
X122200000Y-92550000D01*
G75*
G02*
X122125000Y-92625000I-75000J0D01*
G01*
X121975000Y-92625000D01*
G75*
G02*
X121900000Y-92550000I0J75000D01*
G01*
G37*
G36*
G01*
X122400000Y-92550000D02*
X122400000Y-91225000D01*
G75*
G02*
X122475000Y-91150000I75000J0D01*
G01*
X122625000Y-91150000D01*
G75*
G02*
X122700000Y-91225000I0J-75000D01*
G01*
X122700000Y-92550000D01*
G75*
G02*
X122625000Y-92625000I-75000J0D01*
G01*
X122475000Y-92625000D01*
G75*
G02*
X122400000Y-92550000I0J75000D01*
G01*
G37*
G36*
G01*
X122900000Y-92550000D02*
X122900000Y-91225000D01*
G75*
G02*
X122975000Y-91150000I75000J0D01*
G01*
X123125000Y-91150000D01*
G75*
G02*
X123200000Y-91225000I0J-75000D01*
G01*
X123200000Y-92550000D01*
G75*
G02*
X123125000Y-92625000I-75000J0D01*
G01*
X122975000Y-92625000D01*
G75*
G02*
X122900000Y-92550000I0J75000D01*
G01*
G37*
G36*
G01*
X123400000Y-92550000D02*
X123400000Y-91225000D01*
G75*
G02*
X123475000Y-91150000I75000J0D01*
G01*
X123625000Y-91150000D01*
G75*
G02*
X123700000Y-91225000I0J-75000D01*
G01*
X123700000Y-92550000D01*
G75*
G02*
X123625000Y-92625000I-75000J0D01*
G01*
X123475000Y-92625000D01*
G75*
G02*
X123400000Y-92550000I0J75000D01*
G01*
G37*
G36*
G01*
X123900000Y-92550000D02*
X123900000Y-91225000D01*
G75*
G02*
X123975000Y-91150000I75000J0D01*
G01*
X124125000Y-91150000D01*
G75*
G02*
X124200000Y-91225000I0J-75000D01*
G01*
X124200000Y-92550000D01*
G75*
G02*
X124125000Y-92625000I-75000J0D01*
G01*
X123975000Y-92625000D01*
G75*
G02*
X123900000Y-92550000I0J75000D01*
G01*
G37*
G36*
G01*
X124400000Y-92550000D02*
X124400000Y-91225000D01*
G75*
G02*
X124475000Y-91150000I75000J0D01*
G01*
X124625000Y-91150000D01*
G75*
G02*
X124700000Y-91225000I0J-75000D01*
G01*
X124700000Y-92550000D01*
G75*
G02*
X124625000Y-92625000I-75000J0D01*
G01*
X124475000Y-92625000D01*
G75*
G02*
X124400000Y-92550000I0J75000D01*
G01*
G37*
G36*
G01*
X124900000Y-92550000D02*
X124900000Y-91225000D01*
G75*
G02*
X124975000Y-91150000I75000J0D01*
G01*
X125125000Y-91150000D01*
G75*
G02*
X125200000Y-91225000I0J-75000D01*
G01*
X125200000Y-92550000D01*
G75*
G02*
X125125000Y-92625000I-75000J0D01*
G01*
X124975000Y-92625000D01*
G75*
G02*
X124900000Y-92550000I0J75000D01*
G01*
G37*
G36*
G01*
X125400000Y-92550000D02*
X125400000Y-91225000D01*
G75*
G02*
X125475000Y-91150000I75000J0D01*
G01*
X125625000Y-91150000D01*
G75*
G02*
X125700000Y-91225000I0J-75000D01*
G01*
X125700000Y-92550000D01*
G75*
G02*
X125625000Y-92625000I-75000J0D01*
G01*
X125475000Y-92625000D01*
G75*
G02*
X125400000Y-92550000I0J75000D01*
G01*
G37*
G36*
G01*
X125900000Y-92550000D02*
X125900000Y-91225000D01*
G75*
G02*
X125975000Y-91150000I75000J0D01*
G01*
X126125000Y-91150000D01*
G75*
G02*
X126200000Y-91225000I0J-75000D01*
G01*
X126200000Y-92550000D01*
G75*
G02*
X126125000Y-92625000I-75000J0D01*
G01*
X125975000Y-92625000D01*
G75*
G02*
X125900000Y-92550000I0J75000D01*
G01*
G37*
G36*
G01*
X126400000Y-92550000D02*
X126400000Y-91225000D01*
G75*
G02*
X126475000Y-91150000I75000J0D01*
G01*
X126625000Y-91150000D01*
G75*
G02*
X126700000Y-91225000I0J-75000D01*
G01*
X126700000Y-92550000D01*
G75*
G02*
X126625000Y-92625000I-75000J0D01*
G01*
X126475000Y-92625000D01*
G75*
G02*
X126400000Y-92550000I0J75000D01*
G01*
G37*
G36*
G01*
X126900000Y-92550000D02*
X126900000Y-91225000D01*
G75*
G02*
X126975000Y-91150000I75000J0D01*
G01*
X127125000Y-91150000D01*
G75*
G02*
X127200000Y-91225000I0J-75000D01*
G01*
X127200000Y-92550000D01*
G75*
G02*
X127125000Y-92625000I-75000J0D01*
G01*
X126975000Y-92625000D01*
G75*
G02*
X126900000Y-92550000I0J75000D01*
G01*
G37*
G36*
G01*
X127400000Y-92550000D02*
X127400000Y-91225000D01*
G75*
G02*
X127475000Y-91150000I75000J0D01*
G01*
X127625000Y-91150000D01*
G75*
G02*
X127700000Y-91225000I0J-75000D01*
G01*
X127700000Y-92550000D01*
G75*
G02*
X127625000Y-92625000I-75000J0D01*
G01*
X127475000Y-92625000D01*
G75*
G02*
X127400000Y-92550000I0J75000D01*
G01*
G37*
G36*
G01*
X127900000Y-92550000D02*
X127900000Y-91225000D01*
G75*
G02*
X127975000Y-91150000I75000J0D01*
G01*
X128125000Y-91150000D01*
G75*
G02*
X128200000Y-91225000I0J-75000D01*
G01*
X128200000Y-92550000D01*
G75*
G02*
X128125000Y-92625000I-75000J0D01*
G01*
X127975000Y-92625000D01*
G75*
G02*
X127900000Y-92550000I0J75000D01*
G01*
G37*
G36*
G01*
X128400000Y-92550000D02*
X128400000Y-91225000D01*
G75*
G02*
X128475000Y-91150000I75000J0D01*
G01*
X128625000Y-91150000D01*
G75*
G02*
X128700000Y-91225000I0J-75000D01*
G01*
X128700000Y-92550000D01*
G75*
G02*
X128625000Y-92625000I-75000J0D01*
G01*
X128475000Y-92625000D01*
G75*
G02*
X128400000Y-92550000I0J75000D01*
G01*
G37*
G36*
G01*
X128900000Y-92550000D02*
X128900000Y-91225000D01*
G75*
G02*
X128975000Y-91150000I75000J0D01*
G01*
X129125000Y-91150000D01*
G75*
G02*
X129200000Y-91225000I0J-75000D01*
G01*
X129200000Y-92550000D01*
G75*
G02*
X129125000Y-92625000I-75000J0D01*
G01*
X128975000Y-92625000D01*
G75*
G02*
X128900000Y-92550000I0J75000D01*
G01*
G37*
G36*
G01*
X129400000Y-92550000D02*
X129400000Y-91225000D01*
G75*
G02*
X129475000Y-91150000I75000J0D01*
G01*
X129625000Y-91150000D01*
G75*
G02*
X129700000Y-91225000I0J-75000D01*
G01*
X129700000Y-92550000D01*
G75*
G02*
X129625000Y-92625000I-75000J0D01*
G01*
X129475000Y-92625000D01*
G75*
G02*
X129400000Y-92550000I0J75000D01*
G01*
G37*
G36*
G01*
X129900000Y-92550000D02*
X129900000Y-91225000D01*
G75*
G02*
X129975000Y-91150000I75000J0D01*
G01*
X130125000Y-91150000D01*
G75*
G02*
X130200000Y-91225000I0J-75000D01*
G01*
X130200000Y-92550000D01*
G75*
G02*
X130125000Y-92625000I-75000J0D01*
G01*
X129975000Y-92625000D01*
G75*
G02*
X129900000Y-92550000I0J75000D01*
G01*
G37*
G36*
G01*
X130400000Y-92550000D02*
X130400000Y-91225000D01*
G75*
G02*
X130475000Y-91150000I75000J0D01*
G01*
X130625000Y-91150000D01*
G75*
G02*
X130700000Y-91225000I0J-75000D01*
G01*
X130700000Y-92550000D01*
G75*
G02*
X130625000Y-92625000I-75000J0D01*
G01*
X130475000Y-92625000D01*
G75*
G02*
X130400000Y-92550000I0J75000D01*
G01*
G37*
G36*
G01*
X130900000Y-92550000D02*
X130900000Y-91225000D01*
G75*
G02*
X130975000Y-91150000I75000J0D01*
G01*
X131125000Y-91150000D01*
G75*
G02*
X131200000Y-91225000I0J-75000D01*
G01*
X131200000Y-92550000D01*
G75*
G02*
X131125000Y-92625000I-75000J0D01*
G01*
X130975000Y-92625000D01*
G75*
G02*
X130900000Y-92550000I0J75000D01*
G01*
G37*
G36*
G01*
X131400000Y-92550000D02*
X131400000Y-91225000D01*
G75*
G02*
X131475000Y-91150000I75000J0D01*
G01*
X131625000Y-91150000D01*
G75*
G02*
X131700000Y-91225000I0J-75000D01*
G01*
X131700000Y-92550000D01*
G75*
G02*
X131625000Y-92625000I-75000J0D01*
G01*
X131475000Y-92625000D01*
G75*
G02*
X131400000Y-92550000I0J75000D01*
G01*
G37*
G36*
G01*
X131900000Y-92550000D02*
X131900000Y-91225000D01*
G75*
G02*
X131975000Y-91150000I75000J0D01*
G01*
X132125000Y-91150000D01*
G75*
G02*
X132200000Y-91225000I0J-75000D01*
G01*
X132200000Y-92550000D01*
G75*
G02*
X132125000Y-92625000I-75000J0D01*
G01*
X131975000Y-92625000D01*
G75*
G02*
X131900000Y-92550000I0J75000D01*
G01*
G37*
G36*
G01*
X132400000Y-92550000D02*
X132400000Y-91225000D01*
G75*
G02*
X132475000Y-91150000I75000J0D01*
G01*
X132625000Y-91150000D01*
G75*
G02*
X132700000Y-91225000I0J-75000D01*
G01*
X132700000Y-92550000D01*
G75*
G02*
X132625000Y-92625000I-75000J0D01*
G01*
X132475000Y-92625000D01*
G75*
G02*
X132400000Y-92550000I0J75000D01*
G01*
G37*
G36*
G01*
X133475000Y-93625000D02*
X133475000Y-93475000D01*
G75*
G02*
X133550000Y-93400000I75000J0D01*
G01*
X134875000Y-93400000D01*
G75*
G02*
X134950000Y-93475000I0J-75000D01*
G01*
X134950000Y-93625000D01*
G75*
G02*
X134875000Y-93700000I-75000J0D01*
G01*
X133550000Y-93700000D01*
G75*
G02*
X133475000Y-93625000I0J75000D01*
G01*
G37*
G36*
G01*
X133475000Y-94125000D02*
X133475000Y-93975000D01*
G75*
G02*
X133550000Y-93900000I75000J0D01*
G01*
X134875000Y-93900000D01*
G75*
G02*
X134950000Y-93975000I0J-75000D01*
G01*
X134950000Y-94125000D01*
G75*
G02*
X134875000Y-94200000I-75000J0D01*
G01*
X133550000Y-94200000D01*
G75*
G02*
X133475000Y-94125000I0J75000D01*
G01*
G37*
G36*
G01*
X133475000Y-94625000D02*
X133475000Y-94475000D01*
G75*
G02*
X133550000Y-94400000I75000J0D01*
G01*
X134875000Y-94400000D01*
G75*
G02*
X134950000Y-94475000I0J-75000D01*
G01*
X134950000Y-94625000D01*
G75*
G02*
X134875000Y-94700000I-75000J0D01*
G01*
X133550000Y-94700000D01*
G75*
G02*
X133475000Y-94625000I0J75000D01*
G01*
G37*
G36*
G01*
X133475000Y-95125000D02*
X133475000Y-94975000D01*
G75*
G02*
X133550000Y-94900000I75000J0D01*
G01*
X134875000Y-94900000D01*
G75*
G02*
X134950000Y-94975000I0J-75000D01*
G01*
X134950000Y-95125000D01*
G75*
G02*
X134875000Y-95200000I-75000J0D01*
G01*
X133550000Y-95200000D01*
G75*
G02*
X133475000Y-95125000I0J75000D01*
G01*
G37*
G36*
G01*
X133475000Y-95625000D02*
X133475000Y-95475000D01*
G75*
G02*
X133550000Y-95400000I75000J0D01*
G01*
X134875000Y-95400000D01*
G75*
G02*
X134950000Y-95475000I0J-75000D01*
G01*
X134950000Y-95625000D01*
G75*
G02*
X134875000Y-95700000I-75000J0D01*
G01*
X133550000Y-95700000D01*
G75*
G02*
X133475000Y-95625000I0J75000D01*
G01*
G37*
G36*
G01*
X133475000Y-96125000D02*
X133475000Y-95975000D01*
G75*
G02*
X133550000Y-95900000I75000J0D01*
G01*
X134875000Y-95900000D01*
G75*
G02*
X134950000Y-95975000I0J-75000D01*
G01*
X134950000Y-96125000D01*
G75*
G02*
X134875000Y-96200000I-75000J0D01*
G01*
X133550000Y-96200000D01*
G75*
G02*
X133475000Y-96125000I0J75000D01*
G01*
G37*
G36*
G01*
X133475000Y-96625000D02*
X133475000Y-96475000D01*
G75*
G02*
X133550000Y-96400000I75000J0D01*
G01*
X134875000Y-96400000D01*
G75*
G02*
X134950000Y-96475000I0J-75000D01*
G01*
X134950000Y-96625000D01*
G75*
G02*
X134875000Y-96700000I-75000J0D01*
G01*
X133550000Y-96700000D01*
G75*
G02*
X133475000Y-96625000I0J75000D01*
G01*
G37*
G36*
G01*
X133475000Y-97125000D02*
X133475000Y-96975000D01*
G75*
G02*
X133550000Y-96900000I75000J0D01*
G01*
X134875000Y-96900000D01*
G75*
G02*
X134950000Y-96975000I0J-75000D01*
G01*
X134950000Y-97125000D01*
G75*
G02*
X134875000Y-97200000I-75000J0D01*
G01*
X133550000Y-97200000D01*
G75*
G02*
X133475000Y-97125000I0J75000D01*
G01*
G37*
G36*
G01*
X133475000Y-97625000D02*
X133475000Y-97475000D01*
G75*
G02*
X133550000Y-97400000I75000J0D01*
G01*
X134875000Y-97400000D01*
G75*
G02*
X134950000Y-97475000I0J-75000D01*
G01*
X134950000Y-97625000D01*
G75*
G02*
X134875000Y-97700000I-75000J0D01*
G01*
X133550000Y-97700000D01*
G75*
G02*
X133475000Y-97625000I0J75000D01*
G01*
G37*
G36*
G01*
X133475000Y-98125000D02*
X133475000Y-97975000D01*
G75*
G02*
X133550000Y-97900000I75000J0D01*
G01*
X134875000Y-97900000D01*
G75*
G02*
X134950000Y-97975000I0J-75000D01*
G01*
X134950000Y-98125000D01*
G75*
G02*
X134875000Y-98200000I-75000J0D01*
G01*
X133550000Y-98200000D01*
G75*
G02*
X133475000Y-98125000I0J75000D01*
G01*
G37*
G36*
G01*
X133475000Y-98625000D02*
X133475000Y-98475000D01*
G75*
G02*
X133550000Y-98400000I75000J0D01*
G01*
X134875000Y-98400000D01*
G75*
G02*
X134950000Y-98475000I0J-75000D01*
G01*
X134950000Y-98625000D01*
G75*
G02*
X134875000Y-98700000I-75000J0D01*
G01*
X133550000Y-98700000D01*
G75*
G02*
X133475000Y-98625000I0J75000D01*
G01*
G37*
G36*
G01*
X133475000Y-99125000D02*
X133475000Y-98975000D01*
G75*
G02*
X133550000Y-98900000I75000J0D01*
G01*
X134875000Y-98900000D01*
G75*
G02*
X134950000Y-98975000I0J-75000D01*
G01*
X134950000Y-99125000D01*
G75*
G02*
X134875000Y-99200000I-75000J0D01*
G01*
X133550000Y-99200000D01*
G75*
G02*
X133475000Y-99125000I0J75000D01*
G01*
G37*
G36*
G01*
X133475000Y-99625000D02*
X133475000Y-99475000D01*
G75*
G02*
X133550000Y-99400000I75000J0D01*
G01*
X134875000Y-99400000D01*
G75*
G02*
X134950000Y-99475000I0J-75000D01*
G01*
X134950000Y-99625000D01*
G75*
G02*
X134875000Y-99700000I-75000J0D01*
G01*
X133550000Y-99700000D01*
G75*
G02*
X133475000Y-99625000I0J75000D01*
G01*
G37*
G36*
G01*
X133475000Y-100125000D02*
X133475000Y-99975000D01*
G75*
G02*
X133550000Y-99900000I75000J0D01*
G01*
X134875000Y-99900000D01*
G75*
G02*
X134950000Y-99975000I0J-75000D01*
G01*
X134950000Y-100125000D01*
G75*
G02*
X134875000Y-100200000I-75000J0D01*
G01*
X133550000Y-100200000D01*
G75*
G02*
X133475000Y-100125000I0J75000D01*
G01*
G37*
G36*
G01*
X133475000Y-100625000D02*
X133475000Y-100475000D01*
G75*
G02*
X133550000Y-100400000I75000J0D01*
G01*
X134875000Y-100400000D01*
G75*
G02*
X134950000Y-100475000I0J-75000D01*
G01*
X134950000Y-100625000D01*
G75*
G02*
X134875000Y-100700000I-75000J0D01*
G01*
X133550000Y-100700000D01*
G75*
G02*
X133475000Y-100625000I0J75000D01*
G01*
G37*
G36*
G01*
X133475000Y-101125000D02*
X133475000Y-100975000D01*
G75*
G02*
X133550000Y-100900000I75000J0D01*
G01*
X134875000Y-100900000D01*
G75*
G02*
X134950000Y-100975000I0J-75000D01*
G01*
X134950000Y-101125000D01*
G75*
G02*
X134875000Y-101200000I-75000J0D01*
G01*
X133550000Y-101200000D01*
G75*
G02*
X133475000Y-101125000I0J75000D01*
G01*
G37*
G36*
G01*
X133475000Y-101625000D02*
X133475000Y-101475000D01*
G75*
G02*
X133550000Y-101400000I75000J0D01*
G01*
X134875000Y-101400000D01*
G75*
G02*
X134950000Y-101475000I0J-75000D01*
G01*
X134950000Y-101625000D01*
G75*
G02*
X134875000Y-101700000I-75000J0D01*
G01*
X133550000Y-101700000D01*
G75*
G02*
X133475000Y-101625000I0J75000D01*
G01*
G37*
G36*
G01*
X133475000Y-102125000D02*
X133475000Y-101975000D01*
G75*
G02*
X133550000Y-101900000I75000J0D01*
G01*
X134875000Y-101900000D01*
G75*
G02*
X134950000Y-101975000I0J-75000D01*
G01*
X134950000Y-102125000D01*
G75*
G02*
X134875000Y-102200000I-75000J0D01*
G01*
X133550000Y-102200000D01*
G75*
G02*
X133475000Y-102125000I0J75000D01*
G01*
G37*
G36*
G01*
X133475000Y-102625000D02*
X133475000Y-102475000D01*
G75*
G02*
X133550000Y-102400000I75000J0D01*
G01*
X134875000Y-102400000D01*
G75*
G02*
X134950000Y-102475000I0J-75000D01*
G01*
X134950000Y-102625000D01*
G75*
G02*
X134875000Y-102700000I-75000J0D01*
G01*
X133550000Y-102700000D01*
G75*
G02*
X133475000Y-102625000I0J75000D01*
G01*
G37*
G36*
G01*
X133475000Y-103125000D02*
X133475000Y-102975000D01*
G75*
G02*
X133550000Y-102900000I75000J0D01*
G01*
X134875000Y-102900000D01*
G75*
G02*
X134950000Y-102975000I0J-75000D01*
G01*
X134950000Y-103125000D01*
G75*
G02*
X134875000Y-103200000I-75000J0D01*
G01*
X133550000Y-103200000D01*
G75*
G02*
X133475000Y-103125000I0J75000D01*
G01*
G37*
G36*
G01*
X133475000Y-103625000D02*
X133475000Y-103475000D01*
G75*
G02*
X133550000Y-103400000I75000J0D01*
G01*
X134875000Y-103400000D01*
G75*
G02*
X134950000Y-103475000I0J-75000D01*
G01*
X134950000Y-103625000D01*
G75*
G02*
X134875000Y-103700000I-75000J0D01*
G01*
X133550000Y-103700000D01*
G75*
G02*
X133475000Y-103625000I0J75000D01*
G01*
G37*
G36*
G01*
X133475000Y-104125000D02*
X133475000Y-103975000D01*
G75*
G02*
X133550000Y-103900000I75000J0D01*
G01*
X134875000Y-103900000D01*
G75*
G02*
X134950000Y-103975000I0J-75000D01*
G01*
X134950000Y-104125000D01*
G75*
G02*
X134875000Y-104200000I-75000J0D01*
G01*
X133550000Y-104200000D01*
G75*
G02*
X133475000Y-104125000I0J75000D01*
G01*
G37*
G36*
G01*
X133475000Y-104625000D02*
X133475000Y-104475000D01*
G75*
G02*
X133550000Y-104400000I75000J0D01*
G01*
X134875000Y-104400000D01*
G75*
G02*
X134950000Y-104475000I0J-75000D01*
G01*
X134950000Y-104625000D01*
G75*
G02*
X134875000Y-104700000I-75000J0D01*
G01*
X133550000Y-104700000D01*
G75*
G02*
X133475000Y-104625000I0J75000D01*
G01*
G37*
G36*
G01*
X133475000Y-105125000D02*
X133475000Y-104975000D01*
G75*
G02*
X133550000Y-104900000I75000J0D01*
G01*
X134875000Y-104900000D01*
G75*
G02*
X134950000Y-104975000I0J-75000D01*
G01*
X134950000Y-105125000D01*
G75*
G02*
X134875000Y-105200000I-75000J0D01*
G01*
X133550000Y-105200000D01*
G75*
G02*
X133475000Y-105125000I0J75000D01*
G01*
G37*
G36*
G01*
X133475000Y-105625000D02*
X133475000Y-105475000D01*
G75*
G02*
X133550000Y-105400000I75000J0D01*
G01*
X134875000Y-105400000D01*
G75*
G02*
X134950000Y-105475000I0J-75000D01*
G01*
X134950000Y-105625000D01*
G75*
G02*
X134875000Y-105700000I-75000J0D01*
G01*
X133550000Y-105700000D01*
G75*
G02*
X133475000Y-105625000I0J75000D01*
G01*
G37*
G36*
G01*
X132400000Y-107875000D02*
X132400000Y-106550000D01*
G75*
G02*
X132475000Y-106475000I75000J0D01*
G01*
X132625000Y-106475000D01*
G75*
G02*
X132700000Y-106550000I0J-75000D01*
G01*
X132700000Y-107875000D01*
G75*
G02*
X132625000Y-107950000I-75000J0D01*
G01*
X132475000Y-107950000D01*
G75*
G02*
X132400000Y-107875000I0J75000D01*
G01*
G37*
G36*
G01*
X131900000Y-107875000D02*
X131900000Y-106550000D01*
G75*
G02*
X131975000Y-106475000I75000J0D01*
G01*
X132125000Y-106475000D01*
G75*
G02*
X132200000Y-106550000I0J-75000D01*
G01*
X132200000Y-107875000D01*
G75*
G02*
X132125000Y-107950000I-75000J0D01*
G01*
X131975000Y-107950000D01*
G75*
G02*
X131900000Y-107875000I0J75000D01*
G01*
G37*
G36*
G01*
X131400000Y-107875000D02*
X131400000Y-106550000D01*
G75*
G02*
X131475000Y-106475000I75000J0D01*
G01*
X131625000Y-106475000D01*
G75*
G02*
X131700000Y-106550000I0J-75000D01*
G01*
X131700000Y-107875000D01*
G75*
G02*
X131625000Y-107950000I-75000J0D01*
G01*
X131475000Y-107950000D01*
G75*
G02*
X131400000Y-107875000I0J75000D01*
G01*
G37*
G36*
G01*
X130900000Y-107875000D02*
X130900000Y-106550000D01*
G75*
G02*
X130975000Y-106475000I75000J0D01*
G01*
X131125000Y-106475000D01*
G75*
G02*
X131200000Y-106550000I0J-75000D01*
G01*
X131200000Y-107875000D01*
G75*
G02*
X131125000Y-107950000I-75000J0D01*
G01*
X130975000Y-107950000D01*
G75*
G02*
X130900000Y-107875000I0J75000D01*
G01*
G37*
G36*
G01*
X130400000Y-107875000D02*
X130400000Y-106550000D01*
G75*
G02*
X130475000Y-106475000I75000J0D01*
G01*
X130625000Y-106475000D01*
G75*
G02*
X130700000Y-106550000I0J-75000D01*
G01*
X130700000Y-107875000D01*
G75*
G02*
X130625000Y-107950000I-75000J0D01*
G01*
X130475000Y-107950000D01*
G75*
G02*
X130400000Y-107875000I0J75000D01*
G01*
G37*
G36*
G01*
X129900000Y-107875000D02*
X129900000Y-106550000D01*
G75*
G02*
X129975000Y-106475000I75000J0D01*
G01*
X130125000Y-106475000D01*
G75*
G02*
X130200000Y-106550000I0J-75000D01*
G01*
X130200000Y-107875000D01*
G75*
G02*
X130125000Y-107950000I-75000J0D01*
G01*
X129975000Y-107950000D01*
G75*
G02*
X129900000Y-107875000I0J75000D01*
G01*
G37*
G36*
G01*
X129400000Y-107875000D02*
X129400000Y-106550000D01*
G75*
G02*
X129475000Y-106475000I75000J0D01*
G01*
X129625000Y-106475000D01*
G75*
G02*
X129700000Y-106550000I0J-75000D01*
G01*
X129700000Y-107875000D01*
G75*
G02*
X129625000Y-107950000I-75000J0D01*
G01*
X129475000Y-107950000D01*
G75*
G02*
X129400000Y-107875000I0J75000D01*
G01*
G37*
G36*
G01*
X128900000Y-107875000D02*
X128900000Y-106550000D01*
G75*
G02*
X128975000Y-106475000I75000J0D01*
G01*
X129125000Y-106475000D01*
G75*
G02*
X129200000Y-106550000I0J-75000D01*
G01*
X129200000Y-107875000D01*
G75*
G02*
X129125000Y-107950000I-75000J0D01*
G01*
X128975000Y-107950000D01*
G75*
G02*
X128900000Y-107875000I0J75000D01*
G01*
G37*
G36*
G01*
X128400000Y-107875000D02*
X128400000Y-106550000D01*
G75*
G02*
X128475000Y-106475000I75000J0D01*
G01*
X128625000Y-106475000D01*
G75*
G02*
X128700000Y-106550000I0J-75000D01*
G01*
X128700000Y-107875000D01*
G75*
G02*
X128625000Y-107950000I-75000J0D01*
G01*
X128475000Y-107950000D01*
G75*
G02*
X128400000Y-107875000I0J75000D01*
G01*
G37*
G36*
G01*
X127900000Y-107875000D02*
X127900000Y-106550000D01*
G75*
G02*
X127975000Y-106475000I75000J0D01*
G01*
X128125000Y-106475000D01*
G75*
G02*
X128200000Y-106550000I0J-75000D01*
G01*
X128200000Y-107875000D01*
G75*
G02*
X128125000Y-107950000I-75000J0D01*
G01*
X127975000Y-107950000D01*
G75*
G02*
X127900000Y-107875000I0J75000D01*
G01*
G37*
G36*
G01*
X127400000Y-107875000D02*
X127400000Y-106550000D01*
G75*
G02*
X127475000Y-106475000I75000J0D01*
G01*
X127625000Y-106475000D01*
G75*
G02*
X127700000Y-106550000I0J-75000D01*
G01*
X127700000Y-107875000D01*
G75*
G02*
X127625000Y-107950000I-75000J0D01*
G01*
X127475000Y-107950000D01*
G75*
G02*
X127400000Y-107875000I0J75000D01*
G01*
G37*
G36*
G01*
X126900000Y-107875000D02*
X126900000Y-106550000D01*
G75*
G02*
X126975000Y-106475000I75000J0D01*
G01*
X127125000Y-106475000D01*
G75*
G02*
X127200000Y-106550000I0J-75000D01*
G01*
X127200000Y-107875000D01*
G75*
G02*
X127125000Y-107950000I-75000J0D01*
G01*
X126975000Y-107950000D01*
G75*
G02*
X126900000Y-107875000I0J75000D01*
G01*
G37*
G36*
G01*
X126400000Y-107875000D02*
X126400000Y-106550000D01*
G75*
G02*
X126475000Y-106475000I75000J0D01*
G01*
X126625000Y-106475000D01*
G75*
G02*
X126700000Y-106550000I0J-75000D01*
G01*
X126700000Y-107875000D01*
G75*
G02*
X126625000Y-107950000I-75000J0D01*
G01*
X126475000Y-107950000D01*
G75*
G02*
X126400000Y-107875000I0J75000D01*
G01*
G37*
G36*
G01*
X125900000Y-107875000D02*
X125900000Y-106550000D01*
G75*
G02*
X125975000Y-106475000I75000J0D01*
G01*
X126125000Y-106475000D01*
G75*
G02*
X126200000Y-106550000I0J-75000D01*
G01*
X126200000Y-107875000D01*
G75*
G02*
X126125000Y-107950000I-75000J0D01*
G01*
X125975000Y-107950000D01*
G75*
G02*
X125900000Y-107875000I0J75000D01*
G01*
G37*
G36*
G01*
X125400000Y-107875000D02*
X125400000Y-106550000D01*
G75*
G02*
X125475000Y-106475000I75000J0D01*
G01*
X125625000Y-106475000D01*
G75*
G02*
X125700000Y-106550000I0J-75000D01*
G01*
X125700000Y-107875000D01*
G75*
G02*
X125625000Y-107950000I-75000J0D01*
G01*
X125475000Y-107950000D01*
G75*
G02*
X125400000Y-107875000I0J75000D01*
G01*
G37*
G36*
G01*
X124900000Y-107875000D02*
X124900000Y-106550000D01*
G75*
G02*
X124975000Y-106475000I75000J0D01*
G01*
X125125000Y-106475000D01*
G75*
G02*
X125200000Y-106550000I0J-75000D01*
G01*
X125200000Y-107875000D01*
G75*
G02*
X125125000Y-107950000I-75000J0D01*
G01*
X124975000Y-107950000D01*
G75*
G02*
X124900000Y-107875000I0J75000D01*
G01*
G37*
G36*
G01*
X124400000Y-107875000D02*
X124400000Y-106550000D01*
G75*
G02*
X124475000Y-106475000I75000J0D01*
G01*
X124625000Y-106475000D01*
G75*
G02*
X124700000Y-106550000I0J-75000D01*
G01*
X124700000Y-107875000D01*
G75*
G02*
X124625000Y-107950000I-75000J0D01*
G01*
X124475000Y-107950000D01*
G75*
G02*
X124400000Y-107875000I0J75000D01*
G01*
G37*
G36*
G01*
X123900000Y-107875000D02*
X123900000Y-106550000D01*
G75*
G02*
X123975000Y-106475000I75000J0D01*
G01*
X124125000Y-106475000D01*
G75*
G02*
X124200000Y-106550000I0J-75000D01*
G01*
X124200000Y-107875000D01*
G75*
G02*
X124125000Y-107950000I-75000J0D01*
G01*
X123975000Y-107950000D01*
G75*
G02*
X123900000Y-107875000I0J75000D01*
G01*
G37*
G36*
G01*
X123400000Y-107875000D02*
X123400000Y-106550000D01*
G75*
G02*
X123475000Y-106475000I75000J0D01*
G01*
X123625000Y-106475000D01*
G75*
G02*
X123700000Y-106550000I0J-75000D01*
G01*
X123700000Y-107875000D01*
G75*
G02*
X123625000Y-107950000I-75000J0D01*
G01*
X123475000Y-107950000D01*
G75*
G02*
X123400000Y-107875000I0J75000D01*
G01*
G37*
G36*
G01*
X122900000Y-107875000D02*
X122900000Y-106550000D01*
G75*
G02*
X122975000Y-106475000I75000J0D01*
G01*
X123125000Y-106475000D01*
G75*
G02*
X123200000Y-106550000I0J-75000D01*
G01*
X123200000Y-107875000D01*
G75*
G02*
X123125000Y-107950000I-75000J0D01*
G01*
X122975000Y-107950000D01*
G75*
G02*
X122900000Y-107875000I0J75000D01*
G01*
G37*
G36*
G01*
X122400000Y-107875000D02*
X122400000Y-106550000D01*
G75*
G02*
X122475000Y-106475000I75000J0D01*
G01*
X122625000Y-106475000D01*
G75*
G02*
X122700000Y-106550000I0J-75000D01*
G01*
X122700000Y-107875000D01*
G75*
G02*
X122625000Y-107950000I-75000J0D01*
G01*
X122475000Y-107950000D01*
G75*
G02*
X122400000Y-107875000I0J75000D01*
G01*
G37*
G36*
G01*
X121900000Y-107875000D02*
X121900000Y-106550000D01*
G75*
G02*
X121975000Y-106475000I75000J0D01*
G01*
X122125000Y-106475000D01*
G75*
G02*
X122200000Y-106550000I0J-75000D01*
G01*
X122200000Y-107875000D01*
G75*
G02*
X122125000Y-107950000I-75000J0D01*
G01*
X121975000Y-107950000D01*
G75*
G02*
X121900000Y-107875000I0J75000D01*
G01*
G37*
G36*
G01*
X121400000Y-107875000D02*
X121400000Y-106550000D01*
G75*
G02*
X121475000Y-106475000I75000J0D01*
G01*
X121625000Y-106475000D01*
G75*
G02*
X121700000Y-106550000I0J-75000D01*
G01*
X121700000Y-107875000D01*
G75*
G02*
X121625000Y-107950000I-75000J0D01*
G01*
X121475000Y-107950000D01*
G75*
G02*
X121400000Y-107875000I0J75000D01*
G01*
G37*
G36*
G01*
X120900000Y-107875000D02*
X120900000Y-106550000D01*
G75*
G02*
X120975000Y-106475000I75000J0D01*
G01*
X121125000Y-106475000D01*
G75*
G02*
X121200000Y-106550000I0J-75000D01*
G01*
X121200000Y-107875000D01*
G75*
G02*
X121125000Y-107950000I-75000J0D01*
G01*
X120975000Y-107950000D01*
G75*
G02*
X120900000Y-107875000I0J75000D01*
G01*
G37*
G36*
G01*
X120400000Y-107875000D02*
X120400000Y-106550000D01*
G75*
G02*
X120475000Y-106475000I75000J0D01*
G01*
X120625000Y-106475000D01*
G75*
G02*
X120700000Y-106550000I0J-75000D01*
G01*
X120700000Y-107875000D01*
G75*
G02*
X120625000Y-107950000I-75000J0D01*
G01*
X120475000Y-107950000D01*
G75*
G02*
X120400000Y-107875000I0J75000D01*
G01*
G37*
%TD*%
%TO.C,P7*%
G36*
G01*
X71218716Y-127111424D02*
X70866044Y-127596834D01*
G75*
G02*
X70167643Y-127707449I-404508J293893D01*
G01*
X70167643Y-127707449D01*
G75*
G02*
X70057028Y-127009048I293893J404508D01*
G01*
X70409700Y-126523638D01*
G75*
G02*
X71108101Y-126413023I404508J-293893D01*
G01*
X71108101Y-126413023D01*
G75*
G02*
X71218716Y-127111424I-293893J-404508D01*
G01*
G37*
D14*
X73940183Y-124947856D03*
G36*
G01*
X78208623Y-132189888D02*
X77855951Y-132675298D01*
G75*
G02*
X77157550Y-132785913I-404508J293893D01*
G01*
X77157550Y-132785913D01*
G75*
G02*
X77046935Y-132087512I293893J404508D01*
G01*
X77399607Y-131602102D01*
G75*
G02*
X78098008Y-131491487I404508J-293893D01*
G01*
X78098008Y-131491487D01*
G75*
G02*
X78208623Y-132189888I-293893J-404508D01*
G01*
G37*
X78616301Y-128345255D03*
G36*
G01*
X80812511Y-128605943D02*
X80165947Y-129495861D01*
G75*
G02*
X79467546Y-129606476I-404508J293893D01*
G01*
X79467546Y-129606476D01*
G75*
G02*
X79356931Y-128908075I293893J404508D01*
G01*
X80003495Y-128018157D01*
G75*
G02*
X80701896Y-127907542I404508J-293893D01*
G01*
X80701896Y-127907542D01*
G75*
G02*
X80812511Y-128605943I-293893J-404508D01*
G01*
G37*
G36*
G01*
X73822604Y-123527479D02*
X73176040Y-124417397D01*
G75*
G02*
X72477639Y-124528012I-404508J293893D01*
G01*
X72477639Y-124528012D01*
G75*
G02*
X72367024Y-123829611I293893J404508D01*
G01*
X73013588Y-122939693D01*
G75*
G02*
X73711989Y-122829078I404508J-293893D01*
G01*
X73711989Y-122829078D01*
G75*
G02*
X73822604Y-123527479I-293893J-404508D01*
G01*
G37*
D12*
G36*
X77877343Y-125126103D02*
G01*
X77025054Y-126299178D01*
X76782349Y-126122843D01*
X77634638Y-124949768D01*
X77877343Y-125126103D01*
G37*
G36*
X76259309Y-123950532D02*
G01*
X75407020Y-125123607D01*
X75164315Y-124947272D01*
X76016604Y-123774197D01*
X76259309Y-123950532D01*
G37*
G36*
X76663817Y-124244425D02*
G01*
X75811528Y-125417500D01*
X75568823Y-125241165D01*
X76421112Y-124068090D01*
X76663817Y-124244425D01*
G37*
G36*
X77068326Y-124538317D02*
G01*
X76216037Y-125711392D01*
X75973332Y-125535057D01*
X76825621Y-124361982D01*
X77068326Y-124538317D01*
G37*
G36*
X77472834Y-124832210D02*
G01*
X76620545Y-126005285D01*
X76377840Y-125828950D01*
X77230129Y-124655875D01*
X77472834Y-124832210D01*
G37*
G36*
X78281851Y-125419995D02*
G01*
X77429562Y-126593070D01*
X77186857Y-126416735D01*
X78039146Y-125243660D01*
X78281851Y-125419995D01*
G37*
G36*
X78686360Y-125713888D02*
G01*
X77834071Y-126886963D01*
X77591366Y-126710628D01*
X78443655Y-125537553D01*
X78686360Y-125713888D01*
G37*
G36*
X79090868Y-126007780D02*
G01*
X78238579Y-127180855D01*
X77995874Y-127004520D01*
X78848163Y-125831445D01*
X79090868Y-126007780D01*
G37*
G36*
X75167135Y-123157022D02*
G01*
X74314847Y-124330097D01*
X73829437Y-123977426D01*
X74681725Y-122804351D01*
X75167135Y-123157022D01*
G37*
G36*
X75814349Y-123627250D02*
G01*
X74962061Y-124800325D01*
X74476651Y-124447654D01*
X75328939Y-123274579D01*
X75814349Y-123627250D01*
G37*
G36*
X79778532Y-126507398D02*
G01*
X78926244Y-127680473D01*
X78440834Y-127327802D01*
X79293122Y-126154727D01*
X79778532Y-126507398D01*
G37*
G36*
X80425746Y-126977626D02*
G01*
X79573458Y-128150701D01*
X79088048Y-127798030D01*
X79940336Y-126624955D01*
X80425746Y-126977626D01*
G37*
G36*
X80425746Y-126977626D02*
G01*
X79573458Y-128150701D01*
X79088048Y-127798030D01*
X79940336Y-126624955D01*
X80425746Y-126977626D01*
G37*
G36*
X79778532Y-126507398D02*
G01*
X78926244Y-127680473D01*
X78440834Y-127327802D01*
X79293122Y-126154727D01*
X79778532Y-126507398D01*
G37*
G36*
X75814349Y-123627250D02*
G01*
X74962061Y-124800325D01*
X74476651Y-124447654D01*
X75328939Y-123274579D01*
X75814349Y-123627250D01*
G37*
G36*
X75167135Y-123157022D02*
G01*
X74314847Y-124330097D01*
X73829437Y-123977426D01*
X74681725Y-122804351D01*
X75167135Y-123157022D01*
G37*
%TD*%
%TO.C,Q1*%
G36*
X169411859Y-94617999D02*
G01*
X169659072Y-95378844D01*
X168803121Y-95656959D01*
X168555908Y-94896114D01*
X169411859Y-94617999D01*
G37*
G36*
X169998992Y-96425007D02*
G01*
X170246205Y-97185852D01*
X169390254Y-97463967D01*
X169143041Y-96703122D01*
X169998992Y-96425007D01*
G37*
G36*
X167803312Y-96139537D02*
G01*
X168050525Y-96900382D01*
X167194574Y-97178497D01*
X166947361Y-96417652D01*
X167803312Y-96139537D01*
G37*
%TD*%
%TO.C,R4*%
G36*
G01*
X160930065Y-77609914D02*
X161100024Y-78132995D01*
G75*
G02*
X160971616Y-78385009I-190211J-61803D01*
G01*
X160591193Y-78508616D01*
G75*
G02*
X160339179Y-78380208I-61803J190211D01*
G01*
X160169220Y-77857127D01*
G75*
G02*
X160297628Y-77605113I190211J61803D01*
G01*
X160678051Y-77481506D01*
G75*
G02*
X160930065Y-77609914I61803J-190211D01*
G01*
G37*
G36*
G01*
X159360821Y-78119792D02*
X159530780Y-78642873D01*
G75*
G02*
X159402372Y-78894887I-190211J-61803D01*
G01*
X159021949Y-79018494D01*
G75*
G02*
X158769935Y-78890086I-61803J190211D01*
G01*
X158599976Y-78367005D01*
G75*
G02*
X158728384Y-78114991I190211J61803D01*
G01*
X159108807Y-77991384D01*
G75*
G02*
X159360821Y-78119792I61803J-190211D01*
G01*
G37*
%TD*%
%TO.C,R5*%
G36*
G01*
X160045443Y-75014853D02*
X160215402Y-75537934D01*
G75*
G02*
X160086994Y-75789948I-190211J-61803D01*
G01*
X159706571Y-75913555D01*
G75*
G02*
X159454557Y-75785147I-61803J190211D01*
G01*
X159284598Y-75262066D01*
G75*
G02*
X159413006Y-75010052I190211J61803D01*
G01*
X159793429Y-74886445D01*
G75*
G02*
X160045443Y-75014853I61803J-190211D01*
G01*
G37*
G36*
G01*
X158476199Y-75524731D02*
X158646158Y-76047812D01*
G75*
G02*
X158517750Y-76299826I-190211J-61803D01*
G01*
X158137327Y-76423433D01*
G75*
G02*
X157885313Y-76295025I-61803J190211D01*
G01*
X157715354Y-75771944D01*
G75*
G02*
X157843762Y-75519930I190211J61803D01*
G01*
X158224185Y-75396323D01*
G75*
G02*
X158476199Y-75524731I61803J-190211D01*
G01*
G37*
%TD*%
%TO.C,R6*%
G36*
G01*
X159245443Y-72364853D02*
X159415402Y-72887934D01*
G75*
G02*
X159286994Y-73139948I-190211J-61803D01*
G01*
X158906571Y-73263555D01*
G75*
G02*
X158654557Y-73135147I-61803J190211D01*
G01*
X158484598Y-72612066D01*
G75*
G02*
X158613006Y-72360052I190211J61803D01*
G01*
X158993429Y-72236445D01*
G75*
G02*
X159245443Y-72364853I61803J-190211D01*
G01*
G37*
G36*
G01*
X157676199Y-72874731D02*
X157846158Y-73397812D01*
G75*
G02*
X157717750Y-73649826I-190211J-61803D01*
G01*
X157337327Y-73773433D01*
G75*
G02*
X157085313Y-73645025I-61803J190211D01*
G01*
X156915354Y-73121944D01*
G75*
G02*
X157043762Y-72869930I190211J61803D01*
G01*
X157424185Y-72746323D01*
G75*
G02*
X157676199Y-72874731I61803J-190211D01*
G01*
G37*
%TD*%
%TO.C,R15*%
G36*
G01*
X77899976Y-109132995D02*
X78069935Y-108609914D01*
G75*
G02*
X78321949Y-108481506I190211J-61803D01*
G01*
X78702372Y-108605113D01*
G75*
G02*
X78830780Y-108857127I-61803J-190211D01*
G01*
X78660821Y-109380208D01*
G75*
G02*
X78408807Y-109508616I-190211J61803D01*
G01*
X78028384Y-109385009D01*
G75*
G02*
X77899976Y-109132995I61803J190211D01*
G01*
G37*
G36*
G01*
X79469220Y-109642873D02*
X79639179Y-109119792D01*
G75*
G02*
X79891193Y-108991384I190211J-61803D01*
G01*
X80271616Y-109114991D01*
G75*
G02*
X80400024Y-109367005I-61803J-190211D01*
G01*
X80230065Y-109890086D01*
G75*
G02*
X79978051Y-110018494I-190211J61803D01*
G01*
X79597628Y-109894887D01*
G75*
G02*
X79469220Y-109642873I61803J190211D01*
G01*
G37*
%TD*%
D13*
%TO.C,Q10*%
X102050000Y-93600000D03*
X102050000Y-91700000D03*
X104050000Y-92650000D03*
%TD*%
%TO.C,Q9*%
X102050000Y-97300000D03*
X102050000Y-95400000D03*
X104050000Y-96350000D03*
%TD*%
D12*
%TO.C,Q5*%
G36*
X87835852Y-94146205D02*
G01*
X87075007Y-93898992D01*
X87353122Y-93043041D01*
X88113967Y-93290254D01*
X87835852Y-94146205D01*
G37*
G36*
X86028844Y-93559072D02*
G01*
X85267999Y-93311859D01*
X85546114Y-92455908D01*
X86306959Y-92703121D01*
X86028844Y-93559072D01*
G37*
G36*
X87550382Y-91950525D02*
G01*
X86789537Y-91703312D01*
X87067652Y-90847361D01*
X87828497Y-91094574D01*
X87550382Y-91950525D01*
G37*
%TD*%
%TO.C,Q4*%
G36*
X90800705Y-81173527D02*
G01*
X90039860Y-80926314D01*
X90317975Y-80070363D01*
X91078820Y-80317576D01*
X90800705Y-81173527D01*
G37*
G36*
X88993697Y-80586394D02*
G01*
X88232852Y-80339181D01*
X88510967Y-79483230D01*
X89271812Y-79730443D01*
X88993697Y-80586394D01*
G37*
G36*
X90515235Y-78977847D02*
G01*
X89754390Y-78730634D01*
X90032505Y-77874683D01*
X90793350Y-78121896D01*
X90515235Y-78977847D01*
G37*
%TD*%
%TO.C,R61*%
G36*
G01*
X88052686Y-131997557D02*
X87729404Y-132442517D01*
G75*
G02*
X87450044Y-132486763I-161803J117557D01*
G01*
X87126438Y-132251649D01*
G75*
G02*
X87082192Y-131972289I117557J161803D01*
G01*
X87405474Y-131527329D01*
G75*
G02*
X87684834Y-131483083I161803J-117557D01*
G01*
X88008440Y-131718197D01*
G75*
G02*
X88052686Y-131997557I-117557J-161803D01*
G01*
G37*
G36*
G01*
X86717808Y-131027711D02*
X86394526Y-131472671D01*
G75*
G02*
X86115166Y-131516917I-161803J117557D01*
G01*
X85791560Y-131281803D01*
G75*
G02*
X85747314Y-131002443I117557J161803D01*
G01*
X86070596Y-130557483D01*
G75*
G02*
X86349956Y-130513237I161803J-117557D01*
G01*
X86673562Y-130748351D01*
G75*
G02*
X86717808Y-131027711I-117557J-161803D01*
G01*
G37*
%TD*%
%TO.C,C6*%
G36*
G01*
X101585000Y-73325000D02*
X101585000Y-71275000D01*
G75*
G02*
X101835000Y-71025000I250000J0D01*
G01*
X103410000Y-71025000D01*
G75*
G02*
X103660000Y-71275000I0J-250000D01*
G01*
X103660000Y-73325000D01*
G75*
G02*
X103410000Y-73575000I-250000J0D01*
G01*
X101835000Y-73575000D01*
G75*
G02*
X101585000Y-73325000I0J250000D01*
G01*
G37*
G36*
G01*
X107810000Y-73325000D02*
X107810000Y-71275000D01*
G75*
G02*
X108060000Y-71025000I250000J0D01*
G01*
X109635000Y-71025000D01*
G75*
G02*
X109885000Y-71275000I0J-250000D01*
G01*
X109885000Y-73325000D01*
G75*
G02*
X109635000Y-73575000I-250000J0D01*
G01*
X108060000Y-73575000D01*
G75*
G02*
X107810000Y-73325000I0J250000D01*
G01*
G37*
%TD*%
%TO.C,C7*%
G36*
G01*
X109725000Y-111845000D02*
X111775000Y-111845000D01*
G75*
G02*
X112025000Y-112095000I0J-250000D01*
G01*
X112025000Y-113670000D01*
G75*
G02*
X111775000Y-113920000I-250000J0D01*
G01*
X109725000Y-113920000D01*
G75*
G02*
X109475000Y-113670000I0J250000D01*
G01*
X109475000Y-112095000D01*
G75*
G02*
X109725000Y-111845000I250000J0D01*
G01*
G37*
G36*
G01*
X109725000Y-118070000D02*
X111775000Y-118070000D01*
G75*
G02*
X112025000Y-118320000I0J-250000D01*
G01*
X112025000Y-119895000D01*
G75*
G02*
X111775000Y-120145000I-250000J0D01*
G01*
X109725000Y-120145000D01*
G75*
G02*
X109475000Y-119895000I0J250000D01*
G01*
X109475000Y-118320000D01*
G75*
G02*
X109725000Y-118070000I250000J0D01*
G01*
G37*
%TD*%
%TO.C,C16*%
G36*
G01*
X115490000Y-106395000D02*
X115990000Y-106395000D01*
G75*
G02*
X116215000Y-106620000I0J-225000D01*
G01*
X116215000Y-107070000D01*
G75*
G02*
X115990000Y-107295000I-225000J0D01*
G01*
X115490000Y-107295000D01*
G75*
G02*
X115265000Y-107070000I0J225000D01*
G01*
X115265000Y-106620000D01*
G75*
G02*
X115490000Y-106395000I225000J0D01*
G01*
G37*
G36*
G01*
X115490000Y-107945000D02*
X115990000Y-107945000D01*
G75*
G02*
X116215000Y-108170000I0J-225000D01*
G01*
X116215000Y-108620000D01*
G75*
G02*
X115990000Y-108845000I-225000J0D01*
G01*
X115490000Y-108845000D01*
G75*
G02*
X115265000Y-108620000I0J225000D01*
G01*
X115265000Y-108170000D01*
G75*
G02*
X115490000Y-107945000I225000J0D01*
G01*
G37*
%TD*%
%TO.C,C17*%
G36*
G01*
X118000000Y-106395000D02*
X118500000Y-106395000D01*
G75*
G02*
X118725000Y-106620000I0J-225000D01*
G01*
X118725000Y-107070000D01*
G75*
G02*
X118500000Y-107295000I-225000J0D01*
G01*
X118000000Y-107295000D01*
G75*
G02*
X117775000Y-107070000I0J225000D01*
G01*
X117775000Y-106620000D01*
G75*
G02*
X118000000Y-106395000I225000J0D01*
G01*
G37*
G36*
G01*
X118000000Y-107945000D02*
X118500000Y-107945000D01*
G75*
G02*
X118725000Y-108170000I0J-225000D01*
G01*
X118725000Y-108620000D01*
G75*
G02*
X118500000Y-108845000I-225000J0D01*
G01*
X118000000Y-108845000D01*
G75*
G02*
X117775000Y-108620000I0J225000D01*
G01*
X117775000Y-108170000D01*
G75*
G02*
X118000000Y-107945000I225000J0D01*
G01*
G37*
%TD*%
%TO.C,R41*%
G36*
G01*
X165842517Y-124479404D02*
X165397557Y-124802686D01*
G75*
G02*
X165118197Y-124758440I-117557J161803D01*
G01*
X164883083Y-124434834D01*
G75*
G02*
X164927329Y-124155474I161803J117557D01*
G01*
X165372289Y-123832192D01*
G75*
G02*
X165651649Y-123876438I117557J-161803D01*
G01*
X165886763Y-124200044D01*
G75*
G02*
X165842517Y-124479404I-161803J-117557D01*
G01*
G37*
G36*
G01*
X164872671Y-123144526D02*
X164427711Y-123467808D01*
G75*
G02*
X164148351Y-123423562I-117557J161803D01*
G01*
X163913237Y-123099956D01*
G75*
G02*
X163957483Y-122820596I161803J117557D01*
G01*
X164402443Y-122497314D01*
G75*
G02*
X164681803Y-122541560I117557J-161803D01*
G01*
X164916917Y-122865166D01*
G75*
G02*
X164872671Y-123144526I-161803J-117557D01*
G01*
G37*
%TD*%
%TO.C,R42*%
G36*
G01*
X158792517Y-129529404D02*
X158347557Y-129852686D01*
G75*
G02*
X158068197Y-129808440I-117557J161803D01*
G01*
X157833083Y-129484834D01*
G75*
G02*
X157877329Y-129205474I161803J117557D01*
G01*
X158322289Y-128882192D01*
G75*
G02*
X158601649Y-128926438I117557J-161803D01*
G01*
X158836763Y-129250044D01*
G75*
G02*
X158792517Y-129529404I-161803J-117557D01*
G01*
G37*
G36*
G01*
X157822671Y-128194526D02*
X157377711Y-128517808D01*
G75*
G02*
X157098351Y-128473562I-117557J161803D01*
G01*
X156863237Y-128149956D01*
G75*
G02*
X156907483Y-127870596I161803J117557D01*
G01*
X157352443Y-127547314D01*
G75*
G02*
X157631803Y-127591560I117557J-161803D01*
G01*
X157866917Y-127915166D01*
G75*
G02*
X157822671Y-128194526I-161803J-117557D01*
G01*
G37*
%TD*%
%TO.C,R43*%
G36*
G01*
X161142517Y-127779404D02*
X160697557Y-128102686D01*
G75*
G02*
X160418197Y-128058440I-117557J161803D01*
G01*
X160183083Y-127734834D01*
G75*
G02*
X160227329Y-127455474I161803J117557D01*
G01*
X160672289Y-127132192D01*
G75*
G02*
X160951649Y-127176438I117557J-161803D01*
G01*
X161186763Y-127500044D01*
G75*
G02*
X161142517Y-127779404I-161803J-117557D01*
G01*
G37*
G36*
G01*
X160172671Y-126444526D02*
X159727711Y-126767808D01*
G75*
G02*
X159448351Y-126723562I-117557J161803D01*
G01*
X159213237Y-126399956D01*
G75*
G02*
X159257483Y-126120596I161803J117557D01*
G01*
X159702443Y-125797314D01*
G75*
G02*
X159981803Y-125841560I117557J-161803D01*
G01*
X160216917Y-126165166D01*
G75*
G02*
X160172671Y-126444526I-161803J-117557D01*
G01*
G37*
%TD*%
%TO.C,R44*%
G36*
G01*
X163492517Y-126129404D02*
X163047557Y-126452686D01*
G75*
G02*
X162768197Y-126408440I-117557J161803D01*
G01*
X162533083Y-126084834D01*
G75*
G02*
X162577329Y-125805474I161803J117557D01*
G01*
X163022289Y-125482192D01*
G75*
G02*
X163301649Y-125526438I117557J-161803D01*
G01*
X163536763Y-125850044D01*
G75*
G02*
X163492517Y-126129404I-161803J-117557D01*
G01*
G37*
G36*
G01*
X162522671Y-124794526D02*
X162077711Y-125117808D01*
G75*
G02*
X161798351Y-125073562I-117557J161803D01*
G01*
X161563237Y-124749956D01*
G75*
G02*
X161607483Y-124470596I161803J117557D01*
G01*
X162052443Y-124147314D01*
G75*
G02*
X162331803Y-124191560I117557J-161803D01*
G01*
X162566917Y-124515166D01*
G75*
G02*
X162522671Y-124794526I-161803J-117557D01*
G01*
G37*
%TD*%
%TO.C,R51*%
G36*
G01*
X104425000Y-60375000D02*
X104975000Y-60375000D01*
G75*
G02*
X105175000Y-60575000I0J-200000D01*
G01*
X105175000Y-60975000D01*
G75*
G02*
X104975000Y-61175000I-200000J0D01*
G01*
X104425000Y-61175000D01*
G75*
G02*
X104225000Y-60975000I0J200000D01*
G01*
X104225000Y-60575000D01*
G75*
G02*
X104425000Y-60375000I200000J0D01*
G01*
G37*
G36*
G01*
X104425000Y-62025000D02*
X104975000Y-62025000D01*
G75*
G02*
X105175000Y-62225000I0J-200000D01*
G01*
X105175000Y-62625000D01*
G75*
G02*
X104975000Y-62825000I-200000J0D01*
G01*
X104425000Y-62825000D01*
G75*
G02*
X104225000Y-62625000I0J200000D01*
G01*
X104225000Y-62225000D01*
G75*
G02*
X104425000Y-62025000I200000J0D01*
G01*
G37*
%TD*%
%TO.C,R52*%
G36*
G01*
X112625000Y-60400000D02*
X113175000Y-60400000D01*
G75*
G02*
X113375000Y-60600000I0J-200000D01*
G01*
X113375000Y-61000000D01*
G75*
G02*
X113175000Y-61200000I-200000J0D01*
G01*
X112625000Y-61200000D01*
G75*
G02*
X112425000Y-61000000I0J200000D01*
G01*
X112425000Y-60600000D01*
G75*
G02*
X112625000Y-60400000I200000J0D01*
G01*
G37*
G36*
G01*
X112625000Y-62050000D02*
X113175000Y-62050000D01*
G75*
G02*
X113375000Y-62250000I0J-200000D01*
G01*
X113375000Y-62650000D01*
G75*
G02*
X113175000Y-62850000I-200000J0D01*
G01*
X112625000Y-62850000D01*
G75*
G02*
X112425000Y-62650000I0J200000D01*
G01*
X112425000Y-62250000D01*
G75*
G02*
X112625000Y-62050000I200000J0D01*
G01*
G37*
%TD*%
%TO.C,R53*%
G36*
G01*
X109925000Y-60475000D02*
X110475000Y-60475000D01*
G75*
G02*
X110675000Y-60675000I0J-200000D01*
G01*
X110675000Y-61075000D01*
G75*
G02*
X110475000Y-61275000I-200000J0D01*
G01*
X109925000Y-61275000D01*
G75*
G02*
X109725000Y-61075000I0J200000D01*
G01*
X109725000Y-60675000D01*
G75*
G02*
X109925000Y-60475000I200000J0D01*
G01*
G37*
G36*
G01*
X109925000Y-62125000D02*
X110475000Y-62125000D01*
G75*
G02*
X110675000Y-62325000I0J-200000D01*
G01*
X110675000Y-62725000D01*
G75*
G02*
X110475000Y-62925000I-200000J0D01*
G01*
X109925000Y-62925000D01*
G75*
G02*
X109725000Y-62725000I0J200000D01*
G01*
X109725000Y-62325000D01*
G75*
G02*
X109925000Y-62125000I200000J0D01*
G01*
G37*
%TD*%
%TO.C,R54*%
G36*
G01*
X107175000Y-60375000D02*
X107725000Y-60375000D01*
G75*
G02*
X107925000Y-60575000I0J-200000D01*
G01*
X107925000Y-60975000D01*
G75*
G02*
X107725000Y-61175000I-200000J0D01*
G01*
X107175000Y-61175000D01*
G75*
G02*
X106975000Y-60975000I0J200000D01*
G01*
X106975000Y-60575000D01*
G75*
G02*
X107175000Y-60375000I200000J0D01*
G01*
G37*
G36*
G01*
X107175000Y-62025000D02*
X107725000Y-62025000D01*
G75*
G02*
X107925000Y-62225000I0J-200000D01*
G01*
X107925000Y-62625000D01*
G75*
G02*
X107725000Y-62825000I-200000J0D01*
G01*
X107175000Y-62825000D01*
G75*
G02*
X106975000Y-62625000I0J200000D01*
G01*
X106975000Y-62225000D01*
G75*
G02*
X107175000Y-62025000I200000J0D01*
G01*
G37*
%TD*%
D15*
%TO.C,BZ1*%
X125400000Y-74550000D03*
D16*
X117800000Y-74550000D03*
%TD*%
%TO.C,C1*%
G36*
G01*
X117650000Y-90775000D02*
X117150000Y-90775000D01*
G75*
G02*
X116925000Y-90550000I0J225000D01*
G01*
X116925000Y-90100000D01*
G75*
G02*
X117150000Y-89875000I225000J0D01*
G01*
X117650000Y-89875000D01*
G75*
G02*
X117875000Y-90100000I0J-225000D01*
G01*
X117875000Y-90550000D01*
G75*
G02*
X117650000Y-90775000I-225000J0D01*
G01*
G37*
G36*
G01*
X117650000Y-89225000D02*
X117150000Y-89225000D01*
G75*
G02*
X116925000Y-89000000I0J225000D01*
G01*
X116925000Y-88550000D01*
G75*
G02*
X117150000Y-88325000I225000J0D01*
G01*
X117650000Y-88325000D01*
G75*
G02*
X117875000Y-88550000I0J-225000D01*
G01*
X117875000Y-89000000D01*
G75*
G02*
X117650000Y-89225000I-225000J0D01*
G01*
G37*
%TD*%
%TO.C,C2*%
G36*
G01*
X149450000Y-120475001D02*
X149450000Y-119624999D01*
G75*
G02*
X149699999Y-119375000I249999J0D01*
G01*
X150600001Y-119375000D01*
G75*
G02*
X150850000Y-119624999I0J-249999D01*
G01*
X150850000Y-120475001D01*
G75*
G02*
X150600001Y-120725000I-249999J0D01*
G01*
X149699999Y-120725000D01*
G75*
G02*
X149450000Y-120475001I0J249999D01*
G01*
G37*
G36*
G01*
X152150000Y-120475001D02*
X152150000Y-119624999D01*
G75*
G02*
X152399999Y-119375000I249999J0D01*
G01*
X153300001Y-119375000D01*
G75*
G02*
X153550000Y-119624999I0J-249999D01*
G01*
X153550000Y-120475001D01*
G75*
G02*
X153300001Y-120725000I-249999J0D01*
G01*
X152399999Y-120725000D01*
G75*
G02*
X152150000Y-120475001I0J249999D01*
G01*
G37*
%TD*%
%TO.C,C3*%
G36*
G01*
X151650952Y-115950090D02*
X151049910Y-115349048D01*
G75*
G02*
X151049910Y-114995496I176776J176776D01*
G01*
X151686308Y-114359098D01*
G75*
G02*
X152039860Y-114359098I176776J-176776D01*
G01*
X152640902Y-114960140D01*
G75*
G02*
X152640902Y-115313692I-176776J-176776D01*
G01*
X152004504Y-115950090D01*
G75*
G02*
X151650952Y-115950090I-176776J176776D01*
G01*
G37*
G36*
G01*
X153560140Y-114040902D02*
X152959098Y-113439860D01*
G75*
G02*
X152959098Y-113086308I176776J176776D01*
G01*
X153595496Y-112449910D01*
G75*
G02*
X153949048Y-112449910I176776J-176776D01*
G01*
X154550090Y-113050952D01*
G75*
G02*
X154550090Y-113404504I-176776J-176776D01*
G01*
X153913692Y-114040902D01*
G75*
G02*
X153560140Y-114040902I-176776J176776D01*
G01*
G37*
%TD*%
%TO.C,C4*%
G36*
G01*
X101450000Y-78625000D02*
X101450000Y-76575000D01*
G75*
G02*
X101700000Y-76325000I250000J0D01*
G01*
X103275000Y-76325000D01*
G75*
G02*
X103525000Y-76575000I0J-250000D01*
G01*
X103525000Y-78625000D01*
G75*
G02*
X103275000Y-78875000I-250000J0D01*
G01*
X101700000Y-78875000D01*
G75*
G02*
X101450000Y-78625000I0J250000D01*
G01*
G37*
G36*
G01*
X107675000Y-78625000D02*
X107675000Y-76575000D01*
G75*
G02*
X107925000Y-76325000I250000J0D01*
G01*
X109500000Y-76325000D01*
G75*
G02*
X109750000Y-76575000I0J-250000D01*
G01*
X109750000Y-78625000D01*
G75*
G02*
X109500000Y-78875000I-250000J0D01*
G01*
X107925000Y-78875000D01*
G75*
G02*
X107675000Y-78625000I0J250000D01*
G01*
G37*
%TD*%
%TO.C,C5*%
G36*
G01*
X103875000Y-111845000D02*
X105925000Y-111845000D01*
G75*
G02*
X106175000Y-112095000I0J-250000D01*
G01*
X106175000Y-113670000D01*
G75*
G02*
X105925000Y-113920000I-250000J0D01*
G01*
X103875000Y-113920000D01*
G75*
G02*
X103625000Y-113670000I0J250000D01*
G01*
X103625000Y-112095000D01*
G75*
G02*
X103875000Y-111845000I250000J0D01*
G01*
G37*
G36*
G01*
X103875000Y-118070000D02*
X105925000Y-118070000D01*
G75*
G02*
X106175000Y-118320000I0J-250000D01*
G01*
X106175000Y-119895000D01*
G75*
G02*
X105925000Y-120145000I-250000J0D01*
G01*
X103875000Y-120145000D01*
G75*
G02*
X103625000Y-119895000I0J250000D01*
G01*
X103625000Y-118320000D01*
G75*
G02*
X103875000Y-118070000I250000J0D01*
G01*
G37*
%TD*%
%TO.C,R12*%
G36*
G01*
X128525000Y-140225000D02*
X128525000Y-139675000D01*
G75*
G02*
X128725000Y-139475000I200000J0D01*
G01*
X129125000Y-139475000D01*
G75*
G02*
X129325000Y-139675000I0J-200000D01*
G01*
X129325000Y-140225000D01*
G75*
G02*
X129125000Y-140425000I-200000J0D01*
G01*
X128725000Y-140425000D01*
G75*
G02*
X128525000Y-140225000I0J200000D01*
G01*
G37*
G36*
G01*
X130175000Y-140225000D02*
X130175000Y-139675000D01*
G75*
G02*
X130375000Y-139475000I200000J0D01*
G01*
X130775000Y-139475000D01*
G75*
G02*
X130975000Y-139675000I0J-200000D01*
G01*
X130975000Y-140225000D01*
G75*
G02*
X130775000Y-140425000I-200000J0D01*
G01*
X130375000Y-140425000D01*
G75*
G02*
X130175000Y-140225000I0J200000D01*
G01*
G37*
%TD*%
%TO.C,R62*%
G36*
G01*
X120675000Y-138625000D02*
X121225000Y-138625000D01*
G75*
G02*
X121425000Y-138825000I0J-200000D01*
G01*
X121425000Y-139225000D01*
G75*
G02*
X121225000Y-139425000I-200000J0D01*
G01*
X120675000Y-139425000D01*
G75*
G02*
X120475000Y-139225000I0J200000D01*
G01*
X120475000Y-138825000D01*
G75*
G02*
X120675000Y-138625000I200000J0D01*
G01*
G37*
G36*
G01*
X120675000Y-140275000D02*
X121225000Y-140275000D01*
G75*
G02*
X121425000Y-140475000I0J-200000D01*
G01*
X121425000Y-140875000D01*
G75*
G02*
X121225000Y-141075000I-200000J0D01*
G01*
X120675000Y-141075000D01*
G75*
G02*
X120475000Y-140875000I0J200000D01*
G01*
X120475000Y-140475000D01*
G75*
G02*
X120675000Y-140275000I200000J0D01*
G01*
G37*
%TD*%
%TO.C,R64*%
G36*
G01*
X81552443Y-131402686D02*
X81107483Y-131079404D01*
G75*
G02*
X81063237Y-130800044I117557J161803D01*
G01*
X81298351Y-130476438D01*
G75*
G02*
X81577711Y-130432192I161803J-117557D01*
G01*
X82022671Y-130755474D01*
G75*
G02*
X82066917Y-131034834I-117557J-161803D01*
G01*
X81831803Y-131358440D01*
G75*
G02*
X81552443Y-131402686I-161803J117557D01*
G01*
G37*
G36*
G01*
X82522289Y-130067808D02*
X82077329Y-129744526D01*
G75*
G02*
X82033083Y-129465166I117557J161803D01*
G01*
X82268197Y-129141560D01*
G75*
G02*
X82547557Y-129097314I161803J-117557D01*
G01*
X82992517Y-129420596D01*
G75*
G02*
X83036763Y-129699956I-117557J-161803D01*
G01*
X82801649Y-130023562D01*
G75*
G02*
X82522289Y-130067808I-161803J117557D01*
G01*
G37*
%TD*%
%TO.C,R65*%
G36*
G01*
X70452443Y-123702686D02*
X70007483Y-123379404D01*
G75*
G02*
X69963237Y-123100044I117557J161803D01*
G01*
X70198351Y-122776438D01*
G75*
G02*
X70477711Y-122732192I161803J-117557D01*
G01*
X70922671Y-123055474D01*
G75*
G02*
X70966917Y-123334834I-117557J-161803D01*
G01*
X70731803Y-123658440D01*
G75*
G02*
X70452443Y-123702686I-161803J117557D01*
G01*
G37*
G36*
G01*
X71422289Y-122367808D02*
X70977329Y-122044526D01*
G75*
G02*
X70933083Y-121765166I117557J161803D01*
G01*
X71168197Y-121441560D01*
G75*
G02*
X71447557Y-121397314I161803J-117557D01*
G01*
X71892517Y-121720596D01*
G75*
G02*
X71936763Y-121999956I-117557J-161803D01*
G01*
X71701649Y-122323562D01*
G75*
G02*
X71422289Y-122367808I-161803J117557D01*
G01*
G37*
%TD*%
D12*
%TO.C,U3*%
G36*
X146723224Y-107286218D02*
G01*
X144036218Y-109973224D01*
X142622004Y-108559010D01*
X145309010Y-105872004D01*
X146723224Y-107286218D01*
G37*
G36*
X150364823Y-112554163D02*
G01*
X149304163Y-113614823D01*
X147889949Y-112200609D01*
X148950609Y-111139949D01*
X150364823Y-112554163D01*
G37*
G36*
X148738478Y-114180509D02*
G01*
X147677818Y-115241169D01*
X146263604Y-113826955D01*
X147324264Y-112766295D01*
X148738478Y-114180509D01*
G37*
G36*
X151991169Y-110927818D02*
G01*
X150930509Y-111988478D01*
X149516295Y-110574264D01*
X150576955Y-109513604D01*
X151991169Y-110927818D01*
G37*
%TD*%
D17*
%TO.C,Y1*%
X121300000Y-86600000D03*
X121300000Y-84700000D03*
X123600000Y-84700000D03*
X123600000Y-86600000D03*
%TD*%
%TO.C,C8*%
G36*
G01*
X124575000Y-88300000D02*
X124575000Y-88800000D01*
G75*
G02*
X124350000Y-89025000I-225000J0D01*
G01*
X123900000Y-89025000D01*
G75*
G02*
X123675000Y-88800000I0J225000D01*
G01*
X123675000Y-88300000D01*
G75*
G02*
X123900000Y-88075000I225000J0D01*
G01*
X124350000Y-88075000D01*
G75*
G02*
X124575000Y-88300000I0J-225000D01*
G01*
G37*
G36*
G01*
X123025000Y-88300000D02*
X123025000Y-88800000D01*
G75*
G02*
X122800000Y-89025000I-225000J0D01*
G01*
X122350000Y-89025000D01*
G75*
G02*
X122125000Y-88800000I0J225000D01*
G01*
X122125000Y-88300000D01*
G75*
G02*
X122350000Y-88075000I225000J0D01*
G01*
X122800000Y-88075000D01*
G75*
G02*
X123025000Y-88300000I0J-225000D01*
G01*
G37*
%TD*%
%TO.C,R27*%
G36*
G01*
X110802443Y-144352686D02*
X110357483Y-144029404D01*
G75*
G02*
X110313237Y-143750044I117557J161803D01*
G01*
X110548351Y-143426438D01*
G75*
G02*
X110827711Y-143382192I161803J-117557D01*
G01*
X111272671Y-143705474D01*
G75*
G02*
X111316917Y-143984834I-117557J-161803D01*
G01*
X111081803Y-144308440D01*
G75*
G02*
X110802443Y-144352686I-161803J117557D01*
G01*
G37*
G36*
G01*
X111772289Y-143017808D02*
X111327329Y-142694526D01*
G75*
G02*
X111283083Y-142415166I117557J161803D01*
G01*
X111518197Y-142091560D01*
G75*
G02*
X111797557Y-142047314I161803J-117557D01*
G01*
X112242517Y-142370596D01*
G75*
G02*
X112286763Y-142649956I-117557J-161803D01*
G01*
X112051649Y-142973562D01*
G75*
G02*
X111772289Y-143017808I-161803J117557D01*
G01*
G37*
%TD*%
%TO.C,R28*%
G36*
G01*
X113352443Y-146002686D02*
X112907483Y-145679404D01*
G75*
G02*
X112863237Y-145400044I117557J161803D01*
G01*
X113098351Y-145076438D01*
G75*
G02*
X113377711Y-145032192I161803J-117557D01*
G01*
X113822671Y-145355474D01*
G75*
G02*
X113866917Y-145634834I-117557J-161803D01*
G01*
X113631803Y-145958440D01*
G75*
G02*
X113352443Y-146002686I-161803J117557D01*
G01*
G37*
G36*
G01*
X114322289Y-144667808D02*
X113877329Y-144344526D01*
G75*
G02*
X113833083Y-144065166I117557J161803D01*
G01*
X114068197Y-143741560D01*
G75*
G02*
X114347557Y-143697314I161803J-117557D01*
G01*
X114792517Y-144020596D01*
G75*
G02*
X114836763Y-144299956I-117557J-161803D01*
G01*
X114601649Y-144623562D01*
G75*
G02*
X114322289Y-144667808I-161803J117557D01*
G01*
G37*
%TD*%
D18*
%TO.C,SW2*%
X125650000Y-127350000D03*
X125650000Y-136950000D03*
D19*
X120850000Y-131850000D03*
X130450000Y-131850000D03*
%TD*%
D20*
%TO.C,J1*%
X99250000Y-63700000D03*
G36*
G01*
X91750000Y-64700000D02*
X91750000Y-62700000D01*
G75*
G02*
X92500000Y-61950000I750000J0D01*
G01*
X94000000Y-61950000D01*
G75*
G02*
X94750000Y-62700000I0J-750000D01*
G01*
X94750000Y-64700000D01*
G75*
G02*
X94000000Y-65450000I-750000J0D01*
G01*
X92500000Y-65450000D01*
G75*
G02*
X91750000Y-64700000I0J750000D01*
G01*
G37*
G36*
G01*
X94500000Y-69275000D02*
X94500000Y-67525000D01*
G75*
G02*
X95375000Y-66650000I875000J0D01*
G01*
X97125000Y-66650000D01*
G75*
G02*
X98000000Y-67525000I0J-875000D01*
G01*
X98000000Y-69275000D01*
G75*
G02*
X97125000Y-70150000I-875000J0D01*
G01*
X95375000Y-70150000D01*
G75*
G02*
X94500000Y-69275000I0J875000D01*
G01*
G37*
%TD*%
%TO.C,R50*%
G36*
G01*
X115575000Y-60375000D02*
X116125000Y-60375000D01*
G75*
G02*
X116325000Y-60575000I0J-200000D01*
G01*
X116325000Y-60975000D01*
G75*
G02*
X116125000Y-61175000I-200000J0D01*
G01*
X115575000Y-61175000D01*
G75*
G02*
X115375000Y-60975000I0J200000D01*
G01*
X115375000Y-60575000D01*
G75*
G02*
X115575000Y-60375000I200000J0D01*
G01*
G37*
G36*
G01*
X115575000Y-62025000D02*
X116125000Y-62025000D01*
G75*
G02*
X116325000Y-62225000I0J-200000D01*
G01*
X116325000Y-62625000D01*
G75*
G02*
X116125000Y-62825000I-200000J0D01*
G01*
X115575000Y-62825000D01*
G75*
G02*
X115375000Y-62625000I0J200000D01*
G01*
X115375000Y-62225000D01*
G75*
G02*
X115575000Y-62025000I200000J0D01*
G01*
G37*
%TD*%
%TO.C,R49*%
G36*
G01*
X118175000Y-60375000D02*
X118725000Y-60375000D01*
G75*
G02*
X118925000Y-60575000I0J-200000D01*
G01*
X118925000Y-60975000D01*
G75*
G02*
X118725000Y-61175000I-200000J0D01*
G01*
X118175000Y-61175000D01*
G75*
G02*
X117975000Y-60975000I0J200000D01*
G01*
X117975000Y-60575000D01*
G75*
G02*
X118175000Y-60375000I200000J0D01*
G01*
G37*
G36*
G01*
X118175000Y-62025000D02*
X118725000Y-62025000D01*
G75*
G02*
X118925000Y-62225000I0J-200000D01*
G01*
X118925000Y-62625000D01*
G75*
G02*
X118725000Y-62825000I-200000J0D01*
G01*
X118175000Y-62825000D01*
G75*
G02*
X117975000Y-62625000I0J200000D01*
G01*
X117975000Y-62225000D01*
G75*
G02*
X118175000Y-62025000I200000J0D01*
G01*
G37*
%TD*%
%TO.C,R40*%
G36*
G01*
X156442517Y-131129404D02*
X155997557Y-131452686D01*
G75*
G02*
X155718197Y-131408440I-117557J161803D01*
G01*
X155483083Y-131084834D01*
G75*
G02*
X155527329Y-130805474I161803J117557D01*
G01*
X155972289Y-130482192D01*
G75*
G02*
X156251649Y-130526438I117557J-161803D01*
G01*
X156486763Y-130850044D01*
G75*
G02*
X156442517Y-131129404I-161803J-117557D01*
G01*
G37*
G36*
G01*
X155472671Y-129794526D02*
X155027711Y-130117808D01*
G75*
G02*
X154748351Y-130073562I-117557J161803D01*
G01*
X154513237Y-129749956D01*
G75*
G02*
X154557483Y-129470596I161803J117557D01*
G01*
X155002443Y-129147314D01*
G75*
G02*
X155281803Y-129191560I117557J-161803D01*
G01*
X155516917Y-129515166D01*
G75*
G02*
X155472671Y-129794526I-161803J-117557D01*
G01*
G37*
%TD*%
%TO.C,R2*%
G36*
G01*
X161680065Y-80309914D02*
X161850024Y-80832995D01*
G75*
G02*
X161721616Y-81085009I-190211J-61803D01*
G01*
X161341193Y-81208616D01*
G75*
G02*
X161089179Y-81080208I-61803J190211D01*
G01*
X160919220Y-80557127D01*
G75*
G02*
X161047628Y-80305113I190211J61803D01*
G01*
X161428051Y-80181506D01*
G75*
G02*
X161680065Y-80309914I61803J-190211D01*
G01*
G37*
G36*
G01*
X160110821Y-80819792D02*
X160280780Y-81342873D01*
G75*
G02*
X160152372Y-81594887I-190211J-61803D01*
G01*
X159771949Y-81718494D01*
G75*
G02*
X159519935Y-81590086I-61803J190211D01*
G01*
X159349976Y-81067005D01*
G75*
G02*
X159478384Y-80814991I190211J61803D01*
G01*
X159858807Y-80691384D01*
G75*
G02*
X160110821Y-80819792I61803J-190211D01*
G01*
G37*
%TD*%
%TO.C,R39*%
G36*
G01*
X154092517Y-132929404D02*
X153647557Y-133252686D01*
G75*
G02*
X153368197Y-133208440I-117557J161803D01*
G01*
X153133083Y-132884834D01*
G75*
G02*
X153177329Y-132605474I161803J117557D01*
G01*
X153622289Y-132282192D01*
G75*
G02*
X153901649Y-132326438I117557J-161803D01*
G01*
X154136763Y-132650044D01*
G75*
G02*
X154092517Y-132929404I-161803J-117557D01*
G01*
G37*
G36*
G01*
X153122671Y-131594526D02*
X152677711Y-131917808D01*
G75*
G02*
X152398351Y-131873562I-117557J161803D01*
G01*
X152163237Y-131549956D01*
G75*
G02*
X152207483Y-131270596I161803J117557D01*
G01*
X152652443Y-130947314D01*
G75*
G02*
X152931803Y-130991560I117557J-161803D01*
G01*
X153166917Y-131315166D01*
G75*
G02*
X153122671Y-131594526I-161803J-117557D01*
G01*
G37*
%TD*%
%TO.C,R56*%
G36*
G01*
X133725000Y-62725000D02*
X133725000Y-62175000D01*
G75*
G02*
X133925000Y-61975000I200000J0D01*
G01*
X134325000Y-61975000D01*
G75*
G02*
X134525000Y-62175000I0J-200000D01*
G01*
X134525000Y-62725000D01*
G75*
G02*
X134325000Y-62925000I-200000J0D01*
G01*
X133925000Y-62925000D01*
G75*
G02*
X133725000Y-62725000I0J200000D01*
G01*
G37*
G36*
G01*
X135375000Y-62725000D02*
X135375000Y-62175000D01*
G75*
G02*
X135575000Y-61975000I200000J0D01*
G01*
X135975000Y-61975000D01*
G75*
G02*
X136175000Y-62175000I0J-200000D01*
G01*
X136175000Y-62725000D01*
G75*
G02*
X135975000Y-62925000I-200000J0D01*
G01*
X135575000Y-62925000D01*
G75*
G02*
X135375000Y-62725000I0J200000D01*
G01*
G37*
%TD*%
%TO.C,R55*%
G36*
G01*
X135975000Y-55575000D02*
X135975000Y-56125000D01*
G75*
G02*
X135775000Y-56325000I-200000J0D01*
G01*
X135375000Y-56325000D01*
G75*
G02*
X135175000Y-56125000I0J200000D01*
G01*
X135175000Y-55575000D01*
G75*
G02*
X135375000Y-55375000I200000J0D01*
G01*
X135775000Y-55375000D01*
G75*
G02*
X135975000Y-55575000I0J-200000D01*
G01*
G37*
G36*
G01*
X134325000Y-55575000D02*
X134325000Y-56125000D01*
G75*
G02*
X134125000Y-56325000I-200000J0D01*
G01*
X133725000Y-56325000D01*
G75*
G02*
X133525000Y-56125000I0J200000D01*
G01*
X133525000Y-55575000D01*
G75*
G02*
X133725000Y-55375000I200000J0D01*
G01*
X134125000Y-55375000D01*
G75*
G02*
X134325000Y-55575000I0J-200000D01*
G01*
G37*
%TD*%
%TO.C,R48*%
G36*
G01*
X148079404Y-128607483D02*
X148402686Y-129052443D01*
G75*
G02*
X148358440Y-129331803I-161803J-117557D01*
G01*
X148034834Y-129566917D01*
G75*
G02*
X147755474Y-129522671I-117557J161803D01*
G01*
X147432192Y-129077711D01*
G75*
G02*
X147476438Y-128798351I161803J117557D01*
G01*
X147800044Y-128563237D01*
G75*
G02*
X148079404Y-128607483I117557J-161803D01*
G01*
G37*
G36*
G01*
X146744526Y-129577329D02*
X147067808Y-130022289D01*
G75*
G02*
X147023562Y-130301649I-161803J-117557D01*
G01*
X146699956Y-130536763D01*
G75*
G02*
X146420596Y-130492517I-117557J161803D01*
G01*
X146097314Y-130047557D01*
G75*
G02*
X146141560Y-129768197I161803J117557D01*
G01*
X146465166Y-129533083D01*
G75*
G02*
X146744526Y-129577329I117557J-161803D01*
G01*
G37*
%TD*%
%TO.C,R47*%
G36*
G01*
X150720596Y-136192517D02*
X150397314Y-135747557D01*
G75*
G02*
X150441560Y-135468197I161803J117557D01*
G01*
X150765166Y-135233083D01*
G75*
G02*
X151044526Y-135277329I117557J-161803D01*
G01*
X151367808Y-135722289D01*
G75*
G02*
X151323562Y-136001649I-161803J-117557D01*
G01*
X150999956Y-136236763D01*
G75*
G02*
X150720596Y-136192517I-117557J161803D01*
G01*
G37*
G36*
G01*
X152055474Y-135222671D02*
X151732192Y-134777711D01*
G75*
G02*
X151776438Y-134498351I161803J117557D01*
G01*
X152100044Y-134263237D01*
G75*
G02*
X152379404Y-134307483I117557J-161803D01*
G01*
X152702686Y-134752443D01*
G75*
G02*
X152658440Y-135031803I-161803J-117557D01*
G01*
X152334834Y-135266917D01*
G75*
G02*
X152055474Y-135222671I-117557J161803D01*
G01*
G37*
%TD*%
%TO.C,R46*%
G36*
G01*
X137379404Y-135907483D02*
X137702686Y-136352443D01*
G75*
G02*
X137658440Y-136631803I-161803J-117557D01*
G01*
X137334834Y-136866917D01*
G75*
G02*
X137055474Y-136822671I-117557J161803D01*
G01*
X136732192Y-136377711D01*
G75*
G02*
X136776438Y-136098351I161803J117557D01*
G01*
X137100044Y-135863237D01*
G75*
G02*
X137379404Y-135907483I117557J-161803D01*
G01*
G37*
G36*
G01*
X136044526Y-136877329D02*
X136367808Y-137322289D01*
G75*
G02*
X136323562Y-137601649I-161803J-117557D01*
G01*
X135999956Y-137836763D01*
G75*
G02*
X135720596Y-137792517I-117557J161803D01*
G01*
X135397314Y-137347557D01*
G75*
G02*
X135441560Y-137068197I161803J117557D01*
G01*
X135765166Y-136833083D01*
G75*
G02*
X136044526Y-136877329I117557J-161803D01*
G01*
G37*
%TD*%
%TO.C,R45*%
G36*
G01*
X140420596Y-144092517D02*
X140097314Y-143647557D01*
G75*
G02*
X140141560Y-143368197I161803J117557D01*
G01*
X140465166Y-143133083D01*
G75*
G02*
X140744526Y-143177329I117557J-161803D01*
G01*
X141067808Y-143622289D01*
G75*
G02*
X141023562Y-143901649I-161803J-117557D01*
G01*
X140699956Y-144136763D01*
G75*
G02*
X140420596Y-144092517I-117557J161803D01*
G01*
G37*
G36*
G01*
X141755474Y-143122671D02*
X141432192Y-142677711D01*
G75*
G02*
X141476438Y-142398351I161803J117557D01*
G01*
X141800044Y-142163237D01*
G75*
G02*
X142079404Y-142207483I117557J-161803D01*
G01*
X142402686Y-142652443D01*
G75*
G02*
X142358440Y-142931803I-161803J-117557D01*
G01*
X142034834Y-143166917D01*
G75*
G02*
X141755474Y-143122671I-117557J161803D01*
G01*
G37*
%TD*%
D13*
%TO.C,Q14*%
X121150000Y-62460000D03*
X121150000Y-60560000D03*
X123150000Y-61510000D03*
%TD*%
%TO.C,Q13*%
X133850000Y-60000000D03*
X133850000Y-58100000D03*
X135850000Y-59050000D03*
%TD*%
D12*
%TO.C,Q12*%
G36*
X149670406Y-130493519D02*
G01*
X150140634Y-131140732D01*
X149412518Y-131669739D01*
X148942290Y-131022526D01*
X149670406Y-130493519D01*
G37*
G36*
X150787198Y-132030651D02*
G01*
X151257426Y-132677864D01*
X150529310Y-133206871D01*
X150059082Y-132559658D01*
X150787198Y-132030651D01*
G37*
G36*
X148610768Y-132437655D02*
G01*
X149080996Y-133084868D01*
X148352880Y-133613875D01*
X147882652Y-132966662D01*
X148610768Y-132437655D01*
G37*
%TD*%
%TO.C,Q11*%
G36*
X139090406Y-137973519D02*
G01*
X139560634Y-138620732D01*
X138832518Y-139149739D01*
X138362290Y-138502526D01*
X139090406Y-137973519D01*
G37*
G36*
X140207198Y-139510651D02*
G01*
X140677426Y-140157864D01*
X139949310Y-140686871D01*
X139479082Y-140039658D01*
X140207198Y-139510651D01*
G37*
G36*
X138030768Y-139917655D02*
G01*
X138500996Y-140564868D01*
X137772880Y-141093875D01*
X137302652Y-140446662D01*
X138030768Y-139917655D01*
G37*
%TD*%
%TO.C,Q7*%
G36*
X104666585Y-133010116D02*
G01*
X104196357Y-133657329D01*
X103468241Y-133128322D01*
X103938469Y-132481109D01*
X104666585Y-133010116D01*
G37*
G36*
X103549793Y-134547248D02*
G01*
X103079565Y-135194461D01*
X102351449Y-134665454D01*
X102821677Y-134018241D01*
X103549793Y-134547248D01*
G37*
G36*
X102490155Y-132603112D02*
G01*
X102019927Y-133250325D01*
X101291811Y-132721318D01*
X101762039Y-132074105D01*
X102490155Y-132603112D01*
G37*
%TD*%
%TO.C,Q6*%
G36*
X96016585Y-125310116D02*
G01*
X95546357Y-125957329D01*
X94818241Y-125428322D01*
X95288469Y-124781109D01*
X96016585Y-125310116D01*
G37*
G36*
X94899793Y-126847248D02*
G01*
X94429565Y-127494461D01*
X93701449Y-126965454D01*
X94171677Y-126318241D01*
X94899793Y-126847248D01*
G37*
G36*
X93840155Y-124903112D02*
G01*
X93369927Y-125550325D01*
X92641811Y-125021318D01*
X93112039Y-124374105D01*
X93840155Y-124903112D01*
G37*
%TD*%
M02*
