M48
; DRILL file {KiCad (5.1.7-0-10_14)} date Wednesday, April 07, 2021 at 03:47:21 PM
; FORMAT={-:-/ absolute / inch / decimal}
; #@! TF.CreationDate,2021-04-07T15:47:21+02:00
; #@! TF.GenerationSoftware,Kicad,Pcbnew,(5.1.7-0-10_14)
; #@! TF.FileFunction,Plated,1,2,PTH
FMAT,2
INCH
T1C0.0157
T2C0.0200
T3C0.0236
T4C0.0295
T5C0.0300
T6C0.0394
T7C0.0400
T8C0.0591
%
G90
G05
T1
X2.8898Y-4.7047
X3.0394Y-4.7244
X3.1142Y-4.2146
X3.1713Y-4.1083
X3.189Y-4.9528
X3.2008Y-4.0
X3.252Y-3.8917
X3.2736Y-3.7835
X3.2874Y-5.0118
X3.3268Y-5.0492
X3.3386Y-5.1142
X3.3524Y-3.2933
X3.3839Y-3.3681
X3.3839Y-3.4154
X3.4311Y-4.869
X3.435Y-3.9734
X3.4488Y-4.0669
X3.4764Y-4.1417
X3.5728Y-4.3593
X3.592Y-4.0305
X3.6201Y-3.4075
X3.7067Y-3.6752
X3.7126Y-4.1447
X3.7638Y-3.1713
X3.872Y-3.9803
X3.9819Y-5.5784
X4.0587Y-5.6532
X4.0636Y-5.4967
X4.0807Y-2.3071
X4.0826Y-2.1378
X4.126Y-2.3465
X4.1483Y-5.5636
X4.1614Y-2.2106
X4.1647Y-5.706
X4.2008Y-4.0374
X4.2303Y-2.3504
X4.2405Y-5.6302
X4.2574Y-5.7869
X4.2628Y-4.0659
X4.2638Y-2.2067
X4.2771Y-2.4552
X4.3292Y-5.8548
X4.3386Y-2.3543
X4.344Y-5.7003
X4.3602Y-2.2067
X4.3853Y-2.4592
X4.415Y-5.9426
X4.4188Y-2.5969
X4.4266Y-5.7573
X4.4488Y-2.3484
X4.4646Y-2.2067
X4.4646Y-4.2598
X4.4783Y-2.5945
X4.4941Y-2.4429
X4.5079Y-3.7136
X4.5079Y-3.811
X4.5236Y-3.2864
X4.5292Y-5.8284
X4.5312Y-2.5977
X4.5315Y-2.7894
X4.5479Y-3.9803
X4.5591Y-2.3484
X4.5669Y-2.2067
X4.5827Y-4.0089
X4.6024Y-2.5945
X4.6122Y-2.4439
X4.6201Y-2.752
X4.6555Y-2.7854
X4.6614Y-2.2067
X4.6634Y-2.3484
X4.6732Y-3.6299
X4.6909Y-3.0236
X4.6988Y-4.4114
X4.7422Y-3.5433
X4.7461Y-3.0295
X4.7657Y-3.9646
X4.8071Y-3.878
X4.8248Y-3.7028
X4.8346Y-4.4272
X4.8583Y-3.5354
X4.8622Y-3.9409
X4.8794Y-4.6955
X4.905Y-3.6826
X4.9262Y-3.8366
X4.9665Y-4.3445
X4.9689Y-4.7057
X4.9783Y-3.7539
X4.9843Y-4.1437
X4.998Y-3.3917
X5.0118Y-3.0039
X5.0276Y-3.687
X5.0394Y-3.9763
X5.0472Y-3.7303
X5.0505Y-2.742
X5.0541Y-2.7835
X5.0768Y-4.6535
X5.0787Y-3.8524
X5.1142Y-4.6752
X5.1161Y-4.0492
X5.1201Y-4.3445
X5.124Y-3.3898
X5.1398Y-2.8445
X5.1633Y-3.9823
X5.1673Y-3.7382
X5.2126Y-3.7047
X5.2168Y-4.5539
X5.2776Y-4.4941
X5.4032Y-4.1182
X5.4046Y-4.3839
X5.4055Y-4.1575
X5.4213Y-3.374
X5.4331Y-4.6581
X5.4626Y-4.5945
X5.4646Y-3.2244
X5.4665Y-3.1752
X5.4665Y-3.372
X5.4705Y-4.7421
X5.4887Y-4.0555
X5.4911Y-4.0965
X5.4911Y-4.3957
X5.4955Y-3.9547
X5.5039Y-2.5925
X5.5118Y-3.9173
X5.5276Y-3.374
X5.5295Y-3.2244
X5.5413Y-4.7677
X5.5453Y-2.9902
X5.5525Y-3.8317
X5.5669Y-4.5827
X5.5807Y-3.3839
X5.596Y-2.9887
X5.5976Y-3.8751
X5.6245Y-3.3853
X5.6932Y-2.9897
X5.6934Y-3.247
X5.7082Y-3.0261
X5.727Y-3.2676
X5.7325Y-3.3066
X5.7894Y-4.061
X5.83Y-4.0971
X5.9016Y-4.0591
X5.9351Y-4.0964
X6.11Y-5.2806
X6.1142Y-3.3071
X6.1811Y-4.8159
X6.2067Y-5.2165
X6.2205Y-2.8268
X6.2461Y-4.752
X6.2559Y-2.935
X6.2559Y-3.313
X6.2756Y-3.0295
X6.2972Y-5.1555
X6.3228Y-3.1299
X6.3287Y-4.7972
X6.3465Y-3.2421
X6.369Y-5.1005
X6.4522Y-5.063
X6.5335Y-4.9803
X6.9843Y-4.5197
X7.0669Y-4.2283
T2
X3.3366Y-3.5039
X3.4685Y-3.2441
X3.4917Y-3.7544
X3.498Y-3.0217
X3.5413Y-4.9724
X3.5492Y-3.6142
X3.563Y-5.1299
X3.7835Y-3.4823
X3.8445Y-3.8169
X3.8799Y-5.2874
X3.9685Y-3.7205
X3.9685Y-3.9429
X3.9803Y-3.3976
X4.1535Y-5.2874
X4.2579Y-3.813
X4.3406Y-3.7205
X4.3425Y-3.8917
X4.3622Y-3.5728
X4.5827Y-3.9016
X4.6122Y-3.0768
X4.6398Y-3.4213
X4.7441Y-2.5256
X4.8976Y-3.8819
X4.937Y-2.4134
X4.9547Y-4.0335
X5.1594Y-3.9311
X5.2146Y-4.1398
X5.3248Y-5.6594
X5.4429Y-2.2697
X5.624Y-5.4685
X5.872Y-5.1161
X5.8907Y-5.2943
X5.935Y-3.3445
X6.128Y-4.7421
X6.6083Y-3.689
X6.6083Y-3.9724
T4
X6.7191Y-4.1673
X6.733Y-4.2664
X6.7469Y-4.3654
X6.7608Y-4.4644
X6.7747Y-4.5634
X6.7887Y-4.6625
X5.7128Y-5.7885
X5.7937Y-5.7297
X5.8746Y-5.671
X5.9555Y-5.6122
X6.0364Y-5.5534
X6.1173Y-5.4946
X6.1982Y-5.4359
X6.2791Y-5.3771
X6.36Y-5.3183
X6.4409Y-5.2595
X6.5218Y-5.2007
X6.6027Y-5.142
X6.6836Y-5.0832
X6.7645Y-5.0244
X6.8454Y-4.9656
X6.9264Y-4.9068
X7.0073Y-4.8481
X6.3433Y-2.2432
X6.3742Y-2.3383
X6.4051Y-2.4334
X6.436Y-2.5285
X6.4669Y-2.6236
X6.4978Y-2.7188
X6.5287Y-2.8139
X6.5596Y-2.909
X6.5905Y-3.0041
X6.6214Y-3.0992
X6.6523Y-3.1943
X6.6832Y-3.2894
X6.7141Y-3.3845
X6.745Y-3.4796
X6.7759Y-3.5747
X6.8068Y-3.6698
X6.8377Y-3.7649
X2.671Y-4.5657
X2.7019Y-4.4706
X2.7328Y-4.3755
X2.7637Y-4.2804
X2.7946Y-4.1852
X2.8255Y-4.0901
X2.8564Y-3.995
X2.8873Y-3.8999
X2.9182Y-3.8048
X2.9491Y-3.7097
X2.98Y-3.6146
X3.0109Y-3.5195
X3.0418Y-3.4244
X3.0727Y-3.3293
X3.1036Y-3.2342
X3.1345Y-3.1391
X3.1654Y-3.044
X3.663Y-2.0709
X3.763Y-2.0709
X3.863Y-2.0709
X3.963Y-2.0709
X4.063Y-2.0709
X4.163Y-2.0709
X4.263Y-2.0709
X4.363Y-2.0709
X4.463Y-2.0709
X4.563Y-2.0709
X4.663Y-2.0709
X4.763Y-2.0709
X4.863Y-2.0709
X4.963Y-2.0709
X5.063Y-2.0709
X5.163Y-2.0709
X5.263Y-2.0709
X6.3898Y-3.4449
X6.3898Y-3.5449
X6.3898Y-3.6449
X6.3898Y-3.7449
X6.3898Y-3.8449
X6.3898Y-3.9449
X6.3898Y-4.0449
X6.3898Y-4.1449
X6.3898Y-4.2449
X6.3898Y-4.3449
X6.3898Y-4.4449
X6.3898Y-4.5449
X6.3898Y-4.6449
X6.3898Y-4.7449
X3.4441Y-5.343
X3.525Y-5.4018
X3.6059Y-5.4606
X3.6868Y-5.5194
X3.7677Y-5.5782
X3.8486Y-5.6369
X3.9295Y-5.6957
X4.0104Y-5.7545
X4.0913Y-5.8133
X4.1722Y-5.872
X4.2531Y-5.9308
X4.334Y-5.9896
X4.4149Y-6.0484
X4.4959Y-6.1072
X4.5768Y-6.1659
X4.6577Y-6.2247
X4.7386Y-6.2835
T5
X2.5315Y-4.5748
X2.685Y-4.1102
X2.8858Y-3.6417
X2.9232Y-3.2756
X2.9921Y-3.3189
X3.0354Y-4.3976
X3.3583Y-2.5787
X3.3661Y-4.4409
X3.5079Y-4.2756
X3.6142Y-2.7835
X3.6693Y-3.2992
X3.8642Y-4.2672
X3.9449Y-2.3228
X4.0354Y-3.2323
X4.1841Y-5.3789
X4.2333Y-5.253
X4.6673Y-4.5354
X4.7913Y-2.6732
X4.9567Y-5.7874
X5.2047Y-2.5551
X5.4921Y-5.2795
X5.7323Y-4.9724
X5.7539Y-4.5748
X5.9685Y-3.5748
X6.0394Y-3.8386
X6.8307Y-4.1772
X6.8504Y-4.3937
T6
X4.6378Y-2.935
X4.937Y-2.935
T7
X3.3523Y-5.2238
X3.6435Y-4.6459
X3.7303Y-4.5748
X3.9397Y-4.4442
X4.0138Y-1.9908
X4.3169Y-1.998
X4.6575Y-4.7096
X5.1102Y-4.8839
X5.878Y-4.2461
X5.9193Y-4.6083
X5.9941Y-2.7618
X6.1339Y-2.3238
X6.1378Y-4.5374
X6.1575Y-2.4862
X6.2185Y-3.8248
X6.4902Y-3.6752
X6.5315Y-4.5079
X6.6772Y-4.7402
T3
G00X2.7741Y-5.0119
M15
G01X2.788Y-4.9928
M16
G05
G00X2.865Y-4.8868
M15
G01X2.8905Y-4.8517
M16
G05
G00X3.0493Y-5.2119
M15
G01X3.0632Y-5.1928
M16
G05
G00X3.1402Y-5.0867
M15
G01X3.1657Y-5.0517
M16
G05
T6
G00X3.6713Y-2.4685
M15
G01X3.6713Y-2.5472
M16
G05
G00X3.75Y-2.6929
M15
G01X3.8287Y-2.6929
M16
G05
G00X3.9075Y-2.4685
M15
G01X3.9075Y-2.5472
M16
G05
T8
G00X4.7579Y-5.1654
M15
G01X4.7579Y-5.2165
M16
G05
G00X4.9213Y-5.0138
M15
G01X4.9724Y-5.0138
M16
G05
G00X4.9213Y-5.3917
M15
G01X4.9724Y-5.3917
M16
G05
G00X5.1358Y-5.1654
M15
G01X5.1358Y-5.2165
M16
G05
T0
M30
