M48
; DRILL file {KiCad (5.1.7-0-10_14)} date Tuesday, April 06, 2021 at 02:55:18 PM
; FORMAT={-:-/ absolute / inch / decimal}
; #@! TF.CreationDate,2021-04-06T14:55:18+02:00
; #@! TF.GenerationSoftware,Kicad,Pcbnew,(5.1.7-0-10_14)
; #@! TF.FileFunction,Plated,1,2,PTH
FMAT,2
INCH
T1C0.0157
T2C0.0295
T3C0.0300
T4C0.0394
T5C0.0591
%
G90
G05
T1
X2.374Y-4.5602
X2.5949Y-4.565
X2.6799Y-4.3598
X2.6921Y-4.8835
X3.1335Y-5.5016
X3.1512Y-5.0957
X3.561Y-6.0937
X3.5949Y-5.6874
X3.8606Y-6.3189
X3.9622Y-6.7067
X4.3083Y-4.339
X4.3488Y-6.7732
X4.5461Y-6.4606
X4.5472Y-6.6374
X4.5642Y-6.2236
X4.7776Y-3.9295
X4.9488Y-2.1614
X5.1232Y-3.7717
X5.2484Y-4.4764
X5.7598Y-2.2835
X5.7681Y-2.2035
X6.0811Y-2.2858
X6.0823Y-2.2024
X6.1154Y-6.2417
X6.1154Y-6.2417
X6.3882Y-2.0799
X6.676Y-5.6374
X6.7124Y-5.0074
X6.7953Y-2.5118
X6.8283Y-5.0429
X6.8378Y-4.4201
X7.0291Y-6.3189
X7.1677Y-5.1591
X7.2386Y-6.0409
X7.3079Y-4.2807
X7.6004Y-4.7264
X7.6004Y-4.7264
X7.6441Y-4.6531
X8.3398Y-4.1083
X8.3858Y-4.4677
T2
X6.026Y-1.3051
X6.026Y-2.5453
X6.126Y-1.3051
X6.126Y-2.5453
X6.226Y-1.3051
X6.226Y-2.5453
X4.4937Y-6.8878
X4.5937Y-6.8878
X4.6937Y-6.8878
X4.7937Y-6.8878
X4.8937Y-6.8878
X4.9937Y-6.8878
X5.0937Y-6.8878
X5.1937Y-6.8878
X5.2937Y-6.8878
X5.3937Y-6.8878
X5.4937Y-6.8878
X5.5937Y-6.8878
X5.6937Y-6.8878
X5.7937Y-6.8878
X5.8937Y-6.8878
X5.9937Y-6.8878
X6.0937Y-6.8878
T3
X7.9055Y-3.0752
X8.0055Y-3.0752
X8.1055Y-3.0752
X8.2055Y-3.0752
X8.3055Y-3.0752
X8.4055Y-3.0752
X8.5055Y-3.0752
X8.6055Y-3.0752
T4
X7.0134Y-1.7894
X7.0134Y-2.3602
X7.1118Y-2.3602
X7.2102Y-1.7894
X7.2102Y-2.3602
T5
G00X3.3488Y-2.0685
M15
G01X3.3488Y-2.1197
M16
G05
G00X3.5122Y-1.9169
M15
G01X3.5634Y-1.9169
M16
G05
G00X3.5122Y-2.2949
M15
G01X3.5634Y-2.2949
M16
G05
G00X4.1681Y-1.8035
M15
G01X4.1681Y-1.8547
M16
G05
G00X4.3315Y-1.652
M15
G01X4.3827Y-1.652
M16
G05
G00X4.3315Y-2.0299
M15
G01X4.3827Y-2.0299
M16
G05
G00X4.5461Y-1.8035
M15
G01X4.5461Y-1.8547
M16
G05
G00X6.8913Y-2.0906
M15
G01X6.8913Y-2.0394
M16
G05
G00X7.3323Y-2.0906
M15
G01X7.3323Y-2.0394
M16
G05
G00X3.7268Y-2.0685
M15
G01X3.7268Y-2.1197
M16
G05
T0
M30
