%TF.GenerationSoftware,KiCad,Pcbnew,(5.1.7-0-10_14)*%
%TF.CreationDate,2021-04-06T14:55:12+02:00*%
%TF.ProjectId,MDMA,4d444d41-2e6b-4696-9361-645f70636258,rev?*%
%TF.SameCoordinates,Original*%
%TF.FileFunction,Copper,L2,Bot*%
%TF.FilePolarity,Positive*%
%FSLAX46Y46*%
G04 Gerber Fmt 4.6, Leading zero omitted, Abs format (unit mm)*
G04 Created by KiCad (PCBNEW (5.1.7-0-10_14)) date 2021-04-06 14:55:12*
%MOMM*%
%LPD*%
G01*
G04 APERTURE LIST*
%TA.AperFunction,ComponentPad*%
%ADD10R,1.250000X1.250000*%
%TD*%
%TA.AperFunction,ComponentPad*%
%ADD11R,2.000000X2.000000*%
%TD*%
%TA.AperFunction,ComponentPad*%
%ADD12C,2.000000*%
%TD*%
%TA.AperFunction,ComponentPad*%
%ADD13R,2.000000X3.200000*%
%TD*%
%TA.AperFunction,ComponentPad*%
%ADD14R,3.200000X2.000000*%
%TD*%
%TA.AperFunction,ComponentPad*%
%ADD15C,1.524000*%
%TD*%
%TA.AperFunction,ViaPad*%
%ADD16C,0.800000*%
%TD*%
%TA.AperFunction,Conductor*%
%ADD17C,0.500000*%
%TD*%
%TA.AperFunction,Conductor*%
%ADD18C,0.254000*%
%TD*%
%TA.AperFunction,Conductor*%
%ADD19C,0.100000*%
%TD*%
G04 APERTURE END LIST*
D10*
%TO.P,U1,4*%
%TO.N,N/C*%
X158140000Y-33150000D03*
X155600000Y-33150000D03*
X153060000Y-33150000D03*
%TO.P,U1,1*%
%TO.N,Net-(P1-Pad6)*%
X158140000Y-64650000D03*
%TO.P,U1,2*%
%TO.N,+5V*%
X155600000Y-64650000D03*
%TO.P,U1,3*%
%TO.N,GND*%
X153060000Y-64650000D03*
%TD*%
%TO.P,P1,17*%
%TO.N,Net-(P1-Pad17)*%
X154780000Y-174950000D03*
%TO.P,P1,16*%
%TO.N,Net-(P1-Pad16)*%
X152240000Y-174950000D03*
%TO.P,P1,15*%
%TO.N,Net-(P1-Pad15)*%
X149700000Y-174950000D03*
%TO.P,P1,14*%
%TO.N,Net-(P1-Pad14)*%
X147160000Y-174950000D03*
%TO.P,P1,13*%
%TO.N,Net-(P1-Pad13)*%
X144620000Y-174950000D03*
%TO.P,P1,12*%
%TO.N,Net-(P1-Pad12)*%
X142080000Y-174950000D03*
%TO.P,P1,11*%
%TO.N,Net-(P1-Pad11)*%
X139540000Y-174950000D03*
%TO.P,P1,10*%
%TO.N,Net-(P1-Pad10)*%
X137000000Y-174950000D03*
%TO.P,P1,9*%
%TO.N,Net-(P1-Pad9)*%
X134460000Y-174950000D03*
%TO.P,P1,8*%
%TO.N,/switch_led/SW_OUTPUT*%
X131920000Y-174950000D03*
%TO.P,P1,7*%
%TO.N,/switch_led2/SW_OUTPUT*%
X129380000Y-174950000D03*
%TO.P,P1,6*%
%TO.N,Net-(P1-Pad6)*%
X126840000Y-174950000D03*
%TO.P,P1,5*%
%TO.N,/leds/DATA_IN*%
X124300000Y-174950000D03*
%TO.P,P1,4*%
%TO.N,/leds/DATA_OUT*%
X121760000Y-174950000D03*
%TO.P,P1,3*%
%TO.N,GND*%
X119220000Y-174950000D03*
%TO.P,P1,2*%
%TO.N,+3V3*%
X116680000Y-174950000D03*
%TO.P,P1,1*%
%TO.N,+5V*%
X114140000Y-174950000D03*
%TD*%
D11*
%TO.P,SW1,A*%
%TO.N,Net-(P1-Pad10)*%
X178140000Y-59950000D03*
D12*
%TO.P,SW1,C*%
%TO.N,+5V*%
X180640000Y-59950000D03*
%TO.P,SW1,B*%
%TO.N,Net-(P1-Pad11)*%
X183140000Y-59950000D03*
D13*
%TO.P,SW1,MP*%
%TO.N,N/C*%
X175040000Y-52450000D03*
X186240000Y-52450000D03*
D12*
%TO.P,SW1,S2*%
%TO.N,Net-(P1-Pad9)*%
X178140000Y-45450000D03*
%TO.P,SW1,S1*%
%TO.N,+5V*%
X183140000Y-45450000D03*
%TD*%
D13*
%TO.P,SW2,3*%
%TO.N,GND*%
X94660000Y-53190000D03*
%TO.P,SW2,4*%
%TO.N,+5V*%
X85060000Y-53190000D03*
D14*
%TO.P,SW2,2*%
%TO.N,/switch_led/SW_OUTPUT*%
X89860000Y-58290000D03*
%TO.P,SW2,1*%
%TO.N,+5V*%
X89860000Y-48690000D03*
%TD*%
D13*
%TO.P,SW3,3*%
%TO.N,GND*%
X115470000Y-46460000D03*
%TO.P,SW3,4*%
%TO.N,+5V*%
X105870000Y-46460000D03*
D14*
%TO.P,SW3,2*%
%TO.N,/switch_led2/SW_OUTPUT*%
X110670000Y-51560000D03*
%TO.P,SW3,1*%
%TO.N,+5V*%
X110670000Y-41960000D03*
%TD*%
D15*
%TO.P,T1,1*%
%TO.N,+3V3*%
X200800000Y-78110000D03*
%TO.P,T1,2*%
%TO.N,GND*%
X203340000Y-78110000D03*
%TO.P,T1,3*%
%TO.N,Net-(P1-Pad12)*%
X205880000Y-78110000D03*
%TO.P,T1,4*%
%TO.N,Net-(P1-Pad13)*%
X208420000Y-78110000D03*
%TO.P,T1,5*%
%TO.N,Net-(P1-Pad14)*%
X210960000Y-78110000D03*
%TO.P,T1,6*%
%TO.N,Net-(P1-Pad15)*%
X213500000Y-78110000D03*
%TO.P,T1,7*%
%TO.N,Net-(P1-Pad16)*%
X216040000Y-78110000D03*
%TO.P,T1,8*%
%TO.N,Net-(P1-Pad17)*%
X218580000Y-78110000D03*
%TD*%
D16*
%TO.N,GND*%
X110460000Y-172040000D03*
X115930000Y-158080000D03*
X155330000Y-158540000D03*
X155330000Y-158540000D03*
X169570000Y-143190000D03*
X170496000Y-127189000D03*
X173680000Y-112270000D03*
X68070000Y-110740000D03*
X211830000Y-104350000D03*
X213000000Y-113480000D03*
X194160000Y-118190000D03*
X125700000Y-54900000D03*
X172600000Y-63800000D03*
%TO.N,+5V*%
X182060000Y-131040000D03*
X193050000Y-120050000D03*
X193050000Y-120050000D03*
%TO.N,/leds/sheet5FFCD275/DIN*%
X100640000Y-170350000D03*
X98060000Y-160500000D03*
X178540000Y-160500000D03*
X183860000Y-153440000D03*
%TO.N,/leds/sheet5FFCE972/DIN*%
X90450000Y-154780000D03*
X91310000Y-144460000D03*
%TO.N,/leds/sheet5FFCF15F/DIN*%
X79590000Y-139740000D03*
X80040000Y-129430000D03*
%TO.N,/leds/sheet5FFCFCC8/DIN*%
X173440000Y-128090000D03*
X185620000Y-108730000D03*
%TO.N,/leds/sheet5FFD0ABE/DIN*%
X109430000Y-110210000D03*
X121350000Y-99810000D03*
%TO.N,/leds/sheet5FFD1E55/DIN*%
X130130000Y-95800000D03*
X133310000Y-113700000D03*
%TO.N,/leds/sheet5FFD364E/DIN*%
X65910000Y-115950000D03*
X68380000Y-124040000D03*
%TO.N,/leds/DATA_OUT*%
X60300000Y-115830000D03*
%TO.N,+3V3*%
X115500000Y-168590000D03*
X115470000Y-164100000D03*
X162260000Y-52830000D03*
%TO.N,/switch_led2/SW_OUTPUT*%
X154460000Y-58060000D03*
X146300000Y-58000000D03*
%TO.N,/switch_led/SW_OUTPUT*%
X154490000Y-55940000D03*
X146510000Y-55970000D03*
%TD*%
D17*
%TO.N,GND*%
X119220000Y-176130000D02*
X119610000Y-176520000D01*
X119220000Y-173650000D02*
X119220000Y-174950000D01*
X119220000Y-174950000D02*
X119220000Y-175250000D01*
X119220000Y-175250000D02*
X119580000Y-175610000D01*
X119580000Y-175610000D02*
X119580000Y-176010000D01*
X119220000Y-176130000D02*
X118890000Y-176130000D01*
X118890000Y-176130000D02*
X118740000Y-175980000D01*
X119220000Y-174950000D02*
X119220000Y-175370000D01*
X118740000Y-175980000D02*
X118740000Y-175850000D01*
X118740000Y-175850000D02*
X118965000Y-175625000D01*
X119220000Y-175370000D02*
X118965000Y-175625000D01*
X118965000Y-175625000D02*
X119150000Y-175810000D01*
X118970000Y-175200000D02*
X119220000Y-174950000D01*
X118190000Y-175200000D02*
X118970000Y-175200000D01*
X118600000Y-175680000D02*
X118370000Y-175680000D01*
X118600000Y-175680000D02*
X118340000Y-175940000D01*
X118190000Y-175500000D02*
X118370000Y-175680000D01*
X118190000Y-175200000D02*
X118190000Y-175500000D01*
X119220000Y-174950000D02*
X119720000Y-174950000D01*
X120120000Y-174860000D02*
X120120000Y-175350000D01*
X120120000Y-175350000D02*
X120145000Y-175375000D01*
X120010000Y-175500000D02*
X120020000Y-175500000D01*
X120020000Y-175500000D02*
X120145000Y-175375000D01*
X120010000Y-175500000D02*
X120010000Y-175400000D01*
X119220000Y-175090000D02*
X119940000Y-175810000D01*
X119220000Y-174950000D02*
X119220000Y-175090000D01*
X120140000Y-175850000D02*
X120140000Y-175630000D01*
X119940000Y-175810000D02*
X119940000Y-176050000D01*
X120140000Y-175630000D02*
X120010000Y-175500000D01*
X119940000Y-176050000D02*
X120140000Y-175850000D01*
X153060000Y-66450000D02*
X153060000Y-64650000D01*
X153060000Y-64650000D02*
X153060000Y-62400000D01*
X165500000Y-42500000D02*
X165300000Y-42700000D01*
%TO.N,+5V*%
X182060000Y-131040000D02*
X193050000Y-120050000D01*
X180640000Y-47950000D02*
X183140000Y-45450000D01*
X180640000Y-59950000D02*
X180640000Y-47950000D01*
X150200000Y-72900000D02*
X150400000Y-72900000D01*
%TO.N,/leds/sheet5FFCD275/DIN*%
X178540000Y-160500000D02*
X183860000Y-153360000D01*
X183860000Y-153360000D02*
X183860000Y-153440000D01*
X98050000Y-166630000D02*
X98060000Y-160500000D01*
X100640000Y-170350000D02*
X98050000Y-166630000D01*
%TO.N,/leds/sheet5FFCE972/DIN*%
X90450000Y-154780000D02*
X90450000Y-145320000D01*
X90450000Y-145320000D02*
X91310000Y-144460000D01*
%TO.N,/leds/sheet5FFCF15F/DIN*%
X79590000Y-139740000D02*
X79590000Y-129880000D01*
X79590000Y-129880000D02*
X80040000Y-129430000D01*
%TO.N,/leds/sheet5FFCFCC8/DIN*%
X173440000Y-128090000D02*
X185650000Y-115880000D01*
X185650000Y-115880000D02*
X185650000Y-108760000D01*
X185650000Y-108760000D02*
X185620000Y-108730000D01*
%TO.N,/leds/sheet5FFD0ABE/DIN*%
X109430000Y-110210000D02*
X119840000Y-99800000D01*
X121340000Y-99800000D02*
X121350000Y-99810000D01*
X119840000Y-99800000D02*
X121340000Y-99800000D01*
%TO.N,/leds/sheet5FFD1E55/DIN*%
X130130000Y-110520000D02*
X133310000Y-113700000D01*
X130130000Y-95800000D02*
X130130000Y-110520000D01*
%TO.N,/leds/sheet5FFD364E/DIN*%
X65420000Y-120020000D02*
X68380000Y-124040000D01*
X65420000Y-116440000D02*
X65420000Y-120020000D01*
X65910000Y-115950000D02*
X65420000Y-116440000D01*
%TO.N,/leds/DATA_OUT*%
X99541496Y-158231496D02*
X91038504Y-158231496D01*
X60300000Y-115830000D02*
X91038504Y-158231496D01*
X116655000Y-166445000D02*
X107755000Y-166445000D01*
X121760000Y-174950000D02*
X121760000Y-171550000D01*
X107755000Y-166445000D02*
X99541496Y-158231496D01*
X121760000Y-171550000D02*
X116655000Y-166445000D01*
%TO.N,+3V3*%
X116680000Y-169770000D02*
X115500000Y-168590000D01*
X116680000Y-174950000D02*
X116680000Y-169770000D01*
X115470000Y-164100000D02*
X120300000Y-159270000D01*
X120300000Y-159270000D02*
X126160000Y-159270000D01*
X126160000Y-159270000D02*
X151150000Y-134280000D01*
X151150000Y-134280000D02*
X151150000Y-59090000D01*
X151150000Y-59090000D02*
X151150000Y-55650000D01*
X151150000Y-55650000D02*
X153970000Y-52830000D01*
X153970000Y-52830000D02*
X162260000Y-52830000D01*
%TO.N,Net-(P1-Pad6)*%
X158140000Y-64650000D02*
X158140000Y-131190000D01*
X126840000Y-162490000D02*
X126840000Y-174950000D01*
X158140000Y-131190000D02*
X126840000Y-162490000D01*
%TO.N,/switch_led2/SW_OUTPUT*%
X129380000Y-174950000D02*
X129380000Y-164380000D01*
X129380000Y-164380000D02*
X162460000Y-131300000D01*
X162460000Y-131300000D02*
X162460000Y-61370000D01*
X162460000Y-61370000D02*
X159200001Y-58110001D01*
X154510001Y-58110001D02*
X154460000Y-58060000D01*
X159200001Y-58110001D02*
X154510001Y-58110001D01*
X117110000Y-58000000D02*
X110670000Y-51560000D01*
X146300000Y-58000000D02*
X117110000Y-58000000D01*
%TO.N,/switch_led/SW_OUTPUT*%
X131920000Y-165060000D02*
X131920000Y-174950000D01*
X164830000Y-132150000D02*
X131920000Y-165060000D01*
X162830000Y-56660000D02*
X164830000Y-58660000D01*
X164830000Y-58660000D02*
X164830000Y-132150000D01*
X162830000Y-56660000D02*
X162790000Y-56660000D01*
X162070000Y-55940000D02*
X154490000Y-55940000D01*
X162790000Y-56660000D02*
X162070000Y-55940000D01*
X109100000Y-48350000D02*
X99160000Y-58290000D01*
X99160000Y-58290000D02*
X89860000Y-58290000D01*
X112260000Y-48350000D02*
X109100000Y-48350000D01*
X119880000Y-55970000D02*
X112260000Y-48350000D01*
X146510000Y-55970000D02*
X119880000Y-55970000D01*
%TO.N,Net-(P1-Pad9)*%
X134460000Y-174950000D02*
X134460000Y-166400000D01*
X134460000Y-166400000D02*
X167260000Y-133600000D01*
X167260000Y-133600000D02*
X167260000Y-50360000D01*
X172170000Y-45450000D02*
X178140000Y-45450000D01*
X167260000Y-50360000D02*
X172170000Y-45450000D01*
%TO.N,Net-(P1-Pad10)*%
X137000000Y-174950000D02*
X137000000Y-167320000D01*
X137000000Y-167320000D02*
X187650000Y-116670000D01*
X187650000Y-116670000D02*
X187650000Y-73210000D01*
X178140000Y-63700000D02*
X178140000Y-59950000D01*
X187650000Y-73210000D02*
X178140000Y-63700000D01*
%TO.N,Net-(P1-Pad11)*%
X139540000Y-174950000D02*
X139540000Y-169760000D01*
X139540000Y-169760000D02*
X190940000Y-118360000D01*
X190940000Y-67750000D02*
X183140000Y-59950000D01*
X190940000Y-118360000D02*
X190940000Y-67750000D01*
%TO.N,Net-(P1-Pad12)*%
X142140000Y-174950000D02*
X196040000Y-121050000D01*
X205580000Y-91810000D02*
X205580000Y-78110000D01*
X196040000Y-121050000D02*
X196040000Y-101350000D01*
X196040000Y-101350000D02*
X205580000Y-91810000D01*
%TO.N,Net-(P1-Pad13)*%
X208180000Y-91710000D02*
X208180000Y-78010000D01*
X198640000Y-120950000D02*
X198640000Y-101250000D01*
X144740000Y-174850000D02*
X198640000Y-120950000D01*
X198640000Y-101250000D02*
X208180000Y-91710000D01*
%TO.N,Net-(P1-Pad14)*%
X147440000Y-174950000D02*
X201340000Y-121050000D01*
X201340000Y-101350000D02*
X210880000Y-91810000D01*
X201340000Y-121050000D02*
X201340000Y-101350000D01*
X210880000Y-91810000D02*
X210880000Y-78110000D01*
%TO.N,Net-(P1-Pad15)*%
X213280000Y-91810000D02*
X213280000Y-78110000D01*
X203740000Y-101350000D02*
X213280000Y-91810000D01*
X203740000Y-121050000D02*
X203740000Y-101350000D01*
X149840000Y-174950000D02*
X203740000Y-121050000D01*
%TO.N,Net-(P1-Pad16)*%
X152340000Y-174950000D02*
X206240000Y-121050000D01*
X206240000Y-121050000D02*
X206240000Y-101350000D01*
X215780000Y-91810000D02*
X215780000Y-78110000D01*
X206240000Y-101350000D02*
X215780000Y-91810000D01*
%TO.N,Net-(P1-Pad17)*%
X154780000Y-174950000D02*
X155140000Y-174950000D01*
X155140000Y-174950000D02*
X209040000Y-121050000D01*
X209040000Y-121050000D02*
X209040000Y-101350000D01*
X218580000Y-91810000D02*
X218580000Y-78110000D01*
X209040000Y-101350000D02*
X218580000Y-91810000D01*
%TD*%
D18*
%TO.N,GND*%
X152004423Y-24778406D02*
X157562944Y-25047725D01*
X163111779Y-25472143D01*
X168646579Y-26051327D01*
X174163112Y-26784832D01*
X179656950Y-27672073D01*
X185123868Y-28712363D01*
X190559664Y-29904906D01*
X195960006Y-31248751D01*
X201320711Y-32742855D01*
X206637629Y-34386064D01*
X211906581Y-36177084D01*
X217123479Y-38114527D01*
X222284273Y-40196891D01*
X227384865Y-42422519D01*
X232421350Y-44789709D01*
X237389770Y-47296599D01*
X242286238Y-49941228D01*
X247107000Y-52721570D01*
X251848223Y-55635416D01*
X255889853Y-58277557D01*
X169546237Y-177120000D01*
X103252765Y-177120000D01*
X101222097Y-174325000D01*
X112876928Y-174325000D01*
X112876928Y-175575000D01*
X112889188Y-175699482D01*
X112925498Y-175819180D01*
X112984463Y-175929494D01*
X113063815Y-176026185D01*
X113160506Y-176105537D01*
X113270820Y-176164502D01*
X113390518Y-176200812D01*
X113515000Y-176213072D01*
X114765000Y-176213072D01*
X114889482Y-176200812D01*
X115009180Y-176164502D01*
X115119494Y-176105537D01*
X115216185Y-176026185D01*
X115295537Y-175929494D01*
X115354502Y-175819180D01*
X115390812Y-175699482D01*
X115403072Y-175575000D01*
X115403072Y-174325000D01*
X115390812Y-174200518D01*
X115354502Y-174080820D01*
X115295537Y-173970506D01*
X115216185Y-173873815D01*
X115119494Y-173794463D01*
X115009180Y-173735498D01*
X114889482Y-173699188D01*
X114765000Y-173686928D01*
X113515000Y-173686928D01*
X113390518Y-173699188D01*
X113270820Y-173735498D01*
X113160506Y-173794463D01*
X113063815Y-173873815D01*
X112984463Y-173970506D01*
X112925498Y-174080820D01*
X112889188Y-174200518D01*
X112876928Y-174325000D01*
X101222097Y-174325000D01*
X91103675Y-160398061D01*
X97025000Y-160398061D01*
X97025000Y-160601939D01*
X97064774Y-160801898D01*
X97142795Y-160990256D01*
X97174123Y-161037142D01*
X97165058Y-166594288D01*
X97160881Y-166647025D01*
X97170008Y-166724462D01*
X97177524Y-166802066D01*
X97180203Y-166810948D01*
X97181288Y-166820157D01*
X97205345Y-166894321D01*
X97227857Y-166968972D01*
X97232215Y-166977157D01*
X97235077Y-166985981D01*
X97273152Y-167054047D01*
X97309785Y-167122852D01*
X97343273Y-167163793D01*
X99605000Y-170412297D01*
X99605000Y-170451939D01*
X99644774Y-170651898D01*
X99722795Y-170840256D01*
X99836063Y-171009774D01*
X99980226Y-171153937D01*
X100149744Y-171267205D01*
X100338102Y-171345226D01*
X100538061Y-171385000D01*
X100741939Y-171385000D01*
X100941898Y-171345226D01*
X101130256Y-171267205D01*
X101299774Y-171153937D01*
X101443937Y-171009774D01*
X101557205Y-170840256D01*
X101635226Y-170651898D01*
X101675000Y-170451939D01*
X101675000Y-170248061D01*
X101635226Y-170048102D01*
X101557205Y-169859744D01*
X101443937Y-169690226D01*
X101299774Y-169546063D01*
X101130256Y-169432795D01*
X101059326Y-169403415D01*
X100422023Y-168488061D01*
X114465000Y-168488061D01*
X114465000Y-168691939D01*
X114504774Y-168891898D01*
X114582795Y-169080256D01*
X114696063Y-169249774D01*
X114840226Y-169393937D01*
X115009744Y-169507205D01*
X115198102Y-169585226D01*
X115254957Y-169596535D01*
X115795001Y-170136580D01*
X115795000Y-173743954D01*
X115700506Y-173794463D01*
X115603815Y-173873815D01*
X115524463Y-173970506D01*
X115465498Y-174080820D01*
X115429188Y-174200518D01*
X115416928Y-174325000D01*
X115416928Y-175575000D01*
X115429188Y-175699482D01*
X115465498Y-175819180D01*
X115524463Y-175929494D01*
X115603815Y-176026185D01*
X115700506Y-176105537D01*
X115810820Y-176164502D01*
X115930518Y-176200812D01*
X116055000Y-176213072D01*
X117305000Y-176213072D01*
X117429482Y-176200812D01*
X117549180Y-176164502D01*
X117659494Y-176105537D01*
X117756185Y-176026185D01*
X117835537Y-175929494D01*
X117894502Y-175819180D01*
X117930812Y-175699482D01*
X117943072Y-175575000D01*
X117943072Y-174325000D01*
X117956928Y-174325000D01*
X117956928Y-175575000D01*
X117969188Y-175699482D01*
X118005498Y-175819180D01*
X118064463Y-175929494D01*
X118143815Y-176026185D01*
X118240506Y-176105537D01*
X118350820Y-176164502D01*
X118470518Y-176200812D01*
X118595000Y-176213072D01*
X119845000Y-176213072D01*
X119969482Y-176200812D01*
X120089180Y-176164502D01*
X120199494Y-176105537D01*
X120296185Y-176026185D01*
X120375537Y-175929494D01*
X120434502Y-175819180D01*
X120470812Y-175699482D01*
X120483072Y-175575000D01*
X120483072Y-174325000D01*
X120470812Y-174200518D01*
X120434502Y-174080820D01*
X120375537Y-173970506D01*
X120296185Y-173873815D01*
X120199494Y-173794463D01*
X120089180Y-173735498D01*
X119969482Y-173699188D01*
X119845000Y-173686928D01*
X118595000Y-173686928D01*
X118470518Y-173699188D01*
X118350820Y-173735498D01*
X118240506Y-173794463D01*
X118143815Y-173873815D01*
X118064463Y-173970506D01*
X118005498Y-174080820D01*
X117969188Y-174200518D01*
X117956928Y-174325000D01*
X117943072Y-174325000D01*
X117930812Y-174200518D01*
X117894502Y-174080820D01*
X117835537Y-173970506D01*
X117756185Y-173873815D01*
X117659494Y-173794463D01*
X117565000Y-173743954D01*
X117565000Y-169813466D01*
X117569281Y-169769999D01*
X117565000Y-169726533D01*
X117565000Y-169726523D01*
X117552195Y-169596510D01*
X117501589Y-169429687D01*
X117419411Y-169275941D01*
X117308817Y-169141183D01*
X117275049Y-169113470D01*
X116506535Y-168344957D01*
X116495226Y-168288102D01*
X116417205Y-168099744D01*
X116303937Y-167930226D01*
X116159774Y-167786063D01*
X115990256Y-167672795D01*
X115801898Y-167594774D01*
X115601939Y-167555000D01*
X115398061Y-167555000D01*
X115198102Y-167594774D01*
X115009744Y-167672795D01*
X114840226Y-167786063D01*
X114696063Y-167930226D01*
X114582795Y-168099744D01*
X114504774Y-168288102D01*
X114465000Y-168488061D01*
X100422023Y-168488061D01*
X98935452Y-166352910D01*
X98944120Y-161039772D01*
X98977205Y-160990256D01*
X99055226Y-160801898D01*
X99095000Y-160601939D01*
X99095000Y-160398061D01*
X99055226Y-160198102D01*
X98977205Y-160009744D01*
X98863937Y-159840226D01*
X98719774Y-159696063D01*
X98550256Y-159582795D01*
X98361898Y-159504774D01*
X98161939Y-159465000D01*
X97958061Y-159465000D01*
X97758102Y-159504774D01*
X97569744Y-159582795D01*
X97400226Y-159696063D01*
X97256063Y-159840226D01*
X97142795Y-160009744D01*
X97064774Y-160198102D01*
X97025000Y-160398061D01*
X91103675Y-160398061D01*
X58649311Y-115728061D01*
X59265000Y-115728061D01*
X59265000Y-115931939D01*
X59304774Y-116131898D01*
X59382795Y-116320256D01*
X59496063Y-116489774D01*
X59640226Y-116633937D01*
X59809744Y-116747205D01*
X59898476Y-116783959D01*
X90286499Y-158701994D01*
X90299093Y-158725555D01*
X90337552Y-158772417D01*
X90347496Y-158786134D01*
X90365127Y-158806017D01*
X90409687Y-158860313D01*
X90422859Y-158871123D01*
X90434172Y-158883881D01*
X90490140Y-158926340D01*
X90544445Y-158970907D01*
X90559483Y-158978945D01*
X90573059Y-158989244D01*
X90636231Y-159019967D01*
X90698191Y-159053085D01*
X90714500Y-159058032D01*
X90729832Y-159065489D01*
X90797785Y-159083297D01*
X90865014Y-159103691D01*
X90881984Y-159105362D01*
X90898467Y-159109682D01*
X90968569Y-159113890D01*
X90995027Y-159116496D01*
X91011979Y-159116496D01*
X91072483Y-159120128D01*
X91098945Y-159116496D01*
X99174918Y-159116496D01*
X107098470Y-167040049D01*
X107126183Y-167073817D01*
X107159951Y-167101530D01*
X107159953Y-167101532D01*
X107214759Y-167146510D01*
X107260941Y-167184411D01*
X107414687Y-167266589D01*
X107581510Y-167317195D01*
X107711523Y-167330000D01*
X107711531Y-167330000D01*
X107755000Y-167334281D01*
X107798469Y-167330000D01*
X116288422Y-167330000D01*
X120875001Y-171916580D01*
X120875000Y-173743954D01*
X120780506Y-173794463D01*
X120683815Y-173873815D01*
X120604463Y-173970506D01*
X120545498Y-174080820D01*
X120509188Y-174200518D01*
X120496928Y-174325000D01*
X120496928Y-175575000D01*
X120509188Y-175699482D01*
X120545498Y-175819180D01*
X120604463Y-175929494D01*
X120683815Y-176026185D01*
X120780506Y-176105537D01*
X120890820Y-176164502D01*
X121010518Y-176200812D01*
X121135000Y-176213072D01*
X122385000Y-176213072D01*
X122509482Y-176200812D01*
X122629180Y-176164502D01*
X122739494Y-176105537D01*
X122836185Y-176026185D01*
X122915537Y-175929494D01*
X122974502Y-175819180D01*
X123010812Y-175699482D01*
X123023072Y-175575000D01*
X123023072Y-174325000D01*
X123036928Y-174325000D01*
X123036928Y-175575000D01*
X123049188Y-175699482D01*
X123085498Y-175819180D01*
X123144463Y-175929494D01*
X123223815Y-176026185D01*
X123320506Y-176105537D01*
X123430820Y-176164502D01*
X123550518Y-176200812D01*
X123675000Y-176213072D01*
X124925000Y-176213072D01*
X125049482Y-176200812D01*
X125169180Y-176164502D01*
X125279494Y-176105537D01*
X125376185Y-176026185D01*
X125455537Y-175929494D01*
X125514502Y-175819180D01*
X125550812Y-175699482D01*
X125563072Y-175575000D01*
X125563072Y-174325000D01*
X125576928Y-174325000D01*
X125576928Y-175575000D01*
X125589188Y-175699482D01*
X125625498Y-175819180D01*
X125684463Y-175929494D01*
X125763815Y-176026185D01*
X125860506Y-176105537D01*
X125970820Y-176164502D01*
X126090518Y-176200812D01*
X126215000Y-176213072D01*
X127465000Y-176213072D01*
X127589482Y-176200812D01*
X127709180Y-176164502D01*
X127819494Y-176105537D01*
X127916185Y-176026185D01*
X127995537Y-175929494D01*
X128054502Y-175819180D01*
X128090812Y-175699482D01*
X128103072Y-175575000D01*
X128103072Y-174325000D01*
X128116928Y-174325000D01*
X128116928Y-175575000D01*
X128129188Y-175699482D01*
X128165498Y-175819180D01*
X128224463Y-175929494D01*
X128303815Y-176026185D01*
X128400506Y-176105537D01*
X128510820Y-176164502D01*
X128630518Y-176200812D01*
X128755000Y-176213072D01*
X130005000Y-176213072D01*
X130129482Y-176200812D01*
X130249180Y-176164502D01*
X130359494Y-176105537D01*
X130456185Y-176026185D01*
X130535537Y-175929494D01*
X130594502Y-175819180D01*
X130630812Y-175699482D01*
X130643072Y-175575000D01*
X130643072Y-174325000D01*
X130656928Y-174325000D01*
X130656928Y-175575000D01*
X130669188Y-175699482D01*
X130705498Y-175819180D01*
X130764463Y-175929494D01*
X130843815Y-176026185D01*
X130940506Y-176105537D01*
X131050820Y-176164502D01*
X131170518Y-176200812D01*
X131295000Y-176213072D01*
X132545000Y-176213072D01*
X132669482Y-176200812D01*
X132789180Y-176164502D01*
X132899494Y-176105537D01*
X132996185Y-176026185D01*
X133075537Y-175929494D01*
X133134502Y-175819180D01*
X133170812Y-175699482D01*
X133183072Y-175575000D01*
X133183072Y-174325000D01*
X133196928Y-174325000D01*
X133196928Y-175575000D01*
X133209188Y-175699482D01*
X133245498Y-175819180D01*
X133304463Y-175929494D01*
X133383815Y-176026185D01*
X133480506Y-176105537D01*
X133590820Y-176164502D01*
X133710518Y-176200812D01*
X133835000Y-176213072D01*
X135085000Y-176213072D01*
X135209482Y-176200812D01*
X135329180Y-176164502D01*
X135439494Y-176105537D01*
X135536185Y-176026185D01*
X135615537Y-175929494D01*
X135674502Y-175819180D01*
X135710812Y-175699482D01*
X135723072Y-175575000D01*
X135723072Y-174325000D01*
X135736928Y-174325000D01*
X135736928Y-175575000D01*
X135749188Y-175699482D01*
X135785498Y-175819180D01*
X135844463Y-175929494D01*
X135923815Y-176026185D01*
X136020506Y-176105537D01*
X136130820Y-176164502D01*
X136250518Y-176200812D01*
X136375000Y-176213072D01*
X137625000Y-176213072D01*
X137749482Y-176200812D01*
X137869180Y-176164502D01*
X137979494Y-176105537D01*
X138076185Y-176026185D01*
X138155537Y-175929494D01*
X138214502Y-175819180D01*
X138250812Y-175699482D01*
X138263072Y-175575000D01*
X138263072Y-174325000D01*
X138250812Y-174200518D01*
X138214502Y-174080820D01*
X138155537Y-173970506D01*
X138076185Y-173873815D01*
X137979494Y-173794463D01*
X137885000Y-173743954D01*
X137885000Y-167686578D01*
X188245051Y-117326528D01*
X188278817Y-117298817D01*
X188309371Y-117261588D01*
X188389411Y-117164059D01*
X188389412Y-117164058D01*
X188471589Y-117010313D01*
X188522195Y-116843490D01*
X188535000Y-116713477D01*
X188535000Y-116713469D01*
X188539281Y-116670000D01*
X188535000Y-116626531D01*
X188535000Y-73253469D01*
X188539281Y-73210000D01*
X188535000Y-73166531D01*
X188535000Y-73166523D01*
X188522195Y-73036510D01*
X188471589Y-72869687D01*
X188389411Y-72715941D01*
X188278817Y-72581183D01*
X188245049Y-72553470D01*
X179025000Y-63333422D01*
X179025000Y-61588072D01*
X179140000Y-61588072D01*
X179264482Y-61575812D01*
X179384180Y-61539502D01*
X179494494Y-61480537D01*
X179591185Y-61401185D01*
X179670537Y-61304494D01*
X179684665Y-61278063D01*
X179865537Y-61398918D01*
X180163088Y-61522168D01*
X180478967Y-61585000D01*
X180801033Y-61585000D01*
X181116912Y-61522168D01*
X181414463Y-61398918D01*
X181682252Y-61219987D01*
X181890000Y-61012239D01*
X182097748Y-61219987D01*
X182365537Y-61398918D01*
X182663088Y-61522168D01*
X182978967Y-61585000D01*
X183301033Y-61585000D01*
X183486525Y-61548103D01*
X190055001Y-68116580D01*
X190055000Y-117993421D01*
X138944952Y-169103470D01*
X138911184Y-169131183D01*
X138883471Y-169164951D01*
X138883468Y-169164954D01*
X138800590Y-169265941D01*
X138718412Y-169419687D01*
X138667805Y-169586510D01*
X138650719Y-169760000D01*
X138655001Y-169803479D01*
X138655000Y-173743954D01*
X138560506Y-173794463D01*
X138463815Y-173873815D01*
X138384463Y-173970506D01*
X138325498Y-174080820D01*
X138289188Y-174200518D01*
X138276928Y-174325000D01*
X138276928Y-175575000D01*
X138289188Y-175699482D01*
X138325498Y-175819180D01*
X138384463Y-175929494D01*
X138463815Y-176026185D01*
X138560506Y-176105537D01*
X138670820Y-176164502D01*
X138790518Y-176200812D01*
X138915000Y-176213072D01*
X140165000Y-176213072D01*
X140289482Y-176200812D01*
X140409180Y-176164502D01*
X140519494Y-176105537D01*
X140616185Y-176026185D01*
X140695537Y-175929494D01*
X140754502Y-175819180D01*
X140790812Y-175699482D01*
X140803072Y-175575000D01*
X140803072Y-174325000D01*
X140816928Y-174325000D01*
X140816928Y-175575000D01*
X140829188Y-175699482D01*
X140865498Y-175819180D01*
X140924463Y-175929494D01*
X141003815Y-176026185D01*
X141100506Y-176105537D01*
X141210820Y-176164502D01*
X141330518Y-176200812D01*
X141455000Y-176213072D01*
X142705000Y-176213072D01*
X142829482Y-176200812D01*
X142949180Y-176164502D01*
X143059494Y-176105537D01*
X143156185Y-176026185D01*
X143235537Y-175929494D01*
X143294502Y-175819180D01*
X143330812Y-175699482D01*
X143343072Y-175575000D01*
X143343072Y-174998506D01*
X143356928Y-174984650D01*
X143356928Y-175575000D01*
X143369188Y-175699482D01*
X143405498Y-175819180D01*
X143464463Y-175929494D01*
X143543815Y-176026185D01*
X143640506Y-176105537D01*
X143750820Y-176164502D01*
X143870518Y-176200812D01*
X143995000Y-176213072D01*
X145245000Y-176213072D01*
X145369482Y-176200812D01*
X145489180Y-176164502D01*
X145599494Y-176105537D01*
X145696185Y-176026185D01*
X145775537Y-175929494D01*
X145834502Y-175819180D01*
X145870812Y-175699482D01*
X145883072Y-175575000D01*
X145883072Y-174958506D01*
X145896928Y-174944650D01*
X145896928Y-175575000D01*
X145909188Y-175699482D01*
X145945498Y-175819180D01*
X146004463Y-175929494D01*
X146083815Y-176026185D01*
X146180506Y-176105537D01*
X146290820Y-176164502D01*
X146410518Y-176200812D01*
X146535000Y-176213072D01*
X147785000Y-176213072D01*
X147909482Y-176200812D01*
X148029180Y-176164502D01*
X148139494Y-176105537D01*
X148236185Y-176026185D01*
X148315537Y-175929494D01*
X148374502Y-175819180D01*
X148410812Y-175699482D01*
X148423072Y-175575000D01*
X148423072Y-175218506D01*
X148436928Y-175204650D01*
X148436928Y-175575000D01*
X148449188Y-175699482D01*
X148485498Y-175819180D01*
X148544463Y-175929494D01*
X148623815Y-176026185D01*
X148720506Y-176105537D01*
X148830820Y-176164502D01*
X148950518Y-176200812D01*
X149075000Y-176213072D01*
X150325000Y-176213072D01*
X150449482Y-176200812D01*
X150569180Y-176164502D01*
X150679494Y-176105537D01*
X150776185Y-176026185D01*
X150855537Y-175929494D01*
X150914502Y-175819180D01*
X150950812Y-175699482D01*
X150963072Y-175575000D01*
X150963072Y-175078506D01*
X150976928Y-175064650D01*
X150976928Y-175575000D01*
X150989188Y-175699482D01*
X151025498Y-175819180D01*
X151084463Y-175929494D01*
X151163815Y-176026185D01*
X151260506Y-176105537D01*
X151370820Y-176164502D01*
X151490518Y-176200812D01*
X151615000Y-176213072D01*
X152865000Y-176213072D01*
X152989482Y-176200812D01*
X153109180Y-176164502D01*
X153219494Y-176105537D01*
X153316185Y-176026185D01*
X153395537Y-175929494D01*
X153454502Y-175819180D01*
X153490812Y-175699482D01*
X153503072Y-175575000D01*
X153503072Y-175038506D01*
X153516928Y-175024650D01*
X153516928Y-175575000D01*
X153529188Y-175699482D01*
X153565498Y-175819180D01*
X153624463Y-175929494D01*
X153703815Y-176026185D01*
X153800506Y-176105537D01*
X153910820Y-176164502D01*
X154030518Y-176200812D01*
X154155000Y-176213072D01*
X155405000Y-176213072D01*
X155529482Y-176200812D01*
X155649180Y-176164502D01*
X155759494Y-176105537D01*
X155856185Y-176026185D01*
X155935537Y-175929494D01*
X155994502Y-175819180D01*
X156030812Y-175699482D01*
X156043072Y-175575000D01*
X156043072Y-175298506D01*
X170943517Y-160398061D01*
X177505000Y-160398061D01*
X177505000Y-160601939D01*
X177544774Y-160801898D01*
X177622795Y-160990256D01*
X177736063Y-161159774D01*
X177880226Y-161303937D01*
X178049744Y-161417205D01*
X178238102Y-161495226D01*
X178438061Y-161535000D01*
X178641939Y-161535000D01*
X178841898Y-161495226D01*
X179030256Y-161417205D01*
X179199774Y-161303937D01*
X179343937Y-161159774D01*
X179457205Y-160990256D01*
X179535226Y-160801898D01*
X179575000Y-160601939D01*
X179575000Y-160592138D01*
X184162773Y-154434863D01*
X184350256Y-154357205D01*
X184519774Y-154243937D01*
X184663937Y-154099774D01*
X184777205Y-153930256D01*
X184855226Y-153741898D01*
X184895000Y-153541939D01*
X184895000Y-153338061D01*
X184855226Y-153138102D01*
X184777205Y-152949744D01*
X184663937Y-152780226D01*
X184519774Y-152636063D01*
X184350256Y-152522795D01*
X184161898Y-152444774D01*
X183961939Y-152405000D01*
X183758061Y-152405000D01*
X183558102Y-152444774D01*
X183369744Y-152522795D01*
X183200226Y-152636063D01*
X183056063Y-152780226D01*
X182942795Y-152949744D01*
X182864774Y-153138102D01*
X182844049Y-153242296D01*
X178151010Y-159540849D01*
X178049744Y-159582795D01*
X177880226Y-159696063D01*
X177736063Y-159840226D01*
X177622795Y-160009744D01*
X177544774Y-160198102D01*
X177505000Y-160398061D01*
X170943517Y-160398061D01*
X209635051Y-121706528D01*
X209668817Y-121678817D01*
X209779411Y-121544059D01*
X209861589Y-121390313D01*
X209912195Y-121223490D01*
X209925000Y-121093477D01*
X209925000Y-121093467D01*
X209929281Y-121050001D01*
X209925000Y-121006534D01*
X209925000Y-101716578D01*
X219175051Y-92466528D01*
X219208817Y-92438817D01*
X219319411Y-92304059D01*
X219401589Y-92150313D01*
X219452195Y-91983490D01*
X219465000Y-91853477D01*
X219465000Y-91853467D01*
X219469281Y-91810001D01*
X219465000Y-91766535D01*
X219465000Y-79198818D01*
X219470535Y-79195120D01*
X219665120Y-79000535D01*
X219818005Y-78771727D01*
X219923314Y-78517490D01*
X219977000Y-78247592D01*
X219977000Y-77972408D01*
X219923314Y-77702510D01*
X219818005Y-77448273D01*
X219665120Y-77219465D01*
X219470535Y-77024880D01*
X219241727Y-76871995D01*
X218987490Y-76766686D01*
X218717592Y-76713000D01*
X218442408Y-76713000D01*
X218172510Y-76766686D01*
X217918273Y-76871995D01*
X217689465Y-77024880D01*
X217494880Y-77219465D01*
X217341995Y-77448273D01*
X217310000Y-77525515D01*
X217278005Y-77448273D01*
X217125120Y-77219465D01*
X216930535Y-77024880D01*
X216701727Y-76871995D01*
X216447490Y-76766686D01*
X216177592Y-76713000D01*
X215902408Y-76713000D01*
X215632510Y-76766686D01*
X215378273Y-76871995D01*
X215149465Y-77024880D01*
X214954880Y-77219465D01*
X214801995Y-77448273D01*
X214770000Y-77525515D01*
X214738005Y-77448273D01*
X214585120Y-77219465D01*
X214390535Y-77024880D01*
X214161727Y-76871995D01*
X213907490Y-76766686D01*
X213637592Y-76713000D01*
X213362408Y-76713000D01*
X213092510Y-76766686D01*
X212838273Y-76871995D01*
X212609465Y-77024880D01*
X212414880Y-77219465D01*
X212261995Y-77448273D01*
X212230000Y-77525515D01*
X212198005Y-77448273D01*
X212045120Y-77219465D01*
X211850535Y-77024880D01*
X211621727Y-76871995D01*
X211367490Y-76766686D01*
X211097592Y-76713000D01*
X210822408Y-76713000D01*
X210552510Y-76766686D01*
X210298273Y-76871995D01*
X210069465Y-77024880D01*
X209874880Y-77219465D01*
X209721995Y-77448273D01*
X209690000Y-77525515D01*
X209658005Y-77448273D01*
X209505120Y-77219465D01*
X209310535Y-77024880D01*
X209081727Y-76871995D01*
X208827490Y-76766686D01*
X208557592Y-76713000D01*
X208282408Y-76713000D01*
X208012510Y-76766686D01*
X207758273Y-76871995D01*
X207529465Y-77024880D01*
X207334880Y-77219465D01*
X207181995Y-77448273D01*
X207150000Y-77525515D01*
X207118005Y-77448273D01*
X206965120Y-77219465D01*
X206770535Y-77024880D01*
X206541727Y-76871995D01*
X206287490Y-76766686D01*
X206017592Y-76713000D01*
X205742408Y-76713000D01*
X205472510Y-76766686D01*
X205218273Y-76871995D01*
X204989465Y-77024880D01*
X204794880Y-77219465D01*
X204641995Y-77448273D01*
X204612308Y-77519943D01*
X204607636Y-77506977D01*
X204545656Y-77391020D01*
X204305565Y-77324040D01*
X203519605Y-78110000D01*
X204305565Y-78895960D01*
X204545656Y-78828980D01*
X204609485Y-78693240D01*
X204641995Y-78771727D01*
X204695001Y-78851056D01*
X204695000Y-91443421D01*
X195444952Y-100693470D01*
X195411184Y-100721183D01*
X195383471Y-100754951D01*
X195383468Y-100754954D01*
X195300590Y-100855941D01*
X195218412Y-101009687D01*
X195167805Y-101176510D01*
X195150719Y-101350000D01*
X195155001Y-101393479D01*
X195155000Y-120683421D01*
X142151494Y-173686928D01*
X141455000Y-173686928D01*
X141330518Y-173699188D01*
X141210820Y-173735498D01*
X141100506Y-173794463D01*
X141003815Y-173873815D01*
X140924463Y-173970506D01*
X140865498Y-174080820D01*
X140829188Y-174200518D01*
X140816928Y-174325000D01*
X140803072Y-174325000D01*
X140790812Y-174200518D01*
X140754502Y-174080820D01*
X140695537Y-173970506D01*
X140616185Y-173873815D01*
X140519494Y-173794463D01*
X140425000Y-173743954D01*
X140425000Y-170126578D01*
X179613517Y-130938061D01*
X181025000Y-130938061D01*
X181025000Y-131141939D01*
X181064774Y-131341898D01*
X181142795Y-131530256D01*
X181256063Y-131699774D01*
X181400226Y-131843937D01*
X181569744Y-131957205D01*
X181758102Y-132035226D01*
X181958061Y-132075000D01*
X182161939Y-132075000D01*
X182361898Y-132035226D01*
X182550256Y-131957205D01*
X182719774Y-131843937D01*
X182863937Y-131699774D01*
X182977205Y-131530256D01*
X183055226Y-131341898D01*
X183066535Y-131285043D01*
X193295044Y-121056535D01*
X193351898Y-121045226D01*
X193540256Y-120967205D01*
X193709774Y-120853937D01*
X193853937Y-120709774D01*
X193967205Y-120540256D01*
X194045226Y-120351898D01*
X194085000Y-120151939D01*
X194085000Y-119948061D01*
X194045226Y-119748102D01*
X193967205Y-119559744D01*
X193853937Y-119390226D01*
X193709774Y-119246063D01*
X193540256Y-119132795D01*
X193351898Y-119054774D01*
X193151939Y-119015000D01*
X192948061Y-119015000D01*
X192748102Y-119054774D01*
X192559744Y-119132795D01*
X192390226Y-119246063D01*
X192246063Y-119390226D01*
X192132795Y-119559744D01*
X192054774Y-119748102D01*
X192043465Y-119804956D01*
X181814957Y-130033465D01*
X181758102Y-130044774D01*
X181569744Y-130122795D01*
X181400226Y-130236063D01*
X181256063Y-130380226D01*
X181142795Y-130549744D01*
X181064774Y-130738102D01*
X181025000Y-130938061D01*
X179613517Y-130938061D01*
X191535051Y-119016528D01*
X191568817Y-118988817D01*
X191679411Y-118854059D01*
X191761589Y-118700313D01*
X191812195Y-118533490D01*
X191825000Y-118403477D01*
X191825000Y-118403467D01*
X191829281Y-118360001D01*
X191825000Y-118316535D01*
X191825000Y-77972408D01*
X199403000Y-77972408D01*
X199403000Y-78247592D01*
X199456686Y-78517490D01*
X199561995Y-78771727D01*
X199714880Y-79000535D01*
X199909465Y-79195120D01*
X200138273Y-79348005D01*
X200392510Y-79453314D01*
X200662408Y-79507000D01*
X200937592Y-79507000D01*
X201207490Y-79453314D01*
X201461727Y-79348005D01*
X201690535Y-79195120D01*
X201810090Y-79075565D01*
X202554040Y-79075565D01*
X202621020Y-79315656D01*
X202870048Y-79432756D01*
X203137135Y-79499023D01*
X203412017Y-79511910D01*
X203684133Y-79470922D01*
X203943023Y-79377636D01*
X204058980Y-79315656D01*
X204125960Y-79075565D01*
X203340000Y-78289605D01*
X202554040Y-79075565D01*
X201810090Y-79075565D01*
X201885120Y-79000535D01*
X202038005Y-78771727D01*
X202067692Y-78700057D01*
X202072364Y-78713023D01*
X202134344Y-78828980D01*
X202374435Y-78895960D01*
X203160395Y-78110000D01*
X202374435Y-77324040D01*
X202134344Y-77391020D01*
X202070515Y-77526760D01*
X202038005Y-77448273D01*
X201885120Y-77219465D01*
X201810090Y-77144435D01*
X202554040Y-77144435D01*
X203340000Y-77930395D01*
X204125960Y-77144435D01*
X204058980Y-76904344D01*
X203809952Y-76787244D01*
X203542865Y-76720977D01*
X203267983Y-76708090D01*
X202995867Y-76749078D01*
X202736977Y-76842364D01*
X202621020Y-76904344D01*
X202554040Y-77144435D01*
X201810090Y-77144435D01*
X201690535Y-77024880D01*
X201461727Y-76871995D01*
X201207490Y-76766686D01*
X200937592Y-76713000D01*
X200662408Y-76713000D01*
X200392510Y-76766686D01*
X200138273Y-76871995D01*
X199909465Y-77024880D01*
X199714880Y-77219465D01*
X199561995Y-77448273D01*
X199456686Y-77702510D01*
X199403000Y-77972408D01*
X191825000Y-77972408D01*
X191825000Y-67793469D01*
X191829281Y-67750000D01*
X191825000Y-67706531D01*
X191825000Y-67706523D01*
X191812195Y-67576510D01*
X191761589Y-67409687D01*
X191679411Y-67255941D01*
X191568817Y-67121183D01*
X191535049Y-67093470D01*
X184738103Y-60296525D01*
X184775000Y-60111033D01*
X184775000Y-59788967D01*
X184712168Y-59473088D01*
X184588918Y-59175537D01*
X184409987Y-58907748D01*
X184182252Y-58680013D01*
X183914463Y-58501082D01*
X183616912Y-58377832D01*
X183301033Y-58315000D01*
X182978967Y-58315000D01*
X182663088Y-58377832D01*
X182365537Y-58501082D01*
X182097748Y-58680013D01*
X181890000Y-58887761D01*
X181682252Y-58680013D01*
X181525000Y-58574941D01*
X181525000Y-50850000D01*
X184601928Y-50850000D01*
X184601928Y-54050000D01*
X184614188Y-54174482D01*
X184650498Y-54294180D01*
X184709463Y-54404494D01*
X184788815Y-54501185D01*
X184885506Y-54580537D01*
X184995820Y-54639502D01*
X185115518Y-54675812D01*
X185240000Y-54688072D01*
X187240000Y-54688072D01*
X187364482Y-54675812D01*
X187484180Y-54639502D01*
X187594494Y-54580537D01*
X187691185Y-54501185D01*
X187770537Y-54404494D01*
X187829502Y-54294180D01*
X187865812Y-54174482D01*
X187878072Y-54050000D01*
X187878072Y-50850000D01*
X187865812Y-50725518D01*
X187829502Y-50605820D01*
X187770537Y-50495506D01*
X187691185Y-50398815D01*
X187594494Y-50319463D01*
X187484180Y-50260498D01*
X187364482Y-50224188D01*
X187240000Y-50211928D01*
X185240000Y-50211928D01*
X185115518Y-50224188D01*
X184995820Y-50260498D01*
X184885506Y-50319463D01*
X184788815Y-50398815D01*
X184709463Y-50495506D01*
X184650498Y-50605820D01*
X184614188Y-50725518D01*
X184601928Y-50850000D01*
X181525000Y-50850000D01*
X181525000Y-48316578D01*
X182793475Y-47048104D01*
X182978967Y-47085000D01*
X183301033Y-47085000D01*
X183616912Y-47022168D01*
X183914463Y-46898918D01*
X184182252Y-46719987D01*
X184409987Y-46492252D01*
X184588918Y-46224463D01*
X184712168Y-45926912D01*
X184775000Y-45611033D01*
X184775000Y-45288967D01*
X184712168Y-44973088D01*
X184588918Y-44675537D01*
X184409987Y-44407748D01*
X184182252Y-44180013D01*
X183914463Y-44001082D01*
X183911851Y-44000000D01*
X196136807Y-44000000D01*
X196140000Y-44032419D01*
X196140001Y-73167571D01*
X196136807Y-73200000D01*
X196149550Y-73329383D01*
X196187290Y-73453793D01*
X196248575Y-73568450D01*
X196331052Y-73668948D01*
X196431550Y-73751425D01*
X196546207Y-73812710D01*
X196670617Y-73850450D01*
X196767581Y-73860000D01*
X196800000Y-73863193D01*
X196832419Y-73860000D01*
X220167581Y-73860000D01*
X220200000Y-73863193D01*
X220232419Y-73860000D01*
X220329383Y-73850450D01*
X220453793Y-73812710D01*
X220568450Y-73751425D01*
X220668948Y-73668948D01*
X220751425Y-73568450D01*
X220812710Y-73453793D01*
X220850450Y-73329383D01*
X220863193Y-73200000D01*
X220860000Y-73167581D01*
X220860000Y-44032419D01*
X220863193Y-44000000D01*
X220850450Y-43870617D01*
X220812710Y-43746207D01*
X220751425Y-43631550D01*
X220668948Y-43531052D01*
X220568450Y-43448575D01*
X220453793Y-43387290D01*
X220329383Y-43349550D01*
X220232419Y-43340000D01*
X220200000Y-43336807D01*
X220167581Y-43340000D01*
X196832419Y-43340000D01*
X196800000Y-43336807D01*
X196767581Y-43340000D01*
X196670617Y-43349550D01*
X196546207Y-43387290D01*
X196431550Y-43448575D01*
X196331052Y-43531052D01*
X196248575Y-43631550D01*
X196187290Y-43746207D01*
X196149550Y-43870617D01*
X196136807Y-44000000D01*
X183911851Y-44000000D01*
X183616912Y-43877832D01*
X183301033Y-43815000D01*
X182978967Y-43815000D01*
X182663088Y-43877832D01*
X182365537Y-44001082D01*
X182097748Y-44180013D01*
X181870013Y-44407748D01*
X181691082Y-44675537D01*
X181567832Y-44973088D01*
X181505000Y-45288967D01*
X181505000Y-45611033D01*
X181541896Y-45796525D01*
X180044951Y-47293471D01*
X180011184Y-47321183D01*
X179983471Y-47354951D01*
X179983468Y-47354954D01*
X179900590Y-47455941D01*
X179818412Y-47609687D01*
X179767805Y-47776510D01*
X179750719Y-47950000D01*
X179755001Y-47993479D01*
X179755000Y-58574940D01*
X179684665Y-58621937D01*
X179670537Y-58595506D01*
X179591185Y-58498815D01*
X179494494Y-58419463D01*
X179384180Y-58360498D01*
X179264482Y-58324188D01*
X179140000Y-58311928D01*
X177140000Y-58311928D01*
X177015518Y-58324188D01*
X176895820Y-58360498D01*
X176785506Y-58419463D01*
X176688815Y-58498815D01*
X176609463Y-58595506D01*
X176550498Y-58705820D01*
X176514188Y-58825518D01*
X176501928Y-58950000D01*
X176501928Y-60950000D01*
X176514188Y-61074482D01*
X176550498Y-61194180D01*
X176609463Y-61304494D01*
X176688815Y-61401185D01*
X176785506Y-61480537D01*
X176895820Y-61539502D01*
X177015518Y-61575812D01*
X177140000Y-61588072D01*
X177255001Y-61588072D01*
X177255000Y-63656531D01*
X177250719Y-63700000D01*
X177255000Y-63743469D01*
X177255000Y-63743476D01*
X177267805Y-63873489D01*
X177318411Y-64040312D01*
X177400589Y-64194058D01*
X177511183Y-64328817D01*
X177544956Y-64356534D01*
X186765001Y-73576580D01*
X186765000Y-116303421D01*
X136404952Y-166663470D01*
X136371184Y-166691183D01*
X136343471Y-166724951D01*
X136343468Y-166724954D01*
X136260590Y-166825941D01*
X136178412Y-166979687D01*
X136127805Y-167146510D01*
X136110719Y-167320000D01*
X136115001Y-167363479D01*
X136115000Y-173743954D01*
X136020506Y-173794463D01*
X135923815Y-173873815D01*
X135844463Y-173970506D01*
X135785498Y-174080820D01*
X135749188Y-174200518D01*
X135736928Y-174325000D01*
X135723072Y-174325000D01*
X135710812Y-174200518D01*
X135674502Y-174080820D01*
X135615537Y-173970506D01*
X135536185Y-173873815D01*
X135439494Y-173794463D01*
X135345000Y-173743954D01*
X135345000Y-166766578D01*
X167855051Y-134256528D01*
X167888817Y-134228817D01*
X167999411Y-134094059D01*
X168081589Y-133940313D01*
X168132195Y-133773490D01*
X168145000Y-133643477D01*
X168145000Y-133643469D01*
X168149281Y-133600000D01*
X168145000Y-133556531D01*
X168145000Y-127988061D01*
X172405000Y-127988061D01*
X172405000Y-128191939D01*
X172444774Y-128391898D01*
X172522795Y-128580256D01*
X172636063Y-128749774D01*
X172780226Y-128893937D01*
X172949744Y-129007205D01*
X173138102Y-129085226D01*
X173338061Y-129125000D01*
X173541939Y-129125000D01*
X173741898Y-129085226D01*
X173930256Y-129007205D01*
X174099774Y-128893937D01*
X174243937Y-128749774D01*
X174357205Y-128580256D01*
X174435226Y-128391898D01*
X174446535Y-128335043D01*
X186245051Y-116536528D01*
X186278817Y-116508817D01*
X186389411Y-116374059D01*
X186446896Y-116266511D01*
X186471589Y-116220314D01*
X186522195Y-116053490D01*
X186526137Y-116013468D01*
X186535000Y-115923477D01*
X186535000Y-115923469D01*
X186539281Y-115880000D01*
X186535000Y-115836531D01*
X186535000Y-109223556D01*
X186537205Y-109220256D01*
X186615226Y-109031898D01*
X186655000Y-108831939D01*
X186655000Y-108628061D01*
X186615226Y-108428102D01*
X186537205Y-108239744D01*
X186423937Y-108070226D01*
X186279774Y-107926063D01*
X186110256Y-107812795D01*
X185921898Y-107734774D01*
X185721939Y-107695000D01*
X185518061Y-107695000D01*
X185318102Y-107734774D01*
X185129744Y-107812795D01*
X184960226Y-107926063D01*
X184816063Y-108070226D01*
X184702795Y-108239744D01*
X184624774Y-108428102D01*
X184585000Y-108628061D01*
X184585000Y-108831939D01*
X184624774Y-109031898D01*
X184702795Y-109220256D01*
X184765001Y-109313354D01*
X184765000Y-115513421D01*
X173194957Y-127083465D01*
X173138102Y-127094774D01*
X172949744Y-127172795D01*
X172780226Y-127286063D01*
X172636063Y-127430226D01*
X172522795Y-127599744D01*
X172444774Y-127788102D01*
X172405000Y-127988061D01*
X168145000Y-127988061D01*
X168145000Y-50850000D01*
X173401928Y-50850000D01*
X173401928Y-54050000D01*
X173414188Y-54174482D01*
X173450498Y-54294180D01*
X173509463Y-54404494D01*
X173588815Y-54501185D01*
X173685506Y-54580537D01*
X173795820Y-54639502D01*
X173915518Y-54675812D01*
X174040000Y-54688072D01*
X176040000Y-54688072D01*
X176164482Y-54675812D01*
X176284180Y-54639502D01*
X176394494Y-54580537D01*
X176491185Y-54501185D01*
X176570537Y-54404494D01*
X176629502Y-54294180D01*
X176665812Y-54174482D01*
X176678072Y-54050000D01*
X176678072Y-50850000D01*
X176665812Y-50725518D01*
X176629502Y-50605820D01*
X176570537Y-50495506D01*
X176491185Y-50398815D01*
X176394494Y-50319463D01*
X176284180Y-50260498D01*
X176164482Y-50224188D01*
X176040000Y-50211928D01*
X174040000Y-50211928D01*
X173915518Y-50224188D01*
X173795820Y-50260498D01*
X173685506Y-50319463D01*
X173588815Y-50398815D01*
X173509463Y-50495506D01*
X173450498Y-50605820D01*
X173414188Y-50725518D01*
X173401928Y-50850000D01*
X168145000Y-50850000D01*
X168145000Y-50726578D01*
X172536579Y-46335000D01*
X176764941Y-46335000D01*
X176870013Y-46492252D01*
X177097748Y-46719987D01*
X177365537Y-46898918D01*
X177663088Y-47022168D01*
X177978967Y-47085000D01*
X178301033Y-47085000D01*
X178616912Y-47022168D01*
X178914463Y-46898918D01*
X179182252Y-46719987D01*
X179409987Y-46492252D01*
X179588918Y-46224463D01*
X179712168Y-45926912D01*
X179775000Y-45611033D01*
X179775000Y-45288967D01*
X179712168Y-44973088D01*
X179588918Y-44675537D01*
X179409987Y-44407748D01*
X179182252Y-44180013D01*
X178914463Y-44001082D01*
X178616912Y-43877832D01*
X178301033Y-43815000D01*
X177978967Y-43815000D01*
X177663088Y-43877832D01*
X177365537Y-44001082D01*
X177097748Y-44180013D01*
X176870013Y-44407748D01*
X176764941Y-44565000D01*
X172213469Y-44565000D01*
X172170000Y-44560719D01*
X172126531Y-44565000D01*
X172126523Y-44565000D01*
X171996510Y-44577805D01*
X171829686Y-44628411D01*
X171675941Y-44710589D01*
X171574953Y-44793468D01*
X171574951Y-44793470D01*
X171541183Y-44821183D01*
X171513470Y-44854951D01*
X166664952Y-49703470D01*
X166631184Y-49731183D01*
X166603471Y-49764951D01*
X166603468Y-49764954D01*
X166520590Y-49865941D01*
X166438412Y-50019687D01*
X166387805Y-50186510D01*
X166370719Y-50360000D01*
X166375001Y-50403479D01*
X166375000Y-133233421D01*
X133864952Y-165743470D01*
X133831184Y-165771183D01*
X133803471Y-165804951D01*
X133803468Y-165804954D01*
X133720590Y-165905941D01*
X133638412Y-166059687D01*
X133587805Y-166226510D01*
X133570719Y-166400000D01*
X133575001Y-166443479D01*
X133575000Y-173743954D01*
X133480506Y-173794463D01*
X133383815Y-173873815D01*
X133304463Y-173970506D01*
X133245498Y-174080820D01*
X133209188Y-174200518D01*
X133196928Y-174325000D01*
X133183072Y-174325000D01*
X133170812Y-174200518D01*
X133134502Y-174080820D01*
X133075537Y-173970506D01*
X132996185Y-173873815D01*
X132899494Y-173794463D01*
X132805000Y-173743954D01*
X132805000Y-165426578D01*
X165425049Y-132806530D01*
X165458817Y-132778817D01*
X165569411Y-132644059D01*
X165651589Y-132490313D01*
X165702195Y-132323490D01*
X165715000Y-132193477D01*
X165715000Y-132193467D01*
X165719281Y-132150001D01*
X165715000Y-132106535D01*
X165715000Y-58703465D01*
X165719281Y-58659999D01*
X165715000Y-58616533D01*
X165715000Y-58616523D01*
X165702195Y-58486510D01*
X165651589Y-58319687D01*
X165569411Y-58165941D01*
X165523501Y-58110000D01*
X165486532Y-58064953D01*
X165486530Y-58064951D01*
X165458817Y-58031183D01*
X165425050Y-58003471D01*
X163486534Y-56064956D01*
X163458817Y-56031183D01*
X163324059Y-55920589D01*
X163277031Y-55895452D01*
X162726534Y-55344956D01*
X162698817Y-55311183D01*
X162564059Y-55200589D01*
X162410313Y-55118411D01*
X162243490Y-55067805D01*
X162113477Y-55055000D01*
X162113469Y-55055000D01*
X162070000Y-55050719D01*
X162026531Y-55055000D01*
X155028454Y-55055000D01*
X154980256Y-55022795D01*
X154791898Y-54944774D01*
X154591939Y-54905000D01*
X154388061Y-54905000D01*
X154188102Y-54944774D01*
X153999744Y-55022795D01*
X153830226Y-55136063D01*
X153686063Y-55280226D01*
X153572795Y-55449744D01*
X153494774Y-55638102D01*
X153455000Y-55838061D01*
X153455000Y-56041939D01*
X153494774Y-56241898D01*
X153572795Y-56430256D01*
X153686063Y-56599774D01*
X153830226Y-56743937D01*
X153999744Y-56857205D01*
X154188102Y-56935226D01*
X154388061Y-56975000D01*
X154591939Y-56975000D01*
X154791898Y-56935226D01*
X154980256Y-56857205D01*
X155028454Y-56825000D01*
X161703422Y-56825000D01*
X162133470Y-57255049D01*
X162161183Y-57288817D01*
X162194951Y-57316530D01*
X162194953Y-57316532D01*
X162243861Y-57356670D01*
X162295941Y-57399411D01*
X162342970Y-57424548D01*
X163945000Y-59026579D01*
X163945001Y-131783420D01*
X131324956Y-164403466D01*
X131291183Y-164431183D01*
X131180589Y-164565942D01*
X131098411Y-164719688D01*
X131047805Y-164886511D01*
X131035000Y-165016524D01*
X131035000Y-165016531D01*
X131030719Y-165060000D01*
X131035000Y-165103469D01*
X131035001Y-173743954D01*
X130940506Y-173794463D01*
X130843815Y-173873815D01*
X130764463Y-173970506D01*
X130705498Y-174080820D01*
X130669188Y-174200518D01*
X130656928Y-174325000D01*
X130643072Y-174325000D01*
X130630812Y-174200518D01*
X130594502Y-174080820D01*
X130535537Y-173970506D01*
X130456185Y-173873815D01*
X130359494Y-173794463D01*
X130265000Y-173743954D01*
X130265000Y-164746578D01*
X163055051Y-131956528D01*
X163088817Y-131928817D01*
X163179093Y-131818817D01*
X163199411Y-131794059D01*
X163281589Y-131640314D01*
X163332195Y-131473490D01*
X163338390Y-131410590D01*
X163345000Y-131343477D01*
X163345000Y-131343469D01*
X163349281Y-131300000D01*
X163345000Y-131256531D01*
X163345000Y-61413469D01*
X163349281Y-61370000D01*
X163345000Y-61326531D01*
X163345000Y-61326523D01*
X163332195Y-61196510D01*
X163281589Y-61029687D01*
X163199411Y-60875941D01*
X163116532Y-60774953D01*
X163116530Y-60774951D01*
X163088817Y-60741183D01*
X163055049Y-60713470D01*
X159856533Y-57514955D01*
X159828818Y-57481184D01*
X159694060Y-57370590D01*
X159540314Y-57288412D01*
X159373491Y-57237806D01*
X159243478Y-57225001D01*
X159243470Y-57225001D01*
X159200001Y-57220720D01*
X159156532Y-57225001D01*
X155073286Y-57225001D01*
X154950256Y-57142795D01*
X154761898Y-57064774D01*
X154561939Y-57025000D01*
X154358061Y-57025000D01*
X154158102Y-57064774D01*
X153969744Y-57142795D01*
X153800226Y-57256063D01*
X153656063Y-57400226D01*
X153542795Y-57569744D01*
X153464774Y-57758102D01*
X153425000Y-57958061D01*
X153425000Y-58161939D01*
X153464774Y-58361898D01*
X153542795Y-58550256D01*
X153656063Y-58719774D01*
X153800226Y-58863937D01*
X153969744Y-58977205D01*
X154158102Y-59055226D01*
X154358061Y-59095000D01*
X154561939Y-59095000D01*
X154761898Y-59055226D01*
X154907293Y-58995001D01*
X158833423Y-58995001D01*
X161575001Y-61736580D01*
X161575000Y-130933421D01*
X128784952Y-163723470D01*
X128751184Y-163751183D01*
X128723471Y-163784951D01*
X128723468Y-163784954D01*
X128640590Y-163885941D01*
X128558412Y-164039687D01*
X128507805Y-164206510D01*
X128490719Y-164380000D01*
X128495001Y-164423479D01*
X128495000Y-173743954D01*
X128400506Y-173794463D01*
X128303815Y-173873815D01*
X128224463Y-173970506D01*
X128165498Y-174080820D01*
X128129188Y-174200518D01*
X128116928Y-174325000D01*
X128103072Y-174325000D01*
X128090812Y-174200518D01*
X128054502Y-174080820D01*
X127995537Y-173970506D01*
X127916185Y-173873815D01*
X127819494Y-173794463D01*
X127725000Y-173743954D01*
X127725000Y-162856578D01*
X158735049Y-131846530D01*
X158768817Y-131818817D01*
X158879411Y-131684059D01*
X158902793Y-131640314D01*
X158961589Y-131530314D01*
X159012195Y-131363490D01*
X159014166Y-131343476D01*
X159025000Y-131233477D01*
X159025000Y-131233469D01*
X159029281Y-131190000D01*
X159025000Y-131146531D01*
X159025000Y-65856046D01*
X159119494Y-65805537D01*
X159216185Y-65726185D01*
X159295537Y-65629494D01*
X159354502Y-65519180D01*
X159390812Y-65399482D01*
X159403072Y-65275000D01*
X159403072Y-64025000D01*
X159390812Y-63900518D01*
X159354502Y-63780820D01*
X159295537Y-63670506D01*
X159216185Y-63573815D01*
X159119494Y-63494463D01*
X159009180Y-63435498D01*
X158889482Y-63399188D01*
X158765000Y-63386928D01*
X157515000Y-63386928D01*
X157390518Y-63399188D01*
X157270820Y-63435498D01*
X157160506Y-63494463D01*
X157063815Y-63573815D01*
X156984463Y-63670506D01*
X156925498Y-63780820D01*
X156889188Y-63900518D01*
X156876928Y-64025000D01*
X156876928Y-65275000D01*
X156889188Y-65399482D01*
X156925498Y-65519180D01*
X156984463Y-65629494D01*
X157063815Y-65726185D01*
X157160506Y-65805537D01*
X157255000Y-65856046D01*
X157255001Y-130823420D01*
X126244956Y-161833466D01*
X126211183Y-161861183D01*
X126100589Y-161995942D01*
X126018411Y-162149688D01*
X125967805Y-162316511D01*
X125955000Y-162446524D01*
X125955000Y-162446531D01*
X125950719Y-162490000D01*
X125955000Y-162533469D01*
X125955001Y-173743954D01*
X125860506Y-173794463D01*
X125763815Y-173873815D01*
X125684463Y-173970506D01*
X125625498Y-174080820D01*
X125589188Y-174200518D01*
X125576928Y-174325000D01*
X125563072Y-174325000D01*
X125550812Y-174200518D01*
X125514502Y-174080820D01*
X125455537Y-173970506D01*
X125376185Y-173873815D01*
X125279494Y-173794463D01*
X125169180Y-173735498D01*
X125049482Y-173699188D01*
X124925000Y-173686928D01*
X123675000Y-173686928D01*
X123550518Y-173699188D01*
X123430820Y-173735498D01*
X123320506Y-173794463D01*
X123223815Y-173873815D01*
X123144463Y-173970506D01*
X123085498Y-174080820D01*
X123049188Y-174200518D01*
X123036928Y-174325000D01*
X123023072Y-174325000D01*
X123010812Y-174200518D01*
X122974502Y-174080820D01*
X122915537Y-173970506D01*
X122836185Y-173873815D01*
X122739494Y-173794463D01*
X122645000Y-173743954D01*
X122645000Y-171593465D01*
X122649281Y-171549999D01*
X122645000Y-171506533D01*
X122645000Y-171506523D01*
X122632195Y-171376510D01*
X122581589Y-171209687D01*
X122499411Y-171055941D01*
X122388817Y-170921183D01*
X122355049Y-170893470D01*
X117311534Y-165849956D01*
X117283817Y-165816183D01*
X117149059Y-165705589D01*
X116995313Y-165623411D01*
X116828490Y-165572805D01*
X116698477Y-165560000D01*
X116698469Y-165560000D01*
X116655000Y-165555719D01*
X116611531Y-165560000D01*
X108121579Y-165560000D01*
X106559640Y-163998061D01*
X114435000Y-163998061D01*
X114435000Y-164201939D01*
X114474774Y-164401898D01*
X114552795Y-164590256D01*
X114666063Y-164759774D01*
X114810226Y-164903937D01*
X114979744Y-165017205D01*
X115168102Y-165095226D01*
X115368061Y-165135000D01*
X115571939Y-165135000D01*
X115771898Y-165095226D01*
X115960256Y-165017205D01*
X116129774Y-164903937D01*
X116273937Y-164759774D01*
X116387205Y-164590256D01*
X116465226Y-164401898D01*
X116476535Y-164345043D01*
X120666579Y-160155000D01*
X126116531Y-160155000D01*
X126160000Y-160159281D01*
X126203469Y-160155000D01*
X126203477Y-160155000D01*
X126333490Y-160142195D01*
X126500313Y-160091589D01*
X126654059Y-160009411D01*
X126788817Y-159898817D01*
X126816534Y-159865044D01*
X151745051Y-134936528D01*
X151778817Y-134908817D01*
X151889411Y-134774059D01*
X151971589Y-134620313D01*
X152006843Y-134504097D01*
X152022195Y-134453491D01*
X152025337Y-134421589D01*
X152035000Y-134323477D01*
X152035000Y-134323469D01*
X152039281Y-134280000D01*
X152035000Y-134236531D01*
X152035000Y-65768191D01*
X152080506Y-65805537D01*
X152190820Y-65864502D01*
X152310518Y-65900812D01*
X152435000Y-65913072D01*
X153685000Y-65913072D01*
X153809482Y-65900812D01*
X153929180Y-65864502D01*
X154039494Y-65805537D01*
X154136185Y-65726185D01*
X154215537Y-65629494D01*
X154274502Y-65519180D01*
X154310812Y-65399482D01*
X154323072Y-65275000D01*
X154323072Y-64025000D01*
X154336928Y-64025000D01*
X154336928Y-65275000D01*
X154349188Y-65399482D01*
X154385498Y-65519180D01*
X154444463Y-65629494D01*
X154523815Y-65726185D01*
X154620506Y-65805537D01*
X154730820Y-65864502D01*
X154850518Y-65900812D01*
X154975000Y-65913072D01*
X156225000Y-65913072D01*
X156349482Y-65900812D01*
X156469180Y-65864502D01*
X156579494Y-65805537D01*
X156676185Y-65726185D01*
X156755537Y-65629494D01*
X156814502Y-65519180D01*
X156850812Y-65399482D01*
X156863072Y-65275000D01*
X156863072Y-64025000D01*
X156850812Y-63900518D01*
X156814502Y-63780820D01*
X156755537Y-63670506D01*
X156676185Y-63573815D01*
X156579494Y-63494463D01*
X156469180Y-63435498D01*
X156349482Y-63399188D01*
X156225000Y-63386928D01*
X154975000Y-63386928D01*
X154850518Y-63399188D01*
X154730820Y-63435498D01*
X154620506Y-63494463D01*
X154523815Y-63573815D01*
X154444463Y-63670506D01*
X154385498Y-63780820D01*
X154349188Y-63900518D01*
X154336928Y-64025000D01*
X154323072Y-64025000D01*
X154310812Y-63900518D01*
X154274502Y-63780820D01*
X154215537Y-63670506D01*
X154136185Y-63573815D01*
X154039494Y-63494463D01*
X153929180Y-63435498D01*
X153809482Y-63399188D01*
X153685000Y-63386928D01*
X152435000Y-63386928D01*
X152310518Y-63399188D01*
X152190820Y-63435498D01*
X152080506Y-63494463D01*
X152035000Y-63531809D01*
X152035000Y-56016578D01*
X154336579Y-53715000D01*
X161721546Y-53715000D01*
X161769744Y-53747205D01*
X161958102Y-53825226D01*
X162158061Y-53865000D01*
X162361939Y-53865000D01*
X162561898Y-53825226D01*
X162750256Y-53747205D01*
X162919774Y-53633937D01*
X163063937Y-53489774D01*
X163177205Y-53320256D01*
X163255226Y-53131898D01*
X163295000Y-52931939D01*
X163295000Y-52728061D01*
X163255226Y-52528102D01*
X163177205Y-52339744D01*
X163063937Y-52170226D01*
X162919774Y-52026063D01*
X162750256Y-51912795D01*
X162561898Y-51834774D01*
X162361939Y-51795000D01*
X162158061Y-51795000D01*
X161958102Y-51834774D01*
X161769744Y-51912795D01*
X161721546Y-51945000D01*
X154013465Y-51945000D01*
X153969999Y-51940719D01*
X153926533Y-51945000D01*
X153926523Y-51945000D01*
X153796510Y-51957805D01*
X153629687Y-52008411D01*
X153475941Y-52090589D01*
X153475939Y-52090590D01*
X153475940Y-52090590D01*
X153374953Y-52173468D01*
X153374951Y-52173470D01*
X153341183Y-52201183D01*
X153313470Y-52234951D01*
X150554951Y-54993471D01*
X150521184Y-55021183D01*
X150493471Y-55054951D01*
X150493468Y-55054954D01*
X150410590Y-55155941D01*
X150328412Y-55309687D01*
X150277805Y-55476510D01*
X150260719Y-55650000D01*
X150265001Y-55693479D01*
X150265000Y-59133476D01*
X150265001Y-59133486D01*
X150265001Y-72015000D01*
X150156523Y-72015000D01*
X150026510Y-72027805D01*
X149859687Y-72078411D01*
X149705941Y-72160589D01*
X149571183Y-72271183D01*
X149460589Y-72405941D01*
X149378411Y-72559687D01*
X149327805Y-72726510D01*
X149310718Y-72900000D01*
X149327805Y-73073490D01*
X149378411Y-73240313D01*
X149460589Y-73394059D01*
X149571183Y-73528817D01*
X149705941Y-73639411D01*
X149859687Y-73721589D01*
X150026510Y-73772195D01*
X150156523Y-73785000D01*
X150265001Y-73785000D01*
X150265000Y-133913421D01*
X125793422Y-158385000D01*
X120343469Y-158385000D01*
X120300000Y-158380719D01*
X120256531Y-158385000D01*
X120256523Y-158385000D01*
X120126510Y-158397805D01*
X119959686Y-158448411D01*
X119805941Y-158530589D01*
X119704953Y-158613468D01*
X119704951Y-158613470D01*
X119671183Y-158641183D01*
X119643470Y-158674951D01*
X115224957Y-163093465D01*
X115168102Y-163104774D01*
X114979744Y-163182795D01*
X114810226Y-163296063D01*
X114666063Y-163440226D01*
X114552795Y-163609744D01*
X114474774Y-163798102D01*
X114435000Y-163998061D01*
X106559640Y-163998061D01*
X100198030Y-157636452D01*
X100170313Y-157602679D01*
X100035555Y-157492085D01*
X99881809Y-157409907D01*
X99714986Y-157359301D01*
X99584973Y-157346496D01*
X99584965Y-157346496D01*
X99541496Y-157342215D01*
X99498027Y-157346496D01*
X91490020Y-157346496D01*
X90379778Y-155815000D01*
X90551939Y-155815000D01*
X90751898Y-155775226D01*
X90940256Y-155697205D01*
X91109774Y-155583937D01*
X91253937Y-155439774D01*
X91367205Y-155270256D01*
X91445226Y-155081898D01*
X91485000Y-154881939D01*
X91485000Y-154678061D01*
X91445226Y-154478102D01*
X91367205Y-154289744D01*
X91335000Y-154241546D01*
X91335000Y-145686578D01*
X91555044Y-145466535D01*
X91611898Y-145455226D01*
X91800256Y-145377205D01*
X91969774Y-145263937D01*
X92113937Y-145119774D01*
X92227205Y-144950256D01*
X92305226Y-144761898D01*
X92345000Y-144561939D01*
X92345000Y-144358061D01*
X92305226Y-144158102D01*
X92227205Y-143969744D01*
X92113937Y-143800226D01*
X91969774Y-143656063D01*
X91800256Y-143542795D01*
X91611898Y-143464774D01*
X91411939Y-143425000D01*
X91208061Y-143425000D01*
X91008102Y-143464774D01*
X90819744Y-143542795D01*
X90650226Y-143656063D01*
X90506063Y-143800226D01*
X90392795Y-143969744D01*
X90314774Y-144158102D01*
X90303465Y-144214956D01*
X89854951Y-144663471D01*
X89821184Y-144691183D01*
X89793471Y-144724951D01*
X89793468Y-144724954D01*
X89710590Y-144825941D01*
X89628412Y-144979687D01*
X89577805Y-145146510D01*
X89560719Y-145320000D01*
X89565001Y-145363479D01*
X89565000Y-154241546D01*
X89532795Y-154289744D01*
X89454774Y-154478102D01*
X89445265Y-154525908D01*
X79474778Y-140772358D01*
X79488061Y-140775000D01*
X79691939Y-140775000D01*
X79891898Y-140735226D01*
X80080256Y-140657205D01*
X80249774Y-140543937D01*
X80393937Y-140399774D01*
X80507205Y-140230256D01*
X80585226Y-140041898D01*
X80625000Y-139841939D01*
X80625000Y-139638061D01*
X80585226Y-139438102D01*
X80507205Y-139249744D01*
X80475000Y-139201546D01*
X80475000Y-130370093D01*
X80530256Y-130347205D01*
X80699774Y-130233937D01*
X80843937Y-130089774D01*
X80957205Y-129920256D01*
X81035226Y-129731898D01*
X81075000Y-129531939D01*
X81075000Y-129328061D01*
X81035226Y-129128102D01*
X80957205Y-128939744D01*
X80843937Y-128770226D01*
X80699774Y-128626063D01*
X80530256Y-128512795D01*
X80341898Y-128434774D01*
X80141939Y-128395000D01*
X79938061Y-128395000D01*
X79738102Y-128434774D01*
X79549744Y-128512795D01*
X79380226Y-128626063D01*
X79236063Y-128770226D01*
X79122795Y-128939744D01*
X79044774Y-129128102D01*
X79033465Y-129184957D01*
X78994952Y-129223470D01*
X78961184Y-129251183D01*
X78933471Y-129284951D01*
X78933468Y-129284954D01*
X78850590Y-129385941D01*
X78768412Y-129539687D01*
X78717805Y-129706510D01*
X78700719Y-129880000D01*
X78705001Y-129923479D01*
X78705000Y-139201546D01*
X78672795Y-139249744D01*
X78594774Y-139438102D01*
X78575988Y-139532544D01*
X68061256Y-125028248D01*
X68078102Y-125035226D01*
X68278061Y-125075000D01*
X68481939Y-125075000D01*
X68681898Y-125035226D01*
X68870256Y-124957205D01*
X69039774Y-124843937D01*
X69183937Y-124699774D01*
X69297205Y-124530256D01*
X69375226Y-124341898D01*
X69415000Y-124141939D01*
X69415000Y-123938061D01*
X69375226Y-123738102D01*
X69297205Y-123549744D01*
X69183937Y-123380226D01*
X69039774Y-123236063D01*
X68870256Y-123122795D01*
X68774453Y-123083112D01*
X66305000Y-119729329D01*
X66305000Y-116906662D01*
X66400256Y-116867205D01*
X66569774Y-116753937D01*
X66713937Y-116609774D01*
X66827205Y-116440256D01*
X66905226Y-116251898D01*
X66945000Y-116051939D01*
X66945000Y-115848061D01*
X66905226Y-115648102D01*
X66827205Y-115459744D01*
X66713937Y-115290226D01*
X66569774Y-115146063D01*
X66400256Y-115032795D01*
X66211898Y-114954774D01*
X66011939Y-114915000D01*
X65808061Y-114915000D01*
X65608102Y-114954774D01*
X65419744Y-115032795D01*
X65250226Y-115146063D01*
X65106063Y-115290226D01*
X64992795Y-115459744D01*
X64914774Y-115648102D01*
X64903465Y-115704957D01*
X64824956Y-115783466D01*
X64791183Y-115811183D01*
X64680589Y-115945942D01*
X64598411Y-116099688D01*
X64547805Y-116266511D01*
X64535000Y-116396524D01*
X64535000Y-116396531D01*
X64530719Y-116440000D01*
X64535000Y-116483469D01*
X64535001Y-119996736D01*
X64531644Y-120060571D01*
X64541243Y-120126850D01*
X64546463Y-120179850D01*
X61335000Y-115749875D01*
X61335000Y-115728061D01*
X61295226Y-115528102D01*
X61217205Y-115339744D01*
X61103937Y-115170226D01*
X60959774Y-115026063D01*
X60790256Y-114912795D01*
X60601898Y-114834774D01*
X60401939Y-114795000D01*
X60198061Y-114795000D01*
X59998102Y-114834774D01*
X59809744Y-114912795D01*
X59640226Y-115026063D01*
X59496063Y-115170226D01*
X59382795Y-115339744D01*
X59304774Y-115528102D01*
X59265000Y-115728061D01*
X58649311Y-115728061D01*
X54566179Y-110108061D01*
X108395000Y-110108061D01*
X108395000Y-110311939D01*
X108434774Y-110511898D01*
X108512795Y-110700256D01*
X108626063Y-110869774D01*
X108770226Y-111013937D01*
X108939744Y-111127205D01*
X109128102Y-111205226D01*
X109328061Y-111245000D01*
X109531939Y-111245000D01*
X109731898Y-111205226D01*
X109920256Y-111127205D01*
X110089774Y-111013937D01*
X110233937Y-110869774D01*
X110347205Y-110700256D01*
X110425226Y-110511898D01*
X110436535Y-110455043D01*
X120206579Y-100685000D01*
X120796580Y-100685000D01*
X120859744Y-100727205D01*
X121048102Y-100805226D01*
X121248061Y-100845000D01*
X121451939Y-100845000D01*
X121651898Y-100805226D01*
X121840256Y-100727205D01*
X122009774Y-100613937D01*
X122153937Y-100469774D01*
X122267205Y-100300256D01*
X122345226Y-100111898D01*
X122385000Y-99911939D01*
X122385000Y-99708061D01*
X122345226Y-99508102D01*
X122267205Y-99319744D01*
X122153937Y-99150226D01*
X122009774Y-99006063D01*
X121840256Y-98892795D01*
X121651898Y-98814774D01*
X121451939Y-98775000D01*
X121248061Y-98775000D01*
X121048102Y-98814774D01*
X120859744Y-98892795D01*
X120826512Y-98915000D01*
X119883465Y-98915000D01*
X119839999Y-98910719D01*
X119796533Y-98915000D01*
X119796523Y-98915000D01*
X119666510Y-98927805D01*
X119499687Y-98978411D01*
X119345941Y-99060589D01*
X119345939Y-99060590D01*
X119345940Y-99060590D01*
X119244953Y-99143468D01*
X119244951Y-99143470D01*
X119211183Y-99171183D01*
X119183470Y-99204951D01*
X109184957Y-109203465D01*
X109128102Y-109214774D01*
X108939744Y-109292795D01*
X108770226Y-109406063D01*
X108626063Y-109550226D01*
X108512795Y-109719744D01*
X108434774Y-109908102D01*
X108395000Y-110108061D01*
X54566179Y-110108061D01*
X44096795Y-95698061D01*
X129095000Y-95698061D01*
X129095000Y-95901939D01*
X129134774Y-96101898D01*
X129212795Y-96290256D01*
X129245000Y-96338454D01*
X129245001Y-110476521D01*
X129240719Y-110520000D01*
X129257805Y-110693490D01*
X129308412Y-110860313D01*
X129390590Y-111014059D01*
X129473468Y-111115046D01*
X129473471Y-111115049D01*
X129501184Y-111148817D01*
X129534951Y-111176529D01*
X132303465Y-113945044D01*
X132314774Y-114001898D01*
X132392795Y-114190256D01*
X132506063Y-114359774D01*
X132650226Y-114503937D01*
X132819744Y-114617205D01*
X133008102Y-114695226D01*
X133208061Y-114735000D01*
X133411939Y-114735000D01*
X133611898Y-114695226D01*
X133800256Y-114617205D01*
X133969774Y-114503937D01*
X134113937Y-114359774D01*
X134227205Y-114190256D01*
X134305226Y-114001898D01*
X134345000Y-113801939D01*
X134345000Y-113598061D01*
X134305226Y-113398102D01*
X134227205Y-113209744D01*
X134113937Y-113040226D01*
X133969774Y-112896063D01*
X133800256Y-112782795D01*
X133611898Y-112704774D01*
X133555044Y-112693465D01*
X131015000Y-110153422D01*
X131015000Y-96338454D01*
X131047205Y-96290256D01*
X131125226Y-96101898D01*
X131165000Y-95901939D01*
X131165000Y-95698061D01*
X131125226Y-95498102D01*
X131047205Y-95309744D01*
X130933937Y-95140226D01*
X130789774Y-94996063D01*
X130620256Y-94882795D01*
X130431898Y-94804774D01*
X130231939Y-94765000D01*
X130028061Y-94765000D01*
X129828102Y-94804774D01*
X129639744Y-94882795D01*
X129470226Y-94996063D01*
X129326063Y-95140226D01*
X129212795Y-95309744D01*
X129134774Y-95498102D01*
X129095000Y-95698061D01*
X44096795Y-95698061D01*
X22918890Y-66548915D01*
X26804625Y-63596692D01*
X31328056Y-60355117D01*
X35867818Y-57290000D01*
X87621928Y-57290000D01*
X87621928Y-59290000D01*
X87634188Y-59414482D01*
X87670498Y-59534180D01*
X87729463Y-59644494D01*
X87808815Y-59741185D01*
X87905506Y-59820537D01*
X88015820Y-59879502D01*
X88135518Y-59915812D01*
X88260000Y-59928072D01*
X91460000Y-59928072D01*
X91584482Y-59915812D01*
X91704180Y-59879502D01*
X91814494Y-59820537D01*
X91911185Y-59741185D01*
X91990537Y-59644494D01*
X92049502Y-59534180D01*
X92085812Y-59414482D01*
X92098072Y-59290000D01*
X92098072Y-59175000D01*
X99116531Y-59175000D01*
X99160000Y-59179281D01*
X99203469Y-59175000D01*
X99203477Y-59175000D01*
X99333490Y-59162195D01*
X99500313Y-59111589D01*
X99654059Y-59029411D01*
X99788817Y-58918817D01*
X99816534Y-58885044D01*
X109466579Y-49235000D01*
X111893422Y-49235000D01*
X119223470Y-56565049D01*
X119251183Y-56598817D01*
X119284951Y-56626530D01*
X119284953Y-56626532D01*
X119310398Y-56647414D01*
X119385941Y-56709411D01*
X119539687Y-56791589D01*
X119706510Y-56842195D01*
X119836523Y-56855000D01*
X119836533Y-56855000D01*
X119879999Y-56859281D01*
X119923465Y-56855000D01*
X145971546Y-56855000D01*
X146019744Y-56887205D01*
X146207556Y-56965000D01*
X146198061Y-56965000D01*
X145998102Y-57004774D01*
X145809744Y-57082795D01*
X145761546Y-57115000D01*
X117476579Y-57115000D01*
X112908072Y-52546494D01*
X112908072Y-50560000D01*
X112895812Y-50435518D01*
X112859502Y-50315820D01*
X112800537Y-50205506D01*
X112721185Y-50108815D01*
X112624494Y-50029463D01*
X112514180Y-49970498D01*
X112394482Y-49934188D01*
X112270000Y-49921928D01*
X109070000Y-49921928D01*
X108945518Y-49934188D01*
X108825820Y-49970498D01*
X108715506Y-50029463D01*
X108618815Y-50108815D01*
X108539463Y-50205506D01*
X108480498Y-50315820D01*
X108444188Y-50435518D01*
X108431928Y-50560000D01*
X108431928Y-52560000D01*
X108444188Y-52684482D01*
X108480498Y-52804180D01*
X108539463Y-52914494D01*
X108618815Y-53011185D01*
X108715506Y-53090537D01*
X108825820Y-53149502D01*
X108945518Y-53185812D01*
X109070000Y-53198072D01*
X111056494Y-53198072D01*
X116453470Y-58595049D01*
X116481183Y-58628817D01*
X116514951Y-58656530D01*
X116514953Y-58656532D01*
X116563699Y-58696537D01*
X116615941Y-58739411D01*
X116769687Y-58821589D01*
X116936510Y-58872195D01*
X117066523Y-58885000D01*
X117066533Y-58885000D01*
X117109999Y-58889281D01*
X117153465Y-58885000D01*
X145761546Y-58885000D01*
X145809744Y-58917205D01*
X145998102Y-58995226D01*
X146198061Y-59035000D01*
X146401939Y-59035000D01*
X146601898Y-58995226D01*
X146790256Y-58917205D01*
X146959774Y-58803937D01*
X147103937Y-58659774D01*
X147217205Y-58490256D01*
X147295226Y-58301898D01*
X147335000Y-58101939D01*
X147335000Y-57898061D01*
X147295226Y-57698102D01*
X147217205Y-57509744D01*
X147103937Y-57340226D01*
X146959774Y-57196063D01*
X146790256Y-57082795D01*
X146602444Y-57005000D01*
X146611939Y-57005000D01*
X146811898Y-56965226D01*
X147000256Y-56887205D01*
X147169774Y-56773937D01*
X147313937Y-56629774D01*
X147427205Y-56460256D01*
X147505226Y-56271898D01*
X147545000Y-56071939D01*
X147545000Y-55868061D01*
X147505226Y-55668102D01*
X147427205Y-55479744D01*
X147313937Y-55310226D01*
X147169774Y-55166063D01*
X147000256Y-55052795D01*
X146811898Y-54974774D01*
X146611939Y-54935000D01*
X146408061Y-54935000D01*
X146208102Y-54974774D01*
X146019744Y-55052795D01*
X145971546Y-55085000D01*
X120246579Y-55085000D01*
X113221579Y-48060000D01*
X113831928Y-48060000D01*
X113844188Y-48184482D01*
X113880498Y-48304180D01*
X113939463Y-48414494D01*
X114018815Y-48511185D01*
X114115506Y-48590537D01*
X114225820Y-48649502D01*
X114345518Y-48685812D01*
X114470000Y-48698072D01*
X115184250Y-48695000D01*
X115343000Y-48536250D01*
X115343000Y-46587000D01*
X115597000Y-46587000D01*
X115597000Y-48536250D01*
X115755750Y-48695000D01*
X116470000Y-48698072D01*
X116594482Y-48685812D01*
X116714180Y-48649502D01*
X116824494Y-48590537D01*
X116921185Y-48511185D01*
X117000537Y-48414494D01*
X117059502Y-48304180D01*
X117095812Y-48184482D01*
X117108072Y-48060000D01*
X117105000Y-46745750D01*
X116946250Y-46587000D01*
X115597000Y-46587000D01*
X115343000Y-46587000D01*
X113993750Y-46587000D01*
X113835000Y-46745750D01*
X113831928Y-48060000D01*
X113221579Y-48060000D01*
X112916534Y-47754956D01*
X112888817Y-47721183D01*
X112754059Y-47610589D01*
X112600313Y-47528411D01*
X112433490Y-47477805D01*
X112303477Y-47465000D01*
X112303469Y-47465000D01*
X112260000Y-47460719D01*
X112216531Y-47465000D01*
X109143469Y-47465000D01*
X109100000Y-47460719D01*
X109056531Y-47465000D01*
X109056523Y-47465000D01*
X108926510Y-47477805D01*
X108759687Y-47528411D01*
X108612534Y-47607065D01*
X108605941Y-47610589D01*
X108504953Y-47693468D01*
X108504951Y-47693470D01*
X108471183Y-47721183D01*
X108443470Y-47754951D01*
X98793422Y-57405000D01*
X92098072Y-57405000D01*
X92098072Y-57290000D01*
X92085812Y-57165518D01*
X92049502Y-57045820D01*
X91990537Y-56935506D01*
X91911185Y-56838815D01*
X91814494Y-56759463D01*
X91704180Y-56700498D01*
X91584482Y-56664188D01*
X91460000Y-56651928D01*
X88260000Y-56651928D01*
X88135518Y-56664188D01*
X88015820Y-56700498D01*
X87905506Y-56759463D01*
X87808815Y-56838815D01*
X87729463Y-56935506D01*
X87670498Y-57045820D01*
X87634188Y-57165518D01*
X87621928Y-57290000D01*
X35867818Y-57290000D01*
X35940274Y-57241080D01*
X40637656Y-54257029D01*
X45107009Y-51590000D01*
X83421928Y-51590000D01*
X83421928Y-54790000D01*
X83434188Y-54914482D01*
X83470498Y-55034180D01*
X83529463Y-55144494D01*
X83608815Y-55241185D01*
X83705506Y-55320537D01*
X83815820Y-55379502D01*
X83935518Y-55415812D01*
X84060000Y-55428072D01*
X86060000Y-55428072D01*
X86184482Y-55415812D01*
X86304180Y-55379502D01*
X86414494Y-55320537D01*
X86511185Y-55241185D01*
X86590537Y-55144494D01*
X86649502Y-55034180D01*
X86685812Y-54914482D01*
X86698072Y-54790000D01*
X93021928Y-54790000D01*
X93034188Y-54914482D01*
X93070498Y-55034180D01*
X93129463Y-55144494D01*
X93208815Y-55241185D01*
X93305506Y-55320537D01*
X93415820Y-55379502D01*
X93535518Y-55415812D01*
X93660000Y-55428072D01*
X94374250Y-55425000D01*
X94533000Y-55266250D01*
X94533000Y-53317000D01*
X94787000Y-53317000D01*
X94787000Y-55266250D01*
X94945750Y-55425000D01*
X95660000Y-55428072D01*
X95784482Y-55415812D01*
X95904180Y-55379502D01*
X96014494Y-55320537D01*
X96111185Y-55241185D01*
X96190537Y-55144494D01*
X96249502Y-55034180D01*
X96285812Y-54914482D01*
X96298072Y-54790000D01*
X96295000Y-53475750D01*
X96136250Y-53317000D01*
X94787000Y-53317000D01*
X94533000Y-53317000D01*
X93183750Y-53317000D01*
X93025000Y-53475750D01*
X93021928Y-54790000D01*
X86698072Y-54790000D01*
X86698072Y-51590000D01*
X93021928Y-51590000D01*
X93025000Y-52904250D01*
X93183750Y-53063000D01*
X94533000Y-53063000D01*
X94533000Y-51113750D01*
X94787000Y-51113750D01*
X94787000Y-53063000D01*
X96136250Y-53063000D01*
X96295000Y-52904250D01*
X96298072Y-51590000D01*
X96285812Y-51465518D01*
X96249502Y-51345820D01*
X96190537Y-51235506D01*
X96111185Y-51138815D01*
X96014494Y-51059463D01*
X95904180Y-51000498D01*
X95784482Y-50964188D01*
X95660000Y-50951928D01*
X94945750Y-50955000D01*
X94787000Y-51113750D01*
X94533000Y-51113750D01*
X94374250Y-50955000D01*
X93660000Y-50951928D01*
X93535518Y-50964188D01*
X93415820Y-51000498D01*
X93305506Y-51059463D01*
X93208815Y-51138815D01*
X93129463Y-51235506D01*
X93070498Y-51345820D01*
X93034188Y-51465518D01*
X93021928Y-51590000D01*
X86698072Y-51590000D01*
X86685812Y-51465518D01*
X86649502Y-51345820D01*
X86590537Y-51235506D01*
X86511185Y-51138815D01*
X86414494Y-51059463D01*
X86304180Y-51000498D01*
X86184482Y-50964188D01*
X86060000Y-50951928D01*
X84060000Y-50951928D01*
X83935518Y-50964188D01*
X83815820Y-51000498D01*
X83705506Y-51059463D01*
X83608815Y-51138815D01*
X83529463Y-51235506D01*
X83470498Y-51345820D01*
X83434188Y-51465518D01*
X83421928Y-51590000D01*
X45107009Y-51590000D01*
X45416483Y-51405326D01*
X50273100Y-48688152D01*
X52180272Y-47690000D01*
X87621928Y-47690000D01*
X87621928Y-49690000D01*
X87634188Y-49814482D01*
X87670498Y-49934180D01*
X87729463Y-50044494D01*
X87808815Y-50141185D01*
X87905506Y-50220537D01*
X88015820Y-50279502D01*
X88135518Y-50315812D01*
X88260000Y-50328072D01*
X91460000Y-50328072D01*
X91584482Y-50315812D01*
X91704180Y-50279502D01*
X91814494Y-50220537D01*
X91911185Y-50141185D01*
X91990537Y-50044494D01*
X92049502Y-49934180D01*
X92085812Y-49814482D01*
X92098072Y-49690000D01*
X92098072Y-47690000D01*
X92085812Y-47565518D01*
X92049502Y-47445820D01*
X91990537Y-47335506D01*
X91911185Y-47238815D01*
X91814494Y-47159463D01*
X91704180Y-47100498D01*
X91584482Y-47064188D01*
X91460000Y-47051928D01*
X88260000Y-47051928D01*
X88135518Y-47064188D01*
X88015820Y-47100498D01*
X87905506Y-47159463D01*
X87808815Y-47238815D01*
X87729463Y-47335506D01*
X87670498Y-47445820D01*
X87634188Y-47565518D01*
X87621928Y-47690000D01*
X52180272Y-47690000D01*
X55203703Y-46107635D01*
X57758780Y-44860000D01*
X104231928Y-44860000D01*
X104231928Y-48060000D01*
X104244188Y-48184482D01*
X104280498Y-48304180D01*
X104339463Y-48414494D01*
X104418815Y-48511185D01*
X104515506Y-48590537D01*
X104625820Y-48649502D01*
X104745518Y-48685812D01*
X104870000Y-48698072D01*
X106870000Y-48698072D01*
X106994482Y-48685812D01*
X107114180Y-48649502D01*
X107224494Y-48590537D01*
X107321185Y-48511185D01*
X107400537Y-48414494D01*
X107459502Y-48304180D01*
X107495812Y-48184482D01*
X107508072Y-48060000D01*
X107508072Y-44860000D01*
X113831928Y-44860000D01*
X113835000Y-46174250D01*
X113993750Y-46333000D01*
X115343000Y-46333000D01*
X115343000Y-44383750D01*
X115597000Y-44383750D01*
X115597000Y-46333000D01*
X116946250Y-46333000D01*
X117105000Y-46174250D01*
X117108072Y-44860000D01*
X117095812Y-44735518D01*
X117059502Y-44615820D01*
X117000537Y-44505506D01*
X116921185Y-44408815D01*
X116824494Y-44329463D01*
X116714180Y-44270498D01*
X116594482Y-44234188D01*
X116470000Y-44221928D01*
X115755750Y-44225000D01*
X115597000Y-44383750D01*
X115343000Y-44383750D01*
X115184250Y-44225000D01*
X114470000Y-44221928D01*
X114345518Y-44234188D01*
X114225820Y-44270498D01*
X114115506Y-44329463D01*
X114018815Y-44408815D01*
X113939463Y-44505506D01*
X113880498Y-44615820D01*
X113844188Y-44735518D01*
X113831928Y-44860000D01*
X107508072Y-44860000D01*
X107495812Y-44735518D01*
X107459502Y-44615820D01*
X107400537Y-44505506D01*
X107321185Y-44408815D01*
X107224494Y-44329463D01*
X107114180Y-44270498D01*
X106994482Y-44234188D01*
X106870000Y-44221928D01*
X104870000Y-44221928D01*
X104745518Y-44234188D01*
X104625820Y-44270498D01*
X104515506Y-44329463D01*
X104418815Y-44408815D01*
X104339463Y-44505506D01*
X104280498Y-44615820D01*
X104244188Y-44735518D01*
X104231928Y-44860000D01*
X57758780Y-44860000D01*
X60204391Y-43665817D01*
X65271347Y-41364561D01*
X66232534Y-40960000D01*
X108431928Y-40960000D01*
X108431928Y-42960000D01*
X108444188Y-43084482D01*
X108480498Y-43204180D01*
X108539463Y-43314494D01*
X108618815Y-43411185D01*
X108715506Y-43490537D01*
X108825820Y-43549502D01*
X108945518Y-43585812D01*
X109070000Y-43598072D01*
X112270000Y-43598072D01*
X112394482Y-43585812D01*
X112514180Y-43549502D01*
X112624494Y-43490537D01*
X112721185Y-43411185D01*
X112800537Y-43314494D01*
X112859502Y-43204180D01*
X112895812Y-43084482D01*
X112908072Y-42960000D01*
X112908072Y-40960000D01*
X112895812Y-40835518D01*
X112859502Y-40715820D01*
X112800537Y-40605506D01*
X112721185Y-40508815D01*
X112624494Y-40429463D01*
X112514180Y-40370498D01*
X112394482Y-40334188D01*
X112270000Y-40321928D01*
X109070000Y-40321928D01*
X108945518Y-40334188D01*
X108825820Y-40370498D01*
X108715506Y-40429463D01*
X108618815Y-40508815D01*
X108539463Y-40605506D01*
X108480498Y-40715820D01*
X108444188Y-40835518D01*
X108431928Y-40960000D01*
X66232534Y-40960000D01*
X70400584Y-39205680D01*
X75588092Y-37190860D01*
X80829815Y-35321676D01*
X86121672Y-33599583D01*
X89766663Y-32525000D01*
X151796928Y-32525000D01*
X151796928Y-33775000D01*
X151809188Y-33899482D01*
X151845498Y-34019180D01*
X151904463Y-34129494D01*
X151983815Y-34226185D01*
X152080506Y-34305537D01*
X152190820Y-34364502D01*
X152310518Y-34400812D01*
X152435000Y-34413072D01*
X153685000Y-34413072D01*
X153809482Y-34400812D01*
X153929180Y-34364502D01*
X154039494Y-34305537D01*
X154136185Y-34226185D01*
X154215537Y-34129494D01*
X154274502Y-34019180D01*
X154310812Y-33899482D01*
X154323072Y-33775000D01*
X154323072Y-32525000D01*
X154336928Y-32525000D01*
X154336928Y-33775000D01*
X154349188Y-33899482D01*
X154385498Y-34019180D01*
X154444463Y-34129494D01*
X154523815Y-34226185D01*
X154620506Y-34305537D01*
X154730820Y-34364502D01*
X154850518Y-34400812D01*
X154975000Y-34413072D01*
X156225000Y-34413072D01*
X156349482Y-34400812D01*
X156469180Y-34364502D01*
X156579494Y-34305537D01*
X156676185Y-34226185D01*
X156755537Y-34129494D01*
X156814502Y-34019180D01*
X156850812Y-33899482D01*
X156863072Y-33775000D01*
X156863072Y-32525000D01*
X156876928Y-32525000D01*
X156876928Y-33775000D01*
X156889188Y-33899482D01*
X156925498Y-34019180D01*
X156984463Y-34129494D01*
X157063815Y-34226185D01*
X157160506Y-34305537D01*
X157270820Y-34364502D01*
X157390518Y-34400812D01*
X157515000Y-34413072D01*
X158765000Y-34413072D01*
X158889482Y-34400812D01*
X159009180Y-34364502D01*
X159119494Y-34305537D01*
X159216185Y-34226185D01*
X159295537Y-34129494D01*
X159354502Y-34019180D01*
X159390812Y-33899482D01*
X159403072Y-33775000D01*
X159403072Y-32525000D01*
X159390812Y-32400518D01*
X159354502Y-32280820D01*
X159295537Y-32170506D01*
X159216185Y-32073815D01*
X159119494Y-31994463D01*
X159009180Y-31935498D01*
X158889482Y-31899188D01*
X158765000Y-31886928D01*
X157515000Y-31886928D01*
X157390518Y-31899188D01*
X157270820Y-31935498D01*
X157160506Y-31994463D01*
X157063815Y-32073815D01*
X156984463Y-32170506D01*
X156925498Y-32280820D01*
X156889188Y-32400518D01*
X156876928Y-32525000D01*
X156863072Y-32525000D01*
X156850812Y-32400518D01*
X156814502Y-32280820D01*
X156755537Y-32170506D01*
X156676185Y-32073815D01*
X156579494Y-31994463D01*
X156469180Y-31935498D01*
X156349482Y-31899188D01*
X156225000Y-31886928D01*
X154975000Y-31886928D01*
X154850518Y-31899188D01*
X154730820Y-31935498D01*
X154620506Y-31994463D01*
X154523815Y-32073815D01*
X154444463Y-32170506D01*
X154385498Y-32280820D01*
X154349188Y-32400518D01*
X154336928Y-32525000D01*
X154323072Y-32525000D01*
X154310812Y-32400518D01*
X154274502Y-32280820D01*
X154215537Y-32170506D01*
X154136185Y-32073815D01*
X154039494Y-31994463D01*
X153929180Y-31935498D01*
X153809482Y-31899188D01*
X153685000Y-31886928D01*
X152435000Y-31886928D01*
X152310518Y-31899188D01*
X152190820Y-31935498D01*
X152080506Y-31994463D01*
X151983815Y-32073815D01*
X151904463Y-32170506D01*
X151845498Y-32280820D01*
X151809188Y-32400518D01*
X151796928Y-32525000D01*
X89766663Y-32525000D01*
X91459624Y-32025897D01*
X96839376Y-30601884D01*
X102256809Y-29328633D01*
X107707662Y-28207147D01*
X113187715Y-27238292D01*
X118692697Y-26422826D01*
X124218262Y-25761390D01*
X129760196Y-25254490D01*
X135314114Y-24902528D01*
X140875665Y-24705778D01*
X146440531Y-24664393D01*
X152004423Y-24778406D01*
%TA.AperFunction,Conductor*%
D19*
G36*
X152004423Y-24778406D02*
G01*
X157562944Y-25047725D01*
X163111779Y-25472143D01*
X168646579Y-26051327D01*
X174163112Y-26784832D01*
X179656950Y-27672073D01*
X185123868Y-28712363D01*
X190559664Y-29904906D01*
X195960006Y-31248751D01*
X201320711Y-32742855D01*
X206637629Y-34386064D01*
X211906581Y-36177084D01*
X217123479Y-38114527D01*
X222284273Y-40196891D01*
X227384865Y-42422519D01*
X232421350Y-44789709D01*
X237389770Y-47296599D01*
X242286238Y-49941228D01*
X247107000Y-52721570D01*
X251848223Y-55635416D01*
X255889853Y-58277557D01*
X169546237Y-177120000D01*
X103252765Y-177120000D01*
X101222097Y-174325000D01*
X112876928Y-174325000D01*
X112876928Y-175575000D01*
X112889188Y-175699482D01*
X112925498Y-175819180D01*
X112984463Y-175929494D01*
X113063815Y-176026185D01*
X113160506Y-176105537D01*
X113270820Y-176164502D01*
X113390518Y-176200812D01*
X113515000Y-176213072D01*
X114765000Y-176213072D01*
X114889482Y-176200812D01*
X115009180Y-176164502D01*
X115119494Y-176105537D01*
X115216185Y-176026185D01*
X115295537Y-175929494D01*
X115354502Y-175819180D01*
X115390812Y-175699482D01*
X115403072Y-175575000D01*
X115403072Y-174325000D01*
X115390812Y-174200518D01*
X115354502Y-174080820D01*
X115295537Y-173970506D01*
X115216185Y-173873815D01*
X115119494Y-173794463D01*
X115009180Y-173735498D01*
X114889482Y-173699188D01*
X114765000Y-173686928D01*
X113515000Y-173686928D01*
X113390518Y-173699188D01*
X113270820Y-173735498D01*
X113160506Y-173794463D01*
X113063815Y-173873815D01*
X112984463Y-173970506D01*
X112925498Y-174080820D01*
X112889188Y-174200518D01*
X112876928Y-174325000D01*
X101222097Y-174325000D01*
X91103675Y-160398061D01*
X97025000Y-160398061D01*
X97025000Y-160601939D01*
X97064774Y-160801898D01*
X97142795Y-160990256D01*
X97174123Y-161037142D01*
X97165058Y-166594288D01*
X97160881Y-166647025D01*
X97170008Y-166724462D01*
X97177524Y-166802066D01*
X97180203Y-166810948D01*
X97181288Y-166820157D01*
X97205345Y-166894321D01*
X97227857Y-166968972D01*
X97232215Y-166977157D01*
X97235077Y-166985981D01*
X97273152Y-167054047D01*
X97309785Y-167122852D01*
X97343273Y-167163793D01*
X99605000Y-170412297D01*
X99605000Y-170451939D01*
X99644774Y-170651898D01*
X99722795Y-170840256D01*
X99836063Y-171009774D01*
X99980226Y-171153937D01*
X100149744Y-171267205D01*
X100338102Y-171345226D01*
X100538061Y-171385000D01*
X100741939Y-171385000D01*
X100941898Y-171345226D01*
X101130256Y-171267205D01*
X101299774Y-171153937D01*
X101443937Y-171009774D01*
X101557205Y-170840256D01*
X101635226Y-170651898D01*
X101675000Y-170451939D01*
X101675000Y-170248061D01*
X101635226Y-170048102D01*
X101557205Y-169859744D01*
X101443937Y-169690226D01*
X101299774Y-169546063D01*
X101130256Y-169432795D01*
X101059326Y-169403415D01*
X100422023Y-168488061D01*
X114465000Y-168488061D01*
X114465000Y-168691939D01*
X114504774Y-168891898D01*
X114582795Y-169080256D01*
X114696063Y-169249774D01*
X114840226Y-169393937D01*
X115009744Y-169507205D01*
X115198102Y-169585226D01*
X115254957Y-169596535D01*
X115795001Y-170136580D01*
X115795000Y-173743954D01*
X115700506Y-173794463D01*
X115603815Y-173873815D01*
X115524463Y-173970506D01*
X115465498Y-174080820D01*
X115429188Y-174200518D01*
X115416928Y-174325000D01*
X115416928Y-175575000D01*
X115429188Y-175699482D01*
X115465498Y-175819180D01*
X115524463Y-175929494D01*
X115603815Y-176026185D01*
X115700506Y-176105537D01*
X115810820Y-176164502D01*
X115930518Y-176200812D01*
X116055000Y-176213072D01*
X117305000Y-176213072D01*
X117429482Y-176200812D01*
X117549180Y-176164502D01*
X117659494Y-176105537D01*
X117756185Y-176026185D01*
X117835537Y-175929494D01*
X117894502Y-175819180D01*
X117930812Y-175699482D01*
X117943072Y-175575000D01*
X117943072Y-174325000D01*
X117956928Y-174325000D01*
X117956928Y-175575000D01*
X117969188Y-175699482D01*
X118005498Y-175819180D01*
X118064463Y-175929494D01*
X118143815Y-176026185D01*
X118240506Y-176105537D01*
X118350820Y-176164502D01*
X118470518Y-176200812D01*
X118595000Y-176213072D01*
X119845000Y-176213072D01*
X119969482Y-176200812D01*
X120089180Y-176164502D01*
X120199494Y-176105537D01*
X120296185Y-176026185D01*
X120375537Y-175929494D01*
X120434502Y-175819180D01*
X120470812Y-175699482D01*
X120483072Y-175575000D01*
X120483072Y-174325000D01*
X120470812Y-174200518D01*
X120434502Y-174080820D01*
X120375537Y-173970506D01*
X120296185Y-173873815D01*
X120199494Y-173794463D01*
X120089180Y-173735498D01*
X119969482Y-173699188D01*
X119845000Y-173686928D01*
X118595000Y-173686928D01*
X118470518Y-173699188D01*
X118350820Y-173735498D01*
X118240506Y-173794463D01*
X118143815Y-173873815D01*
X118064463Y-173970506D01*
X118005498Y-174080820D01*
X117969188Y-174200518D01*
X117956928Y-174325000D01*
X117943072Y-174325000D01*
X117930812Y-174200518D01*
X117894502Y-174080820D01*
X117835537Y-173970506D01*
X117756185Y-173873815D01*
X117659494Y-173794463D01*
X117565000Y-173743954D01*
X117565000Y-169813466D01*
X117569281Y-169769999D01*
X117565000Y-169726533D01*
X117565000Y-169726523D01*
X117552195Y-169596510D01*
X117501589Y-169429687D01*
X117419411Y-169275941D01*
X117308817Y-169141183D01*
X117275049Y-169113470D01*
X116506535Y-168344957D01*
X116495226Y-168288102D01*
X116417205Y-168099744D01*
X116303937Y-167930226D01*
X116159774Y-167786063D01*
X115990256Y-167672795D01*
X115801898Y-167594774D01*
X115601939Y-167555000D01*
X115398061Y-167555000D01*
X115198102Y-167594774D01*
X115009744Y-167672795D01*
X114840226Y-167786063D01*
X114696063Y-167930226D01*
X114582795Y-168099744D01*
X114504774Y-168288102D01*
X114465000Y-168488061D01*
X100422023Y-168488061D01*
X98935452Y-166352910D01*
X98944120Y-161039772D01*
X98977205Y-160990256D01*
X99055226Y-160801898D01*
X99095000Y-160601939D01*
X99095000Y-160398061D01*
X99055226Y-160198102D01*
X98977205Y-160009744D01*
X98863937Y-159840226D01*
X98719774Y-159696063D01*
X98550256Y-159582795D01*
X98361898Y-159504774D01*
X98161939Y-159465000D01*
X97958061Y-159465000D01*
X97758102Y-159504774D01*
X97569744Y-159582795D01*
X97400226Y-159696063D01*
X97256063Y-159840226D01*
X97142795Y-160009744D01*
X97064774Y-160198102D01*
X97025000Y-160398061D01*
X91103675Y-160398061D01*
X58649311Y-115728061D01*
X59265000Y-115728061D01*
X59265000Y-115931939D01*
X59304774Y-116131898D01*
X59382795Y-116320256D01*
X59496063Y-116489774D01*
X59640226Y-116633937D01*
X59809744Y-116747205D01*
X59898476Y-116783959D01*
X90286499Y-158701994D01*
X90299093Y-158725555D01*
X90337552Y-158772417D01*
X90347496Y-158786134D01*
X90365127Y-158806017D01*
X90409687Y-158860313D01*
X90422859Y-158871123D01*
X90434172Y-158883881D01*
X90490140Y-158926340D01*
X90544445Y-158970907D01*
X90559483Y-158978945D01*
X90573059Y-158989244D01*
X90636231Y-159019967D01*
X90698191Y-159053085D01*
X90714500Y-159058032D01*
X90729832Y-159065489D01*
X90797785Y-159083297D01*
X90865014Y-159103691D01*
X90881984Y-159105362D01*
X90898467Y-159109682D01*
X90968569Y-159113890D01*
X90995027Y-159116496D01*
X91011979Y-159116496D01*
X91072483Y-159120128D01*
X91098945Y-159116496D01*
X99174918Y-159116496D01*
X107098470Y-167040049D01*
X107126183Y-167073817D01*
X107159951Y-167101530D01*
X107159953Y-167101532D01*
X107214759Y-167146510D01*
X107260941Y-167184411D01*
X107414687Y-167266589D01*
X107581510Y-167317195D01*
X107711523Y-167330000D01*
X107711531Y-167330000D01*
X107755000Y-167334281D01*
X107798469Y-167330000D01*
X116288422Y-167330000D01*
X120875001Y-171916580D01*
X120875000Y-173743954D01*
X120780506Y-173794463D01*
X120683815Y-173873815D01*
X120604463Y-173970506D01*
X120545498Y-174080820D01*
X120509188Y-174200518D01*
X120496928Y-174325000D01*
X120496928Y-175575000D01*
X120509188Y-175699482D01*
X120545498Y-175819180D01*
X120604463Y-175929494D01*
X120683815Y-176026185D01*
X120780506Y-176105537D01*
X120890820Y-176164502D01*
X121010518Y-176200812D01*
X121135000Y-176213072D01*
X122385000Y-176213072D01*
X122509482Y-176200812D01*
X122629180Y-176164502D01*
X122739494Y-176105537D01*
X122836185Y-176026185D01*
X122915537Y-175929494D01*
X122974502Y-175819180D01*
X123010812Y-175699482D01*
X123023072Y-175575000D01*
X123023072Y-174325000D01*
X123036928Y-174325000D01*
X123036928Y-175575000D01*
X123049188Y-175699482D01*
X123085498Y-175819180D01*
X123144463Y-175929494D01*
X123223815Y-176026185D01*
X123320506Y-176105537D01*
X123430820Y-176164502D01*
X123550518Y-176200812D01*
X123675000Y-176213072D01*
X124925000Y-176213072D01*
X125049482Y-176200812D01*
X125169180Y-176164502D01*
X125279494Y-176105537D01*
X125376185Y-176026185D01*
X125455537Y-175929494D01*
X125514502Y-175819180D01*
X125550812Y-175699482D01*
X125563072Y-175575000D01*
X125563072Y-174325000D01*
X125576928Y-174325000D01*
X125576928Y-175575000D01*
X125589188Y-175699482D01*
X125625498Y-175819180D01*
X125684463Y-175929494D01*
X125763815Y-176026185D01*
X125860506Y-176105537D01*
X125970820Y-176164502D01*
X126090518Y-176200812D01*
X126215000Y-176213072D01*
X127465000Y-176213072D01*
X127589482Y-176200812D01*
X127709180Y-176164502D01*
X127819494Y-176105537D01*
X127916185Y-176026185D01*
X127995537Y-175929494D01*
X128054502Y-175819180D01*
X128090812Y-175699482D01*
X128103072Y-175575000D01*
X128103072Y-174325000D01*
X128116928Y-174325000D01*
X128116928Y-175575000D01*
X128129188Y-175699482D01*
X128165498Y-175819180D01*
X128224463Y-175929494D01*
X128303815Y-176026185D01*
X128400506Y-176105537D01*
X128510820Y-176164502D01*
X128630518Y-176200812D01*
X128755000Y-176213072D01*
X130005000Y-176213072D01*
X130129482Y-176200812D01*
X130249180Y-176164502D01*
X130359494Y-176105537D01*
X130456185Y-176026185D01*
X130535537Y-175929494D01*
X130594502Y-175819180D01*
X130630812Y-175699482D01*
X130643072Y-175575000D01*
X130643072Y-174325000D01*
X130656928Y-174325000D01*
X130656928Y-175575000D01*
X130669188Y-175699482D01*
X130705498Y-175819180D01*
X130764463Y-175929494D01*
X130843815Y-176026185D01*
X130940506Y-176105537D01*
X131050820Y-176164502D01*
X131170518Y-176200812D01*
X131295000Y-176213072D01*
X132545000Y-176213072D01*
X132669482Y-176200812D01*
X132789180Y-176164502D01*
X132899494Y-176105537D01*
X132996185Y-176026185D01*
X133075537Y-175929494D01*
X133134502Y-175819180D01*
X133170812Y-175699482D01*
X133183072Y-175575000D01*
X133183072Y-174325000D01*
X133196928Y-174325000D01*
X133196928Y-175575000D01*
X133209188Y-175699482D01*
X133245498Y-175819180D01*
X133304463Y-175929494D01*
X133383815Y-176026185D01*
X133480506Y-176105537D01*
X133590820Y-176164502D01*
X133710518Y-176200812D01*
X133835000Y-176213072D01*
X135085000Y-176213072D01*
X135209482Y-176200812D01*
X135329180Y-176164502D01*
X135439494Y-176105537D01*
X135536185Y-176026185D01*
X135615537Y-175929494D01*
X135674502Y-175819180D01*
X135710812Y-175699482D01*
X135723072Y-175575000D01*
X135723072Y-174325000D01*
X135736928Y-174325000D01*
X135736928Y-175575000D01*
X135749188Y-175699482D01*
X135785498Y-175819180D01*
X135844463Y-175929494D01*
X135923815Y-176026185D01*
X136020506Y-176105537D01*
X136130820Y-176164502D01*
X136250518Y-176200812D01*
X136375000Y-176213072D01*
X137625000Y-176213072D01*
X137749482Y-176200812D01*
X137869180Y-176164502D01*
X137979494Y-176105537D01*
X138076185Y-176026185D01*
X138155537Y-175929494D01*
X138214502Y-175819180D01*
X138250812Y-175699482D01*
X138263072Y-175575000D01*
X138263072Y-174325000D01*
X138250812Y-174200518D01*
X138214502Y-174080820D01*
X138155537Y-173970506D01*
X138076185Y-173873815D01*
X137979494Y-173794463D01*
X137885000Y-173743954D01*
X137885000Y-167686578D01*
X188245051Y-117326528D01*
X188278817Y-117298817D01*
X188309371Y-117261588D01*
X188389411Y-117164059D01*
X188389412Y-117164058D01*
X188471589Y-117010313D01*
X188522195Y-116843490D01*
X188535000Y-116713477D01*
X188535000Y-116713469D01*
X188539281Y-116670000D01*
X188535000Y-116626531D01*
X188535000Y-73253469D01*
X188539281Y-73210000D01*
X188535000Y-73166531D01*
X188535000Y-73166523D01*
X188522195Y-73036510D01*
X188471589Y-72869687D01*
X188389411Y-72715941D01*
X188278817Y-72581183D01*
X188245049Y-72553470D01*
X179025000Y-63333422D01*
X179025000Y-61588072D01*
X179140000Y-61588072D01*
X179264482Y-61575812D01*
X179384180Y-61539502D01*
X179494494Y-61480537D01*
X179591185Y-61401185D01*
X179670537Y-61304494D01*
X179684665Y-61278063D01*
X179865537Y-61398918D01*
X180163088Y-61522168D01*
X180478967Y-61585000D01*
X180801033Y-61585000D01*
X181116912Y-61522168D01*
X181414463Y-61398918D01*
X181682252Y-61219987D01*
X181890000Y-61012239D01*
X182097748Y-61219987D01*
X182365537Y-61398918D01*
X182663088Y-61522168D01*
X182978967Y-61585000D01*
X183301033Y-61585000D01*
X183486525Y-61548103D01*
X190055001Y-68116580D01*
X190055000Y-117993421D01*
X138944952Y-169103470D01*
X138911184Y-169131183D01*
X138883471Y-169164951D01*
X138883468Y-169164954D01*
X138800590Y-169265941D01*
X138718412Y-169419687D01*
X138667805Y-169586510D01*
X138650719Y-169760000D01*
X138655001Y-169803479D01*
X138655000Y-173743954D01*
X138560506Y-173794463D01*
X138463815Y-173873815D01*
X138384463Y-173970506D01*
X138325498Y-174080820D01*
X138289188Y-174200518D01*
X138276928Y-174325000D01*
X138276928Y-175575000D01*
X138289188Y-175699482D01*
X138325498Y-175819180D01*
X138384463Y-175929494D01*
X138463815Y-176026185D01*
X138560506Y-176105537D01*
X138670820Y-176164502D01*
X138790518Y-176200812D01*
X138915000Y-176213072D01*
X140165000Y-176213072D01*
X140289482Y-176200812D01*
X140409180Y-176164502D01*
X140519494Y-176105537D01*
X140616185Y-176026185D01*
X140695537Y-175929494D01*
X140754502Y-175819180D01*
X140790812Y-175699482D01*
X140803072Y-175575000D01*
X140803072Y-174325000D01*
X140816928Y-174325000D01*
X140816928Y-175575000D01*
X140829188Y-175699482D01*
X140865498Y-175819180D01*
X140924463Y-175929494D01*
X141003815Y-176026185D01*
X141100506Y-176105537D01*
X141210820Y-176164502D01*
X141330518Y-176200812D01*
X141455000Y-176213072D01*
X142705000Y-176213072D01*
X142829482Y-176200812D01*
X142949180Y-176164502D01*
X143059494Y-176105537D01*
X143156185Y-176026185D01*
X143235537Y-175929494D01*
X143294502Y-175819180D01*
X143330812Y-175699482D01*
X143343072Y-175575000D01*
X143343072Y-174998506D01*
X143356928Y-174984650D01*
X143356928Y-175575000D01*
X143369188Y-175699482D01*
X143405498Y-175819180D01*
X143464463Y-175929494D01*
X143543815Y-176026185D01*
X143640506Y-176105537D01*
X143750820Y-176164502D01*
X143870518Y-176200812D01*
X143995000Y-176213072D01*
X145245000Y-176213072D01*
X145369482Y-176200812D01*
X145489180Y-176164502D01*
X145599494Y-176105537D01*
X145696185Y-176026185D01*
X145775537Y-175929494D01*
X145834502Y-175819180D01*
X145870812Y-175699482D01*
X145883072Y-175575000D01*
X145883072Y-174958506D01*
X145896928Y-174944650D01*
X145896928Y-175575000D01*
X145909188Y-175699482D01*
X145945498Y-175819180D01*
X146004463Y-175929494D01*
X146083815Y-176026185D01*
X146180506Y-176105537D01*
X146290820Y-176164502D01*
X146410518Y-176200812D01*
X146535000Y-176213072D01*
X147785000Y-176213072D01*
X147909482Y-176200812D01*
X148029180Y-176164502D01*
X148139494Y-176105537D01*
X148236185Y-176026185D01*
X148315537Y-175929494D01*
X148374502Y-175819180D01*
X148410812Y-175699482D01*
X148423072Y-175575000D01*
X148423072Y-175218506D01*
X148436928Y-175204650D01*
X148436928Y-175575000D01*
X148449188Y-175699482D01*
X148485498Y-175819180D01*
X148544463Y-175929494D01*
X148623815Y-176026185D01*
X148720506Y-176105537D01*
X148830820Y-176164502D01*
X148950518Y-176200812D01*
X149075000Y-176213072D01*
X150325000Y-176213072D01*
X150449482Y-176200812D01*
X150569180Y-176164502D01*
X150679494Y-176105537D01*
X150776185Y-176026185D01*
X150855537Y-175929494D01*
X150914502Y-175819180D01*
X150950812Y-175699482D01*
X150963072Y-175575000D01*
X150963072Y-175078506D01*
X150976928Y-175064650D01*
X150976928Y-175575000D01*
X150989188Y-175699482D01*
X151025498Y-175819180D01*
X151084463Y-175929494D01*
X151163815Y-176026185D01*
X151260506Y-176105537D01*
X151370820Y-176164502D01*
X151490518Y-176200812D01*
X151615000Y-176213072D01*
X152865000Y-176213072D01*
X152989482Y-176200812D01*
X153109180Y-176164502D01*
X153219494Y-176105537D01*
X153316185Y-176026185D01*
X153395537Y-175929494D01*
X153454502Y-175819180D01*
X153490812Y-175699482D01*
X153503072Y-175575000D01*
X153503072Y-175038506D01*
X153516928Y-175024650D01*
X153516928Y-175575000D01*
X153529188Y-175699482D01*
X153565498Y-175819180D01*
X153624463Y-175929494D01*
X153703815Y-176026185D01*
X153800506Y-176105537D01*
X153910820Y-176164502D01*
X154030518Y-176200812D01*
X154155000Y-176213072D01*
X155405000Y-176213072D01*
X155529482Y-176200812D01*
X155649180Y-176164502D01*
X155759494Y-176105537D01*
X155856185Y-176026185D01*
X155935537Y-175929494D01*
X155994502Y-175819180D01*
X156030812Y-175699482D01*
X156043072Y-175575000D01*
X156043072Y-175298506D01*
X170943517Y-160398061D01*
X177505000Y-160398061D01*
X177505000Y-160601939D01*
X177544774Y-160801898D01*
X177622795Y-160990256D01*
X177736063Y-161159774D01*
X177880226Y-161303937D01*
X178049744Y-161417205D01*
X178238102Y-161495226D01*
X178438061Y-161535000D01*
X178641939Y-161535000D01*
X178841898Y-161495226D01*
X179030256Y-161417205D01*
X179199774Y-161303937D01*
X179343937Y-161159774D01*
X179457205Y-160990256D01*
X179535226Y-160801898D01*
X179575000Y-160601939D01*
X179575000Y-160592138D01*
X184162773Y-154434863D01*
X184350256Y-154357205D01*
X184519774Y-154243937D01*
X184663937Y-154099774D01*
X184777205Y-153930256D01*
X184855226Y-153741898D01*
X184895000Y-153541939D01*
X184895000Y-153338061D01*
X184855226Y-153138102D01*
X184777205Y-152949744D01*
X184663937Y-152780226D01*
X184519774Y-152636063D01*
X184350256Y-152522795D01*
X184161898Y-152444774D01*
X183961939Y-152405000D01*
X183758061Y-152405000D01*
X183558102Y-152444774D01*
X183369744Y-152522795D01*
X183200226Y-152636063D01*
X183056063Y-152780226D01*
X182942795Y-152949744D01*
X182864774Y-153138102D01*
X182844049Y-153242296D01*
X178151010Y-159540849D01*
X178049744Y-159582795D01*
X177880226Y-159696063D01*
X177736063Y-159840226D01*
X177622795Y-160009744D01*
X177544774Y-160198102D01*
X177505000Y-160398061D01*
X170943517Y-160398061D01*
X209635051Y-121706528D01*
X209668817Y-121678817D01*
X209779411Y-121544059D01*
X209861589Y-121390313D01*
X209912195Y-121223490D01*
X209925000Y-121093477D01*
X209925000Y-121093467D01*
X209929281Y-121050001D01*
X209925000Y-121006534D01*
X209925000Y-101716578D01*
X219175051Y-92466528D01*
X219208817Y-92438817D01*
X219319411Y-92304059D01*
X219401589Y-92150313D01*
X219452195Y-91983490D01*
X219465000Y-91853477D01*
X219465000Y-91853467D01*
X219469281Y-91810001D01*
X219465000Y-91766535D01*
X219465000Y-79198818D01*
X219470535Y-79195120D01*
X219665120Y-79000535D01*
X219818005Y-78771727D01*
X219923314Y-78517490D01*
X219977000Y-78247592D01*
X219977000Y-77972408D01*
X219923314Y-77702510D01*
X219818005Y-77448273D01*
X219665120Y-77219465D01*
X219470535Y-77024880D01*
X219241727Y-76871995D01*
X218987490Y-76766686D01*
X218717592Y-76713000D01*
X218442408Y-76713000D01*
X218172510Y-76766686D01*
X217918273Y-76871995D01*
X217689465Y-77024880D01*
X217494880Y-77219465D01*
X217341995Y-77448273D01*
X217310000Y-77525515D01*
X217278005Y-77448273D01*
X217125120Y-77219465D01*
X216930535Y-77024880D01*
X216701727Y-76871995D01*
X216447490Y-76766686D01*
X216177592Y-76713000D01*
X215902408Y-76713000D01*
X215632510Y-76766686D01*
X215378273Y-76871995D01*
X215149465Y-77024880D01*
X214954880Y-77219465D01*
X214801995Y-77448273D01*
X214770000Y-77525515D01*
X214738005Y-77448273D01*
X214585120Y-77219465D01*
X214390535Y-77024880D01*
X214161727Y-76871995D01*
X213907490Y-76766686D01*
X213637592Y-76713000D01*
X213362408Y-76713000D01*
X213092510Y-76766686D01*
X212838273Y-76871995D01*
X212609465Y-77024880D01*
X212414880Y-77219465D01*
X212261995Y-77448273D01*
X212230000Y-77525515D01*
X212198005Y-77448273D01*
X212045120Y-77219465D01*
X211850535Y-77024880D01*
X211621727Y-76871995D01*
X211367490Y-76766686D01*
X211097592Y-76713000D01*
X210822408Y-76713000D01*
X210552510Y-76766686D01*
X210298273Y-76871995D01*
X210069465Y-77024880D01*
X209874880Y-77219465D01*
X209721995Y-77448273D01*
X209690000Y-77525515D01*
X209658005Y-77448273D01*
X209505120Y-77219465D01*
X209310535Y-77024880D01*
X209081727Y-76871995D01*
X208827490Y-76766686D01*
X208557592Y-76713000D01*
X208282408Y-76713000D01*
X208012510Y-76766686D01*
X207758273Y-76871995D01*
X207529465Y-77024880D01*
X207334880Y-77219465D01*
X207181995Y-77448273D01*
X207150000Y-77525515D01*
X207118005Y-77448273D01*
X206965120Y-77219465D01*
X206770535Y-77024880D01*
X206541727Y-76871995D01*
X206287490Y-76766686D01*
X206017592Y-76713000D01*
X205742408Y-76713000D01*
X205472510Y-76766686D01*
X205218273Y-76871995D01*
X204989465Y-77024880D01*
X204794880Y-77219465D01*
X204641995Y-77448273D01*
X204612308Y-77519943D01*
X204607636Y-77506977D01*
X204545656Y-77391020D01*
X204305565Y-77324040D01*
X203519605Y-78110000D01*
X204305565Y-78895960D01*
X204545656Y-78828980D01*
X204609485Y-78693240D01*
X204641995Y-78771727D01*
X204695001Y-78851056D01*
X204695000Y-91443421D01*
X195444952Y-100693470D01*
X195411184Y-100721183D01*
X195383471Y-100754951D01*
X195383468Y-100754954D01*
X195300590Y-100855941D01*
X195218412Y-101009687D01*
X195167805Y-101176510D01*
X195150719Y-101350000D01*
X195155001Y-101393479D01*
X195155000Y-120683421D01*
X142151494Y-173686928D01*
X141455000Y-173686928D01*
X141330518Y-173699188D01*
X141210820Y-173735498D01*
X141100506Y-173794463D01*
X141003815Y-173873815D01*
X140924463Y-173970506D01*
X140865498Y-174080820D01*
X140829188Y-174200518D01*
X140816928Y-174325000D01*
X140803072Y-174325000D01*
X140790812Y-174200518D01*
X140754502Y-174080820D01*
X140695537Y-173970506D01*
X140616185Y-173873815D01*
X140519494Y-173794463D01*
X140425000Y-173743954D01*
X140425000Y-170126578D01*
X179613517Y-130938061D01*
X181025000Y-130938061D01*
X181025000Y-131141939D01*
X181064774Y-131341898D01*
X181142795Y-131530256D01*
X181256063Y-131699774D01*
X181400226Y-131843937D01*
X181569744Y-131957205D01*
X181758102Y-132035226D01*
X181958061Y-132075000D01*
X182161939Y-132075000D01*
X182361898Y-132035226D01*
X182550256Y-131957205D01*
X182719774Y-131843937D01*
X182863937Y-131699774D01*
X182977205Y-131530256D01*
X183055226Y-131341898D01*
X183066535Y-131285043D01*
X193295044Y-121056535D01*
X193351898Y-121045226D01*
X193540256Y-120967205D01*
X193709774Y-120853937D01*
X193853937Y-120709774D01*
X193967205Y-120540256D01*
X194045226Y-120351898D01*
X194085000Y-120151939D01*
X194085000Y-119948061D01*
X194045226Y-119748102D01*
X193967205Y-119559744D01*
X193853937Y-119390226D01*
X193709774Y-119246063D01*
X193540256Y-119132795D01*
X193351898Y-119054774D01*
X193151939Y-119015000D01*
X192948061Y-119015000D01*
X192748102Y-119054774D01*
X192559744Y-119132795D01*
X192390226Y-119246063D01*
X192246063Y-119390226D01*
X192132795Y-119559744D01*
X192054774Y-119748102D01*
X192043465Y-119804956D01*
X181814957Y-130033465D01*
X181758102Y-130044774D01*
X181569744Y-130122795D01*
X181400226Y-130236063D01*
X181256063Y-130380226D01*
X181142795Y-130549744D01*
X181064774Y-130738102D01*
X181025000Y-130938061D01*
X179613517Y-130938061D01*
X191535051Y-119016528D01*
X191568817Y-118988817D01*
X191679411Y-118854059D01*
X191761589Y-118700313D01*
X191812195Y-118533490D01*
X191825000Y-118403477D01*
X191825000Y-118403467D01*
X191829281Y-118360001D01*
X191825000Y-118316535D01*
X191825000Y-77972408D01*
X199403000Y-77972408D01*
X199403000Y-78247592D01*
X199456686Y-78517490D01*
X199561995Y-78771727D01*
X199714880Y-79000535D01*
X199909465Y-79195120D01*
X200138273Y-79348005D01*
X200392510Y-79453314D01*
X200662408Y-79507000D01*
X200937592Y-79507000D01*
X201207490Y-79453314D01*
X201461727Y-79348005D01*
X201690535Y-79195120D01*
X201810090Y-79075565D01*
X202554040Y-79075565D01*
X202621020Y-79315656D01*
X202870048Y-79432756D01*
X203137135Y-79499023D01*
X203412017Y-79511910D01*
X203684133Y-79470922D01*
X203943023Y-79377636D01*
X204058980Y-79315656D01*
X204125960Y-79075565D01*
X203340000Y-78289605D01*
X202554040Y-79075565D01*
X201810090Y-79075565D01*
X201885120Y-79000535D01*
X202038005Y-78771727D01*
X202067692Y-78700057D01*
X202072364Y-78713023D01*
X202134344Y-78828980D01*
X202374435Y-78895960D01*
X203160395Y-78110000D01*
X202374435Y-77324040D01*
X202134344Y-77391020D01*
X202070515Y-77526760D01*
X202038005Y-77448273D01*
X201885120Y-77219465D01*
X201810090Y-77144435D01*
X202554040Y-77144435D01*
X203340000Y-77930395D01*
X204125960Y-77144435D01*
X204058980Y-76904344D01*
X203809952Y-76787244D01*
X203542865Y-76720977D01*
X203267983Y-76708090D01*
X202995867Y-76749078D01*
X202736977Y-76842364D01*
X202621020Y-76904344D01*
X202554040Y-77144435D01*
X201810090Y-77144435D01*
X201690535Y-77024880D01*
X201461727Y-76871995D01*
X201207490Y-76766686D01*
X200937592Y-76713000D01*
X200662408Y-76713000D01*
X200392510Y-76766686D01*
X200138273Y-76871995D01*
X199909465Y-77024880D01*
X199714880Y-77219465D01*
X199561995Y-77448273D01*
X199456686Y-77702510D01*
X199403000Y-77972408D01*
X191825000Y-77972408D01*
X191825000Y-67793469D01*
X191829281Y-67750000D01*
X191825000Y-67706531D01*
X191825000Y-67706523D01*
X191812195Y-67576510D01*
X191761589Y-67409687D01*
X191679411Y-67255941D01*
X191568817Y-67121183D01*
X191535049Y-67093470D01*
X184738103Y-60296525D01*
X184775000Y-60111033D01*
X184775000Y-59788967D01*
X184712168Y-59473088D01*
X184588918Y-59175537D01*
X184409987Y-58907748D01*
X184182252Y-58680013D01*
X183914463Y-58501082D01*
X183616912Y-58377832D01*
X183301033Y-58315000D01*
X182978967Y-58315000D01*
X182663088Y-58377832D01*
X182365537Y-58501082D01*
X182097748Y-58680013D01*
X181890000Y-58887761D01*
X181682252Y-58680013D01*
X181525000Y-58574941D01*
X181525000Y-50850000D01*
X184601928Y-50850000D01*
X184601928Y-54050000D01*
X184614188Y-54174482D01*
X184650498Y-54294180D01*
X184709463Y-54404494D01*
X184788815Y-54501185D01*
X184885506Y-54580537D01*
X184995820Y-54639502D01*
X185115518Y-54675812D01*
X185240000Y-54688072D01*
X187240000Y-54688072D01*
X187364482Y-54675812D01*
X187484180Y-54639502D01*
X187594494Y-54580537D01*
X187691185Y-54501185D01*
X187770537Y-54404494D01*
X187829502Y-54294180D01*
X187865812Y-54174482D01*
X187878072Y-54050000D01*
X187878072Y-50850000D01*
X187865812Y-50725518D01*
X187829502Y-50605820D01*
X187770537Y-50495506D01*
X187691185Y-50398815D01*
X187594494Y-50319463D01*
X187484180Y-50260498D01*
X187364482Y-50224188D01*
X187240000Y-50211928D01*
X185240000Y-50211928D01*
X185115518Y-50224188D01*
X184995820Y-50260498D01*
X184885506Y-50319463D01*
X184788815Y-50398815D01*
X184709463Y-50495506D01*
X184650498Y-50605820D01*
X184614188Y-50725518D01*
X184601928Y-50850000D01*
X181525000Y-50850000D01*
X181525000Y-48316578D01*
X182793475Y-47048104D01*
X182978967Y-47085000D01*
X183301033Y-47085000D01*
X183616912Y-47022168D01*
X183914463Y-46898918D01*
X184182252Y-46719987D01*
X184409987Y-46492252D01*
X184588918Y-46224463D01*
X184712168Y-45926912D01*
X184775000Y-45611033D01*
X184775000Y-45288967D01*
X184712168Y-44973088D01*
X184588918Y-44675537D01*
X184409987Y-44407748D01*
X184182252Y-44180013D01*
X183914463Y-44001082D01*
X183911851Y-44000000D01*
X196136807Y-44000000D01*
X196140000Y-44032419D01*
X196140001Y-73167571D01*
X196136807Y-73200000D01*
X196149550Y-73329383D01*
X196187290Y-73453793D01*
X196248575Y-73568450D01*
X196331052Y-73668948D01*
X196431550Y-73751425D01*
X196546207Y-73812710D01*
X196670617Y-73850450D01*
X196767581Y-73860000D01*
X196800000Y-73863193D01*
X196832419Y-73860000D01*
X220167581Y-73860000D01*
X220200000Y-73863193D01*
X220232419Y-73860000D01*
X220329383Y-73850450D01*
X220453793Y-73812710D01*
X220568450Y-73751425D01*
X220668948Y-73668948D01*
X220751425Y-73568450D01*
X220812710Y-73453793D01*
X220850450Y-73329383D01*
X220863193Y-73200000D01*
X220860000Y-73167581D01*
X220860000Y-44032419D01*
X220863193Y-44000000D01*
X220850450Y-43870617D01*
X220812710Y-43746207D01*
X220751425Y-43631550D01*
X220668948Y-43531052D01*
X220568450Y-43448575D01*
X220453793Y-43387290D01*
X220329383Y-43349550D01*
X220232419Y-43340000D01*
X220200000Y-43336807D01*
X220167581Y-43340000D01*
X196832419Y-43340000D01*
X196800000Y-43336807D01*
X196767581Y-43340000D01*
X196670617Y-43349550D01*
X196546207Y-43387290D01*
X196431550Y-43448575D01*
X196331052Y-43531052D01*
X196248575Y-43631550D01*
X196187290Y-43746207D01*
X196149550Y-43870617D01*
X196136807Y-44000000D01*
X183911851Y-44000000D01*
X183616912Y-43877832D01*
X183301033Y-43815000D01*
X182978967Y-43815000D01*
X182663088Y-43877832D01*
X182365537Y-44001082D01*
X182097748Y-44180013D01*
X181870013Y-44407748D01*
X181691082Y-44675537D01*
X181567832Y-44973088D01*
X181505000Y-45288967D01*
X181505000Y-45611033D01*
X181541896Y-45796525D01*
X180044951Y-47293471D01*
X180011184Y-47321183D01*
X179983471Y-47354951D01*
X179983468Y-47354954D01*
X179900590Y-47455941D01*
X179818412Y-47609687D01*
X179767805Y-47776510D01*
X179750719Y-47950000D01*
X179755001Y-47993479D01*
X179755000Y-58574940D01*
X179684665Y-58621937D01*
X179670537Y-58595506D01*
X179591185Y-58498815D01*
X179494494Y-58419463D01*
X179384180Y-58360498D01*
X179264482Y-58324188D01*
X179140000Y-58311928D01*
X177140000Y-58311928D01*
X177015518Y-58324188D01*
X176895820Y-58360498D01*
X176785506Y-58419463D01*
X176688815Y-58498815D01*
X176609463Y-58595506D01*
X176550498Y-58705820D01*
X176514188Y-58825518D01*
X176501928Y-58950000D01*
X176501928Y-60950000D01*
X176514188Y-61074482D01*
X176550498Y-61194180D01*
X176609463Y-61304494D01*
X176688815Y-61401185D01*
X176785506Y-61480537D01*
X176895820Y-61539502D01*
X177015518Y-61575812D01*
X177140000Y-61588072D01*
X177255001Y-61588072D01*
X177255000Y-63656531D01*
X177250719Y-63700000D01*
X177255000Y-63743469D01*
X177255000Y-63743476D01*
X177267805Y-63873489D01*
X177318411Y-64040312D01*
X177400589Y-64194058D01*
X177511183Y-64328817D01*
X177544956Y-64356534D01*
X186765001Y-73576580D01*
X186765000Y-116303421D01*
X136404952Y-166663470D01*
X136371184Y-166691183D01*
X136343471Y-166724951D01*
X136343468Y-166724954D01*
X136260590Y-166825941D01*
X136178412Y-166979687D01*
X136127805Y-167146510D01*
X136110719Y-167320000D01*
X136115001Y-167363479D01*
X136115000Y-173743954D01*
X136020506Y-173794463D01*
X135923815Y-173873815D01*
X135844463Y-173970506D01*
X135785498Y-174080820D01*
X135749188Y-174200518D01*
X135736928Y-174325000D01*
X135723072Y-174325000D01*
X135710812Y-174200518D01*
X135674502Y-174080820D01*
X135615537Y-173970506D01*
X135536185Y-173873815D01*
X135439494Y-173794463D01*
X135345000Y-173743954D01*
X135345000Y-166766578D01*
X167855051Y-134256528D01*
X167888817Y-134228817D01*
X167999411Y-134094059D01*
X168081589Y-133940313D01*
X168132195Y-133773490D01*
X168145000Y-133643477D01*
X168145000Y-133643469D01*
X168149281Y-133600000D01*
X168145000Y-133556531D01*
X168145000Y-127988061D01*
X172405000Y-127988061D01*
X172405000Y-128191939D01*
X172444774Y-128391898D01*
X172522795Y-128580256D01*
X172636063Y-128749774D01*
X172780226Y-128893937D01*
X172949744Y-129007205D01*
X173138102Y-129085226D01*
X173338061Y-129125000D01*
X173541939Y-129125000D01*
X173741898Y-129085226D01*
X173930256Y-129007205D01*
X174099774Y-128893937D01*
X174243937Y-128749774D01*
X174357205Y-128580256D01*
X174435226Y-128391898D01*
X174446535Y-128335043D01*
X186245051Y-116536528D01*
X186278817Y-116508817D01*
X186389411Y-116374059D01*
X186446896Y-116266511D01*
X186471589Y-116220314D01*
X186522195Y-116053490D01*
X186526137Y-116013468D01*
X186535000Y-115923477D01*
X186535000Y-115923469D01*
X186539281Y-115880000D01*
X186535000Y-115836531D01*
X186535000Y-109223556D01*
X186537205Y-109220256D01*
X186615226Y-109031898D01*
X186655000Y-108831939D01*
X186655000Y-108628061D01*
X186615226Y-108428102D01*
X186537205Y-108239744D01*
X186423937Y-108070226D01*
X186279774Y-107926063D01*
X186110256Y-107812795D01*
X185921898Y-107734774D01*
X185721939Y-107695000D01*
X185518061Y-107695000D01*
X185318102Y-107734774D01*
X185129744Y-107812795D01*
X184960226Y-107926063D01*
X184816063Y-108070226D01*
X184702795Y-108239744D01*
X184624774Y-108428102D01*
X184585000Y-108628061D01*
X184585000Y-108831939D01*
X184624774Y-109031898D01*
X184702795Y-109220256D01*
X184765001Y-109313354D01*
X184765000Y-115513421D01*
X173194957Y-127083465D01*
X173138102Y-127094774D01*
X172949744Y-127172795D01*
X172780226Y-127286063D01*
X172636063Y-127430226D01*
X172522795Y-127599744D01*
X172444774Y-127788102D01*
X172405000Y-127988061D01*
X168145000Y-127988061D01*
X168145000Y-50850000D01*
X173401928Y-50850000D01*
X173401928Y-54050000D01*
X173414188Y-54174482D01*
X173450498Y-54294180D01*
X173509463Y-54404494D01*
X173588815Y-54501185D01*
X173685506Y-54580537D01*
X173795820Y-54639502D01*
X173915518Y-54675812D01*
X174040000Y-54688072D01*
X176040000Y-54688072D01*
X176164482Y-54675812D01*
X176284180Y-54639502D01*
X176394494Y-54580537D01*
X176491185Y-54501185D01*
X176570537Y-54404494D01*
X176629502Y-54294180D01*
X176665812Y-54174482D01*
X176678072Y-54050000D01*
X176678072Y-50850000D01*
X176665812Y-50725518D01*
X176629502Y-50605820D01*
X176570537Y-50495506D01*
X176491185Y-50398815D01*
X176394494Y-50319463D01*
X176284180Y-50260498D01*
X176164482Y-50224188D01*
X176040000Y-50211928D01*
X174040000Y-50211928D01*
X173915518Y-50224188D01*
X173795820Y-50260498D01*
X173685506Y-50319463D01*
X173588815Y-50398815D01*
X173509463Y-50495506D01*
X173450498Y-50605820D01*
X173414188Y-50725518D01*
X173401928Y-50850000D01*
X168145000Y-50850000D01*
X168145000Y-50726578D01*
X172536579Y-46335000D01*
X176764941Y-46335000D01*
X176870013Y-46492252D01*
X177097748Y-46719987D01*
X177365537Y-46898918D01*
X177663088Y-47022168D01*
X177978967Y-47085000D01*
X178301033Y-47085000D01*
X178616912Y-47022168D01*
X178914463Y-46898918D01*
X179182252Y-46719987D01*
X179409987Y-46492252D01*
X179588918Y-46224463D01*
X179712168Y-45926912D01*
X179775000Y-45611033D01*
X179775000Y-45288967D01*
X179712168Y-44973088D01*
X179588918Y-44675537D01*
X179409987Y-44407748D01*
X179182252Y-44180013D01*
X178914463Y-44001082D01*
X178616912Y-43877832D01*
X178301033Y-43815000D01*
X177978967Y-43815000D01*
X177663088Y-43877832D01*
X177365537Y-44001082D01*
X177097748Y-44180013D01*
X176870013Y-44407748D01*
X176764941Y-44565000D01*
X172213469Y-44565000D01*
X172170000Y-44560719D01*
X172126531Y-44565000D01*
X172126523Y-44565000D01*
X171996510Y-44577805D01*
X171829686Y-44628411D01*
X171675941Y-44710589D01*
X171574953Y-44793468D01*
X171574951Y-44793470D01*
X171541183Y-44821183D01*
X171513470Y-44854951D01*
X166664952Y-49703470D01*
X166631184Y-49731183D01*
X166603471Y-49764951D01*
X166603468Y-49764954D01*
X166520590Y-49865941D01*
X166438412Y-50019687D01*
X166387805Y-50186510D01*
X166370719Y-50360000D01*
X166375001Y-50403479D01*
X166375000Y-133233421D01*
X133864952Y-165743470D01*
X133831184Y-165771183D01*
X133803471Y-165804951D01*
X133803468Y-165804954D01*
X133720590Y-165905941D01*
X133638412Y-166059687D01*
X133587805Y-166226510D01*
X133570719Y-166400000D01*
X133575001Y-166443479D01*
X133575000Y-173743954D01*
X133480506Y-173794463D01*
X133383815Y-173873815D01*
X133304463Y-173970506D01*
X133245498Y-174080820D01*
X133209188Y-174200518D01*
X133196928Y-174325000D01*
X133183072Y-174325000D01*
X133170812Y-174200518D01*
X133134502Y-174080820D01*
X133075537Y-173970506D01*
X132996185Y-173873815D01*
X132899494Y-173794463D01*
X132805000Y-173743954D01*
X132805000Y-165426578D01*
X165425049Y-132806530D01*
X165458817Y-132778817D01*
X165569411Y-132644059D01*
X165651589Y-132490313D01*
X165702195Y-132323490D01*
X165715000Y-132193477D01*
X165715000Y-132193467D01*
X165719281Y-132150001D01*
X165715000Y-132106535D01*
X165715000Y-58703465D01*
X165719281Y-58659999D01*
X165715000Y-58616533D01*
X165715000Y-58616523D01*
X165702195Y-58486510D01*
X165651589Y-58319687D01*
X165569411Y-58165941D01*
X165523501Y-58110000D01*
X165486532Y-58064953D01*
X165486530Y-58064951D01*
X165458817Y-58031183D01*
X165425050Y-58003471D01*
X163486534Y-56064956D01*
X163458817Y-56031183D01*
X163324059Y-55920589D01*
X163277031Y-55895452D01*
X162726534Y-55344956D01*
X162698817Y-55311183D01*
X162564059Y-55200589D01*
X162410313Y-55118411D01*
X162243490Y-55067805D01*
X162113477Y-55055000D01*
X162113469Y-55055000D01*
X162070000Y-55050719D01*
X162026531Y-55055000D01*
X155028454Y-55055000D01*
X154980256Y-55022795D01*
X154791898Y-54944774D01*
X154591939Y-54905000D01*
X154388061Y-54905000D01*
X154188102Y-54944774D01*
X153999744Y-55022795D01*
X153830226Y-55136063D01*
X153686063Y-55280226D01*
X153572795Y-55449744D01*
X153494774Y-55638102D01*
X153455000Y-55838061D01*
X153455000Y-56041939D01*
X153494774Y-56241898D01*
X153572795Y-56430256D01*
X153686063Y-56599774D01*
X153830226Y-56743937D01*
X153999744Y-56857205D01*
X154188102Y-56935226D01*
X154388061Y-56975000D01*
X154591939Y-56975000D01*
X154791898Y-56935226D01*
X154980256Y-56857205D01*
X155028454Y-56825000D01*
X161703422Y-56825000D01*
X162133470Y-57255049D01*
X162161183Y-57288817D01*
X162194951Y-57316530D01*
X162194953Y-57316532D01*
X162243861Y-57356670D01*
X162295941Y-57399411D01*
X162342970Y-57424548D01*
X163945000Y-59026579D01*
X163945001Y-131783420D01*
X131324956Y-164403466D01*
X131291183Y-164431183D01*
X131180589Y-164565942D01*
X131098411Y-164719688D01*
X131047805Y-164886511D01*
X131035000Y-165016524D01*
X131035000Y-165016531D01*
X131030719Y-165060000D01*
X131035000Y-165103469D01*
X131035001Y-173743954D01*
X130940506Y-173794463D01*
X130843815Y-173873815D01*
X130764463Y-173970506D01*
X130705498Y-174080820D01*
X130669188Y-174200518D01*
X130656928Y-174325000D01*
X130643072Y-174325000D01*
X130630812Y-174200518D01*
X130594502Y-174080820D01*
X130535537Y-173970506D01*
X130456185Y-173873815D01*
X130359494Y-173794463D01*
X130265000Y-173743954D01*
X130265000Y-164746578D01*
X163055051Y-131956528D01*
X163088817Y-131928817D01*
X163179093Y-131818817D01*
X163199411Y-131794059D01*
X163281589Y-131640314D01*
X163332195Y-131473490D01*
X163338390Y-131410590D01*
X163345000Y-131343477D01*
X163345000Y-131343469D01*
X163349281Y-131300000D01*
X163345000Y-131256531D01*
X163345000Y-61413469D01*
X163349281Y-61370000D01*
X163345000Y-61326531D01*
X163345000Y-61326523D01*
X163332195Y-61196510D01*
X163281589Y-61029687D01*
X163199411Y-60875941D01*
X163116532Y-60774953D01*
X163116530Y-60774951D01*
X163088817Y-60741183D01*
X163055049Y-60713470D01*
X159856533Y-57514955D01*
X159828818Y-57481184D01*
X159694060Y-57370590D01*
X159540314Y-57288412D01*
X159373491Y-57237806D01*
X159243478Y-57225001D01*
X159243470Y-57225001D01*
X159200001Y-57220720D01*
X159156532Y-57225001D01*
X155073286Y-57225001D01*
X154950256Y-57142795D01*
X154761898Y-57064774D01*
X154561939Y-57025000D01*
X154358061Y-57025000D01*
X154158102Y-57064774D01*
X153969744Y-57142795D01*
X153800226Y-57256063D01*
X153656063Y-57400226D01*
X153542795Y-57569744D01*
X153464774Y-57758102D01*
X153425000Y-57958061D01*
X153425000Y-58161939D01*
X153464774Y-58361898D01*
X153542795Y-58550256D01*
X153656063Y-58719774D01*
X153800226Y-58863937D01*
X153969744Y-58977205D01*
X154158102Y-59055226D01*
X154358061Y-59095000D01*
X154561939Y-59095000D01*
X154761898Y-59055226D01*
X154907293Y-58995001D01*
X158833423Y-58995001D01*
X161575001Y-61736580D01*
X161575000Y-130933421D01*
X128784952Y-163723470D01*
X128751184Y-163751183D01*
X128723471Y-163784951D01*
X128723468Y-163784954D01*
X128640590Y-163885941D01*
X128558412Y-164039687D01*
X128507805Y-164206510D01*
X128490719Y-164380000D01*
X128495001Y-164423479D01*
X128495000Y-173743954D01*
X128400506Y-173794463D01*
X128303815Y-173873815D01*
X128224463Y-173970506D01*
X128165498Y-174080820D01*
X128129188Y-174200518D01*
X128116928Y-174325000D01*
X128103072Y-174325000D01*
X128090812Y-174200518D01*
X128054502Y-174080820D01*
X127995537Y-173970506D01*
X127916185Y-173873815D01*
X127819494Y-173794463D01*
X127725000Y-173743954D01*
X127725000Y-162856578D01*
X158735049Y-131846530D01*
X158768817Y-131818817D01*
X158879411Y-131684059D01*
X158902793Y-131640314D01*
X158961589Y-131530314D01*
X159012195Y-131363490D01*
X159014166Y-131343476D01*
X159025000Y-131233477D01*
X159025000Y-131233469D01*
X159029281Y-131190000D01*
X159025000Y-131146531D01*
X159025000Y-65856046D01*
X159119494Y-65805537D01*
X159216185Y-65726185D01*
X159295537Y-65629494D01*
X159354502Y-65519180D01*
X159390812Y-65399482D01*
X159403072Y-65275000D01*
X159403072Y-64025000D01*
X159390812Y-63900518D01*
X159354502Y-63780820D01*
X159295537Y-63670506D01*
X159216185Y-63573815D01*
X159119494Y-63494463D01*
X159009180Y-63435498D01*
X158889482Y-63399188D01*
X158765000Y-63386928D01*
X157515000Y-63386928D01*
X157390518Y-63399188D01*
X157270820Y-63435498D01*
X157160506Y-63494463D01*
X157063815Y-63573815D01*
X156984463Y-63670506D01*
X156925498Y-63780820D01*
X156889188Y-63900518D01*
X156876928Y-64025000D01*
X156876928Y-65275000D01*
X156889188Y-65399482D01*
X156925498Y-65519180D01*
X156984463Y-65629494D01*
X157063815Y-65726185D01*
X157160506Y-65805537D01*
X157255000Y-65856046D01*
X157255001Y-130823420D01*
X126244956Y-161833466D01*
X126211183Y-161861183D01*
X126100589Y-161995942D01*
X126018411Y-162149688D01*
X125967805Y-162316511D01*
X125955000Y-162446524D01*
X125955000Y-162446531D01*
X125950719Y-162490000D01*
X125955000Y-162533469D01*
X125955001Y-173743954D01*
X125860506Y-173794463D01*
X125763815Y-173873815D01*
X125684463Y-173970506D01*
X125625498Y-174080820D01*
X125589188Y-174200518D01*
X125576928Y-174325000D01*
X125563072Y-174325000D01*
X125550812Y-174200518D01*
X125514502Y-174080820D01*
X125455537Y-173970506D01*
X125376185Y-173873815D01*
X125279494Y-173794463D01*
X125169180Y-173735498D01*
X125049482Y-173699188D01*
X124925000Y-173686928D01*
X123675000Y-173686928D01*
X123550518Y-173699188D01*
X123430820Y-173735498D01*
X123320506Y-173794463D01*
X123223815Y-173873815D01*
X123144463Y-173970506D01*
X123085498Y-174080820D01*
X123049188Y-174200518D01*
X123036928Y-174325000D01*
X123023072Y-174325000D01*
X123010812Y-174200518D01*
X122974502Y-174080820D01*
X122915537Y-173970506D01*
X122836185Y-173873815D01*
X122739494Y-173794463D01*
X122645000Y-173743954D01*
X122645000Y-171593465D01*
X122649281Y-171549999D01*
X122645000Y-171506533D01*
X122645000Y-171506523D01*
X122632195Y-171376510D01*
X122581589Y-171209687D01*
X122499411Y-171055941D01*
X122388817Y-170921183D01*
X122355049Y-170893470D01*
X117311534Y-165849956D01*
X117283817Y-165816183D01*
X117149059Y-165705589D01*
X116995313Y-165623411D01*
X116828490Y-165572805D01*
X116698477Y-165560000D01*
X116698469Y-165560000D01*
X116655000Y-165555719D01*
X116611531Y-165560000D01*
X108121579Y-165560000D01*
X106559640Y-163998061D01*
X114435000Y-163998061D01*
X114435000Y-164201939D01*
X114474774Y-164401898D01*
X114552795Y-164590256D01*
X114666063Y-164759774D01*
X114810226Y-164903937D01*
X114979744Y-165017205D01*
X115168102Y-165095226D01*
X115368061Y-165135000D01*
X115571939Y-165135000D01*
X115771898Y-165095226D01*
X115960256Y-165017205D01*
X116129774Y-164903937D01*
X116273937Y-164759774D01*
X116387205Y-164590256D01*
X116465226Y-164401898D01*
X116476535Y-164345043D01*
X120666579Y-160155000D01*
X126116531Y-160155000D01*
X126160000Y-160159281D01*
X126203469Y-160155000D01*
X126203477Y-160155000D01*
X126333490Y-160142195D01*
X126500313Y-160091589D01*
X126654059Y-160009411D01*
X126788817Y-159898817D01*
X126816534Y-159865044D01*
X151745051Y-134936528D01*
X151778817Y-134908817D01*
X151889411Y-134774059D01*
X151971589Y-134620313D01*
X152006843Y-134504097D01*
X152022195Y-134453491D01*
X152025337Y-134421589D01*
X152035000Y-134323477D01*
X152035000Y-134323469D01*
X152039281Y-134280000D01*
X152035000Y-134236531D01*
X152035000Y-65768191D01*
X152080506Y-65805537D01*
X152190820Y-65864502D01*
X152310518Y-65900812D01*
X152435000Y-65913072D01*
X153685000Y-65913072D01*
X153809482Y-65900812D01*
X153929180Y-65864502D01*
X154039494Y-65805537D01*
X154136185Y-65726185D01*
X154215537Y-65629494D01*
X154274502Y-65519180D01*
X154310812Y-65399482D01*
X154323072Y-65275000D01*
X154323072Y-64025000D01*
X154336928Y-64025000D01*
X154336928Y-65275000D01*
X154349188Y-65399482D01*
X154385498Y-65519180D01*
X154444463Y-65629494D01*
X154523815Y-65726185D01*
X154620506Y-65805537D01*
X154730820Y-65864502D01*
X154850518Y-65900812D01*
X154975000Y-65913072D01*
X156225000Y-65913072D01*
X156349482Y-65900812D01*
X156469180Y-65864502D01*
X156579494Y-65805537D01*
X156676185Y-65726185D01*
X156755537Y-65629494D01*
X156814502Y-65519180D01*
X156850812Y-65399482D01*
X156863072Y-65275000D01*
X156863072Y-64025000D01*
X156850812Y-63900518D01*
X156814502Y-63780820D01*
X156755537Y-63670506D01*
X156676185Y-63573815D01*
X156579494Y-63494463D01*
X156469180Y-63435498D01*
X156349482Y-63399188D01*
X156225000Y-63386928D01*
X154975000Y-63386928D01*
X154850518Y-63399188D01*
X154730820Y-63435498D01*
X154620506Y-63494463D01*
X154523815Y-63573815D01*
X154444463Y-63670506D01*
X154385498Y-63780820D01*
X154349188Y-63900518D01*
X154336928Y-64025000D01*
X154323072Y-64025000D01*
X154310812Y-63900518D01*
X154274502Y-63780820D01*
X154215537Y-63670506D01*
X154136185Y-63573815D01*
X154039494Y-63494463D01*
X153929180Y-63435498D01*
X153809482Y-63399188D01*
X153685000Y-63386928D01*
X152435000Y-63386928D01*
X152310518Y-63399188D01*
X152190820Y-63435498D01*
X152080506Y-63494463D01*
X152035000Y-63531809D01*
X152035000Y-56016578D01*
X154336579Y-53715000D01*
X161721546Y-53715000D01*
X161769744Y-53747205D01*
X161958102Y-53825226D01*
X162158061Y-53865000D01*
X162361939Y-53865000D01*
X162561898Y-53825226D01*
X162750256Y-53747205D01*
X162919774Y-53633937D01*
X163063937Y-53489774D01*
X163177205Y-53320256D01*
X163255226Y-53131898D01*
X163295000Y-52931939D01*
X163295000Y-52728061D01*
X163255226Y-52528102D01*
X163177205Y-52339744D01*
X163063937Y-52170226D01*
X162919774Y-52026063D01*
X162750256Y-51912795D01*
X162561898Y-51834774D01*
X162361939Y-51795000D01*
X162158061Y-51795000D01*
X161958102Y-51834774D01*
X161769744Y-51912795D01*
X161721546Y-51945000D01*
X154013465Y-51945000D01*
X153969999Y-51940719D01*
X153926533Y-51945000D01*
X153926523Y-51945000D01*
X153796510Y-51957805D01*
X153629687Y-52008411D01*
X153475941Y-52090589D01*
X153475939Y-52090590D01*
X153475940Y-52090590D01*
X153374953Y-52173468D01*
X153374951Y-52173470D01*
X153341183Y-52201183D01*
X153313470Y-52234951D01*
X150554951Y-54993471D01*
X150521184Y-55021183D01*
X150493471Y-55054951D01*
X150493468Y-55054954D01*
X150410590Y-55155941D01*
X150328412Y-55309687D01*
X150277805Y-55476510D01*
X150260719Y-55650000D01*
X150265001Y-55693479D01*
X150265000Y-59133476D01*
X150265001Y-59133486D01*
X150265001Y-72015000D01*
X150156523Y-72015000D01*
X150026510Y-72027805D01*
X149859687Y-72078411D01*
X149705941Y-72160589D01*
X149571183Y-72271183D01*
X149460589Y-72405941D01*
X149378411Y-72559687D01*
X149327805Y-72726510D01*
X149310718Y-72900000D01*
X149327805Y-73073490D01*
X149378411Y-73240313D01*
X149460589Y-73394059D01*
X149571183Y-73528817D01*
X149705941Y-73639411D01*
X149859687Y-73721589D01*
X150026510Y-73772195D01*
X150156523Y-73785000D01*
X150265001Y-73785000D01*
X150265000Y-133913421D01*
X125793422Y-158385000D01*
X120343469Y-158385000D01*
X120300000Y-158380719D01*
X120256531Y-158385000D01*
X120256523Y-158385000D01*
X120126510Y-158397805D01*
X119959686Y-158448411D01*
X119805941Y-158530589D01*
X119704953Y-158613468D01*
X119704951Y-158613470D01*
X119671183Y-158641183D01*
X119643470Y-158674951D01*
X115224957Y-163093465D01*
X115168102Y-163104774D01*
X114979744Y-163182795D01*
X114810226Y-163296063D01*
X114666063Y-163440226D01*
X114552795Y-163609744D01*
X114474774Y-163798102D01*
X114435000Y-163998061D01*
X106559640Y-163998061D01*
X100198030Y-157636452D01*
X100170313Y-157602679D01*
X100035555Y-157492085D01*
X99881809Y-157409907D01*
X99714986Y-157359301D01*
X99584973Y-157346496D01*
X99584965Y-157346496D01*
X99541496Y-157342215D01*
X99498027Y-157346496D01*
X91490020Y-157346496D01*
X90379778Y-155815000D01*
X90551939Y-155815000D01*
X90751898Y-155775226D01*
X90940256Y-155697205D01*
X91109774Y-155583937D01*
X91253937Y-155439774D01*
X91367205Y-155270256D01*
X91445226Y-155081898D01*
X91485000Y-154881939D01*
X91485000Y-154678061D01*
X91445226Y-154478102D01*
X91367205Y-154289744D01*
X91335000Y-154241546D01*
X91335000Y-145686578D01*
X91555044Y-145466535D01*
X91611898Y-145455226D01*
X91800256Y-145377205D01*
X91969774Y-145263937D01*
X92113937Y-145119774D01*
X92227205Y-144950256D01*
X92305226Y-144761898D01*
X92345000Y-144561939D01*
X92345000Y-144358061D01*
X92305226Y-144158102D01*
X92227205Y-143969744D01*
X92113937Y-143800226D01*
X91969774Y-143656063D01*
X91800256Y-143542795D01*
X91611898Y-143464774D01*
X91411939Y-143425000D01*
X91208061Y-143425000D01*
X91008102Y-143464774D01*
X90819744Y-143542795D01*
X90650226Y-143656063D01*
X90506063Y-143800226D01*
X90392795Y-143969744D01*
X90314774Y-144158102D01*
X90303465Y-144214956D01*
X89854951Y-144663471D01*
X89821184Y-144691183D01*
X89793471Y-144724951D01*
X89793468Y-144724954D01*
X89710590Y-144825941D01*
X89628412Y-144979687D01*
X89577805Y-145146510D01*
X89560719Y-145320000D01*
X89565001Y-145363479D01*
X89565000Y-154241546D01*
X89532795Y-154289744D01*
X89454774Y-154478102D01*
X89445265Y-154525908D01*
X79474778Y-140772358D01*
X79488061Y-140775000D01*
X79691939Y-140775000D01*
X79891898Y-140735226D01*
X80080256Y-140657205D01*
X80249774Y-140543937D01*
X80393937Y-140399774D01*
X80507205Y-140230256D01*
X80585226Y-140041898D01*
X80625000Y-139841939D01*
X80625000Y-139638061D01*
X80585226Y-139438102D01*
X80507205Y-139249744D01*
X80475000Y-139201546D01*
X80475000Y-130370093D01*
X80530256Y-130347205D01*
X80699774Y-130233937D01*
X80843937Y-130089774D01*
X80957205Y-129920256D01*
X81035226Y-129731898D01*
X81075000Y-129531939D01*
X81075000Y-129328061D01*
X81035226Y-129128102D01*
X80957205Y-128939744D01*
X80843937Y-128770226D01*
X80699774Y-128626063D01*
X80530256Y-128512795D01*
X80341898Y-128434774D01*
X80141939Y-128395000D01*
X79938061Y-128395000D01*
X79738102Y-128434774D01*
X79549744Y-128512795D01*
X79380226Y-128626063D01*
X79236063Y-128770226D01*
X79122795Y-128939744D01*
X79044774Y-129128102D01*
X79033465Y-129184957D01*
X78994952Y-129223470D01*
X78961184Y-129251183D01*
X78933471Y-129284951D01*
X78933468Y-129284954D01*
X78850590Y-129385941D01*
X78768412Y-129539687D01*
X78717805Y-129706510D01*
X78700719Y-129880000D01*
X78705001Y-129923479D01*
X78705000Y-139201546D01*
X78672795Y-139249744D01*
X78594774Y-139438102D01*
X78575988Y-139532544D01*
X68061256Y-125028248D01*
X68078102Y-125035226D01*
X68278061Y-125075000D01*
X68481939Y-125075000D01*
X68681898Y-125035226D01*
X68870256Y-124957205D01*
X69039774Y-124843937D01*
X69183937Y-124699774D01*
X69297205Y-124530256D01*
X69375226Y-124341898D01*
X69415000Y-124141939D01*
X69415000Y-123938061D01*
X69375226Y-123738102D01*
X69297205Y-123549744D01*
X69183937Y-123380226D01*
X69039774Y-123236063D01*
X68870256Y-123122795D01*
X68774453Y-123083112D01*
X66305000Y-119729329D01*
X66305000Y-116906662D01*
X66400256Y-116867205D01*
X66569774Y-116753937D01*
X66713937Y-116609774D01*
X66827205Y-116440256D01*
X66905226Y-116251898D01*
X66945000Y-116051939D01*
X66945000Y-115848061D01*
X66905226Y-115648102D01*
X66827205Y-115459744D01*
X66713937Y-115290226D01*
X66569774Y-115146063D01*
X66400256Y-115032795D01*
X66211898Y-114954774D01*
X66011939Y-114915000D01*
X65808061Y-114915000D01*
X65608102Y-114954774D01*
X65419744Y-115032795D01*
X65250226Y-115146063D01*
X65106063Y-115290226D01*
X64992795Y-115459744D01*
X64914774Y-115648102D01*
X64903465Y-115704957D01*
X64824956Y-115783466D01*
X64791183Y-115811183D01*
X64680589Y-115945942D01*
X64598411Y-116099688D01*
X64547805Y-116266511D01*
X64535000Y-116396524D01*
X64535000Y-116396531D01*
X64530719Y-116440000D01*
X64535000Y-116483469D01*
X64535001Y-119996736D01*
X64531644Y-120060571D01*
X64541243Y-120126850D01*
X64546463Y-120179850D01*
X61335000Y-115749875D01*
X61335000Y-115728061D01*
X61295226Y-115528102D01*
X61217205Y-115339744D01*
X61103937Y-115170226D01*
X60959774Y-115026063D01*
X60790256Y-114912795D01*
X60601898Y-114834774D01*
X60401939Y-114795000D01*
X60198061Y-114795000D01*
X59998102Y-114834774D01*
X59809744Y-114912795D01*
X59640226Y-115026063D01*
X59496063Y-115170226D01*
X59382795Y-115339744D01*
X59304774Y-115528102D01*
X59265000Y-115728061D01*
X58649311Y-115728061D01*
X54566179Y-110108061D01*
X108395000Y-110108061D01*
X108395000Y-110311939D01*
X108434774Y-110511898D01*
X108512795Y-110700256D01*
X108626063Y-110869774D01*
X108770226Y-111013937D01*
X108939744Y-111127205D01*
X109128102Y-111205226D01*
X109328061Y-111245000D01*
X109531939Y-111245000D01*
X109731898Y-111205226D01*
X109920256Y-111127205D01*
X110089774Y-111013937D01*
X110233937Y-110869774D01*
X110347205Y-110700256D01*
X110425226Y-110511898D01*
X110436535Y-110455043D01*
X120206579Y-100685000D01*
X120796580Y-100685000D01*
X120859744Y-100727205D01*
X121048102Y-100805226D01*
X121248061Y-100845000D01*
X121451939Y-100845000D01*
X121651898Y-100805226D01*
X121840256Y-100727205D01*
X122009774Y-100613937D01*
X122153937Y-100469774D01*
X122267205Y-100300256D01*
X122345226Y-100111898D01*
X122385000Y-99911939D01*
X122385000Y-99708061D01*
X122345226Y-99508102D01*
X122267205Y-99319744D01*
X122153937Y-99150226D01*
X122009774Y-99006063D01*
X121840256Y-98892795D01*
X121651898Y-98814774D01*
X121451939Y-98775000D01*
X121248061Y-98775000D01*
X121048102Y-98814774D01*
X120859744Y-98892795D01*
X120826512Y-98915000D01*
X119883465Y-98915000D01*
X119839999Y-98910719D01*
X119796533Y-98915000D01*
X119796523Y-98915000D01*
X119666510Y-98927805D01*
X119499687Y-98978411D01*
X119345941Y-99060589D01*
X119345939Y-99060590D01*
X119345940Y-99060590D01*
X119244953Y-99143468D01*
X119244951Y-99143470D01*
X119211183Y-99171183D01*
X119183470Y-99204951D01*
X109184957Y-109203465D01*
X109128102Y-109214774D01*
X108939744Y-109292795D01*
X108770226Y-109406063D01*
X108626063Y-109550226D01*
X108512795Y-109719744D01*
X108434774Y-109908102D01*
X108395000Y-110108061D01*
X54566179Y-110108061D01*
X44096795Y-95698061D01*
X129095000Y-95698061D01*
X129095000Y-95901939D01*
X129134774Y-96101898D01*
X129212795Y-96290256D01*
X129245000Y-96338454D01*
X129245001Y-110476521D01*
X129240719Y-110520000D01*
X129257805Y-110693490D01*
X129308412Y-110860313D01*
X129390590Y-111014059D01*
X129473468Y-111115046D01*
X129473471Y-111115049D01*
X129501184Y-111148817D01*
X129534951Y-111176529D01*
X132303465Y-113945044D01*
X132314774Y-114001898D01*
X132392795Y-114190256D01*
X132506063Y-114359774D01*
X132650226Y-114503937D01*
X132819744Y-114617205D01*
X133008102Y-114695226D01*
X133208061Y-114735000D01*
X133411939Y-114735000D01*
X133611898Y-114695226D01*
X133800256Y-114617205D01*
X133969774Y-114503937D01*
X134113937Y-114359774D01*
X134227205Y-114190256D01*
X134305226Y-114001898D01*
X134345000Y-113801939D01*
X134345000Y-113598061D01*
X134305226Y-113398102D01*
X134227205Y-113209744D01*
X134113937Y-113040226D01*
X133969774Y-112896063D01*
X133800256Y-112782795D01*
X133611898Y-112704774D01*
X133555044Y-112693465D01*
X131015000Y-110153422D01*
X131015000Y-96338454D01*
X131047205Y-96290256D01*
X131125226Y-96101898D01*
X131165000Y-95901939D01*
X131165000Y-95698061D01*
X131125226Y-95498102D01*
X131047205Y-95309744D01*
X130933937Y-95140226D01*
X130789774Y-94996063D01*
X130620256Y-94882795D01*
X130431898Y-94804774D01*
X130231939Y-94765000D01*
X130028061Y-94765000D01*
X129828102Y-94804774D01*
X129639744Y-94882795D01*
X129470226Y-94996063D01*
X129326063Y-95140226D01*
X129212795Y-95309744D01*
X129134774Y-95498102D01*
X129095000Y-95698061D01*
X44096795Y-95698061D01*
X22918890Y-66548915D01*
X26804625Y-63596692D01*
X31328056Y-60355117D01*
X35867818Y-57290000D01*
X87621928Y-57290000D01*
X87621928Y-59290000D01*
X87634188Y-59414482D01*
X87670498Y-59534180D01*
X87729463Y-59644494D01*
X87808815Y-59741185D01*
X87905506Y-59820537D01*
X88015820Y-59879502D01*
X88135518Y-59915812D01*
X88260000Y-59928072D01*
X91460000Y-59928072D01*
X91584482Y-59915812D01*
X91704180Y-59879502D01*
X91814494Y-59820537D01*
X91911185Y-59741185D01*
X91990537Y-59644494D01*
X92049502Y-59534180D01*
X92085812Y-59414482D01*
X92098072Y-59290000D01*
X92098072Y-59175000D01*
X99116531Y-59175000D01*
X99160000Y-59179281D01*
X99203469Y-59175000D01*
X99203477Y-59175000D01*
X99333490Y-59162195D01*
X99500313Y-59111589D01*
X99654059Y-59029411D01*
X99788817Y-58918817D01*
X99816534Y-58885044D01*
X109466579Y-49235000D01*
X111893422Y-49235000D01*
X119223470Y-56565049D01*
X119251183Y-56598817D01*
X119284951Y-56626530D01*
X119284953Y-56626532D01*
X119310398Y-56647414D01*
X119385941Y-56709411D01*
X119539687Y-56791589D01*
X119706510Y-56842195D01*
X119836523Y-56855000D01*
X119836533Y-56855000D01*
X119879999Y-56859281D01*
X119923465Y-56855000D01*
X145971546Y-56855000D01*
X146019744Y-56887205D01*
X146207556Y-56965000D01*
X146198061Y-56965000D01*
X145998102Y-57004774D01*
X145809744Y-57082795D01*
X145761546Y-57115000D01*
X117476579Y-57115000D01*
X112908072Y-52546494D01*
X112908072Y-50560000D01*
X112895812Y-50435518D01*
X112859502Y-50315820D01*
X112800537Y-50205506D01*
X112721185Y-50108815D01*
X112624494Y-50029463D01*
X112514180Y-49970498D01*
X112394482Y-49934188D01*
X112270000Y-49921928D01*
X109070000Y-49921928D01*
X108945518Y-49934188D01*
X108825820Y-49970498D01*
X108715506Y-50029463D01*
X108618815Y-50108815D01*
X108539463Y-50205506D01*
X108480498Y-50315820D01*
X108444188Y-50435518D01*
X108431928Y-50560000D01*
X108431928Y-52560000D01*
X108444188Y-52684482D01*
X108480498Y-52804180D01*
X108539463Y-52914494D01*
X108618815Y-53011185D01*
X108715506Y-53090537D01*
X108825820Y-53149502D01*
X108945518Y-53185812D01*
X109070000Y-53198072D01*
X111056494Y-53198072D01*
X116453470Y-58595049D01*
X116481183Y-58628817D01*
X116514951Y-58656530D01*
X116514953Y-58656532D01*
X116563699Y-58696537D01*
X116615941Y-58739411D01*
X116769687Y-58821589D01*
X116936510Y-58872195D01*
X117066523Y-58885000D01*
X117066533Y-58885000D01*
X117109999Y-58889281D01*
X117153465Y-58885000D01*
X145761546Y-58885000D01*
X145809744Y-58917205D01*
X145998102Y-58995226D01*
X146198061Y-59035000D01*
X146401939Y-59035000D01*
X146601898Y-58995226D01*
X146790256Y-58917205D01*
X146959774Y-58803937D01*
X147103937Y-58659774D01*
X147217205Y-58490256D01*
X147295226Y-58301898D01*
X147335000Y-58101939D01*
X147335000Y-57898061D01*
X147295226Y-57698102D01*
X147217205Y-57509744D01*
X147103937Y-57340226D01*
X146959774Y-57196063D01*
X146790256Y-57082795D01*
X146602444Y-57005000D01*
X146611939Y-57005000D01*
X146811898Y-56965226D01*
X147000256Y-56887205D01*
X147169774Y-56773937D01*
X147313937Y-56629774D01*
X147427205Y-56460256D01*
X147505226Y-56271898D01*
X147545000Y-56071939D01*
X147545000Y-55868061D01*
X147505226Y-55668102D01*
X147427205Y-55479744D01*
X147313937Y-55310226D01*
X147169774Y-55166063D01*
X147000256Y-55052795D01*
X146811898Y-54974774D01*
X146611939Y-54935000D01*
X146408061Y-54935000D01*
X146208102Y-54974774D01*
X146019744Y-55052795D01*
X145971546Y-55085000D01*
X120246579Y-55085000D01*
X113221579Y-48060000D01*
X113831928Y-48060000D01*
X113844188Y-48184482D01*
X113880498Y-48304180D01*
X113939463Y-48414494D01*
X114018815Y-48511185D01*
X114115506Y-48590537D01*
X114225820Y-48649502D01*
X114345518Y-48685812D01*
X114470000Y-48698072D01*
X115184250Y-48695000D01*
X115343000Y-48536250D01*
X115343000Y-46587000D01*
X115597000Y-46587000D01*
X115597000Y-48536250D01*
X115755750Y-48695000D01*
X116470000Y-48698072D01*
X116594482Y-48685812D01*
X116714180Y-48649502D01*
X116824494Y-48590537D01*
X116921185Y-48511185D01*
X117000537Y-48414494D01*
X117059502Y-48304180D01*
X117095812Y-48184482D01*
X117108072Y-48060000D01*
X117105000Y-46745750D01*
X116946250Y-46587000D01*
X115597000Y-46587000D01*
X115343000Y-46587000D01*
X113993750Y-46587000D01*
X113835000Y-46745750D01*
X113831928Y-48060000D01*
X113221579Y-48060000D01*
X112916534Y-47754956D01*
X112888817Y-47721183D01*
X112754059Y-47610589D01*
X112600313Y-47528411D01*
X112433490Y-47477805D01*
X112303477Y-47465000D01*
X112303469Y-47465000D01*
X112260000Y-47460719D01*
X112216531Y-47465000D01*
X109143469Y-47465000D01*
X109100000Y-47460719D01*
X109056531Y-47465000D01*
X109056523Y-47465000D01*
X108926510Y-47477805D01*
X108759687Y-47528411D01*
X108612534Y-47607065D01*
X108605941Y-47610589D01*
X108504953Y-47693468D01*
X108504951Y-47693470D01*
X108471183Y-47721183D01*
X108443470Y-47754951D01*
X98793422Y-57405000D01*
X92098072Y-57405000D01*
X92098072Y-57290000D01*
X92085812Y-57165518D01*
X92049502Y-57045820D01*
X91990537Y-56935506D01*
X91911185Y-56838815D01*
X91814494Y-56759463D01*
X91704180Y-56700498D01*
X91584482Y-56664188D01*
X91460000Y-56651928D01*
X88260000Y-56651928D01*
X88135518Y-56664188D01*
X88015820Y-56700498D01*
X87905506Y-56759463D01*
X87808815Y-56838815D01*
X87729463Y-56935506D01*
X87670498Y-57045820D01*
X87634188Y-57165518D01*
X87621928Y-57290000D01*
X35867818Y-57290000D01*
X35940274Y-57241080D01*
X40637656Y-54257029D01*
X45107009Y-51590000D01*
X83421928Y-51590000D01*
X83421928Y-54790000D01*
X83434188Y-54914482D01*
X83470498Y-55034180D01*
X83529463Y-55144494D01*
X83608815Y-55241185D01*
X83705506Y-55320537D01*
X83815820Y-55379502D01*
X83935518Y-55415812D01*
X84060000Y-55428072D01*
X86060000Y-55428072D01*
X86184482Y-55415812D01*
X86304180Y-55379502D01*
X86414494Y-55320537D01*
X86511185Y-55241185D01*
X86590537Y-55144494D01*
X86649502Y-55034180D01*
X86685812Y-54914482D01*
X86698072Y-54790000D01*
X93021928Y-54790000D01*
X93034188Y-54914482D01*
X93070498Y-55034180D01*
X93129463Y-55144494D01*
X93208815Y-55241185D01*
X93305506Y-55320537D01*
X93415820Y-55379502D01*
X93535518Y-55415812D01*
X93660000Y-55428072D01*
X94374250Y-55425000D01*
X94533000Y-55266250D01*
X94533000Y-53317000D01*
X94787000Y-53317000D01*
X94787000Y-55266250D01*
X94945750Y-55425000D01*
X95660000Y-55428072D01*
X95784482Y-55415812D01*
X95904180Y-55379502D01*
X96014494Y-55320537D01*
X96111185Y-55241185D01*
X96190537Y-55144494D01*
X96249502Y-55034180D01*
X96285812Y-54914482D01*
X96298072Y-54790000D01*
X96295000Y-53475750D01*
X96136250Y-53317000D01*
X94787000Y-53317000D01*
X94533000Y-53317000D01*
X93183750Y-53317000D01*
X93025000Y-53475750D01*
X93021928Y-54790000D01*
X86698072Y-54790000D01*
X86698072Y-51590000D01*
X93021928Y-51590000D01*
X93025000Y-52904250D01*
X93183750Y-53063000D01*
X94533000Y-53063000D01*
X94533000Y-51113750D01*
X94787000Y-51113750D01*
X94787000Y-53063000D01*
X96136250Y-53063000D01*
X96295000Y-52904250D01*
X96298072Y-51590000D01*
X96285812Y-51465518D01*
X96249502Y-51345820D01*
X96190537Y-51235506D01*
X96111185Y-51138815D01*
X96014494Y-51059463D01*
X95904180Y-51000498D01*
X95784482Y-50964188D01*
X95660000Y-50951928D01*
X94945750Y-50955000D01*
X94787000Y-51113750D01*
X94533000Y-51113750D01*
X94374250Y-50955000D01*
X93660000Y-50951928D01*
X93535518Y-50964188D01*
X93415820Y-51000498D01*
X93305506Y-51059463D01*
X93208815Y-51138815D01*
X93129463Y-51235506D01*
X93070498Y-51345820D01*
X93034188Y-51465518D01*
X93021928Y-51590000D01*
X86698072Y-51590000D01*
X86685812Y-51465518D01*
X86649502Y-51345820D01*
X86590537Y-51235506D01*
X86511185Y-51138815D01*
X86414494Y-51059463D01*
X86304180Y-51000498D01*
X86184482Y-50964188D01*
X86060000Y-50951928D01*
X84060000Y-50951928D01*
X83935518Y-50964188D01*
X83815820Y-51000498D01*
X83705506Y-51059463D01*
X83608815Y-51138815D01*
X83529463Y-51235506D01*
X83470498Y-51345820D01*
X83434188Y-51465518D01*
X83421928Y-51590000D01*
X45107009Y-51590000D01*
X45416483Y-51405326D01*
X50273100Y-48688152D01*
X52180272Y-47690000D01*
X87621928Y-47690000D01*
X87621928Y-49690000D01*
X87634188Y-49814482D01*
X87670498Y-49934180D01*
X87729463Y-50044494D01*
X87808815Y-50141185D01*
X87905506Y-50220537D01*
X88015820Y-50279502D01*
X88135518Y-50315812D01*
X88260000Y-50328072D01*
X91460000Y-50328072D01*
X91584482Y-50315812D01*
X91704180Y-50279502D01*
X91814494Y-50220537D01*
X91911185Y-50141185D01*
X91990537Y-50044494D01*
X92049502Y-49934180D01*
X92085812Y-49814482D01*
X92098072Y-49690000D01*
X92098072Y-47690000D01*
X92085812Y-47565518D01*
X92049502Y-47445820D01*
X91990537Y-47335506D01*
X91911185Y-47238815D01*
X91814494Y-47159463D01*
X91704180Y-47100498D01*
X91584482Y-47064188D01*
X91460000Y-47051928D01*
X88260000Y-47051928D01*
X88135518Y-47064188D01*
X88015820Y-47100498D01*
X87905506Y-47159463D01*
X87808815Y-47238815D01*
X87729463Y-47335506D01*
X87670498Y-47445820D01*
X87634188Y-47565518D01*
X87621928Y-47690000D01*
X52180272Y-47690000D01*
X55203703Y-46107635D01*
X57758780Y-44860000D01*
X104231928Y-44860000D01*
X104231928Y-48060000D01*
X104244188Y-48184482D01*
X104280498Y-48304180D01*
X104339463Y-48414494D01*
X104418815Y-48511185D01*
X104515506Y-48590537D01*
X104625820Y-48649502D01*
X104745518Y-48685812D01*
X104870000Y-48698072D01*
X106870000Y-48698072D01*
X106994482Y-48685812D01*
X107114180Y-48649502D01*
X107224494Y-48590537D01*
X107321185Y-48511185D01*
X107400537Y-48414494D01*
X107459502Y-48304180D01*
X107495812Y-48184482D01*
X107508072Y-48060000D01*
X107508072Y-44860000D01*
X113831928Y-44860000D01*
X113835000Y-46174250D01*
X113993750Y-46333000D01*
X115343000Y-46333000D01*
X115343000Y-44383750D01*
X115597000Y-44383750D01*
X115597000Y-46333000D01*
X116946250Y-46333000D01*
X117105000Y-46174250D01*
X117108072Y-44860000D01*
X117095812Y-44735518D01*
X117059502Y-44615820D01*
X117000537Y-44505506D01*
X116921185Y-44408815D01*
X116824494Y-44329463D01*
X116714180Y-44270498D01*
X116594482Y-44234188D01*
X116470000Y-44221928D01*
X115755750Y-44225000D01*
X115597000Y-44383750D01*
X115343000Y-44383750D01*
X115184250Y-44225000D01*
X114470000Y-44221928D01*
X114345518Y-44234188D01*
X114225820Y-44270498D01*
X114115506Y-44329463D01*
X114018815Y-44408815D01*
X113939463Y-44505506D01*
X113880498Y-44615820D01*
X113844188Y-44735518D01*
X113831928Y-44860000D01*
X107508072Y-44860000D01*
X107495812Y-44735518D01*
X107459502Y-44615820D01*
X107400537Y-44505506D01*
X107321185Y-44408815D01*
X107224494Y-44329463D01*
X107114180Y-44270498D01*
X106994482Y-44234188D01*
X106870000Y-44221928D01*
X104870000Y-44221928D01*
X104745518Y-44234188D01*
X104625820Y-44270498D01*
X104515506Y-44329463D01*
X104418815Y-44408815D01*
X104339463Y-44505506D01*
X104280498Y-44615820D01*
X104244188Y-44735518D01*
X104231928Y-44860000D01*
X57758780Y-44860000D01*
X60204391Y-43665817D01*
X65271347Y-41364561D01*
X66232534Y-40960000D01*
X108431928Y-40960000D01*
X108431928Y-42960000D01*
X108444188Y-43084482D01*
X108480498Y-43204180D01*
X108539463Y-43314494D01*
X108618815Y-43411185D01*
X108715506Y-43490537D01*
X108825820Y-43549502D01*
X108945518Y-43585812D01*
X109070000Y-43598072D01*
X112270000Y-43598072D01*
X112394482Y-43585812D01*
X112514180Y-43549502D01*
X112624494Y-43490537D01*
X112721185Y-43411185D01*
X112800537Y-43314494D01*
X112859502Y-43204180D01*
X112895812Y-43084482D01*
X112908072Y-42960000D01*
X112908072Y-40960000D01*
X112895812Y-40835518D01*
X112859502Y-40715820D01*
X112800537Y-40605506D01*
X112721185Y-40508815D01*
X112624494Y-40429463D01*
X112514180Y-40370498D01*
X112394482Y-40334188D01*
X112270000Y-40321928D01*
X109070000Y-40321928D01*
X108945518Y-40334188D01*
X108825820Y-40370498D01*
X108715506Y-40429463D01*
X108618815Y-40508815D01*
X108539463Y-40605506D01*
X108480498Y-40715820D01*
X108444188Y-40835518D01*
X108431928Y-40960000D01*
X66232534Y-40960000D01*
X70400584Y-39205680D01*
X75588092Y-37190860D01*
X80829815Y-35321676D01*
X86121672Y-33599583D01*
X89766663Y-32525000D01*
X151796928Y-32525000D01*
X151796928Y-33775000D01*
X151809188Y-33899482D01*
X151845498Y-34019180D01*
X151904463Y-34129494D01*
X151983815Y-34226185D01*
X152080506Y-34305537D01*
X152190820Y-34364502D01*
X152310518Y-34400812D01*
X152435000Y-34413072D01*
X153685000Y-34413072D01*
X153809482Y-34400812D01*
X153929180Y-34364502D01*
X154039494Y-34305537D01*
X154136185Y-34226185D01*
X154215537Y-34129494D01*
X154274502Y-34019180D01*
X154310812Y-33899482D01*
X154323072Y-33775000D01*
X154323072Y-32525000D01*
X154336928Y-32525000D01*
X154336928Y-33775000D01*
X154349188Y-33899482D01*
X154385498Y-34019180D01*
X154444463Y-34129494D01*
X154523815Y-34226185D01*
X154620506Y-34305537D01*
X154730820Y-34364502D01*
X154850518Y-34400812D01*
X154975000Y-34413072D01*
X156225000Y-34413072D01*
X156349482Y-34400812D01*
X156469180Y-34364502D01*
X156579494Y-34305537D01*
X156676185Y-34226185D01*
X156755537Y-34129494D01*
X156814502Y-34019180D01*
X156850812Y-33899482D01*
X156863072Y-33775000D01*
X156863072Y-32525000D01*
X156876928Y-32525000D01*
X156876928Y-33775000D01*
X156889188Y-33899482D01*
X156925498Y-34019180D01*
X156984463Y-34129494D01*
X157063815Y-34226185D01*
X157160506Y-34305537D01*
X157270820Y-34364502D01*
X157390518Y-34400812D01*
X157515000Y-34413072D01*
X158765000Y-34413072D01*
X158889482Y-34400812D01*
X159009180Y-34364502D01*
X159119494Y-34305537D01*
X159216185Y-34226185D01*
X159295537Y-34129494D01*
X159354502Y-34019180D01*
X159390812Y-33899482D01*
X159403072Y-33775000D01*
X159403072Y-32525000D01*
X159390812Y-32400518D01*
X159354502Y-32280820D01*
X159295537Y-32170506D01*
X159216185Y-32073815D01*
X159119494Y-31994463D01*
X159009180Y-31935498D01*
X158889482Y-31899188D01*
X158765000Y-31886928D01*
X157515000Y-31886928D01*
X157390518Y-31899188D01*
X157270820Y-31935498D01*
X157160506Y-31994463D01*
X157063815Y-32073815D01*
X156984463Y-32170506D01*
X156925498Y-32280820D01*
X156889188Y-32400518D01*
X156876928Y-32525000D01*
X156863072Y-32525000D01*
X156850812Y-32400518D01*
X156814502Y-32280820D01*
X156755537Y-32170506D01*
X156676185Y-32073815D01*
X156579494Y-31994463D01*
X156469180Y-31935498D01*
X156349482Y-31899188D01*
X156225000Y-31886928D01*
X154975000Y-31886928D01*
X154850518Y-31899188D01*
X154730820Y-31935498D01*
X154620506Y-31994463D01*
X154523815Y-32073815D01*
X154444463Y-32170506D01*
X154385498Y-32280820D01*
X154349188Y-32400518D01*
X154336928Y-32525000D01*
X154323072Y-32525000D01*
X154310812Y-32400518D01*
X154274502Y-32280820D01*
X154215537Y-32170506D01*
X154136185Y-32073815D01*
X154039494Y-31994463D01*
X153929180Y-31935498D01*
X153809482Y-31899188D01*
X153685000Y-31886928D01*
X152435000Y-31886928D01*
X152310518Y-31899188D01*
X152190820Y-31935498D01*
X152080506Y-31994463D01*
X151983815Y-32073815D01*
X151904463Y-32170506D01*
X151845498Y-32280820D01*
X151809188Y-32400518D01*
X151796928Y-32525000D01*
X89766663Y-32525000D01*
X91459624Y-32025897D01*
X96839376Y-30601884D01*
X102256809Y-29328633D01*
X107707662Y-28207147D01*
X113187715Y-27238292D01*
X118692697Y-26422826D01*
X124218262Y-25761390D01*
X129760196Y-25254490D01*
X135314114Y-24902528D01*
X140875665Y-24705778D01*
X146440531Y-24664393D01*
X152004423Y-24778406D01*
G37*
%TD.AperFunction*%
%TD*%
M02*
